G04 #@! TF.GenerationSoftware,KiCad,Pcbnew,8.0.5*
G04 #@! TF.CreationDate,2024-10-07T10:05:32-05:00*
G04 #@! TF.ProjectId,DRV8323_BreakoutBoard,44525638-3332-4335-9f42-7265616b6f75,rev?*
G04 #@! TF.SameCoordinates,Original*
G04 #@! TF.FileFunction,Soldermask,Top*
G04 #@! TF.FilePolarity,Negative*
%FSLAX46Y46*%
G04 Gerber Fmt 4.6, Leading zero omitted, Abs format (unit mm)*
G04 Created by KiCad (PCBNEW 8.0.5) date 2024-10-07 10:05:32*
%MOMM*%
%LPD*%
G01*
G04 APERTURE LIST*
G04 Aperture macros list*
%AMRoundRect*
0 Rectangle with rounded corners*
0 $1 Rounding radius*
0 $2 $3 $4 $5 $6 $7 $8 $9 X,Y pos of 4 corners*
0 Add a 4 corners polygon primitive as box body*
4,1,4,$2,$3,$4,$5,$6,$7,$8,$9,$2,$3,0*
0 Add four circle primitives for the rounded corners*
1,1,$1+$1,$2,$3*
1,1,$1+$1,$4,$5*
1,1,$1+$1,$6,$7*
1,1,$1+$1,$8,$9*
0 Add four rect primitives between the rounded corners*
20,1,$1+$1,$2,$3,$4,$5,0*
20,1,$1+$1,$4,$5,$6,$7,0*
20,1,$1+$1,$6,$7,$8,$9,0*
20,1,$1+$1,$8,$9,$2,$3,0*%
%AMFreePoly0*
4,1,17,1.371000,0.720000,0.950000,0.720000,0.950000,0.580000,1.370000,0.580000,1.370000,0.080000,0.950000,0.080000,0.950000,-0.080000,1.370000,-0.080000,1.370000,-0.580000,0.950000,-0.580000,0.950000,-0.720000,1.370000,-0.720000,1.370000,-1.225000,-0.950000,-1.225000,-0.950000,1.225000,1.371000,1.225000,1.371000,0.720000,1.371000,0.720000,$1*%
%AMFreePoly1*
4,1,19,0.500000,-0.750000,0.000000,-0.750000,0.000000,-0.744911,-0.071157,-0.744911,-0.207708,-0.704816,-0.327430,-0.627875,-0.420627,-0.520320,-0.479746,-0.390866,-0.500000,-0.250000,-0.500000,0.250000,-0.479746,0.390866,-0.420627,0.520320,-0.327430,0.627875,-0.207708,0.704816,-0.071157,0.744911,0.000000,0.744911,0.000000,0.750000,0.500000,0.750000,0.500000,-0.750000,0.500000,-0.750000,
$1*%
%AMFreePoly2*
4,1,19,0.000000,0.744911,0.071157,0.744911,0.207708,0.704816,0.327430,0.627875,0.420627,0.520320,0.479746,0.390866,0.500000,0.250000,0.500000,-0.250000,0.479746,-0.390866,0.420627,-0.520320,0.327430,-0.627875,0.207708,-0.704816,0.071157,-0.744911,0.000000,-0.744911,0.000000,-0.750000,-0.500000,-0.750000,-0.500000,0.750000,0.000000,0.750000,0.000000,0.744911,0.000000,0.744911,
$1*%
G04 Aperture macros list end*
%ADD10RoundRect,0.135000X-0.135000X-0.185000X0.135000X-0.185000X0.135000X0.185000X-0.135000X0.185000X0*%
%ADD11RoundRect,0.250000X0.250000X0.475000X-0.250000X0.475000X-0.250000X-0.475000X0.250000X-0.475000X0*%
%ADD12RoundRect,0.250000X1.450000X-0.250000X1.450000X0.250000X-1.450000X0.250000X-1.450000X-0.250000X0*%
%ADD13C,5.600000*%
%ADD14R,1.700000X1.700000*%
%ADD15O,1.700000X1.700000*%
%ADD16RoundRect,0.140000X0.170000X-0.140000X0.170000X0.140000X-0.170000X0.140000X-0.170000X-0.140000X0*%
%ADD17RoundRect,0.125000X-0.125000X0.190000X-0.125000X-0.190000X0.125000X-0.190000X0.125000X0.190000X0*%
%ADD18FreePoly0,270.000000*%
%ADD19O,0.599999X0.230000*%
%ADD20O,0.230000X0.599999*%
%ADD21R,4.150000X4.150000*%
%ADD22RoundRect,0.225000X-0.225000X-0.250000X0.225000X-0.250000X0.225000X0.250000X-0.225000X0.250000X0*%
%ADD23RoundRect,0.250002X-1.699998X-1.699998X1.699998X-1.699998X1.699998X1.699998X-1.699998X1.699998X0*%
%ADD24RoundRect,0.125000X0.125000X-0.190000X0.125000X0.190000X-0.125000X0.190000X-0.125000X-0.190000X0*%
%ADD25FreePoly0,90.000000*%
%ADD26RoundRect,1.500000X-1.500000X-1.500000X1.500000X-1.500000X1.500000X1.500000X-1.500000X1.500000X0*%
%ADD27C,6.000000*%
%ADD28RoundRect,0.140000X-0.140000X-0.170000X0.140000X-0.170000X0.140000X0.170000X-0.140000X0.170000X0*%
%ADD29FreePoly1,0.000000*%
%ADD30FreePoly2,0.000000*%
%ADD31RoundRect,0.225000X-0.250000X0.225000X-0.250000X-0.225000X0.250000X-0.225000X0.250000X0.225000X0*%
%ADD32RoundRect,0.225000X0.225000X0.250000X-0.225000X0.250000X-0.225000X-0.250000X0.225000X-0.250000X0*%
G04 APERTURE END LIST*
D10*
X73090000Y-59500000D03*
X74110000Y-59500000D03*
X70540000Y-59500000D03*
X71560000Y-59500000D03*
D11*
X75750000Y-67800000D03*
X73850000Y-67800000D03*
D12*
X56500001Y-85750000D03*
X56499999Y-84250000D03*
D13*
X84000000Y-55500000D03*
D14*
X78149998Y-57189998D03*
D15*
X75609998Y-57189998D03*
X73069998Y-57189999D03*
X70529998Y-57189998D03*
X67989998Y-57189998D03*
X65449998Y-57189998D03*
X62909997Y-57189997D03*
X60369998Y-57189999D03*
X57829999Y-57189999D03*
D14*
X78149998Y-64809999D03*
D15*
X75609998Y-64809999D03*
X73069998Y-64810000D03*
X70529998Y-64809999D03*
X67989998Y-64809999D03*
X65449998Y-64809999D03*
X62909997Y-64809998D03*
X60369998Y-64810000D03*
X57829999Y-64810000D03*
D16*
X74500000Y-70580000D03*
X74500000Y-69620000D03*
D13*
X52000000Y-55500000D03*
D17*
X70080001Y-87150000D03*
X69440001Y-87150000D03*
X68780001Y-87150000D03*
X68140002Y-87150000D03*
D18*
X69110001Y-88975002D03*
D17*
X83080001Y-87150001D03*
X82440001Y-87150000D03*
X81780001Y-87150000D03*
X81140002Y-87150000D03*
D18*
X82110001Y-88975002D03*
D19*
X75600001Y-70749999D03*
X75600001Y-71249998D03*
X75600001Y-71750000D03*
X75600001Y-72249999D03*
X75600001Y-72750000D03*
X75600001Y-73250000D03*
X75600001Y-73749998D03*
X75600001Y-74250000D03*
X75600001Y-74749999D03*
X75600001Y-75250001D03*
D20*
X76249999Y-75899999D03*
X76749998Y-75899999D03*
X77250000Y-75899999D03*
X77749999Y-75899999D03*
X78250000Y-75899999D03*
X78750000Y-75899999D03*
X79249998Y-75899999D03*
X79750000Y-75899999D03*
X80249999Y-75899999D03*
X80750001Y-75899999D03*
D19*
X81399999Y-75250001D03*
X81399999Y-74749999D03*
X81399999Y-74250000D03*
X81399999Y-73749998D03*
X81399999Y-73250000D03*
X81399999Y-72750000D03*
X81399999Y-72249999D03*
X81399999Y-71750000D03*
X81399999Y-71249998D03*
X81399999Y-70749999D03*
D20*
X80750001Y-70100001D03*
X80249999Y-70100001D03*
X79750000Y-70100001D03*
X79249998Y-70100001D03*
X78750000Y-70100001D03*
X78250000Y-70100001D03*
X77749999Y-70100001D03*
X77250000Y-70100001D03*
X76749998Y-70100001D03*
X76249999Y-70100001D03*
D21*
X78500000Y-73000000D03*
D22*
X77225000Y-68125000D03*
X78775000Y-68125000D03*
D23*
X77500000Y-88000000D03*
D12*
X82500001Y-85750000D03*
X82499999Y-84250000D03*
D24*
X76530000Y-84939999D03*
X77170000Y-84940000D03*
X77830000Y-84940000D03*
X78469999Y-84940000D03*
D25*
X77500001Y-83114999D03*
D24*
X63530001Y-84940000D03*
X64170000Y-84940000D03*
X64830000Y-84940000D03*
X65470000Y-84940000D03*
D25*
X64500000Y-83114998D03*
D12*
X69500001Y-85750000D03*
X69499999Y-84250000D03*
D23*
X64500000Y-88000000D03*
D17*
X57080001Y-87150000D03*
X56440001Y-87150000D03*
X55780001Y-87150000D03*
X55140002Y-87150000D03*
D18*
X56110001Y-88975002D03*
D26*
X52525000Y-72625000D03*
D27*
X59725000Y-72625000D03*
D28*
X73120000Y-72400000D03*
X74080000Y-72400000D03*
D29*
X67450000Y-81750000D03*
D30*
X68750000Y-81750000D03*
D24*
X50530001Y-84940000D03*
X51170000Y-84940000D03*
X51830000Y-84940000D03*
X52470000Y-84940000D03*
D25*
X51500000Y-83114998D03*
D29*
X54450000Y-81750000D03*
D30*
X55750000Y-81750000D03*
D31*
X73300000Y-69675000D03*
X73300000Y-71225000D03*
D29*
X80449998Y-81749996D03*
D30*
X81750000Y-81750000D03*
D23*
X51500000Y-88000000D03*
D32*
X82275000Y-68125000D03*
X80725000Y-68125000D03*
M02*
