M48
; DRILL file {KiCad 8.0.5} date 2024-10-07T10:05:35-0500
; FORMAT={-:-/ absolute / metric / decimal}
; #@! TF.CreationDate,2024-10-07T10:05:35-05:00
; #@! TF.GenerationSoftware,Kicad,Pcbnew,8.0.5
; #@! TF.FileFunction,Plated,1,4,PTH
FMAT,2
METRIC
; #@! TA.AperFunction,Plated,PTH,ViaDrill
T1C0.200
; #@! TA.AperFunction,Plated,PTH,ViaDrill
T2C0.300
; #@! TA.AperFunction,Plated,PTH,ComponentDrill
T3C1.000
; #@! TA.AperFunction,Plated,PTH,ComponentDrill
T4C2.500
; #@! TA.AperFunction,Plated,PTH,ComponentDrill
T5C3.200
; #@! TA.AperFunction,Plated,PTH,ComponentDrill
T6C4.500
%
G90
G05
T1
X52.47Y-84.94
X54.25Y-84.0
X55.14Y-87.15
X55.75Y-81.75
X64.5Y-81.0
X65.47Y-84.94
X67.0Y-84.0
X68.14Y-87.15
X68.5Y-81.25
X73.12Y-72.4
X74.75Y-73.25
X74.75Y-74.25
X74.75Y-75.25
X75.0Y-72.75
X75.0Y-73.75
X75.0Y-74.75
X76.25Y-76.5
X76.75Y-69.5
X76.75Y-76.75
X77.25Y-69.25
X77.25Y-76.5
X77.5Y-72.0
X77.5Y-73.0
X77.5Y-74.0
X77.75Y-76.75
X77.75Y-69.5
X78.25Y-69.25
X78.25Y-76.5
X78.47Y-84.94
X78.5Y-72.0
X78.5Y-73.0
X78.5Y-74.0
X78.75Y-69.5
X78.75Y-76.75
X79.25Y-69.25
X79.25Y-76.5
X79.5Y-74.0
X79.75Y-76.75
X80.0Y-84.0
X80.25Y-69.25
X80.25Y-76.5
X80.725Y-68.125
X80.75Y-76.75
X81.14Y-87.15
X81.75Y-81.75
X82.0Y-70.125
X82.0Y-71.25
X82.0Y-72.25
X82.0Y-73.25
X82.0Y-74.25
X82.0Y-75.25
X82.25Y-70.75
X82.25Y-71.75
X82.25Y-72.75
X82.25Y-73.75
X82.25Y-74.75
X82.275Y-68.125
T2
X48.875Y-85.75
X49.0Y-83.0
X49.0Y-83.5
X49.125Y-85.25
X49.5Y-84.0
X49.625Y-85.0
X50.0Y-84.0
X50.5Y-84.0
X51.0Y-84.0
X51.5Y-84.0
X55.0Y-84.0
X55.0Y-84.5
X55.0Y-85.5
X55.0Y-86.0
X55.125Y-90.75
X55.5Y-83.5
X56.0Y-83.5
X56.125Y-90.75
X56.5Y-83.5
X57.0Y-83.5
X57.125Y-90.75
X57.5Y-83.5
X58.0Y-83.5
X58.0Y-85.5
X58.0Y-86.0
X58.5Y-83.5
X58.5Y-87.75
X58.5Y-90.75
X59.0Y-83.5
X59.5Y-83.5
X59.5Y-85.25
X59.5Y-86.5
X59.625Y-87.25
X59.625Y-90.75
X60.0Y-83.5
X60.375Y-85.25
X60.375Y-86.5
X60.5Y-83.5
X60.75Y-87.25
X60.75Y-90.625
X61.0Y-83.5
X61.0Y-84.0
X61.0Y-84.5
X61.25Y-85.25
X61.25Y-86.5
X61.25Y-88.125
X61.25Y-89.75
X61.875Y-85.75
X62.0Y-83.0
X62.0Y-83.5
X62.125Y-85.25
X62.5Y-84.0
X62.625Y-85.0
X63.0Y-84.0
X63.5Y-84.0
X64.0Y-84.0
X64.5Y-84.0
X68.0Y-84.0
X68.0Y-84.5
X68.0Y-85.5
X68.0Y-86.0
X68.125Y-90.75
X68.5Y-83.5
X69.0Y-83.5
X69.125Y-90.75
X69.5Y-83.5
X70.0Y-83.5
X70.125Y-90.75
X70.5Y-83.5
X71.0Y-83.5
X71.0Y-85.5
X71.0Y-86.0
X71.5Y-83.5
X71.5Y-87.75
X71.5Y-90.75
X72.0Y-83.5
X72.5Y-83.5
X72.5Y-85.25
X72.5Y-86.5
X72.625Y-87.25
X72.625Y-90.75
X73.0Y-83.5
X73.375Y-85.25
X73.375Y-86.5
X73.5Y-83.5
X73.75Y-87.25
X73.75Y-90.625
X74.0Y-83.5
X74.0Y-84.0
X74.0Y-84.5
X74.25Y-85.25
X74.25Y-86.5
X74.25Y-88.125
X74.25Y-89.75
X74.875Y-85.75
X75.1Y-83.0
X75.1Y-83.5
X75.125Y-85.25
X75.6Y-84.0
X75.625Y-85.0
X76.1Y-84.0
X76.6Y-84.0
X77.1Y-84.0
X77.6Y-84.0
X81.0Y-84.0
X81.0Y-84.5
X81.0Y-85.5
X81.0Y-86.0
X81.125Y-90.75
X81.5Y-83.5
X82.0Y-83.5
X82.125Y-90.75
X82.5Y-83.5
X83.0Y-83.5
X83.125Y-90.75
X83.5Y-83.5
X84.0Y-83.5
X84.0Y-85.5
X84.0Y-86.0
X84.5Y-83.5
X84.5Y-87.75
X84.5Y-90.75
X85.0Y-83.5
X85.5Y-83.5
X85.5Y-85.25
X85.5Y-86.5
X85.625Y-87.25
X85.625Y-90.75
X86.0Y-83.5
X86.375Y-85.25
X86.375Y-86.5
X86.5Y-83.5
X86.75Y-87.25
X86.75Y-90.625
X87.0Y-83.5
X87.0Y-84.0
X87.0Y-84.5
X87.25Y-85.25
X87.25Y-86.5
X87.25Y-88.125
X87.25Y-89.75
T3
X57.83Y-57.19
X57.83Y-64.81
X60.37Y-57.19
X60.37Y-64.81
X62.91Y-57.19
X62.91Y-64.81
X65.45Y-57.19
X65.45Y-64.81
X67.99Y-57.19
X67.99Y-64.81
X70.53Y-57.19
X70.53Y-64.81
X73.07Y-57.19
X73.07Y-64.81
X75.61Y-57.19
X75.61Y-64.81
X78.15Y-57.19
X78.15Y-64.81
T4
X51.5Y-88.0
X64.5Y-88.0
X77.5Y-88.0
T5
X52.0Y-55.5
X84.0Y-55.5
T6
X52.525Y-72.625
X59.725Y-72.625
M30
