G04 #@! TF.GenerationSoftware,KiCad,Pcbnew,8.0.5*
G04 #@! TF.CreationDate,2024-10-07T10:05:32-05:00*
G04 #@! TF.ProjectId,DRV8323_BreakoutBoard,44525638-3332-4335-9f42-7265616b6f75,rev?*
G04 #@! TF.SameCoordinates,Original*
G04 #@! TF.FileFunction,Paste,Top*
G04 #@! TF.FilePolarity,Positive*
%FSLAX46Y46*%
G04 Gerber Fmt 4.6, Leading zero omitted, Abs format (unit mm)*
G04 Created by KiCad (PCBNEW 8.0.5) date 2024-10-07 10:05:32*
%MOMM*%
%LPD*%
G01*
G04 APERTURE LIST*
G04 Aperture macros list*
%AMRoundRect*
0 Rectangle with rounded corners*
0 $1 Rounding radius*
0 $2 $3 $4 $5 $6 $7 $8 $9 X,Y pos of 4 corners*
0 Add a 4 corners polygon primitive as box body*
4,1,4,$2,$3,$4,$5,$6,$7,$8,$9,$2,$3,0*
0 Add four circle primitives for the rounded corners*
1,1,$1+$1,$2,$3*
1,1,$1+$1,$4,$5*
1,1,$1+$1,$6,$7*
1,1,$1+$1,$8,$9*
0 Add four rect primitives between the rounded corners*
20,1,$1+$1,$2,$3,$4,$5,0*
20,1,$1+$1,$4,$5,$6,$7,0*
20,1,$1+$1,$6,$7,$8,$9,0*
20,1,$1+$1,$8,$9,$2,$3,0*%
G04 Aperture macros list end*
%ADD10C,0.000000*%
%ADD11RoundRect,0.135000X-0.135000X-0.185000X0.135000X-0.185000X0.135000X0.185000X-0.135000X0.185000X0*%
%ADD12RoundRect,0.250000X0.250000X0.475000X-0.250000X0.475000X-0.250000X-0.475000X0.250000X-0.475000X0*%
%ADD13RoundRect,0.250000X1.450000X-0.250000X1.450000X0.250000X-1.450000X0.250000X-1.450000X-0.250000X0*%
%ADD14RoundRect,0.140000X0.170000X-0.140000X0.170000X0.140000X-0.170000X0.140000X-0.170000X-0.140000X0*%
%ADD15R,0.738000X0.570000*%
%ADD16RoundRect,0.125000X-0.125000X0.190000X-0.125000X-0.190000X0.125000X-0.190000X0.125000X0.190000X0*%
%ADD17O,0.599999X0.230000*%
%ADD18O,0.230000X0.599999*%
%ADD19RoundRect,0.225000X-0.225000X-0.250000X0.225000X-0.250000X0.225000X0.250000X-0.225000X0.250000X0*%
%ADD20RoundRect,0.125000X0.125000X-0.190000X0.125000X0.190000X-0.125000X0.190000X-0.125000X-0.190000X0*%
%ADD21RoundRect,0.140000X-0.140000X-0.170000X0.140000X-0.170000X0.140000X0.170000X-0.140000X0.170000X0*%
%ADD22RoundRect,0.225000X-0.250000X0.225000X-0.250000X-0.225000X0.250000X-0.225000X0.250000X0.225000X0*%
%ADD23RoundRect,0.225000X0.225000X0.250000X-0.225000X0.250000X-0.225000X-0.250000X0.225000X-0.250000X0*%
G04 APERTURE END LIST*
D10*
G36*
X77715000Y-72215000D02*
G01*
X76545000Y-72215000D01*
X76545000Y-71045000D01*
X77715000Y-71045000D01*
X77715000Y-72215000D01*
G37*
G36*
X77715000Y-73585000D02*
G01*
X76545000Y-73585000D01*
X76545000Y-72415000D01*
X77715000Y-72415000D01*
X77715000Y-73585000D01*
G37*
G36*
X77715000Y-74955000D02*
G01*
X76545000Y-74955000D01*
X76545000Y-73785000D01*
X77715000Y-73785000D01*
X77715000Y-74955000D01*
G37*
G36*
X79085000Y-72215000D02*
G01*
X77915000Y-72215000D01*
X77915000Y-71045000D01*
X79085000Y-71045000D01*
X79085000Y-72215000D01*
G37*
G36*
X79085000Y-73585000D02*
G01*
X77915000Y-73585000D01*
X77915000Y-72415000D01*
X79085000Y-72415000D01*
X79085000Y-73585000D01*
G37*
G36*
X79085000Y-74955000D02*
G01*
X77915000Y-74955000D01*
X77915000Y-73785000D01*
X79085000Y-73785000D01*
X79085000Y-74955000D01*
G37*
G36*
X80455000Y-72215000D02*
G01*
X79285000Y-72215000D01*
X79285000Y-71045000D01*
X80455000Y-71045000D01*
X80455000Y-72215000D01*
G37*
G36*
X80455000Y-73585000D02*
G01*
X79285000Y-73585000D01*
X79285000Y-72415000D01*
X80455000Y-72415000D01*
X80455000Y-73585000D01*
G37*
G36*
X80455000Y-74955000D02*
G01*
X79285000Y-74955000D01*
X79285000Y-73785000D01*
X80455000Y-73785000D01*
X80455000Y-74955000D01*
G37*
D11*
X73090000Y-59500000D03*
X74110000Y-59500000D03*
X70540000Y-59500000D03*
X71560000Y-59500000D03*
D12*
X75750000Y-67800000D03*
X73850000Y-67800000D03*
D13*
X56500001Y-85750000D03*
X56499999Y-84250000D03*
D14*
X74500000Y-70580000D03*
X74500000Y-69620000D03*
D15*
X69720001Y-88500000D03*
X68500000Y-88500000D03*
X69719999Y-89449999D03*
X68500000Y-89450000D03*
D16*
X70082501Y-90029999D03*
X69440001Y-90030000D03*
X68780001Y-90030000D03*
X68137502Y-90030000D03*
X70080001Y-87150000D03*
X69440001Y-87150000D03*
X68780001Y-87150000D03*
X68140002Y-87150000D03*
D15*
X82720001Y-88500000D03*
X81500000Y-88500000D03*
X82719999Y-89449999D03*
X81500000Y-89450000D03*
D16*
X83082501Y-90029999D03*
X82440001Y-90030000D03*
X81780001Y-90030000D03*
X81137502Y-90030000D03*
X83080001Y-87150001D03*
X82440001Y-87150000D03*
X81780001Y-87150000D03*
X81140002Y-87150000D03*
D17*
X75600001Y-70749999D03*
X75600001Y-71249998D03*
X75600001Y-71750000D03*
X75600001Y-72249999D03*
X75600001Y-72750000D03*
X75600001Y-73250000D03*
X75600001Y-73749998D03*
X75600001Y-74250000D03*
X75600001Y-74749999D03*
X75600001Y-75250001D03*
D18*
X76249999Y-75899999D03*
X76749998Y-75899999D03*
X77250000Y-75899999D03*
X77749999Y-75899999D03*
X78250000Y-75899999D03*
X78750000Y-75899999D03*
X79249998Y-75899999D03*
X79750000Y-75899999D03*
X80249999Y-75899999D03*
X80750001Y-75899999D03*
D17*
X81399999Y-75250001D03*
X81399999Y-74749999D03*
X81399999Y-74250000D03*
X81399999Y-73749998D03*
X81399999Y-73250000D03*
X81399999Y-72750000D03*
X81399999Y-72249999D03*
X81399999Y-71750000D03*
X81399999Y-71249998D03*
X81399999Y-70749999D03*
D18*
X80750001Y-70100001D03*
X80249999Y-70100001D03*
X79750000Y-70100001D03*
X79249998Y-70100001D03*
X78750000Y-70100001D03*
X78250000Y-70100001D03*
X77749999Y-70100001D03*
X77250000Y-70100001D03*
X76749998Y-70100001D03*
X76249999Y-70100001D03*
D19*
X77225000Y-68125000D03*
X78775000Y-68125000D03*
D13*
X82500001Y-85750000D03*
X82499999Y-84250000D03*
D15*
X76890000Y-83590000D03*
X78110001Y-83590000D03*
X76890001Y-82640000D03*
X78110001Y-82640000D03*
D20*
X78472500Y-82060001D03*
X76527501Y-82060000D03*
X77170000Y-82060000D03*
X77830000Y-82060000D03*
X76530000Y-84939999D03*
X77170000Y-84940000D03*
X77830000Y-84940000D03*
X78469999Y-84940000D03*
D15*
X63889999Y-83590000D03*
X65110000Y-83590000D03*
X63890001Y-82640000D03*
X65110000Y-82640000D03*
D20*
X65472500Y-82060001D03*
X63527501Y-82060000D03*
X64170000Y-82060000D03*
X64830000Y-82060000D03*
X63530001Y-84940000D03*
X64170000Y-84940000D03*
X64830000Y-84940000D03*
X65470000Y-84940000D03*
D13*
X69500001Y-85750000D03*
X69499999Y-84250000D03*
D15*
X56720001Y-88500000D03*
X55500000Y-88500000D03*
X56719999Y-89449999D03*
X55500000Y-89450000D03*
D16*
X57082501Y-90029999D03*
X56440001Y-90030000D03*
X55780001Y-90030000D03*
X55137502Y-90030000D03*
X57080001Y-87150000D03*
X56440001Y-87150000D03*
X55780001Y-87150000D03*
X55140002Y-87150000D03*
D21*
X73120000Y-72400000D03*
X74080000Y-72400000D03*
D15*
X50889999Y-83590000D03*
X52110000Y-83590000D03*
X50890001Y-82640000D03*
X52110000Y-82640000D03*
D20*
X52472500Y-82060001D03*
X50527501Y-82060000D03*
X51170000Y-82060000D03*
X51830000Y-82060000D03*
X50530001Y-84940000D03*
X51170000Y-84940000D03*
X51830000Y-84940000D03*
X52470000Y-84940000D03*
D22*
X73300000Y-69675000D03*
X73300000Y-71225000D03*
D23*
X82275000Y-68125000D03*
X80725000Y-68125000D03*
M02*
