G04 #@! TF.GenerationSoftware,KiCad,Pcbnew,8.0.5*
G04 #@! TF.CreationDate,2024-10-07T10:05:32-05:00*
G04 #@! TF.ProjectId,DRV8323_BreakoutBoard,44525638-3332-4335-9f42-7265616b6f75,rev?*
G04 #@! TF.SameCoordinates,Original*
G04 #@! TF.FileFunction,Copper,L1,Top*
G04 #@! TF.FilePolarity,Positive*
%FSLAX46Y46*%
G04 Gerber Fmt 4.6, Leading zero omitted, Abs format (unit mm)*
G04 Created by KiCad (PCBNEW 8.0.5) date 2024-10-07 10:05:32*
%MOMM*%
%LPD*%
G01*
G04 APERTURE LIST*
G04 Aperture macros list*
%AMRoundRect*
0 Rectangle with rounded corners*
0 $1 Rounding radius*
0 $2 $3 $4 $5 $6 $7 $8 $9 X,Y pos of 4 corners*
0 Add a 4 corners polygon primitive as box body*
4,1,4,$2,$3,$4,$5,$6,$7,$8,$9,$2,$3,0*
0 Add four circle primitives for the rounded corners*
1,1,$1+$1,$2,$3*
1,1,$1+$1,$4,$5*
1,1,$1+$1,$6,$7*
1,1,$1+$1,$8,$9*
0 Add four rect primitives between the rounded corners*
20,1,$1+$1,$2,$3,$4,$5,0*
20,1,$1+$1,$4,$5,$6,$7,0*
20,1,$1+$1,$6,$7,$8,$9,0*
20,1,$1+$1,$8,$9,$2,$3,0*%
%AMFreePoly0*
4,1,17,1.371000,0.720000,0.950000,0.720000,0.950000,0.580000,1.370000,0.580000,1.370000,0.080000,0.950000,0.080000,0.950000,-0.080000,1.370000,-0.080000,1.370000,-0.580000,0.950000,-0.580000,0.950000,-0.720000,1.370000,-0.720000,1.370000,-1.225000,-0.950000,-1.225000,-0.950000,1.225000,1.371000,1.225000,1.371000,0.720000,1.371000,0.720000,$1*%
%AMFreePoly1*
4,1,19,0.500000,-0.750000,0.000000,-0.750000,0.000000,-0.744911,-0.071157,-0.744911,-0.207708,-0.704816,-0.327430,-0.627875,-0.420627,-0.520320,-0.479746,-0.390866,-0.500000,-0.250000,-0.500000,0.250000,-0.479746,0.390866,-0.420627,0.520320,-0.327430,0.627875,-0.207708,0.704816,-0.071157,0.744911,0.000000,0.744911,0.000000,0.750000,0.500000,0.750000,0.500000,-0.750000,0.500000,-0.750000,
$1*%
%AMFreePoly2*
4,1,19,0.000000,0.744911,0.071157,0.744911,0.207708,0.704816,0.327430,0.627875,0.420627,0.520320,0.479746,0.390866,0.500000,0.250000,0.500000,-0.250000,0.479746,-0.390866,0.420627,-0.520320,0.327430,-0.627875,0.207708,-0.704816,0.071157,-0.744911,0.000000,-0.744911,0.000000,-0.750000,-0.500000,-0.750000,-0.500000,0.750000,0.000000,0.750000,0.000000,0.744911,0.000000,0.744911,
$1*%
G04 Aperture macros list end*
G04 #@! TA.AperFunction,EtchedComponent*
%ADD10C,0.000000*%
G04 #@! TD*
G04 #@! TA.AperFunction,SMDPad,CuDef*
%ADD11RoundRect,0.135000X-0.135000X-0.185000X0.135000X-0.185000X0.135000X0.185000X-0.135000X0.185000X0*%
G04 #@! TD*
G04 #@! TA.AperFunction,SMDPad,CuDef*
%ADD12RoundRect,0.250000X0.250000X0.475000X-0.250000X0.475000X-0.250000X-0.475000X0.250000X-0.475000X0*%
G04 #@! TD*
G04 #@! TA.AperFunction,SMDPad,CuDef*
%ADD13RoundRect,0.250000X1.450000X-0.250000X1.450000X0.250000X-1.450000X0.250000X-1.450000X-0.250000X0*%
G04 #@! TD*
G04 #@! TA.AperFunction,ComponentPad*
%ADD14C,5.600000*%
G04 #@! TD*
G04 #@! TA.AperFunction,ComponentPad*
%ADD15R,1.700000X1.700000*%
G04 #@! TD*
G04 #@! TA.AperFunction,ComponentPad*
%ADD16O,1.700000X1.700000*%
G04 #@! TD*
G04 #@! TA.AperFunction,SMDPad,CuDef*
%ADD17C,0.160000*%
G04 #@! TD*
G04 #@! TA.AperFunction,SMDPad,CuDef*
%ADD18RoundRect,0.140000X0.170000X-0.140000X0.170000X0.140000X-0.170000X0.140000X-0.170000X-0.140000X0*%
G04 #@! TD*
G04 #@! TA.AperFunction,SMDPad,CuDef*
%ADD19RoundRect,0.125000X-0.125000X0.190000X-0.125000X-0.190000X0.125000X-0.190000X0.125000X0.190000X0*%
G04 #@! TD*
G04 #@! TA.AperFunction,SMDPad,CuDef*
%ADD20FreePoly0,270.000000*%
G04 #@! TD*
G04 #@! TA.AperFunction,SMDPad,CuDef*
%ADD21O,0.599999X0.230000*%
G04 #@! TD*
G04 #@! TA.AperFunction,SMDPad,CuDef*
%ADD22O,0.230000X0.599999*%
G04 #@! TD*
G04 #@! TA.AperFunction,SMDPad,CuDef*
%ADD23R,4.150000X4.150000*%
G04 #@! TD*
G04 #@! TA.AperFunction,SMDPad,CuDef*
%ADD24RoundRect,0.225000X-0.225000X-0.250000X0.225000X-0.250000X0.225000X0.250000X-0.225000X0.250000X0*%
G04 #@! TD*
G04 #@! TA.AperFunction,ComponentPad*
%ADD25RoundRect,0.250002X-1.699998X-1.699998X1.699998X-1.699998X1.699998X1.699998X-1.699998X1.699998X0*%
G04 #@! TD*
G04 #@! TA.AperFunction,SMDPad,CuDef*
%ADD26RoundRect,0.125000X0.125000X-0.190000X0.125000X0.190000X-0.125000X0.190000X-0.125000X-0.190000X0*%
G04 #@! TD*
G04 #@! TA.AperFunction,SMDPad,CuDef*
%ADD27FreePoly0,90.000000*%
G04 #@! TD*
G04 #@! TA.AperFunction,ComponentPad*
%ADD28RoundRect,1.500000X-1.500000X-1.500000X1.500000X-1.500000X1.500000X1.500000X-1.500000X1.500000X0*%
G04 #@! TD*
G04 #@! TA.AperFunction,ComponentPad*
%ADD29C,6.000000*%
G04 #@! TD*
G04 #@! TA.AperFunction,SMDPad,CuDef*
%ADD30RoundRect,0.140000X-0.140000X-0.170000X0.140000X-0.170000X0.140000X0.170000X-0.140000X0.170000X0*%
G04 #@! TD*
G04 #@! TA.AperFunction,SMDPad,CuDef*
%ADD31FreePoly1,0.000000*%
G04 #@! TD*
G04 #@! TA.AperFunction,SMDPad,CuDef*
%ADD32FreePoly2,0.000000*%
G04 #@! TD*
G04 #@! TA.AperFunction,SMDPad,CuDef*
%ADD33RoundRect,0.225000X-0.250000X0.225000X-0.250000X-0.225000X0.250000X-0.225000X0.250000X0.225000X0*%
G04 #@! TD*
G04 #@! TA.AperFunction,SMDPad,CuDef*
%ADD34RoundRect,0.225000X0.225000X0.250000X-0.225000X0.250000X-0.225000X-0.250000X0.225000X-0.250000X0*%
G04 #@! TD*
G04 #@! TA.AperFunction,ViaPad*
%ADD35C,0.350000*%
G04 #@! TD*
G04 #@! TA.AperFunction,ViaPad*
%ADD36C,0.450000*%
G04 #@! TD*
G04 #@! TA.AperFunction,Conductor*
%ADD37C,0.200000*%
G04 #@! TD*
G04 #@! TA.AperFunction,Conductor*
%ADD38C,0.160000*%
G04 #@! TD*
G04 APERTURE END LIST*
D10*
G04 #@! TA.AperFunction,EtchedComponent*
G36*
X80410123Y-84296984D02*
G01*
X80401771Y-84289357D01*
X80360624Y-84278332D01*
X80319478Y-84289357D01*
X80289357Y-84319478D01*
X80278332Y-84360625D01*
X80289357Y-84401771D01*
X80296985Y-84410122D01*
X79943431Y-84056570D01*
X79951783Y-84064197D01*
X79992930Y-84075222D01*
X80034076Y-84064197D01*
X80064197Y-84034076D01*
X80075222Y-83992929D01*
X80064197Y-83951783D01*
X80056569Y-83943432D01*
X80410123Y-84296984D01*
G37*
G04 #@! TD.AperFunction*
G04 #@! TA.AperFunction,EtchedComponent*
G36*
X67410123Y-84296984D02*
G01*
X67401771Y-84289357D01*
X67360624Y-84278332D01*
X67319478Y-84289357D01*
X67289357Y-84319478D01*
X67278332Y-84360625D01*
X67289357Y-84401771D01*
X67296985Y-84410122D01*
X66943431Y-84056570D01*
X66951783Y-84064197D01*
X66992930Y-84075222D01*
X67034076Y-84064197D01*
X67064197Y-84034076D01*
X67075222Y-83992929D01*
X67064197Y-83951783D01*
X67056569Y-83943432D01*
X67410123Y-84296984D01*
G37*
G04 #@! TD.AperFunction*
G04 #@! TA.AperFunction,EtchedComponent*
G36*
X68350000Y-81550000D02*
G01*
X67850000Y-81550000D01*
X67850000Y-81150000D01*
X68350000Y-81150000D01*
X68350000Y-81550000D01*
G37*
G04 #@! TD.AperFunction*
G04 #@! TA.AperFunction,EtchedComponent*
G36*
X68350000Y-82350000D02*
G01*
X67850000Y-82350000D01*
X67850000Y-81950000D01*
X68350000Y-81950000D01*
X68350000Y-82350000D01*
G37*
G04 #@! TD.AperFunction*
G04 #@! TA.AperFunction,EtchedComponent*
G36*
X64580000Y-81500000D02*
G01*
X64579489Y-81488701D01*
X64558190Y-81451810D01*
X64521299Y-81430511D01*
X64478701Y-81430511D01*
X64441810Y-81451810D01*
X64420511Y-81488701D01*
X64420000Y-81500000D01*
X64420000Y-81000000D01*
X64420511Y-81011299D01*
X64441810Y-81048190D01*
X64478701Y-81069489D01*
X64521299Y-81069489D01*
X64558190Y-81048190D01*
X64579489Y-81011299D01*
X64580000Y-81000000D01*
X64580000Y-81500000D01*
G37*
G04 #@! TD.AperFunction*
G04 #@! TA.AperFunction,EtchedComponent*
G36*
X55350000Y-81550000D02*
G01*
X54850000Y-81550000D01*
X54850000Y-81150000D01*
X55350000Y-81150000D01*
X55350000Y-81550000D01*
G37*
G04 #@! TD.AperFunction*
G04 #@! TA.AperFunction,EtchedComponent*
G36*
X55350000Y-82350000D02*
G01*
X54850000Y-82350000D01*
X54850000Y-81950000D01*
X55350000Y-81950000D01*
X55350000Y-82350000D01*
G37*
G04 #@! TD.AperFunction*
G04 #@! TA.AperFunction,EtchedComponent*
G36*
X54660122Y-84296985D02*
G01*
X54651771Y-84289357D01*
X54610625Y-84278332D01*
X54569478Y-84289357D01*
X54539357Y-84319478D01*
X54528332Y-84360625D01*
X54539357Y-84401771D01*
X54546985Y-84410122D01*
X54193432Y-84056569D01*
X54201783Y-84064197D01*
X54242929Y-84075222D01*
X54284076Y-84064197D01*
X54314197Y-84034076D01*
X54325222Y-83992929D01*
X54314197Y-83951783D01*
X54306569Y-83943432D01*
X54660122Y-84296985D01*
G37*
G04 #@! TD.AperFunction*
G04 #@! TA.AperFunction,EtchedComponent*
G36*
X81349999Y-81549998D02*
G01*
X80849998Y-81549999D01*
X80849999Y-81149998D01*
X81349999Y-81149998D01*
X81349999Y-81549998D01*
G37*
G04 #@! TD.AperFunction*
G04 #@! TA.AperFunction,EtchedComponent*
G36*
X81349999Y-82349998D02*
G01*
X80849999Y-82349998D01*
X80849999Y-81949998D01*
X81350000Y-81949997D01*
X81349999Y-82349998D01*
G37*
G04 #@! TD.AperFunction*
D11*
X73090000Y-59500000D03*
X74110000Y-59500000D03*
X70540000Y-59500000D03*
X71560000Y-59500000D03*
D12*
X75750000Y-67800000D03*
X73850000Y-67800000D03*
D13*
X56500001Y-85750000D03*
X56499999Y-84250000D03*
D14*
X84000000Y-55500000D03*
D15*
X78149998Y-57189998D03*
D16*
X75609998Y-57189998D03*
X73069998Y-57189999D03*
X70529998Y-57189998D03*
X67989998Y-57189998D03*
X65449998Y-57189998D03*
X62909997Y-57189997D03*
X60369998Y-57189999D03*
X57829999Y-57189999D03*
D17*
X80000000Y-84000000D03*
X80353554Y-84353554D03*
D15*
X78149998Y-64809999D03*
D16*
X75609998Y-64809999D03*
X73069998Y-64810000D03*
X70529998Y-64809999D03*
X67989998Y-64809999D03*
X65449998Y-64809999D03*
X62909997Y-64809998D03*
X60369998Y-64810000D03*
X57829999Y-64810000D03*
D18*
X74500000Y-70580000D03*
X74500000Y-69620000D03*
D14*
X52000000Y-55500000D03*
D19*
X70080001Y-87150000D03*
X69440001Y-87150000D03*
X68780001Y-87150000D03*
X68140002Y-87150000D03*
D20*
X69110001Y-88975002D03*
D19*
X83080001Y-87150001D03*
X82440001Y-87150000D03*
X81780001Y-87150000D03*
X81140002Y-87150000D03*
D20*
X82110001Y-88975002D03*
D21*
X75600001Y-70749999D03*
X75600001Y-71249998D03*
X75600001Y-71750000D03*
X75600001Y-72249999D03*
X75600001Y-72750000D03*
X75600001Y-73250000D03*
X75600001Y-73749998D03*
X75600001Y-74250000D03*
X75600001Y-74749999D03*
X75600001Y-75250001D03*
D22*
X76249999Y-75899999D03*
X76749998Y-75899999D03*
X77250000Y-75899999D03*
X77749999Y-75899999D03*
X78250000Y-75899999D03*
X78750000Y-75899999D03*
X79249998Y-75899999D03*
X79750000Y-75899999D03*
X80249999Y-75899999D03*
X80750001Y-75899999D03*
D21*
X81399999Y-75250001D03*
X81399999Y-74749999D03*
X81399999Y-74250000D03*
X81399999Y-73749998D03*
X81399999Y-73250000D03*
X81399999Y-72750000D03*
X81399999Y-72249999D03*
X81399999Y-71750000D03*
X81399999Y-71249998D03*
X81399999Y-70749999D03*
D22*
X80750001Y-70100001D03*
X80249999Y-70100001D03*
X79750000Y-70100001D03*
X79249998Y-70100001D03*
X78750000Y-70100001D03*
X78250000Y-70100001D03*
X77749999Y-70100001D03*
X77250000Y-70100001D03*
X76749998Y-70100001D03*
X76249999Y-70100001D03*
D23*
X78500000Y-73000000D03*
D24*
X77225000Y-68125000D03*
X78775000Y-68125000D03*
D25*
X77500000Y-88000000D03*
D13*
X82500001Y-85750000D03*
X82499999Y-84250000D03*
D26*
X76530000Y-84939999D03*
X77170000Y-84940000D03*
X77830000Y-84940000D03*
X78469999Y-84940000D03*
D27*
X77500001Y-83114999D03*
D26*
X63530001Y-84940000D03*
X64170000Y-84940000D03*
X64830000Y-84940000D03*
X65470000Y-84940000D03*
D27*
X64500000Y-83114998D03*
D13*
X69500001Y-85750000D03*
X69499999Y-84250000D03*
D25*
X64500000Y-88000000D03*
D19*
X57080001Y-87150000D03*
X56440001Y-87150000D03*
X55780001Y-87150000D03*
X55140002Y-87150000D03*
D20*
X56110001Y-88975002D03*
D28*
X52525000Y-72625000D03*
D29*
X59725000Y-72625000D03*
D30*
X73120000Y-72400000D03*
X74080000Y-72400000D03*
D17*
X67000000Y-84000000D03*
X67353554Y-84353554D03*
D31*
X67450000Y-81750000D03*
D32*
X68750000Y-81750000D03*
D26*
X50530001Y-84940000D03*
X51170000Y-84940000D03*
X51830000Y-84940000D03*
X52470000Y-84940000D03*
D27*
X51500000Y-83114998D03*
D17*
X64500000Y-81500000D03*
X64500000Y-81000000D03*
D31*
X54450000Y-81750000D03*
D32*
X55750000Y-81750000D03*
D33*
X73300000Y-69675000D03*
X73300000Y-71225000D03*
D17*
X54250000Y-84000000D03*
X54603554Y-84353554D03*
D31*
X80449998Y-81749996D03*
D32*
X81750000Y-81750000D03*
D25*
X51500000Y-88000000D03*
D34*
X82275000Y-68125000D03*
X80725000Y-68125000D03*
D35*
X82250000Y-73750000D03*
X82275000Y-68125000D03*
X75000000Y-73750000D03*
D36*
X59625000Y-87250000D03*
X55125000Y-90750000D03*
X49625000Y-85000000D03*
X49125000Y-85250000D03*
X61250000Y-88125000D03*
X48875000Y-85750000D03*
X59625000Y-90750000D03*
X56125000Y-90750000D03*
X61250000Y-89750000D03*
X60750000Y-87250000D03*
X58500000Y-90750000D03*
X60750000Y-90625000D03*
X57125000Y-90750000D03*
X58500000Y-87750000D03*
X75100000Y-83000000D03*
X77600000Y-84000000D03*
X49000000Y-83000000D03*
X75600000Y-84000000D03*
X62000000Y-83000000D03*
X49500000Y-84000000D03*
X63500000Y-84000000D03*
X76100000Y-84000000D03*
X49000000Y-83500000D03*
X62500000Y-84000000D03*
X63000000Y-84000000D03*
X64000000Y-84000000D03*
X76600000Y-84000000D03*
X50000000Y-84000000D03*
X51000000Y-84000000D03*
X62000000Y-83500000D03*
X51500000Y-84000000D03*
X64500000Y-84000000D03*
X50500000Y-84000000D03*
X75100000Y-83500000D03*
X77100000Y-84000000D03*
X84500000Y-83500000D03*
X82000000Y-83500000D03*
X56000000Y-83500000D03*
X83000000Y-83500000D03*
X68500000Y-83500000D03*
D35*
X78500000Y-74000000D03*
D36*
X82500000Y-83500000D03*
X87000000Y-84500000D03*
X57500000Y-83500000D03*
X56500000Y-83500000D03*
D35*
X77500000Y-74000000D03*
D36*
X68000000Y-84500000D03*
X70000000Y-83500000D03*
X60000000Y-83500000D03*
X74000000Y-84500000D03*
D35*
X77500000Y-72000000D03*
X78500000Y-73000000D03*
D36*
X87000000Y-83500000D03*
X70500000Y-83500000D03*
X59000000Y-83500000D03*
X55500000Y-83500000D03*
X72000000Y-83500000D03*
X86500000Y-83500000D03*
X57000000Y-83500000D03*
X83500000Y-83500000D03*
X69000000Y-83500000D03*
X72500000Y-83500000D03*
D35*
X77500000Y-73000000D03*
D36*
X85000000Y-83500000D03*
X71500000Y-83500000D03*
X61000000Y-83500000D03*
D35*
X78500000Y-72000000D03*
X80249999Y-69250000D03*
D36*
X87000000Y-84000000D03*
X73000000Y-83500000D03*
X69500000Y-83500000D03*
X55000000Y-84500000D03*
X85500000Y-83500000D03*
X86000000Y-83500000D03*
X61000000Y-84000000D03*
X55000000Y-84000000D03*
X74000000Y-84000000D03*
X61000000Y-84500000D03*
X71000000Y-83500000D03*
X60500000Y-83500000D03*
X81500000Y-83500000D03*
X59500000Y-83500000D03*
X81000000Y-84000000D03*
X84000000Y-83500000D03*
D35*
X80725000Y-68125000D03*
D36*
X74000000Y-83500000D03*
X58000000Y-83500000D03*
X81000000Y-84500000D03*
D35*
X73120000Y-72400000D03*
D36*
X73500000Y-83500000D03*
X58500000Y-83500000D03*
D35*
X79500000Y-74000000D03*
D36*
X68000000Y-84000000D03*
X62625000Y-85000000D03*
D35*
X77749999Y-76750000D03*
D36*
X74250000Y-89750000D03*
X74250000Y-88125000D03*
X72625000Y-87250000D03*
X71500000Y-90750000D03*
X68125000Y-90750000D03*
X61875000Y-85750000D03*
X71500000Y-87750000D03*
X62125000Y-85250000D03*
X72625000Y-90750000D03*
X69125000Y-90750000D03*
X73750000Y-90625000D03*
X70125000Y-90750000D03*
X73750000Y-87250000D03*
X83125000Y-90750000D03*
X85625000Y-87250000D03*
X81125000Y-90750000D03*
X74875000Y-85750000D03*
X86750000Y-90625000D03*
X85625000Y-90750000D03*
X86750000Y-87250000D03*
X82125000Y-90750000D03*
D35*
X79250000Y-76500000D03*
D36*
X75125000Y-85250000D03*
X87250000Y-88125000D03*
X75625000Y-85000000D03*
X84500000Y-87750000D03*
X84500000Y-90750000D03*
X87250000Y-89750000D03*
D35*
X82000000Y-74250000D03*
X64500000Y-81000000D03*
X75000000Y-72750000D03*
X52470000Y-84940000D03*
X74750000Y-73250000D03*
X55750000Y-81750000D03*
X75000000Y-74750000D03*
X74750000Y-74250000D03*
X55140002Y-87150000D03*
X78250000Y-76500000D03*
X65470000Y-84940000D03*
X76750000Y-76750000D03*
X68500000Y-81250000D03*
X77250000Y-76500000D03*
X68140002Y-87150000D03*
X78469999Y-84940000D03*
X78750000Y-76750000D03*
X79750000Y-76750000D03*
X81140002Y-87150000D03*
X80250000Y-76500000D03*
X81750000Y-81750000D03*
X82250000Y-72750000D03*
X82000000Y-73250000D03*
X82250000Y-74750000D03*
X79249998Y-69250000D03*
X77750000Y-69500000D03*
X82250000Y-71750000D03*
X82000000Y-75250000D03*
X78250000Y-69250000D03*
X82000000Y-72250000D03*
X82000000Y-70125000D03*
X76750000Y-69500000D03*
X82000000Y-71249998D03*
X77250000Y-69250000D03*
X82250000Y-70750000D03*
X78750000Y-69500000D03*
X74750000Y-75250000D03*
X54250000Y-84000000D03*
X67000000Y-84000000D03*
X76250000Y-76500000D03*
X80000000Y-84000000D03*
X80750001Y-76749999D03*
D36*
X59500000Y-86500000D03*
X59500000Y-85250000D03*
X55000000Y-85500000D03*
X61250000Y-85250000D03*
X60375000Y-86500000D03*
X55000000Y-86000000D03*
X61250000Y-86500000D03*
X58000000Y-86000000D03*
X60375000Y-85250000D03*
X58000000Y-85500000D03*
X73375000Y-85250000D03*
X68000000Y-86000000D03*
X71000000Y-86000000D03*
X74250000Y-85250000D03*
X72500000Y-86500000D03*
X73375000Y-86500000D03*
X72500000Y-85250000D03*
X74250000Y-86500000D03*
X68000000Y-85500000D03*
X71000000Y-85500000D03*
X85500000Y-86500000D03*
X87250000Y-86500000D03*
X86375000Y-86500000D03*
X87250000Y-85250000D03*
X84000000Y-85500000D03*
X86375000Y-85250000D03*
X81000000Y-85500000D03*
X85500000Y-85250000D03*
X84000000Y-86000000D03*
X81000000Y-86000000D03*
D37*
X74110000Y-59500000D02*
X74110000Y-58689996D01*
X74110000Y-58689996D02*
X75609998Y-57189998D01*
X71560000Y-59500000D02*
X72080000Y-60020000D01*
X72080000Y-60020000D02*
X73590000Y-60020000D01*
X73590000Y-60020000D02*
X74110000Y-59500000D01*
X73090000Y-59500000D02*
X73090000Y-57210001D01*
X73090000Y-57210001D02*
X73069998Y-57189999D01*
X70540000Y-59500000D02*
X70540000Y-57200000D01*
X70540000Y-57200000D02*
X70529998Y-57189998D01*
X76249999Y-68750001D02*
X76249999Y-68299999D01*
X76249999Y-68299999D02*
X75750000Y-67800000D01*
X80249999Y-69250000D02*
X80249999Y-71250001D01*
X80249999Y-71250001D02*
X78500000Y-73000000D01*
X74080000Y-72400000D02*
X74230001Y-72249999D01*
X74230001Y-72249999D02*
X75600001Y-72249999D01*
X81399999Y-73749998D02*
X82249998Y-73749998D01*
X82249998Y-73749998D02*
X82250000Y-73750000D01*
X75600001Y-73749998D02*
X75000002Y-73749998D01*
X75000002Y-73749998D02*
X75000000Y-73750000D01*
D38*
X64500000Y-83114998D02*
X64500000Y-81500000D01*
X68000000Y-84500000D02*
X67500000Y-84500000D01*
D37*
X80249999Y-68500001D02*
X80249999Y-69250000D01*
D38*
X67500000Y-84500000D02*
X67353554Y-84353554D01*
D37*
X76249999Y-68750001D02*
X76875000Y-68125000D01*
D38*
X80500000Y-84500000D02*
X80353554Y-84353554D01*
D37*
X76249999Y-70100001D02*
X76249999Y-70749999D01*
D38*
X54603554Y-84353554D02*
X56396445Y-84353554D01*
D37*
X76249999Y-70749999D02*
X78500000Y-73000000D01*
X80249999Y-70100001D02*
X80249999Y-69250000D01*
D38*
X56396445Y-84353554D02*
X56499999Y-84250000D01*
D37*
X76875000Y-68125000D02*
X77225000Y-68125000D01*
X76249999Y-70100001D02*
X76249999Y-68750001D01*
X80625000Y-68125000D02*
X80249999Y-68500001D01*
D38*
X81000000Y-84500000D02*
X80500000Y-84500000D01*
D37*
X80725000Y-68125000D02*
X80625000Y-68125000D01*
D38*
X81750000Y-84250000D02*
X82499999Y-84250000D01*
D37*
X77749999Y-75899999D02*
X77749999Y-76750000D01*
X77749999Y-76750000D02*
X77749999Y-76749999D01*
X79249998Y-75899999D02*
X79249998Y-76499998D01*
X79249998Y-76499998D02*
X79250000Y-76500000D01*
X79225000Y-68125000D02*
X78775000Y-68125000D01*
X79750000Y-68650000D02*
X79225000Y-68125000D01*
X79750000Y-70100001D02*
X79750000Y-68650000D01*
X75600001Y-70720001D02*
X74500000Y-69620000D01*
X75600001Y-70749999D02*
X75600001Y-70720001D01*
X75181818Y-71249998D02*
X74511820Y-70580000D01*
X75600001Y-71249998D02*
X75181818Y-71249998D01*
X74511820Y-70580000D02*
X74500000Y-70580000D01*
X82000000Y-74250000D02*
X81399999Y-74250000D01*
X75600001Y-72750000D02*
X75000000Y-72750000D01*
X75600001Y-73250000D02*
X74750000Y-73250000D01*
X75600000Y-74750000D02*
X75600001Y-74749999D01*
X75000000Y-74750000D02*
X75600000Y-74750000D01*
X75600001Y-74250000D02*
X74750000Y-74250000D01*
X78250000Y-75899999D02*
X78250000Y-76500000D01*
X76750000Y-75900001D02*
X76749998Y-75899999D01*
X76750000Y-76750000D02*
X76750000Y-75900001D01*
X77250000Y-75899999D02*
X77250000Y-76500000D01*
X78750000Y-76750000D02*
X78750000Y-75899999D01*
X79750000Y-76750000D02*
X79750000Y-75899999D01*
X80249999Y-76499999D02*
X80250000Y-76500000D01*
X80249999Y-75899999D02*
X80249999Y-76499999D01*
X81399999Y-72750000D02*
X82250000Y-72750000D01*
X81399999Y-73250000D02*
X82000000Y-73250000D01*
X81399999Y-74749999D02*
X82249999Y-74749999D01*
X82249999Y-74749999D02*
X82250000Y-74750000D01*
X79249998Y-69250000D02*
X79249998Y-69250002D01*
X79249998Y-70100001D02*
X79249998Y-69250000D01*
X77749999Y-69500001D02*
X77750000Y-69500000D01*
X77749999Y-70100001D02*
X77749999Y-69500001D01*
X81399999Y-71750000D02*
X82250000Y-71750000D01*
X82000000Y-75250000D02*
X81400000Y-75250000D01*
X81400000Y-75250000D02*
X81399999Y-75250001D01*
X78250000Y-70100001D02*
X78250000Y-69250000D01*
X81399999Y-72249999D02*
X81999999Y-72249999D01*
X81999999Y-72249999D02*
X82000000Y-72250000D01*
X82000000Y-70125000D02*
X81975001Y-70100001D01*
X81975001Y-70100001D02*
X80750001Y-70100001D01*
X76749998Y-70100001D02*
X76749998Y-69500002D01*
X76749998Y-69500002D02*
X76750000Y-69500000D01*
X82000000Y-71249998D02*
X81999998Y-71249998D01*
X81399999Y-71249998D02*
X82000000Y-71249998D01*
X77250000Y-70100001D02*
X77250000Y-69250000D01*
X81399999Y-70749999D02*
X82249999Y-70749999D01*
X82249999Y-70749999D02*
X82250000Y-70750000D01*
X78750000Y-70100001D02*
X78750000Y-69500000D01*
X75600001Y-75250001D02*
X74750001Y-75250001D01*
X74750001Y-75250001D02*
X74750000Y-75250000D01*
X76249999Y-76499999D02*
X76250000Y-76500000D01*
X76249999Y-75899999D02*
X76249999Y-76499999D01*
X80750001Y-75899999D02*
X80750001Y-76749999D01*
X53775000Y-82425000D02*
X53775000Y-84275000D01*
X53775000Y-84275000D02*
X55000000Y-85500000D01*
X54450000Y-81750000D02*
X53775000Y-82425000D01*
X66525000Y-82225000D02*
X66525000Y-84275000D01*
X66525000Y-84275000D02*
X67750000Y-85500000D01*
X67750000Y-85500000D02*
X68000000Y-85500000D01*
X67450000Y-81750000D02*
X67000000Y-81750000D01*
X67000000Y-81750000D02*
X66525000Y-82225000D01*
X80828248Y-85500000D02*
X81000000Y-85500000D01*
X79525000Y-84196752D02*
X80828248Y-85500000D01*
X80449998Y-81749996D02*
X79525000Y-82674994D01*
X79525000Y-82674994D02*
X79525000Y-84196752D01*
G04 #@! TA.AperFunction,Conductor*
G36*
X74015677Y-83019685D02*
G01*
X74036319Y-83036319D01*
X74463681Y-83463681D01*
X74497166Y-83525004D01*
X74500000Y-83551362D01*
X74500000Y-84448638D01*
X74480315Y-84515677D01*
X74463681Y-84536319D01*
X74341819Y-84658181D01*
X74280496Y-84691666D01*
X74254138Y-84694500D01*
X74190755Y-84694500D01*
X74186902Y-84694879D01*
X74131174Y-84700366D01*
X74131164Y-84700368D01*
X74131159Y-84700368D01*
X74131158Y-84700369D01*
X74116010Y-84703382D01*
X74083702Y-84709808D01*
X74081579Y-84710340D01*
X74067651Y-84712991D01*
X74016185Y-84719767D01*
X73983815Y-84719767D01*
X73932351Y-84712992D01*
X73918416Y-84710339D01*
X73916313Y-84709812D01*
X73901552Y-84706876D01*
X73868843Y-84700370D01*
X73868839Y-84700369D01*
X73868831Y-84700368D01*
X73820806Y-84695638D01*
X73809245Y-84694500D01*
X71206249Y-84694500D01*
X71206244Y-84694500D01*
X71149217Y-84699871D01*
X71103711Y-84708519D01*
X71048680Y-84724445D01*
X71020926Y-84735390D01*
X70990230Y-84743149D01*
X70982186Y-84744115D01*
X70967405Y-84745000D01*
X68032598Y-84745000D01*
X68017805Y-84744114D01*
X68009757Y-84743147D01*
X67979060Y-84735388D01*
X67967464Y-84730815D01*
X67951314Y-84724446D01*
X67910688Y-84712688D01*
X67896273Y-84708516D01*
X67861973Y-84701998D01*
X67850787Y-84699872D01*
X67850785Y-84699871D01*
X67850781Y-84699871D01*
X67793752Y-84694500D01*
X67793749Y-84694500D01*
X67674000Y-84694500D01*
X67673991Y-84694500D01*
X67673990Y-84694501D01*
X67609064Y-84701481D01*
X67609057Y-84701482D01*
X67600325Y-84703382D01*
X67530633Y-84698396D01*
X67486288Y-84669896D01*
X67333484Y-84517092D01*
X67299999Y-84455769D01*
X67304983Y-84386077D01*
X67327447Y-84348214D01*
X67404130Y-84259718D01*
X67460931Y-84135342D01*
X67480390Y-84000000D01*
X67460931Y-83864658D01*
X67448677Y-83837827D01*
X67404132Y-83740285D01*
X67404127Y-83740278D01*
X67314590Y-83636946D01*
X67314586Y-83636942D01*
X67242670Y-83590726D01*
X67199561Y-83563022D01*
X67197104Y-83562300D01*
X67194948Y-83560914D01*
X67191489Y-83559335D01*
X67191716Y-83558837D01*
X67138326Y-83524527D01*
X67109300Y-83460972D01*
X67119243Y-83391813D01*
X67144354Y-83355645D01*
X67463681Y-83036319D01*
X67525004Y-83002834D01*
X67551362Y-83000000D01*
X73948638Y-83000000D01*
X74015677Y-83019685D01*
G37*
G04 #@! TD.AperFunction*
G04 #@! TA.AperFunction,Conductor*
G36*
X61015677Y-83019685D02*
G01*
X61036319Y-83036319D01*
X61435647Y-83435647D01*
X61469132Y-83496970D01*
X61470905Y-83507142D01*
X61478262Y-83563021D01*
X61487994Y-83636942D01*
X61488026Y-83637181D01*
X61488026Y-83637182D01*
X61490561Y-83643302D01*
X61500000Y-83690755D01*
X61500000Y-84448638D01*
X61480315Y-84515677D01*
X61463681Y-84536319D01*
X61341819Y-84658181D01*
X61280496Y-84691666D01*
X61254138Y-84694500D01*
X61190755Y-84694500D01*
X61186902Y-84694879D01*
X61131174Y-84700366D01*
X61131164Y-84700368D01*
X61131159Y-84700368D01*
X61131158Y-84700369D01*
X61098443Y-84706876D01*
X61083702Y-84709808D01*
X61081579Y-84710340D01*
X61067651Y-84712991D01*
X61016185Y-84719767D01*
X60983815Y-84719767D01*
X60932351Y-84712992D01*
X60918416Y-84710339D01*
X60916313Y-84709812D01*
X60901552Y-84706876D01*
X60868843Y-84700370D01*
X60868839Y-84700369D01*
X60868831Y-84700368D01*
X60820806Y-84695638D01*
X60809245Y-84694500D01*
X58206249Y-84694500D01*
X58206244Y-84694500D01*
X58149217Y-84699871D01*
X58103711Y-84708519D01*
X58048680Y-84724445D01*
X58020926Y-84735390D01*
X57990230Y-84743149D01*
X57982186Y-84744115D01*
X57967405Y-84745000D01*
X55032598Y-84745000D01*
X55017805Y-84744114D01*
X55009757Y-84743147D01*
X54979060Y-84735388D01*
X54974163Y-84733457D01*
X54951314Y-84724446D01*
X54911735Y-84712991D01*
X54896273Y-84708516D01*
X54850772Y-84699869D01*
X54801942Y-84695270D01*
X54737044Y-84669386D01*
X54725890Y-84659498D01*
X54583484Y-84517092D01*
X54549999Y-84455769D01*
X54554983Y-84386077D01*
X54577447Y-84348214D01*
X54654130Y-84259718D01*
X54710931Y-84135342D01*
X54730390Y-84000000D01*
X54710931Y-83864658D01*
X54665427Y-83765018D01*
X54654132Y-83740285D01*
X54654127Y-83740278D01*
X54564590Y-83636946D01*
X54564586Y-83636942D01*
X54449559Y-83563021D01*
X54318368Y-83524500D01*
X54318367Y-83524500D01*
X54299500Y-83524500D01*
X54232461Y-83504815D01*
X54186706Y-83452011D01*
X54175500Y-83400500D01*
X54175500Y-83375862D01*
X54195185Y-83308823D01*
X54211819Y-83288181D01*
X54463681Y-83036319D01*
X54525004Y-83002834D01*
X54551362Y-83000000D01*
X60948638Y-83000000D01*
X61015677Y-83019685D01*
G37*
G04 #@! TD.AperFunction*
G04 #@! TA.AperFunction,Conductor*
G36*
X87015677Y-83019685D02*
G01*
X87036319Y-83036319D01*
X87463681Y-83463681D01*
X87497166Y-83525004D01*
X87500000Y-83551362D01*
X87500000Y-84448638D01*
X87480315Y-84515677D01*
X87463681Y-84536319D01*
X87341819Y-84658181D01*
X87280496Y-84691666D01*
X87254138Y-84694500D01*
X87190755Y-84694500D01*
X87186902Y-84694879D01*
X87131174Y-84700366D01*
X87131164Y-84700368D01*
X87131159Y-84700368D01*
X87131158Y-84700369D01*
X87098443Y-84706876D01*
X87083702Y-84709808D01*
X87081579Y-84710340D01*
X87067651Y-84712991D01*
X87016185Y-84719767D01*
X86983815Y-84719767D01*
X86932351Y-84712992D01*
X86918416Y-84710339D01*
X86916313Y-84709812D01*
X86901552Y-84706876D01*
X86868843Y-84700370D01*
X86868839Y-84700369D01*
X86868831Y-84700368D01*
X86820806Y-84695638D01*
X86809245Y-84694500D01*
X84206249Y-84694500D01*
X84206244Y-84694500D01*
X84149217Y-84699871D01*
X84103711Y-84708519D01*
X84048680Y-84724445D01*
X84020926Y-84735390D01*
X83990230Y-84743149D01*
X83982186Y-84744115D01*
X83967405Y-84745000D01*
X81032598Y-84745000D01*
X81017805Y-84744114D01*
X81009757Y-84743147D01*
X80979060Y-84735388D01*
X80967464Y-84730815D01*
X80951314Y-84724446D01*
X80911735Y-84712991D01*
X80896273Y-84708516D01*
X80861973Y-84701998D01*
X80850787Y-84699872D01*
X80850785Y-84699871D01*
X80850781Y-84699871D01*
X80793752Y-84694500D01*
X80793749Y-84694500D01*
X80674000Y-84694500D01*
X80673993Y-84694500D01*
X80656358Y-84696396D01*
X80587599Y-84683987D01*
X80555428Y-84660787D01*
X80369810Y-84475169D01*
X80336325Y-84413846D01*
X80341309Y-84344154D01*
X80363775Y-84306290D01*
X80404130Y-84259718D01*
X80460931Y-84135342D01*
X80480390Y-84000000D01*
X80460931Y-83864658D01*
X80429691Y-83796252D01*
X80404132Y-83740285D01*
X80404127Y-83740278D01*
X80314590Y-83636946D01*
X80314586Y-83636942D01*
X80242670Y-83590726D01*
X80199561Y-83563022D01*
X80197104Y-83562300D01*
X80194948Y-83560914D01*
X80191489Y-83559335D01*
X80191716Y-83558837D01*
X80138326Y-83524527D01*
X80109300Y-83460972D01*
X80119243Y-83391813D01*
X80144354Y-83355645D01*
X80463681Y-83036319D01*
X80525004Y-83002834D01*
X80551362Y-83000000D01*
X86948638Y-83000000D01*
X87015677Y-83019685D01*
G37*
G04 #@! TD.AperFunction*
G04 #@! TA.AperFunction,Conductor*
G36*
X86004418Y-51800816D02*
G01*
X86233020Y-51817165D01*
X86250529Y-51819683D01*
X86470144Y-51867458D01*
X86487103Y-51872437D01*
X86697694Y-51950983D01*
X86713777Y-51958327D01*
X86911036Y-52066040D01*
X86925919Y-52075605D01*
X87105836Y-52210289D01*
X87119207Y-52221875D01*
X87278124Y-52380792D01*
X87289710Y-52394163D01*
X87424394Y-52574080D01*
X87433959Y-52588963D01*
X87541669Y-52786217D01*
X87549019Y-52802311D01*
X87627559Y-53012887D01*
X87632543Y-53029862D01*
X87680316Y-53249470D01*
X87682834Y-53266982D01*
X87699184Y-53495581D01*
X87699500Y-53504427D01*
X87699500Y-82968096D01*
X87679815Y-83035135D01*
X87627011Y-83080890D01*
X87557853Y-83090834D01*
X87494297Y-83061809D01*
X87487819Y-83055777D01*
X87252353Y-82820311D01*
X87252340Y-82820298D01*
X87228008Y-82798442D01*
X87219290Y-82791417D01*
X87207325Y-82781775D01*
X87201827Y-82777448D01*
X87201825Y-82777447D01*
X87101747Y-82726560D01*
X87034716Y-82706877D01*
X87034710Y-82706876D01*
X86948638Y-82694500D01*
X86948635Y-82694500D01*
X82485564Y-82694500D01*
X82418525Y-82674815D01*
X82372770Y-82622011D01*
X82362826Y-82552853D01*
X82391850Y-82489299D01*
X82405826Y-82473168D01*
X82405835Y-82473158D01*
X82452844Y-82400010D01*
X82452846Y-82400005D01*
X82452850Y-82399998D01*
X82512569Y-82269231D01*
X82512572Y-82269225D01*
X82537070Y-82185793D01*
X82557532Y-82043478D01*
X82557533Y-81956524D01*
X82557044Y-81953124D01*
X82556762Y-81951160D01*
X82555500Y-81933516D01*
X82555500Y-81566484D01*
X82556762Y-81548838D01*
X82556763Y-81548834D01*
X82557533Y-81543476D01*
X82557532Y-81456522D01*
X82537070Y-81314207D01*
X82512572Y-81230775D01*
X82512567Y-81230764D01*
X82452850Y-81100001D01*
X82452841Y-81099984D01*
X82424638Y-81056101D01*
X82405835Y-81026842D01*
X82405831Y-81026837D01*
X82405826Y-81026830D01*
X82311679Y-80918178D01*
X82311676Y-80918176D01*
X82245969Y-80861241D01*
X82245962Y-80861235D01*
X82125014Y-80783506D01*
X82125008Y-80783503D01*
X82082034Y-80763877D01*
X82045913Y-80747382D01*
X81988566Y-80730543D01*
X81907956Y-80706874D01*
X81830951Y-80695803D01*
X81821889Y-80694500D01*
X81250000Y-80694500D01*
X81247130Y-80694632D01*
X81221816Y-80695802D01*
X81221806Y-80695804D01*
X81139941Y-80719097D01*
X81070074Y-80718510D01*
X81061215Y-80715458D01*
X81060361Y-80715127D01*
X81060357Y-80715126D01*
X80949998Y-80694496D01*
X80378109Y-80694496D01*
X80292041Y-80706870D01*
X80154085Y-80747378D01*
X80074989Y-80783499D01*
X80074983Y-80783502D01*
X79954035Y-80861231D01*
X79954028Y-80861237D01*
X79888321Y-80918172D01*
X79888318Y-80918174D01*
X79794171Y-81026826D01*
X79794160Y-81026842D01*
X79747156Y-81099980D01*
X79747147Y-81099997D01*
X79687428Y-81230764D01*
X79662928Y-81314201D01*
X79662926Y-81314207D01*
X79642466Y-81456518D01*
X79642465Y-81456520D01*
X79642465Y-81543472D01*
X79643236Y-81548834D01*
X79644498Y-81566480D01*
X79644498Y-81933512D01*
X79643236Y-81951160D01*
X79642526Y-81956098D01*
X79613501Y-82019653D01*
X79607469Y-82026131D01*
X79204522Y-82429078D01*
X79204518Y-82429084D01*
X79151792Y-82520406D01*
X79151793Y-82520407D01*
X79124500Y-82622267D01*
X79124500Y-84144025D01*
X79124500Y-84249479D01*
X79129513Y-84268188D01*
X79151793Y-84351341D01*
X79163254Y-84371191D01*
X79204520Y-84442665D01*
X79204522Y-84442667D01*
X79744674Y-84982819D01*
X79778159Y-85044142D01*
X79773175Y-85113834D01*
X79731303Y-85169767D01*
X79665839Y-85194184D01*
X79656993Y-85194500D01*
X79144499Y-85194500D01*
X79077460Y-85174815D01*
X79031705Y-85122011D01*
X79020499Y-85070500D01*
X79020499Y-84716506D01*
X79004719Y-84616878D01*
X79004718Y-84616876D01*
X79004718Y-84616874D01*
X78943527Y-84496780D01*
X78943525Y-84496778D01*
X78943522Y-84496774D01*
X78848224Y-84401476D01*
X78848220Y-84401473D01*
X78848219Y-84401472D01*
X78728125Y-84340281D01*
X78728123Y-84340280D01*
X78728120Y-84340279D01*
X78628492Y-84324500D01*
X78628487Y-84324500D01*
X78311511Y-84324500D01*
X78311506Y-84324500D01*
X78202235Y-84341807D01*
X78201671Y-84338252D01*
X78149835Y-84339713D01*
X78096338Y-84310019D01*
X78061797Y-84277451D01*
X78061794Y-84277449D01*
X78061792Y-84277447D01*
X77961716Y-84226561D01*
X77961715Y-84226560D01*
X77961714Y-84226560D01*
X77894683Y-84206877D01*
X77894677Y-84206876D01*
X77808605Y-84194500D01*
X77790755Y-84194500D01*
X77786902Y-84194879D01*
X77731174Y-84200366D01*
X77731164Y-84200368D01*
X77731159Y-84200368D01*
X77731158Y-84200369D01*
X77698443Y-84206876D01*
X77683702Y-84209808D01*
X77681579Y-84210340D01*
X77667651Y-84212991D01*
X77616185Y-84219767D01*
X77583815Y-84219767D01*
X77532351Y-84212992D01*
X77518416Y-84210339D01*
X77516313Y-84209812D01*
X77516288Y-84209807D01*
X77468843Y-84200370D01*
X77468839Y-84200369D01*
X77468831Y-84200368D01*
X77420806Y-84195638D01*
X77409245Y-84194500D01*
X77290755Y-84194500D01*
X77286902Y-84194879D01*
X77231174Y-84200366D01*
X77231164Y-84200368D01*
X77231159Y-84200368D01*
X77231158Y-84200369D01*
X77198443Y-84206876D01*
X77183702Y-84209808D01*
X77181579Y-84210340D01*
X77167651Y-84212991D01*
X77116185Y-84219767D01*
X77083815Y-84219767D01*
X77032351Y-84212992D01*
X77018416Y-84210339D01*
X77016313Y-84209812D01*
X77016288Y-84209807D01*
X76968843Y-84200370D01*
X76968839Y-84200369D01*
X76968831Y-84200368D01*
X76920806Y-84195638D01*
X76909245Y-84194500D01*
X76790755Y-84194500D01*
X76786902Y-84194879D01*
X76731174Y-84200366D01*
X76731164Y-84200368D01*
X76731159Y-84200368D01*
X76731158Y-84200369D01*
X76698443Y-84206876D01*
X76683702Y-84209808D01*
X76681579Y-84210340D01*
X76667651Y-84212991D01*
X76616185Y-84219767D01*
X76583815Y-84219767D01*
X76532351Y-84212992D01*
X76518416Y-84210339D01*
X76516313Y-84209812D01*
X76516288Y-84209807D01*
X76468843Y-84200370D01*
X76468839Y-84200369D01*
X76468831Y-84200368D01*
X76420806Y-84195638D01*
X76409245Y-84194500D01*
X76290755Y-84194500D01*
X76286902Y-84194879D01*
X76231174Y-84200366D01*
X76231164Y-84200368D01*
X76231159Y-84200368D01*
X76231158Y-84200369D01*
X76198443Y-84206876D01*
X76183702Y-84209808D01*
X76181579Y-84210340D01*
X76167651Y-84212991D01*
X76116185Y-84219767D01*
X76083815Y-84219767D01*
X76032351Y-84212992D01*
X76018416Y-84210339D01*
X76016313Y-84209812D01*
X76016288Y-84209807D01*
X75968843Y-84200370D01*
X75968839Y-84200369D01*
X75968831Y-84200368D01*
X75920806Y-84195638D01*
X75909245Y-84194500D01*
X75790755Y-84194500D01*
X75786902Y-84194879D01*
X75731174Y-84200366D01*
X75731164Y-84200368D01*
X75731159Y-84200368D01*
X75731158Y-84200369D01*
X75698443Y-84206876D01*
X75683702Y-84209808D01*
X75681579Y-84210340D01*
X75667651Y-84212991D01*
X75616185Y-84219767D01*
X75583815Y-84219767D01*
X75532351Y-84212992D01*
X75518416Y-84210339D01*
X75516313Y-84209812D01*
X75516288Y-84209807D01*
X75468843Y-84200370D01*
X75468839Y-84200369D01*
X75468831Y-84200368D01*
X75420806Y-84195638D01*
X75409245Y-84194500D01*
X75051362Y-84194500D01*
X75051361Y-84194500D01*
X75018718Y-84196250D01*
X75018709Y-84196250D01*
X75018703Y-84196251D01*
X75018698Y-84196251D01*
X75018665Y-84196254D01*
X74992376Y-84199081D01*
X74985346Y-84199919D01*
X74967913Y-84205599D01*
X74898074Y-84207651D01*
X74838212Y-84171618D01*
X74807333Y-84108942D01*
X74805500Y-84087699D01*
X74805500Y-83551361D01*
X74804203Y-83527175D01*
X74803749Y-83518703D01*
X74800915Y-83492345D01*
X74800080Y-83485340D01*
X74786777Y-83444514D01*
X74765299Y-83378598D01*
X74765295Y-83378588D01*
X74731810Y-83317266D01*
X74679710Y-83247670D01*
X74679705Y-83247665D01*
X74679702Y-83247660D01*
X74679698Y-83247656D01*
X74679692Y-83247649D01*
X74252353Y-82820311D01*
X74252340Y-82820298D01*
X74228008Y-82798442D01*
X74219290Y-82791417D01*
X74207325Y-82781775D01*
X74201827Y-82777448D01*
X74201825Y-82777447D01*
X74101747Y-82726560D01*
X74034716Y-82706877D01*
X74034710Y-82706876D01*
X73948638Y-82694500D01*
X73948635Y-82694500D01*
X69485564Y-82694500D01*
X69418525Y-82674815D01*
X69372770Y-82622011D01*
X69362826Y-82552853D01*
X69391850Y-82489299D01*
X69405826Y-82473168D01*
X69405835Y-82473158D01*
X69452844Y-82400010D01*
X69452846Y-82400005D01*
X69452850Y-82399998D01*
X69512569Y-82269231D01*
X69512572Y-82269225D01*
X69537070Y-82185793D01*
X69557532Y-82043478D01*
X69557533Y-81956524D01*
X69557044Y-81953124D01*
X69556762Y-81951160D01*
X69555500Y-81933516D01*
X69555500Y-81566484D01*
X69556762Y-81548838D01*
X69556763Y-81548834D01*
X69557533Y-81543476D01*
X69557532Y-81456522D01*
X69537070Y-81314207D01*
X69512572Y-81230775D01*
X69512567Y-81230764D01*
X69452850Y-81100001D01*
X69452841Y-81099984D01*
X69424638Y-81056101D01*
X69405835Y-81026842D01*
X69405831Y-81026837D01*
X69405826Y-81026830D01*
X69311679Y-80918178D01*
X69311676Y-80918176D01*
X69245969Y-80861241D01*
X69245962Y-80861235D01*
X69125014Y-80783506D01*
X69125008Y-80783503D01*
X69082034Y-80763877D01*
X69045913Y-80747382D01*
X68988566Y-80730543D01*
X68907956Y-80706874D01*
X68830951Y-80695803D01*
X68821889Y-80694500D01*
X68250000Y-80694500D01*
X68247130Y-80694632D01*
X68221816Y-80695802D01*
X68221806Y-80695804D01*
X68139937Y-80719098D01*
X68070070Y-80718511D01*
X68061217Y-80715462D01*
X68060363Y-80715131D01*
X68060359Y-80715130D01*
X67950000Y-80694500D01*
X67378111Y-80694500D01*
X67292043Y-80706874D01*
X67154087Y-80747382D01*
X67074991Y-80783503D01*
X67074985Y-80783506D01*
X66954037Y-80861235D01*
X66954030Y-80861241D01*
X66888323Y-80918176D01*
X66888320Y-80918178D01*
X66794173Y-81026830D01*
X66794162Y-81026846D01*
X66747158Y-81099984D01*
X66747149Y-81100001D01*
X66687430Y-81230768D01*
X66662930Y-81314205D01*
X66662928Y-81314211D01*
X66642468Y-81456522D01*
X66642467Y-81456525D01*
X66642467Y-81489779D01*
X66622781Y-81556818D01*
X66606148Y-81577457D01*
X66204522Y-81979084D01*
X66204520Y-81979087D01*
X66177357Y-82026135D01*
X66151793Y-82070412D01*
X66142654Y-82104520D01*
X66142654Y-82104521D01*
X66142653Y-82104520D01*
X66124500Y-82172271D01*
X66124500Y-84327728D01*
X66132843Y-84358865D01*
X66131180Y-84428715D01*
X66092016Y-84486577D01*
X66027788Y-84514080D01*
X65958885Y-84502493D01*
X65925387Y-84478638D01*
X65848225Y-84401476D01*
X65848221Y-84401473D01*
X65848220Y-84401472D01*
X65728126Y-84340281D01*
X65728124Y-84340280D01*
X65728121Y-84340279D01*
X65628493Y-84324500D01*
X65628488Y-84324500D01*
X65311512Y-84324500D01*
X65311507Y-84324500D01*
X65202236Y-84341807D01*
X65201672Y-84338252D01*
X65149836Y-84339713D01*
X65096339Y-84310019D01*
X65061798Y-84277451D01*
X65061795Y-84277449D01*
X65061793Y-84277447D01*
X64961717Y-84226561D01*
X64961716Y-84226560D01*
X64961715Y-84226560D01*
X64894684Y-84206877D01*
X64894678Y-84206876D01*
X64808606Y-84194500D01*
X64690755Y-84194500D01*
X64686902Y-84194879D01*
X64631174Y-84200366D01*
X64631164Y-84200368D01*
X64631159Y-84200368D01*
X64631158Y-84200369D01*
X64598443Y-84206876D01*
X64583702Y-84209808D01*
X64581579Y-84210340D01*
X64567651Y-84212991D01*
X64516185Y-84219767D01*
X64483815Y-84219767D01*
X64432351Y-84212992D01*
X64418416Y-84210339D01*
X64416313Y-84209812D01*
X64416288Y-84209807D01*
X64368843Y-84200370D01*
X64368839Y-84200369D01*
X64368831Y-84200368D01*
X64320806Y-84195638D01*
X64309245Y-84194500D01*
X64190755Y-84194500D01*
X64186902Y-84194879D01*
X64131174Y-84200366D01*
X64131164Y-84200368D01*
X64131159Y-84200368D01*
X64131158Y-84200369D01*
X64098443Y-84206876D01*
X64083702Y-84209808D01*
X64081579Y-84210340D01*
X64067651Y-84212991D01*
X64016185Y-84219767D01*
X63983815Y-84219767D01*
X63932351Y-84212992D01*
X63918416Y-84210339D01*
X63916313Y-84209812D01*
X63916288Y-84209807D01*
X63868843Y-84200370D01*
X63868839Y-84200369D01*
X63868831Y-84200368D01*
X63820806Y-84195638D01*
X63809245Y-84194500D01*
X63690755Y-84194500D01*
X63686902Y-84194879D01*
X63631174Y-84200366D01*
X63631164Y-84200368D01*
X63631159Y-84200368D01*
X63631158Y-84200369D01*
X63598443Y-84206876D01*
X63583702Y-84209808D01*
X63581579Y-84210340D01*
X63567651Y-84212991D01*
X63516185Y-84219767D01*
X63483815Y-84219767D01*
X63432351Y-84212992D01*
X63418416Y-84210339D01*
X63416313Y-84209812D01*
X63416288Y-84209807D01*
X63368843Y-84200370D01*
X63368839Y-84200369D01*
X63368831Y-84200368D01*
X63320806Y-84195638D01*
X63309245Y-84194500D01*
X63190755Y-84194500D01*
X63186902Y-84194879D01*
X63131174Y-84200366D01*
X63131164Y-84200368D01*
X63131159Y-84200368D01*
X63131158Y-84200369D01*
X63098443Y-84206876D01*
X63083702Y-84209808D01*
X63081579Y-84210340D01*
X63067651Y-84212991D01*
X63016185Y-84219767D01*
X62983815Y-84219767D01*
X62932351Y-84212992D01*
X62918416Y-84210339D01*
X62916313Y-84209812D01*
X62916288Y-84209807D01*
X62868843Y-84200370D01*
X62868839Y-84200369D01*
X62868831Y-84200368D01*
X62820806Y-84195638D01*
X62809245Y-84194500D01*
X62690755Y-84194500D01*
X62686902Y-84194879D01*
X62631174Y-84200366D01*
X62631164Y-84200368D01*
X62631159Y-84200368D01*
X62631158Y-84200369D01*
X62598443Y-84206876D01*
X62583702Y-84209808D01*
X62581579Y-84210340D01*
X62567651Y-84212991D01*
X62516185Y-84219767D01*
X62483815Y-84219767D01*
X62432351Y-84212992D01*
X62418416Y-84210339D01*
X62416313Y-84209812D01*
X62416288Y-84209807D01*
X62368843Y-84200370D01*
X62368839Y-84200369D01*
X62368831Y-84200368D01*
X62320806Y-84195638D01*
X62309245Y-84194500D01*
X62051362Y-84194500D01*
X62051361Y-84194500D01*
X62018718Y-84196250D01*
X62018709Y-84196250D01*
X62018703Y-84196251D01*
X62018698Y-84196251D01*
X62018665Y-84196254D01*
X61992376Y-84199081D01*
X61985346Y-84199919D01*
X61967913Y-84205599D01*
X61898074Y-84207651D01*
X61838212Y-84171618D01*
X61807333Y-84108942D01*
X61805500Y-84087699D01*
X61805500Y-83690757D01*
X61799631Y-83631166D01*
X61799630Y-83631155D01*
X61790191Y-83583702D01*
X61790185Y-83583683D01*
X61789666Y-83581611D01*
X61787006Y-83567650D01*
X61781148Y-83523145D01*
X61781148Y-83523143D01*
X61773791Y-83467264D01*
X61771867Y-83454684D01*
X61770094Y-83444512D01*
X61737263Y-83350559D01*
X61737262Y-83350557D01*
X61737261Y-83350554D01*
X61703780Y-83289238D01*
X61703776Y-83289232D01*
X61651676Y-83219636D01*
X61651671Y-83219631D01*
X61651668Y-83219626D01*
X61651664Y-83219622D01*
X61651658Y-83219615D01*
X61252353Y-82820311D01*
X61252340Y-82820298D01*
X61228008Y-82798442D01*
X61219290Y-82791417D01*
X61207325Y-82781775D01*
X61201827Y-82777448D01*
X61201825Y-82777447D01*
X61101747Y-82726560D01*
X61034716Y-82706877D01*
X61034710Y-82706876D01*
X60948638Y-82694500D01*
X60948635Y-82694500D01*
X56485564Y-82694500D01*
X56418525Y-82674815D01*
X56372770Y-82622011D01*
X56362826Y-82552853D01*
X56391850Y-82489299D01*
X56405826Y-82473168D01*
X56405835Y-82473158D01*
X56452844Y-82400010D01*
X56452846Y-82400005D01*
X56452850Y-82399998D01*
X56512569Y-82269231D01*
X56512572Y-82269225D01*
X56537070Y-82185793D01*
X56557532Y-82043478D01*
X56557533Y-81956524D01*
X56557044Y-81953124D01*
X56556762Y-81951160D01*
X56555500Y-81933516D01*
X56555500Y-81566484D01*
X56556762Y-81548838D01*
X56556763Y-81548834D01*
X56557533Y-81543476D01*
X56557532Y-81456522D01*
X56537070Y-81314207D01*
X56512572Y-81230775D01*
X56512567Y-81230764D01*
X56452850Y-81100001D01*
X56452841Y-81099984D01*
X56424638Y-81056101D01*
X56405835Y-81026842D01*
X56405831Y-81026837D01*
X56405826Y-81026830D01*
X56382578Y-81000000D01*
X64019610Y-81000000D01*
X64039068Y-81135337D01*
X64039070Y-81135345D01*
X64095867Y-81259714D01*
X64095872Y-81259721D01*
X64185409Y-81363053D01*
X64185413Y-81363057D01*
X64245979Y-81401979D01*
X64300439Y-81436978D01*
X64366036Y-81456239D01*
X64431632Y-81475500D01*
X64431633Y-81475500D01*
X64568367Y-81475500D01*
X64699561Y-81436978D01*
X64814589Y-81363055D01*
X64904130Y-81259718D01*
X64960931Y-81135342D01*
X64980390Y-81000000D01*
X64960931Y-80864658D01*
X64923867Y-80783499D01*
X64904132Y-80740285D01*
X64904127Y-80740278D01*
X64814590Y-80636946D01*
X64814586Y-80636942D01*
X64699559Y-80563021D01*
X64568368Y-80524500D01*
X64568367Y-80524500D01*
X64431633Y-80524500D01*
X64431632Y-80524500D01*
X64300440Y-80563021D01*
X64185413Y-80636942D01*
X64185409Y-80636946D01*
X64095872Y-80740278D01*
X64095867Y-80740285D01*
X64039070Y-80864654D01*
X64039068Y-80864662D01*
X64019610Y-81000000D01*
X56382578Y-81000000D01*
X56311679Y-80918178D01*
X56311676Y-80918176D01*
X56245969Y-80861241D01*
X56245962Y-80861235D01*
X56125014Y-80783506D01*
X56125008Y-80783503D01*
X56082034Y-80763877D01*
X56045913Y-80747382D01*
X55988566Y-80730543D01*
X55907956Y-80706874D01*
X55830951Y-80695803D01*
X55821889Y-80694500D01*
X55250000Y-80694500D01*
X55247130Y-80694632D01*
X55221816Y-80695802D01*
X55221806Y-80695804D01*
X55139937Y-80719098D01*
X55070070Y-80718511D01*
X55061217Y-80715462D01*
X55060363Y-80715131D01*
X55060359Y-80715130D01*
X54950000Y-80694500D01*
X54378111Y-80694500D01*
X54292043Y-80706874D01*
X54154087Y-80747382D01*
X54074991Y-80783503D01*
X54074985Y-80783506D01*
X53954037Y-80861235D01*
X53954030Y-80861241D01*
X53888323Y-80918176D01*
X53888320Y-80918178D01*
X53794173Y-81026830D01*
X53794162Y-81026846D01*
X53747158Y-81099984D01*
X53747149Y-81100001D01*
X53687430Y-81230768D01*
X53662930Y-81314205D01*
X53662928Y-81314211D01*
X53642468Y-81456522D01*
X53642467Y-81456524D01*
X53642467Y-81543476D01*
X53643238Y-81548838D01*
X53644500Y-81566484D01*
X53644500Y-81933516D01*
X53643238Y-81951158D01*
X53642528Y-81956102D01*
X53613503Y-82019657D01*
X53607482Y-82026123D01*
X53529087Y-82104520D01*
X53454519Y-82179088D01*
X53402478Y-82269225D01*
X53401793Y-82270412D01*
X53380468Y-82349999D01*
X53374500Y-82372273D01*
X53374500Y-84222273D01*
X53374500Y-84327727D01*
X53377320Y-84338252D01*
X53401793Y-84429589D01*
X53409343Y-84442665D01*
X53454520Y-84520913D01*
X53782752Y-84849145D01*
X53916427Y-84982819D01*
X53949912Y-85044142D01*
X53944928Y-85113833D01*
X53903057Y-85169767D01*
X53837592Y-85194184D01*
X53828746Y-85194500D01*
X53144500Y-85194500D01*
X53077461Y-85174815D01*
X53031706Y-85122011D01*
X53020500Y-85070500D01*
X53020500Y-84716506D01*
X53004720Y-84616878D01*
X53004719Y-84616876D01*
X53004719Y-84616874D01*
X52943528Y-84496780D01*
X52943526Y-84496778D01*
X52943523Y-84496774D01*
X52848225Y-84401476D01*
X52848221Y-84401473D01*
X52848220Y-84401472D01*
X52728126Y-84340281D01*
X52728124Y-84340280D01*
X52728121Y-84340279D01*
X52628493Y-84324500D01*
X52628488Y-84324500D01*
X52311512Y-84324500D01*
X52311507Y-84324500D01*
X52202236Y-84341807D01*
X52201672Y-84338252D01*
X52149836Y-84339713D01*
X52096339Y-84310019D01*
X52061798Y-84277451D01*
X52061795Y-84277449D01*
X52061793Y-84277447D01*
X51961717Y-84226561D01*
X51961716Y-84226560D01*
X51961715Y-84226560D01*
X51894684Y-84206877D01*
X51894678Y-84206876D01*
X51808606Y-84194500D01*
X51690755Y-84194500D01*
X51686902Y-84194879D01*
X51631174Y-84200366D01*
X51631164Y-84200368D01*
X51631159Y-84200368D01*
X51631158Y-84200369D01*
X51598443Y-84206876D01*
X51583702Y-84209808D01*
X51581579Y-84210340D01*
X51567651Y-84212991D01*
X51516185Y-84219767D01*
X51483815Y-84219767D01*
X51432351Y-84212992D01*
X51418416Y-84210339D01*
X51416313Y-84209812D01*
X51416288Y-84209807D01*
X51368843Y-84200370D01*
X51368839Y-84200369D01*
X51368831Y-84200368D01*
X51320806Y-84195638D01*
X51309245Y-84194500D01*
X51190755Y-84194500D01*
X51186902Y-84194879D01*
X51131174Y-84200366D01*
X51131164Y-84200368D01*
X51131159Y-84200368D01*
X51131158Y-84200369D01*
X51098443Y-84206876D01*
X51083702Y-84209808D01*
X51081579Y-84210340D01*
X51067651Y-84212991D01*
X51016185Y-84219767D01*
X50983815Y-84219767D01*
X50932351Y-84212992D01*
X50918416Y-84210339D01*
X50916313Y-84209812D01*
X50916288Y-84209807D01*
X50868843Y-84200370D01*
X50868839Y-84200369D01*
X50868831Y-84200368D01*
X50820806Y-84195638D01*
X50809245Y-84194500D01*
X50690755Y-84194500D01*
X50686902Y-84194879D01*
X50631174Y-84200366D01*
X50631164Y-84200368D01*
X50631159Y-84200368D01*
X50631158Y-84200369D01*
X50598443Y-84206876D01*
X50583702Y-84209808D01*
X50581579Y-84210340D01*
X50567651Y-84212991D01*
X50516185Y-84219767D01*
X50483815Y-84219767D01*
X50432351Y-84212992D01*
X50418416Y-84210339D01*
X50416313Y-84209812D01*
X50416288Y-84209807D01*
X50368843Y-84200370D01*
X50368839Y-84200369D01*
X50368831Y-84200368D01*
X50320806Y-84195638D01*
X50309245Y-84194500D01*
X50190755Y-84194500D01*
X50186902Y-84194879D01*
X50131174Y-84200366D01*
X50131164Y-84200368D01*
X50131159Y-84200368D01*
X50131158Y-84200369D01*
X50098443Y-84206876D01*
X50083702Y-84209808D01*
X50081579Y-84210340D01*
X50067651Y-84212991D01*
X50016185Y-84219767D01*
X49983815Y-84219767D01*
X49932351Y-84212992D01*
X49918416Y-84210339D01*
X49916313Y-84209812D01*
X49916288Y-84209807D01*
X49868843Y-84200370D01*
X49868839Y-84200369D01*
X49868831Y-84200368D01*
X49820806Y-84195638D01*
X49809245Y-84194500D01*
X49690755Y-84194500D01*
X49686902Y-84194879D01*
X49631174Y-84200366D01*
X49631164Y-84200368D01*
X49631159Y-84200368D01*
X49631158Y-84200369D01*
X49598443Y-84206876D01*
X49583702Y-84209808D01*
X49581579Y-84210340D01*
X49567651Y-84212991D01*
X49516185Y-84219767D01*
X49483815Y-84219767D01*
X49432351Y-84212992D01*
X49418416Y-84210339D01*
X49416313Y-84209812D01*
X49416288Y-84209807D01*
X49368843Y-84200370D01*
X49368839Y-84200369D01*
X49368831Y-84200368D01*
X49320806Y-84195638D01*
X49309245Y-84194500D01*
X49051362Y-84194500D01*
X49051361Y-84194500D01*
X49018718Y-84196250D01*
X49018709Y-84196250D01*
X49018703Y-84196251D01*
X49018698Y-84196251D01*
X49018665Y-84196254D01*
X48992374Y-84199081D01*
X48985339Y-84199920D01*
X48985337Y-84199920D01*
X48878598Y-84234700D01*
X48878588Y-84234704D01*
X48817266Y-84268189D01*
X48747670Y-84320289D01*
X48747649Y-84320307D01*
X48512181Y-84555776D01*
X48450858Y-84589261D01*
X48381166Y-84584277D01*
X48325233Y-84542405D01*
X48300816Y-84476941D01*
X48300500Y-84468095D01*
X48300500Y-71035097D01*
X49224500Y-71035097D01*
X49224500Y-74214885D01*
X49224501Y-74214903D01*
X49230804Y-74327158D01*
X49230805Y-74327165D01*
X49280971Y-74592299D01*
X49280973Y-74592309D01*
X49370103Y-74847027D01*
X49390353Y-74885342D01*
X49456089Y-75009721D01*
X49496196Y-75085606D01*
X49496199Y-75085612D01*
X49654056Y-75299500D01*
X49656445Y-75302737D01*
X49847263Y-75493555D01*
X50064390Y-75653802D01*
X50302975Y-75779898D01*
X50557690Y-75869026D01*
X50557700Y-75869028D01*
X50690266Y-75894111D01*
X50822843Y-75919196D01*
X50935095Y-75925500D01*
X54114904Y-75925499D01*
X54227157Y-75919196D01*
X54492310Y-75869026D01*
X54747025Y-75779898D01*
X54985610Y-75653802D01*
X55202737Y-75493555D01*
X55393555Y-75302737D01*
X55553802Y-75085610D01*
X55679898Y-74847025D01*
X55769026Y-74592310D01*
X55819196Y-74327157D01*
X55825500Y-74214905D01*
X55825499Y-71035096D01*
X55821218Y-70958856D01*
X72524500Y-70958856D01*
X72524500Y-71491144D01*
X72529825Y-71535494D01*
X72534640Y-71575588D01*
X72587636Y-71709976D01*
X72647473Y-71788882D01*
X72672296Y-71854193D01*
X72657868Y-71922557D01*
X72648440Y-71937440D01*
X72586147Y-72021844D01*
X72542291Y-72147173D01*
X72542289Y-72147185D01*
X72539500Y-72176929D01*
X72539500Y-72623070D01*
X72542289Y-72652814D01*
X72542291Y-72652826D01*
X72576295Y-72750000D01*
X72586148Y-72778157D01*
X72665001Y-72884999D01*
X72771843Y-72963852D01*
X72810003Y-72977204D01*
X72897173Y-73007708D01*
X72897177Y-73007708D01*
X72897181Y-73007710D01*
X72912057Y-73009105D01*
X72926930Y-73010500D01*
X72926934Y-73010500D01*
X73313070Y-73010500D01*
X73326289Y-73009260D01*
X73342819Y-73007710D01*
X73342823Y-73007708D01*
X73342826Y-73007708D01*
X73392625Y-72990282D01*
X73468157Y-72963852D01*
X73574999Y-72884999D01*
X73653852Y-72778157D01*
X73697710Y-72652819D01*
X73700500Y-72623066D01*
X73700500Y-72176934D01*
X73697710Y-72147181D01*
X73678507Y-72092302D01*
X73674944Y-72022523D01*
X73709673Y-71961895D01*
X73750057Y-71935992D01*
X73809975Y-71912364D01*
X73925078Y-71825078D01*
X74012364Y-71709975D01*
X74065359Y-71575590D01*
X74075500Y-71491144D01*
X74075500Y-71272398D01*
X74095185Y-71205359D01*
X74147989Y-71159604D01*
X74217147Y-71149660D01*
X74240455Y-71155356D01*
X74247181Y-71157710D01*
X74262057Y-71159105D01*
X74276930Y-71160500D01*
X74276934Y-71160500D01*
X74474565Y-71160500D01*
X74541604Y-71180185D01*
X74562246Y-71196819D01*
X74935905Y-71570478D01*
X74935906Y-71570479D01*
X74935908Y-71570480D01*
X74938525Y-71571991D01*
X74940292Y-71573844D01*
X74942356Y-71575428D01*
X74942109Y-71575749D01*
X74986742Y-71622557D01*
X74999196Y-71687171D01*
X74999502Y-71687171D01*
X74999502Y-71688756D01*
X74999966Y-71691164D01*
X74999502Y-71695251D01*
X74999502Y-71804699D01*
X74999501Y-71804699D01*
X74999502Y-71804702D01*
X75027818Y-71910377D01*
X75082520Y-72005123D01*
X75082522Y-72005125D01*
X75140216Y-72062819D01*
X75173701Y-72124142D01*
X75168717Y-72193834D01*
X75126845Y-72249767D01*
X75061381Y-72274184D01*
X75052535Y-72274500D01*
X74931632Y-72274500D01*
X74800440Y-72313021D01*
X74685413Y-72386942D01*
X74685409Y-72386946D01*
X74595872Y-72490278D01*
X74595867Y-72490285D01*
X74539070Y-72614654D01*
X74539068Y-72614662D01*
X74519610Y-72750000D01*
X74519610Y-72758868D01*
X74517459Y-72758868D01*
X74509224Y-72816115D01*
X74463474Y-72868909D01*
X74435414Y-72886942D01*
X74435409Y-72886946D01*
X74345870Y-72990282D01*
X74345867Y-72990285D01*
X74289070Y-73114654D01*
X74289068Y-73114662D01*
X74269610Y-73250000D01*
X74289068Y-73385337D01*
X74289070Y-73385345D01*
X74345867Y-73509714D01*
X74345872Y-73509721D01*
X74435409Y-73613053D01*
X74435413Y-73613057D01*
X74463471Y-73631088D01*
X74509227Y-73683891D01*
X74517460Y-73741132D01*
X74519610Y-73741132D01*
X74519610Y-73758868D01*
X74517459Y-73758868D01*
X74509224Y-73816115D01*
X74463474Y-73868909D01*
X74435414Y-73886942D01*
X74435409Y-73886946D01*
X74345870Y-73990282D01*
X74345867Y-73990285D01*
X74289070Y-74114654D01*
X74289068Y-74114662D01*
X74269610Y-74250000D01*
X74289068Y-74385337D01*
X74289070Y-74385345D01*
X74345867Y-74509714D01*
X74345872Y-74509721D01*
X74435409Y-74613053D01*
X74435413Y-74613057D01*
X74463471Y-74631088D01*
X74509227Y-74683891D01*
X74517460Y-74741132D01*
X74519610Y-74741132D01*
X74519610Y-74758868D01*
X74517459Y-74758868D01*
X74509224Y-74816115D01*
X74463474Y-74868909D01*
X74435414Y-74886942D01*
X74435409Y-74886946D01*
X74345870Y-74990282D01*
X74345867Y-74990285D01*
X74289070Y-75114654D01*
X74289068Y-75114662D01*
X74269610Y-75250000D01*
X74289068Y-75385337D01*
X74289070Y-75385345D01*
X74345867Y-75509714D01*
X74345872Y-75509721D01*
X74435409Y-75613053D01*
X74435413Y-75613057D01*
X74493677Y-75650500D01*
X74550439Y-75686978D01*
X74616036Y-75706239D01*
X74681632Y-75725500D01*
X74681633Y-75725500D01*
X74818367Y-75725500D01*
X74949561Y-75686978D01*
X74975692Y-75670185D01*
X75042730Y-75650501D01*
X75287994Y-75650501D01*
X75320087Y-75654726D01*
X75326438Y-75656427D01*
X75360300Y-75665501D01*
X75710499Y-75665501D01*
X75777538Y-75685186D01*
X75823293Y-75737990D01*
X75834499Y-75789501D01*
X75834499Y-76139700D01*
X75844152Y-76175724D01*
X75842489Y-76245574D01*
X75837171Y-76259329D01*
X75789070Y-76364654D01*
X75789068Y-76364662D01*
X75769610Y-76500000D01*
X75789068Y-76635337D01*
X75789070Y-76635345D01*
X75845867Y-76759714D01*
X75845872Y-76759721D01*
X75935409Y-76863053D01*
X75935413Y-76863057D01*
X75995979Y-76901979D01*
X76050439Y-76936978D01*
X76116036Y-76956239D01*
X76181632Y-76975500D01*
X76259591Y-76975500D01*
X76326630Y-76995185D01*
X76353304Y-77018298D01*
X76435409Y-77113053D01*
X76435413Y-77113057D01*
X76495979Y-77151979D01*
X76550439Y-77186978D01*
X76616036Y-77206239D01*
X76681632Y-77225500D01*
X76681633Y-77225500D01*
X76818367Y-77225500D01*
X76949561Y-77186978D01*
X77064589Y-77113055D01*
X77112331Y-77057956D01*
X77146696Y-77018298D01*
X77205474Y-76980523D01*
X77240409Y-76975500D01*
X77259590Y-76975500D01*
X77326629Y-76995185D01*
X77353303Y-77018298D01*
X77435408Y-77113053D01*
X77435412Y-77113057D01*
X77495978Y-77151979D01*
X77550438Y-77186978D01*
X77616035Y-77206239D01*
X77681631Y-77225500D01*
X77681632Y-77225500D01*
X77818366Y-77225500D01*
X77949560Y-77186978D01*
X78064588Y-77113055D01*
X78112330Y-77057956D01*
X78146695Y-77018298D01*
X78205473Y-76980523D01*
X78240408Y-76975500D01*
X78259591Y-76975500D01*
X78326630Y-76995185D01*
X78353304Y-77018298D01*
X78435409Y-77113053D01*
X78435413Y-77113057D01*
X78495979Y-77151979D01*
X78550439Y-77186978D01*
X78616036Y-77206239D01*
X78681632Y-77225500D01*
X78681633Y-77225500D01*
X78818367Y-77225500D01*
X78949561Y-77186978D01*
X79064589Y-77113055D01*
X79112331Y-77057956D01*
X79146696Y-77018298D01*
X79205474Y-76980523D01*
X79240409Y-76975500D01*
X79259591Y-76975500D01*
X79326630Y-76995185D01*
X79353304Y-77018298D01*
X79435409Y-77113053D01*
X79435413Y-77113057D01*
X79495979Y-77151979D01*
X79550439Y-77186978D01*
X79616036Y-77206239D01*
X79681632Y-77225500D01*
X79681633Y-77225500D01*
X79818367Y-77225500D01*
X79949561Y-77186978D01*
X80064589Y-77113055D01*
X80112331Y-77057956D01*
X80146696Y-77018298D01*
X80205474Y-76980523D01*
X80240409Y-76975500D01*
X80259593Y-76975500D01*
X80326632Y-76995185D01*
X80353306Y-77018298D01*
X80435410Y-77113052D01*
X80435414Y-77113056D01*
X80495980Y-77151978D01*
X80550440Y-77186977D01*
X80616037Y-77206238D01*
X80681633Y-77225499D01*
X80681634Y-77225499D01*
X80818368Y-77225499D01*
X80949562Y-77186977D01*
X81064590Y-77113054D01*
X81154131Y-77009717D01*
X81210932Y-76885341D01*
X81230391Y-76749999D01*
X81210932Y-76614657D01*
X81161707Y-76506869D01*
X81150501Y-76455358D01*
X81150501Y-76212005D01*
X81154726Y-76179911D01*
X81155848Y-76175724D01*
X81165501Y-76139700D01*
X81165501Y-75789501D01*
X81185186Y-75722462D01*
X81237990Y-75676707D01*
X81289501Y-75665501D01*
X81639698Y-75665501D01*
X81639700Y-75665501D01*
X81676568Y-75655622D01*
X81746417Y-75657283D01*
X81775701Y-75671081D01*
X81800433Y-75686975D01*
X81800441Y-75686979D01*
X81931632Y-75725500D01*
X81931633Y-75725500D01*
X82068367Y-75725500D01*
X82199561Y-75686978D01*
X82314589Y-75613055D01*
X82404130Y-75509718D01*
X82411512Y-75493555D01*
X82416383Y-75482887D01*
X82460931Y-75385342D01*
X82480390Y-75250000D01*
X82480390Y-75249998D01*
X82480390Y-75241131D01*
X82482544Y-75241131D01*
X82490767Y-75183904D01*
X82536513Y-75131097D01*
X82564589Y-75113055D01*
X82654130Y-75009718D01*
X82710931Y-74885342D01*
X82730390Y-74750000D01*
X82710931Y-74614658D01*
X82663008Y-74509721D01*
X82654132Y-74490285D01*
X82654130Y-74490283D01*
X82654130Y-74490282D01*
X82564589Y-74386945D01*
X82536526Y-74368910D01*
X82490772Y-74316107D01*
X82482542Y-74258869D01*
X82480390Y-74258869D01*
X82480390Y-74241131D01*
X82482544Y-74241131D01*
X82490767Y-74183904D01*
X82536513Y-74131097D01*
X82564589Y-74113055D01*
X82654130Y-74009718D01*
X82710931Y-73885342D01*
X82730390Y-73750000D01*
X82710931Y-73614658D01*
X82663008Y-73509721D01*
X82654132Y-73490285D01*
X82654130Y-73490283D01*
X82654130Y-73490282D01*
X82564589Y-73386945D01*
X82536526Y-73368910D01*
X82490772Y-73316107D01*
X82482542Y-73258869D01*
X82480390Y-73258869D01*
X82480390Y-73241131D01*
X82482544Y-73241131D01*
X82490767Y-73183904D01*
X82536513Y-73131097D01*
X82564589Y-73113055D01*
X82654130Y-73009718D01*
X82710931Y-72885342D01*
X82730390Y-72750000D01*
X82710931Y-72614658D01*
X82658568Y-72499999D01*
X82654132Y-72490285D01*
X82654130Y-72490283D01*
X82654130Y-72490282D01*
X82564589Y-72386945D01*
X82536526Y-72368910D01*
X82490772Y-72316107D01*
X82482542Y-72258869D01*
X82480390Y-72258869D01*
X82480390Y-72241131D01*
X82482544Y-72241131D01*
X82490767Y-72183904D01*
X82536513Y-72131097D01*
X82564589Y-72113055D01*
X82654130Y-72009718D01*
X82656229Y-72005123D01*
X82699497Y-71910378D01*
X82710931Y-71885342D01*
X82730390Y-71750000D01*
X82710931Y-71614658D01*
X82691446Y-71571991D01*
X82654132Y-71490285D01*
X82654130Y-71490283D01*
X82654130Y-71490282D01*
X82564589Y-71386945D01*
X82536526Y-71368910D01*
X82490772Y-71316107D01*
X82482542Y-71258867D01*
X82480390Y-71258867D01*
X82480390Y-71241129D01*
X82482546Y-71241129D01*
X82490764Y-71183909D01*
X82536511Y-71131099D01*
X82536512Y-71131098D01*
X82564589Y-71113055D01*
X82654130Y-71009718D01*
X82710931Y-70885342D01*
X82730390Y-70750000D01*
X82710931Y-70614658D01*
X82675756Y-70537636D01*
X82654132Y-70490285D01*
X82654127Y-70490278D01*
X82564590Y-70386946D01*
X82564589Y-70386945D01*
X82520074Y-70358337D01*
X82474320Y-70305534D01*
X82464376Y-70236378D01*
X82480390Y-70125000D01*
X82460931Y-69989658D01*
X82441570Y-69947263D01*
X82404132Y-69865285D01*
X82404127Y-69865278D01*
X82314590Y-69761946D01*
X82314586Y-69761942D01*
X82199559Y-69688021D01*
X82068368Y-69649500D01*
X82068367Y-69649500D01*
X81931633Y-69649500D01*
X81931632Y-69649500D01*
X81800441Y-69688020D01*
X81799839Y-69688296D01*
X81798547Y-69688576D01*
X81791930Y-69690520D01*
X81791791Y-69690046D01*
X81748328Y-69699501D01*
X81173467Y-69699501D01*
X81106428Y-69679816D01*
X81085786Y-69663182D01*
X81005126Y-69582522D01*
X81005124Y-69582520D01*
X80910378Y-69527818D01*
X80804908Y-69499557D01*
X80745250Y-69463192D01*
X80714721Y-69400345D01*
X80714266Y-69362136D01*
X80730389Y-69250000D01*
X80710930Y-69114658D01*
X80693279Y-69076009D01*
X80683336Y-69006854D01*
X80712360Y-68943298D01*
X80771138Y-68905523D01*
X80806074Y-68900500D01*
X80991138Y-68900500D01*
X80991144Y-68900500D01*
X81075590Y-68890359D01*
X81209975Y-68837364D01*
X81325078Y-68750078D01*
X81401196Y-68649701D01*
X81457389Y-68608178D01*
X81527110Y-68603627D01*
X81588224Y-68637492D01*
X81598804Y-68649702D01*
X81674921Y-68750078D01*
X81790023Y-68837363D01*
X81790024Y-68837363D01*
X81790025Y-68837364D01*
X81924410Y-68890359D01*
X82008856Y-68900500D01*
X82008862Y-68900500D01*
X82541138Y-68900500D01*
X82541144Y-68900500D01*
X82625590Y-68890359D01*
X82759975Y-68837364D01*
X82875078Y-68750078D01*
X82962364Y-68634975D01*
X83015359Y-68500590D01*
X83025500Y-68416144D01*
X83025500Y-67833856D01*
X83015359Y-67749410D01*
X82962364Y-67615025D01*
X82962363Y-67615024D01*
X82962363Y-67615023D01*
X82875078Y-67499921D01*
X82759976Y-67412636D01*
X82625588Y-67359640D01*
X82582242Y-67354435D01*
X82541144Y-67349500D01*
X82008856Y-67349500D01*
X81970841Y-67354065D01*
X81924411Y-67359640D01*
X81790023Y-67412636D01*
X81674923Y-67499920D01*
X81598804Y-67600298D01*
X81542611Y-67641821D01*
X81472890Y-67646372D01*
X81411776Y-67612507D01*
X81401196Y-67600298D01*
X81325076Y-67499920D01*
X81209976Y-67412636D01*
X81075588Y-67359640D01*
X81032242Y-67354435D01*
X80991144Y-67349500D01*
X80458856Y-67349500D01*
X80420841Y-67354065D01*
X80374411Y-67359640D01*
X80240023Y-67412636D01*
X80124921Y-67499921D01*
X80037636Y-67615023D01*
X79984640Y-67749411D01*
X79979065Y-67795841D01*
X79974500Y-67833856D01*
X79974500Y-67833862D01*
X79974500Y-68008745D01*
X79954815Y-68075784D01*
X79902011Y-68121539D01*
X79832853Y-68131483D01*
X79769297Y-68102458D01*
X79762819Y-68096426D01*
X79559267Y-67892874D01*
X79525782Y-67831551D01*
X79523836Y-67820000D01*
X79515359Y-67749410D01*
X79462364Y-67615025D01*
X79462363Y-67615024D01*
X79462363Y-67615023D01*
X79375078Y-67499921D01*
X79259976Y-67412636D01*
X79125588Y-67359640D01*
X79082242Y-67354435D01*
X79041144Y-67349500D01*
X78508856Y-67349500D01*
X78470841Y-67354065D01*
X78424411Y-67359640D01*
X78290023Y-67412636D01*
X78174923Y-67499920D01*
X78098804Y-67600298D01*
X78042611Y-67641821D01*
X77972890Y-67646372D01*
X77911776Y-67612507D01*
X77901196Y-67600298D01*
X77825076Y-67499920D01*
X77709976Y-67412636D01*
X77575588Y-67359640D01*
X77532242Y-67354435D01*
X77491144Y-67349500D01*
X76958856Y-67349500D01*
X76920841Y-67354065D01*
X76874411Y-67359640D01*
X76740021Y-67412637D01*
X76735272Y-67415308D01*
X76667189Y-67431005D01*
X76601426Y-67407402D01*
X76558865Y-67351992D01*
X76550500Y-67307221D01*
X76550500Y-67281903D01*
X76550500Y-67281898D01*
X76539877Y-67193436D01*
X76484361Y-67052658D01*
X76484360Y-67052657D01*
X76484360Y-67052656D01*
X76392922Y-66932077D01*
X76272343Y-66840639D01*
X76131561Y-66785122D01*
X76085926Y-66779642D01*
X76043102Y-66774500D01*
X75456898Y-66774500D01*
X75417853Y-66779188D01*
X75368438Y-66785122D01*
X75227656Y-66840639D01*
X75107077Y-66932077D01*
X75015639Y-67052656D01*
X74960122Y-67193438D01*
X74954188Y-67242853D01*
X74949500Y-67281898D01*
X74949500Y-68318102D01*
X74955126Y-68364954D01*
X74960122Y-68406561D01*
X75015639Y-68547343D01*
X75107077Y-68667922D01*
X75227656Y-68759360D01*
X75227657Y-68759360D01*
X75227658Y-68759361D01*
X75368436Y-68814877D01*
X75456898Y-68825500D01*
X75725499Y-68825500D01*
X75792538Y-68845185D01*
X75838293Y-68897989D01*
X75849499Y-68949500D01*
X75849499Y-69787994D01*
X75845274Y-69820087D01*
X75834499Y-69860300D01*
X75834499Y-70088744D01*
X75814814Y-70155783D01*
X75762010Y-70201538D01*
X75692852Y-70211482D01*
X75629296Y-70182457D01*
X75622818Y-70176425D01*
X75146819Y-69700426D01*
X75113334Y-69639103D01*
X75110500Y-69612745D01*
X75110500Y-69426929D01*
X75108950Y-69410404D01*
X75107710Y-69397181D01*
X75107708Y-69397177D01*
X75107708Y-69397173D01*
X75063852Y-69271844D01*
X75063852Y-69271843D01*
X74984999Y-69165001D01*
X74878157Y-69086148D01*
X74878155Y-69086147D01*
X74752826Y-69042291D01*
X74752814Y-69042289D01*
X74723070Y-69039500D01*
X74723066Y-69039500D01*
X74276934Y-69039500D01*
X74276930Y-69039500D01*
X74247185Y-69042289D01*
X74247173Y-69042291D01*
X74121844Y-69086147D01*
X74015001Y-69165001D01*
X73936147Y-69271844D01*
X73892291Y-69397173D01*
X73892289Y-69397185D01*
X73889500Y-69426929D01*
X73889500Y-69813070D01*
X73892289Y-69842814D01*
X73892291Y-69842826D01*
X73936147Y-69968157D01*
X73936148Y-69968158D01*
X73979108Y-70026367D01*
X74003079Y-70091996D01*
X73987763Y-70160166D01*
X73979108Y-70173633D01*
X73936148Y-70231841D01*
X73936147Y-70231842D01*
X73892291Y-70357173D01*
X73892289Y-70357185D01*
X73889499Y-70386936D01*
X73889364Y-70389830D01*
X73888621Y-70389795D01*
X73869815Y-70453842D01*
X73817011Y-70499597D01*
X73747853Y-70509541D01*
X73720011Y-70502158D01*
X73689884Y-70490278D01*
X73675590Y-70484641D01*
X73591144Y-70474500D01*
X73008856Y-70474500D01*
X72970841Y-70479065D01*
X72924411Y-70484640D01*
X72790023Y-70537636D01*
X72674921Y-70624921D01*
X72587636Y-70740023D01*
X72534640Y-70874411D01*
X72529065Y-70920841D01*
X72524500Y-70958856D01*
X55821218Y-70958856D01*
X55819196Y-70922843D01*
X55769026Y-70657690D01*
X55679898Y-70402975D01*
X55553802Y-70164390D01*
X55487828Y-70074999D01*
X55393555Y-69947263D01*
X55202736Y-69756444D01*
X54985612Y-69596199D01*
X54985606Y-69596196D01*
X54747027Y-69470103D01*
X54747026Y-69470102D01*
X54747025Y-69470102D01*
X54666565Y-69441948D01*
X54492309Y-69380973D01*
X54492299Y-69380971D01*
X54227166Y-69330805D01*
X54227159Y-69330804D01*
X54208448Y-69329753D01*
X54114905Y-69324500D01*
X54114895Y-69324500D01*
X50935114Y-69324500D01*
X50935096Y-69324501D01*
X50822841Y-69330804D01*
X50822834Y-69330805D01*
X50557700Y-69380971D01*
X50557690Y-69380973D01*
X50302972Y-69470103D01*
X50064393Y-69596196D01*
X50064387Y-69596199D01*
X49847263Y-69756444D01*
X49656444Y-69947263D01*
X49496199Y-70164387D01*
X49496196Y-70164393D01*
X49370103Y-70402972D01*
X49280973Y-70657690D01*
X49280971Y-70657700D01*
X49230805Y-70922833D01*
X49230804Y-70922840D01*
X49224500Y-71035097D01*
X48300500Y-71035097D01*
X48300500Y-64810000D01*
X56674570Y-64810000D01*
X56694243Y-65022310D01*
X56752593Y-65227387D01*
X56752595Y-65227392D01*
X56752595Y-65227394D01*
X56847631Y-65418253D01*
X56976125Y-65588405D01*
X56976127Y-65588407D01*
X57133697Y-65732052D01*
X57314980Y-65844298D01*
X57513801Y-65921321D01*
X57723389Y-65960500D01*
X57723391Y-65960500D01*
X57936607Y-65960500D01*
X57936609Y-65960500D01*
X58146197Y-65921321D01*
X58345018Y-65844298D01*
X58526301Y-65732052D01*
X58683871Y-65588407D01*
X58812365Y-65418255D01*
X58907404Y-65227389D01*
X58965755Y-65022310D01*
X58976527Y-64906052D01*
X59002313Y-64841117D01*
X59044629Y-64810804D01*
X59153118Y-64810804D01*
X59189501Y-64831674D01*
X59221691Y-64893686D01*
X59223469Y-64906053D01*
X59226822Y-64942237D01*
X59234242Y-65022310D01*
X59292592Y-65227387D01*
X59292594Y-65227392D01*
X59292594Y-65227394D01*
X59387630Y-65418253D01*
X59516124Y-65588405D01*
X59516126Y-65588407D01*
X59673696Y-65732052D01*
X59854979Y-65844298D01*
X60053800Y-65921321D01*
X60263388Y-65960500D01*
X60263390Y-65960500D01*
X60476606Y-65960500D01*
X60476608Y-65960500D01*
X60686196Y-65921321D01*
X60885017Y-65844298D01*
X61066300Y-65732052D01*
X61223870Y-65588407D01*
X61352364Y-65418255D01*
X61447403Y-65227389D01*
X61505754Y-65022310D01*
X61516526Y-64906052D01*
X61542312Y-64841116D01*
X61584628Y-64810803D01*
X61693117Y-64810803D01*
X61729500Y-64831673D01*
X61761690Y-64893685D01*
X61763468Y-64906052D01*
X61774241Y-65022308D01*
X61832593Y-65227390D01*
X61832593Y-65227392D01*
X61927629Y-65418251D01*
X62056124Y-65588404D01*
X62056125Y-65588405D01*
X62213695Y-65732050D01*
X62394978Y-65844296D01*
X62593799Y-65921319D01*
X62803387Y-65960498D01*
X62803389Y-65960498D01*
X63016605Y-65960498D01*
X63016607Y-65960498D01*
X63226195Y-65921319D01*
X63425016Y-65844296D01*
X63606299Y-65732050D01*
X63763869Y-65588405D01*
X63892363Y-65418253D01*
X63987399Y-65227394D01*
X63987400Y-65227392D01*
X63987400Y-65227391D01*
X63987402Y-65227387D01*
X64045753Y-65022308D01*
X64056526Y-64906039D01*
X64082312Y-64841104D01*
X64124613Y-64810801D01*
X64233135Y-64810801D01*
X64269500Y-64831661D01*
X64301690Y-64893673D01*
X64303468Y-64906041D01*
X64314242Y-65022309D01*
X64372594Y-65227391D01*
X64372594Y-65227393D01*
X64467630Y-65418252D01*
X64596124Y-65588404D01*
X64596126Y-65588406D01*
X64753696Y-65732051D01*
X64934979Y-65844297D01*
X65133800Y-65921320D01*
X65343388Y-65960499D01*
X65343390Y-65960499D01*
X65556606Y-65960499D01*
X65556608Y-65960499D01*
X65766196Y-65921320D01*
X65965017Y-65844297D01*
X66146300Y-65732051D01*
X66303870Y-65588406D01*
X66432364Y-65418254D01*
X66432365Y-65418251D01*
X66527401Y-65227393D01*
X66527401Y-65227392D01*
X66527403Y-65227388D01*
X66585754Y-65022309D01*
X66596527Y-64906046D01*
X66622313Y-64841110D01*
X66664620Y-64810803D01*
X66773128Y-64810803D01*
X66809501Y-64831667D01*
X66841691Y-64893680D01*
X66843469Y-64906047D01*
X66854242Y-65022309D01*
X66912594Y-65227391D01*
X66912594Y-65227393D01*
X67007630Y-65418252D01*
X67136124Y-65588404D01*
X67136126Y-65588406D01*
X67293696Y-65732051D01*
X67474979Y-65844297D01*
X67673800Y-65921320D01*
X67883388Y-65960499D01*
X67883390Y-65960499D01*
X68096606Y-65960499D01*
X68096608Y-65960499D01*
X68306196Y-65921320D01*
X68505017Y-65844297D01*
X68686300Y-65732051D01*
X68843870Y-65588406D01*
X68972364Y-65418254D01*
X68972365Y-65418251D01*
X69067401Y-65227393D01*
X69067401Y-65227392D01*
X69067403Y-65227388D01*
X69125754Y-65022309D01*
X69136527Y-64906046D01*
X69162313Y-64841110D01*
X69204620Y-64810803D01*
X69313128Y-64810803D01*
X69349501Y-64831667D01*
X69381691Y-64893680D01*
X69383469Y-64906047D01*
X69394242Y-65022309D01*
X69452594Y-65227391D01*
X69452594Y-65227393D01*
X69547630Y-65418252D01*
X69676124Y-65588404D01*
X69676126Y-65588406D01*
X69833696Y-65732051D01*
X70014979Y-65844297D01*
X70213800Y-65921320D01*
X70423388Y-65960499D01*
X70423390Y-65960499D01*
X70636606Y-65960499D01*
X70636608Y-65960499D01*
X70846196Y-65921320D01*
X71045017Y-65844297D01*
X71226300Y-65732051D01*
X71383870Y-65588406D01*
X71512364Y-65418254D01*
X71512365Y-65418251D01*
X71607401Y-65227393D01*
X71607401Y-65227392D01*
X71607403Y-65227388D01*
X71665754Y-65022309D01*
X71676527Y-64906046D01*
X71702311Y-64841111D01*
X71744620Y-64810803D01*
X71853126Y-64810803D01*
X71889499Y-64831667D01*
X71921690Y-64893680D01*
X71923468Y-64906047D01*
X71926822Y-64942237D01*
X71934242Y-65022310D01*
X71992592Y-65227387D01*
X71992594Y-65227392D01*
X71992594Y-65227394D01*
X72087630Y-65418253D01*
X72216124Y-65588405D01*
X72216126Y-65588407D01*
X72373696Y-65732052D01*
X72554979Y-65844298D01*
X72753800Y-65921321D01*
X72963388Y-65960500D01*
X72963390Y-65960500D01*
X73176606Y-65960500D01*
X73176608Y-65960500D01*
X73386196Y-65921321D01*
X73585017Y-65844298D01*
X73766300Y-65732052D01*
X73923870Y-65588407D01*
X74052364Y-65418255D01*
X74147403Y-65227389D01*
X74205754Y-65022310D01*
X74216527Y-64906047D01*
X74242313Y-64841111D01*
X74284621Y-64810803D01*
X74393126Y-64810803D01*
X74429501Y-64831668D01*
X74461691Y-64893681D01*
X74463469Y-64906048D01*
X74474242Y-65022309D01*
X74532594Y-65227391D01*
X74532594Y-65227393D01*
X74627630Y-65418252D01*
X74756124Y-65588404D01*
X74756126Y-65588406D01*
X74913696Y-65732051D01*
X75094979Y-65844297D01*
X75293800Y-65921320D01*
X75503388Y-65960499D01*
X75503390Y-65960499D01*
X75716606Y-65960499D01*
X75716608Y-65960499D01*
X75926196Y-65921320D01*
X76125017Y-65844297D01*
X76306300Y-65732051D01*
X76463870Y-65588406D01*
X76592364Y-65418254D01*
X76592365Y-65418251D01*
X76687401Y-65227393D01*
X76687401Y-65227392D01*
X76687403Y-65227388D01*
X76745754Y-65022309D01*
X76752027Y-64954604D01*
X76777812Y-64889668D01*
X76834612Y-64848980D01*
X76904393Y-64845460D01*
X76965000Y-64880224D01*
X76997191Y-64942237D01*
X76999498Y-64966046D01*
X76999498Y-65704855D01*
X76999500Y-65704881D01*
X77002411Y-65729986D01*
X77002413Y-65729990D01*
X77047791Y-65832763D01*
X77047792Y-65832764D01*
X77127233Y-65912205D01*
X77230007Y-65957584D01*
X77255133Y-65960499D01*
X79044862Y-65960498D01*
X79044877Y-65960496D01*
X79044880Y-65960496D01*
X79069985Y-65957585D01*
X79069986Y-65957584D01*
X79069989Y-65957584D01*
X79172763Y-65912205D01*
X79252204Y-65832764D01*
X79297583Y-65729990D01*
X79300498Y-65704864D01*
X79300497Y-63915135D01*
X79300495Y-63915116D01*
X79297584Y-63890011D01*
X79297583Y-63890009D01*
X79297583Y-63890008D01*
X79252204Y-63787234D01*
X79172763Y-63707793D01*
X79152122Y-63698679D01*
X79069990Y-63662414D01*
X79044863Y-63659499D01*
X77255141Y-63659499D01*
X77255115Y-63659501D01*
X77230010Y-63662412D01*
X77230006Y-63662414D01*
X77127233Y-63707792D01*
X77047792Y-63787233D01*
X77002413Y-63890005D01*
X77002413Y-63890007D01*
X76999498Y-63915130D01*
X76999498Y-64653950D01*
X76979813Y-64720989D01*
X76927009Y-64766744D01*
X76857851Y-64776688D01*
X76794295Y-64747663D01*
X76756521Y-64688885D01*
X76752027Y-64665390D01*
X76745754Y-64597688D01*
X76731271Y-64546788D01*
X76687403Y-64392610D01*
X76687401Y-64392605D01*
X76687401Y-64392604D01*
X76592365Y-64201745D01*
X76463870Y-64031592D01*
X76336131Y-63915142D01*
X76306300Y-63887947D01*
X76125017Y-63775701D01*
X76125015Y-63775700D01*
X76025606Y-63737189D01*
X75926196Y-63698678D01*
X75716608Y-63659499D01*
X75503388Y-63659499D01*
X75293800Y-63698678D01*
X75293797Y-63698678D01*
X75293797Y-63698679D01*
X75094980Y-63775700D01*
X75094978Y-63775701D01*
X74913697Y-63887946D01*
X74756125Y-64031592D01*
X74627630Y-64201745D01*
X74532594Y-64392604D01*
X74532594Y-64392606D01*
X74474242Y-64597688D01*
X74463468Y-64713951D01*
X74437681Y-64778888D01*
X74393126Y-64810803D01*
X74284621Y-64810803D01*
X74286867Y-64809194D01*
X74250493Y-64788329D01*
X74218304Y-64726316D01*
X74216527Y-64713955D01*
X74205754Y-64597690D01*
X74205753Y-64597688D01*
X74191271Y-64546789D01*
X74147403Y-64392611D01*
X74147401Y-64392606D01*
X74147401Y-64392605D01*
X74052365Y-64201746D01*
X73923870Y-64031593D01*
X73923868Y-64031591D01*
X73766300Y-63887948D01*
X73585017Y-63775702D01*
X73585015Y-63775701D01*
X73409722Y-63707793D01*
X73386196Y-63698679D01*
X73176608Y-63659500D01*
X72963388Y-63659500D01*
X72753800Y-63698679D01*
X72753797Y-63698679D01*
X72753797Y-63698680D01*
X72554980Y-63775701D01*
X72554978Y-63775702D01*
X72373697Y-63887947D01*
X72216125Y-64031593D01*
X72087630Y-64201746D01*
X71992594Y-64392605D01*
X71992594Y-64392607D01*
X71934242Y-64597689D01*
X71923469Y-64713950D01*
X71897683Y-64778887D01*
X71853126Y-64810803D01*
X71744620Y-64810803D01*
X71746867Y-64809193D01*
X71710495Y-64788330D01*
X71678305Y-64726317D01*
X71676527Y-64713950D01*
X71670967Y-64653950D01*
X71665754Y-64597689D01*
X71607403Y-64392610D01*
X71607401Y-64392605D01*
X71607401Y-64392604D01*
X71512365Y-64201745D01*
X71383870Y-64031592D01*
X71256131Y-63915142D01*
X71226300Y-63887947D01*
X71045017Y-63775701D01*
X71045015Y-63775700D01*
X70945606Y-63737189D01*
X70846196Y-63698678D01*
X70636608Y-63659499D01*
X70423388Y-63659499D01*
X70213800Y-63698678D01*
X70213797Y-63698678D01*
X70213797Y-63698679D01*
X70014980Y-63775700D01*
X70014978Y-63775701D01*
X69833697Y-63887946D01*
X69676125Y-64031592D01*
X69547630Y-64201745D01*
X69452594Y-64392604D01*
X69452594Y-64392606D01*
X69394242Y-64597688D01*
X69383469Y-64713950D01*
X69357683Y-64778887D01*
X69313128Y-64810803D01*
X69204620Y-64810803D01*
X69206867Y-64809193D01*
X69170495Y-64788330D01*
X69138305Y-64726317D01*
X69136527Y-64713950D01*
X69130967Y-64653950D01*
X69125754Y-64597689D01*
X69067403Y-64392610D01*
X69067401Y-64392605D01*
X69067401Y-64392604D01*
X68972365Y-64201745D01*
X68843870Y-64031592D01*
X68716131Y-63915142D01*
X68686300Y-63887947D01*
X68505017Y-63775701D01*
X68505015Y-63775700D01*
X68405606Y-63737189D01*
X68306196Y-63698678D01*
X68096608Y-63659499D01*
X67883388Y-63659499D01*
X67673800Y-63698678D01*
X67673797Y-63698678D01*
X67673797Y-63698679D01*
X67474980Y-63775700D01*
X67474978Y-63775701D01*
X67293697Y-63887946D01*
X67136125Y-64031592D01*
X67007630Y-64201745D01*
X66912594Y-64392604D01*
X66912594Y-64392606D01*
X66854242Y-64597688D01*
X66843469Y-64713950D01*
X66817683Y-64778887D01*
X66773128Y-64810803D01*
X66664620Y-64810803D01*
X66666867Y-64809193D01*
X66630495Y-64788330D01*
X66598305Y-64726317D01*
X66596527Y-64713950D01*
X66590967Y-64653950D01*
X66585754Y-64597689D01*
X66527403Y-64392610D01*
X66527401Y-64392605D01*
X66527401Y-64392604D01*
X66432365Y-64201745D01*
X66303870Y-64031592D01*
X66176131Y-63915142D01*
X66146300Y-63887947D01*
X65965017Y-63775701D01*
X65965015Y-63775700D01*
X65865606Y-63737189D01*
X65766196Y-63698678D01*
X65556608Y-63659499D01*
X65343388Y-63659499D01*
X65133800Y-63698678D01*
X65133797Y-63698678D01*
X65133797Y-63698679D01*
X64934980Y-63775700D01*
X64934978Y-63775701D01*
X64753697Y-63887946D01*
X64596125Y-64031592D01*
X64467630Y-64201745D01*
X64372594Y-64392604D01*
X64372594Y-64392606D01*
X64314242Y-64597688D01*
X64303468Y-64713956D01*
X64277682Y-64778893D01*
X64233135Y-64810801D01*
X64124613Y-64810801D01*
X64126858Y-64809193D01*
X64090494Y-64788334D01*
X64058304Y-64726322D01*
X64056527Y-64713964D01*
X64045753Y-64597688D01*
X63987402Y-64392609D01*
X63987400Y-64392604D01*
X63987400Y-64392603D01*
X63892364Y-64201744D01*
X63763869Y-64031591D01*
X63636131Y-63915142D01*
X63606299Y-63887946D01*
X63425016Y-63775700D01*
X63425014Y-63775699D01*
X63249726Y-63707793D01*
X63226195Y-63698677D01*
X63016607Y-63659498D01*
X62803387Y-63659498D01*
X62593799Y-63698677D01*
X62593796Y-63698677D01*
X62593796Y-63698678D01*
X62394979Y-63775699D01*
X62394977Y-63775700D01*
X62213696Y-63887945D01*
X62056124Y-64031591D01*
X61927629Y-64201744D01*
X61832593Y-64392603D01*
X61832593Y-64392605D01*
X61774241Y-64597687D01*
X61763468Y-64713945D01*
X61737682Y-64778882D01*
X61693117Y-64810803D01*
X61584628Y-64810803D01*
X61586875Y-64809193D01*
X61550494Y-64788324D01*
X61518304Y-64726311D01*
X61516526Y-64713944D01*
X61510967Y-64653950D01*
X61505754Y-64597690D01*
X61447403Y-64392611D01*
X61447401Y-64392606D01*
X61447401Y-64392605D01*
X61352365Y-64201746D01*
X61223870Y-64031593D01*
X61223868Y-64031591D01*
X61066300Y-63887948D01*
X60885017Y-63775702D01*
X60885015Y-63775701D01*
X60709722Y-63707793D01*
X60686196Y-63698679D01*
X60476608Y-63659500D01*
X60263388Y-63659500D01*
X60053800Y-63698679D01*
X60053797Y-63698679D01*
X60053797Y-63698680D01*
X59854980Y-63775701D01*
X59854978Y-63775702D01*
X59673697Y-63887947D01*
X59516125Y-64031593D01*
X59387630Y-64201746D01*
X59292594Y-64392605D01*
X59292594Y-64392607D01*
X59234242Y-64597689D01*
X59223469Y-64713946D01*
X59197683Y-64778883D01*
X59153118Y-64810804D01*
X59044629Y-64810804D01*
X59046876Y-64809194D01*
X59010495Y-64788324D01*
X58978305Y-64726312D01*
X58976527Y-64713945D01*
X58972028Y-64665390D01*
X58965755Y-64597690D01*
X58907404Y-64392611D01*
X58907402Y-64392606D01*
X58907402Y-64392605D01*
X58812366Y-64201746D01*
X58683871Y-64031593D01*
X58683869Y-64031591D01*
X58526301Y-63887948D01*
X58345018Y-63775702D01*
X58345016Y-63775701D01*
X58169723Y-63707793D01*
X58146197Y-63698679D01*
X57936609Y-63659500D01*
X57723389Y-63659500D01*
X57513801Y-63698679D01*
X57513798Y-63698679D01*
X57513798Y-63698680D01*
X57314981Y-63775701D01*
X57314979Y-63775702D01*
X57133698Y-63887947D01*
X56976126Y-64031593D01*
X56847631Y-64201746D01*
X56752595Y-64392605D01*
X56752595Y-64392607D01*
X56694243Y-64597689D01*
X56676579Y-64788324D01*
X56674570Y-64810000D01*
X48300500Y-64810000D01*
X48300500Y-55500000D01*
X48894615Y-55500000D01*
X48914140Y-55847688D01*
X48914142Y-55847700D01*
X48972472Y-56191009D01*
X48972474Y-56191017D01*
X48994637Y-56267945D01*
X49068879Y-56525644D01*
X49202145Y-56847376D01*
X49370595Y-57152164D01*
X49572112Y-57436176D01*
X49804161Y-57695839D01*
X50063824Y-57927888D01*
X50347836Y-58129405D01*
X50652624Y-58297855D01*
X50974356Y-58431121D01*
X51308987Y-58527527D01*
X51652307Y-58585859D01*
X52000000Y-58605385D01*
X52347693Y-58585859D01*
X52691013Y-58527527D01*
X53025644Y-58431121D01*
X53347376Y-58297855D01*
X53652164Y-58129405D01*
X53936176Y-57927888D01*
X54195839Y-57695839D01*
X54427888Y-57436176D01*
X54602560Y-57189999D01*
X56674570Y-57189999D01*
X56694243Y-57402309D01*
X56752593Y-57607386D01*
X56752595Y-57607391D01*
X56752595Y-57607393D01*
X56847631Y-57798252D01*
X56976125Y-57968404D01*
X56976127Y-57968406D01*
X57133697Y-58112051D01*
X57314980Y-58224297D01*
X57513801Y-58301320D01*
X57723389Y-58340499D01*
X57723391Y-58340499D01*
X57936607Y-58340499D01*
X57936609Y-58340499D01*
X58146197Y-58301320D01*
X58345018Y-58224297D01*
X58526301Y-58112051D01*
X58683871Y-57968406D01*
X58812365Y-57798254D01*
X58907404Y-57607388D01*
X58965755Y-57402309D01*
X58976527Y-57286051D01*
X59002313Y-57221116D01*
X59044629Y-57190803D01*
X59153118Y-57190803D01*
X59189501Y-57211673D01*
X59221691Y-57273685D01*
X59223469Y-57286052D01*
X59226822Y-57322236D01*
X59234242Y-57402309D01*
X59292592Y-57607386D01*
X59292594Y-57607391D01*
X59292594Y-57607393D01*
X59387630Y-57798252D01*
X59516124Y-57968404D01*
X59516126Y-57968406D01*
X59673696Y-58112051D01*
X59854979Y-58224297D01*
X60053800Y-58301320D01*
X60263388Y-58340499D01*
X60263390Y-58340499D01*
X60476606Y-58340499D01*
X60476608Y-58340499D01*
X60686196Y-58301320D01*
X60885017Y-58224297D01*
X61066300Y-58112051D01*
X61223870Y-57968406D01*
X61352364Y-57798254D01*
X61447403Y-57607388D01*
X61505754Y-57402309D01*
X61516526Y-57286051D01*
X61542312Y-57221115D01*
X61584628Y-57190802D01*
X61693117Y-57190802D01*
X61729500Y-57211672D01*
X61761690Y-57273684D01*
X61763468Y-57286051D01*
X61774241Y-57402307D01*
X61832593Y-57607389D01*
X61832593Y-57607391D01*
X61927629Y-57798250D01*
X62025527Y-57927886D01*
X62056125Y-57968404D01*
X62213695Y-58112049D01*
X62394978Y-58224295D01*
X62593799Y-58301318D01*
X62803387Y-58340497D01*
X62803389Y-58340497D01*
X63016605Y-58340497D01*
X63016607Y-58340497D01*
X63226195Y-58301318D01*
X63425016Y-58224295D01*
X63606299Y-58112049D01*
X63763869Y-57968404D01*
X63892363Y-57798252D01*
X63987399Y-57607393D01*
X63987400Y-57607391D01*
X63987400Y-57607390D01*
X63987402Y-57607386D01*
X64045753Y-57402307D01*
X64056526Y-57286038D01*
X64082312Y-57221103D01*
X64124613Y-57190800D01*
X64233135Y-57190800D01*
X64269500Y-57211660D01*
X64301690Y-57273672D01*
X64303468Y-57286040D01*
X64314242Y-57402308D01*
X64372594Y-57607390D01*
X64372594Y-57607392D01*
X64467630Y-57798251D01*
X64572325Y-57936888D01*
X64596126Y-57968405D01*
X64753696Y-58112050D01*
X64934979Y-58224296D01*
X65133800Y-58301319D01*
X65343388Y-58340498D01*
X65343390Y-58340498D01*
X65556606Y-58340498D01*
X65556608Y-58340498D01*
X65766196Y-58301319D01*
X65965017Y-58224296D01*
X66146300Y-58112050D01*
X66303870Y-57968405D01*
X66432364Y-57798253D01*
X66483360Y-57695838D01*
X66527401Y-57607392D01*
X66527401Y-57607391D01*
X66527403Y-57607387D01*
X66585754Y-57402308D01*
X66596527Y-57286045D01*
X66622313Y-57221109D01*
X66664620Y-57190802D01*
X66773128Y-57190802D01*
X66809501Y-57211666D01*
X66841691Y-57273679D01*
X66843469Y-57286046D01*
X66854242Y-57402308D01*
X66912594Y-57607390D01*
X66912594Y-57607392D01*
X67007630Y-57798251D01*
X67112325Y-57936888D01*
X67136126Y-57968405D01*
X67293696Y-58112050D01*
X67474979Y-58224296D01*
X67673800Y-58301319D01*
X67883388Y-58340498D01*
X67883390Y-58340498D01*
X68096606Y-58340498D01*
X68096608Y-58340498D01*
X68306196Y-58301319D01*
X68505017Y-58224296D01*
X68686300Y-58112050D01*
X68843870Y-57968405D01*
X68972364Y-57798253D01*
X69023360Y-57695838D01*
X69067401Y-57607392D01*
X69067401Y-57607391D01*
X69067403Y-57607387D01*
X69125754Y-57402308D01*
X69136527Y-57286045D01*
X69162313Y-57221109D01*
X69204620Y-57190802D01*
X69313128Y-57190802D01*
X69349501Y-57211666D01*
X69381691Y-57273679D01*
X69383469Y-57286046D01*
X69394242Y-57402308D01*
X69452594Y-57607390D01*
X69452594Y-57607392D01*
X69547630Y-57798251D01*
X69652325Y-57936888D01*
X69676126Y-57968405D01*
X69833696Y-58112050D01*
X70014979Y-58224296D01*
X70014983Y-58224297D01*
X70014986Y-58224299D01*
X70060292Y-58241850D01*
X70115695Y-58284422D01*
X70139286Y-58350188D01*
X70139500Y-58357477D01*
X70139500Y-58907085D01*
X70119815Y-58974124D01*
X70099232Y-58996084D01*
X70100151Y-58997003D01*
X70093577Y-59003577D01*
X70015618Y-59109207D01*
X69972258Y-59233118D01*
X69972258Y-59233120D01*
X69969500Y-59262538D01*
X69969500Y-59737453D01*
X69972258Y-59766874D01*
X69972260Y-59766884D01*
X70015618Y-59890792D01*
X70093576Y-59996423D01*
X70103633Y-60003845D01*
X70199206Y-60074381D01*
X70240511Y-60088834D01*
X70323119Y-60117741D01*
X70330796Y-60118460D01*
X70352543Y-60120500D01*
X70727456Y-60120499D01*
X70756879Y-60117741D01*
X70880794Y-60074381D01*
X70976367Y-60003844D01*
X71041995Y-59979874D01*
X71110165Y-59995189D01*
X71123629Y-60003842D01*
X71219206Y-60074381D01*
X71260511Y-60088834D01*
X71343119Y-60117741D01*
X71350796Y-60118460D01*
X71372543Y-60120500D01*
X71562743Y-60120499D01*
X71629783Y-60140183D01*
X71650425Y-60156818D01*
X71834087Y-60340480D01*
X71925412Y-60393207D01*
X72027273Y-60420500D01*
X72027275Y-60420500D01*
X73642725Y-60420500D01*
X73642727Y-60420500D01*
X73744588Y-60393207D01*
X73835913Y-60340480D01*
X74019575Y-60156816D01*
X74080896Y-60123333D01*
X74107255Y-60120499D01*
X74297454Y-60120499D01*
X74297456Y-60120499D01*
X74326879Y-60117741D01*
X74450794Y-60074381D01*
X74556423Y-59996423D01*
X74634381Y-59890794D01*
X74656061Y-59828836D01*
X74677741Y-59766881D01*
X74677741Y-59766879D01*
X74677741Y-59766874D01*
X74680500Y-59737457D01*
X74680499Y-59262544D01*
X74677741Y-59233121D01*
X74634381Y-59109206D01*
X74556423Y-59003577D01*
X74556419Y-59003574D01*
X74549849Y-58997003D01*
X74551882Y-58994969D01*
X74518708Y-58951273D01*
X74513252Y-58881617D01*
X74546322Y-58820068D01*
X74546716Y-58819672D01*
X75071805Y-58294582D01*
X75133126Y-58261099D01*
X75202818Y-58266083D01*
X75204259Y-58266630D01*
X75293800Y-58301319D01*
X75503388Y-58340498D01*
X75503390Y-58340498D01*
X75716606Y-58340498D01*
X75716608Y-58340498D01*
X75926196Y-58301319D01*
X76125017Y-58224296D01*
X76306300Y-58112050D01*
X76463870Y-57968405D01*
X76592364Y-57798253D01*
X76643360Y-57695838D01*
X76687401Y-57607392D01*
X76687401Y-57607391D01*
X76687403Y-57607387D01*
X76745754Y-57402308D01*
X76752027Y-57334603D01*
X76777812Y-57269667D01*
X76834612Y-57228979D01*
X76904393Y-57225459D01*
X76965000Y-57260223D01*
X76997191Y-57322236D01*
X76999498Y-57346045D01*
X76999498Y-58084854D01*
X76999500Y-58084880D01*
X77002411Y-58109985D01*
X77002413Y-58109989D01*
X77047791Y-58212762D01*
X77047792Y-58212763D01*
X77127233Y-58292204D01*
X77230007Y-58337583D01*
X77255133Y-58340498D01*
X79044862Y-58340497D01*
X79044877Y-58340495D01*
X79044880Y-58340495D01*
X79069985Y-58337584D01*
X79069986Y-58337583D01*
X79069989Y-58337583D01*
X79172763Y-58292204D01*
X79252204Y-58212763D01*
X79297583Y-58109989D01*
X79300498Y-58084863D01*
X79300497Y-56295134D01*
X79300495Y-56295115D01*
X79297584Y-56270010D01*
X79297583Y-56270008D01*
X79297583Y-56270007D01*
X79252204Y-56167233D01*
X79172763Y-56087792D01*
X79152122Y-56078678D01*
X79069990Y-56042413D01*
X79044863Y-56039498D01*
X77255141Y-56039498D01*
X77255115Y-56039500D01*
X77230010Y-56042411D01*
X77230006Y-56042413D01*
X77127233Y-56087791D01*
X77047792Y-56167232D01*
X77002413Y-56270004D01*
X77002413Y-56270006D01*
X76999498Y-56295129D01*
X76999498Y-57033949D01*
X76979813Y-57100988D01*
X76927009Y-57146743D01*
X76857851Y-57156687D01*
X76794295Y-57127662D01*
X76756521Y-57068884D01*
X76752027Y-57045389D01*
X76745754Y-56977687D01*
X76708676Y-56847376D01*
X76687403Y-56772609D01*
X76687401Y-56772604D01*
X76687401Y-56772603D01*
X76592365Y-56581744D01*
X76463870Y-56411591D01*
X76336131Y-56295141D01*
X76306300Y-56267946D01*
X76125017Y-56155700D01*
X76125015Y-56155699D01*
X76025606Y-56117188D01*
X75926196Y-56078677D01*
X75716608Y-56039498D01*
X75503388Y-56039498D01*
X75293800Y-56078677D01*
X75293797Y-56078677D01*
X75293797Y-56078678D01*
X75094980Y-56155699D01*
X75094978Y-56155700D01*
X74913697Y-56267945D01*
X74756125Y-56411591D01*
X74627630Y-56581744D01*
X74532594Y-56772603D01*
X74532594Y-56772605D01*
X74474242Y-56977687D01*
X74463468Y-57093950D01*
X74437681Y-57158887D01*
X74393126Y-57190802D01*
X74429501Y-57211667D01*
X74461691Y-57273680D01*
X74463469Y-57286047D01*
X74474242Y-57402308D01*
X74533388Y-57610182D01*
X74532802Y-57680050D01*
X74501803Y-57731798D01*
X74134306Y-58099296D01*
X74072983Y-58132781D01*
X74019769Y-58128975D01*
X74027144Y-58151931D01*
X74009155Y-58219446D01*
X73990864Y-58242738D01*
X73789522Y-58444080D01*
X73789518Y-58444086D01*
X73736792Y-58535408D01*
X73736792Y-58535410D01*
X73734275Y-58544808D01*
X73697909Y-58604468D01*
X73635062Y-58634996D01*
X73565686Y-58626701D01*
X73511809Y-58582215D01*
X73490535Y-58515663D01*
X73490500Y-58512713D01*
X73490500Y-58345854D01*
X73510185Y-58278815D01*
X73562989Y-58233060D01*
X73569682Y-58230237D01*
X73585017Y-58224297D01*
X73766300Y-58112051D01*
X73819644Y-58063420D01*
X73882448Y-58032803D01*
X73929622Y-58038375D01*
X73922941Y-58020461D01*
X73937793Y-57952188D01*
X73947668Y-57936892D01*
X74052364Y-57798254D01*
X74147403Y-57607388D01*
X74205754Y-57402309D01*
X74216527Y-57286046D01*
X74242313Y-57221110D01*
X74286867Y-57189193D01*
X74250493Y-57168328D01*
X74218304Y-57106315D01*
X74216527Y-57093954D01*
X74205754Y-56977689D01*
X74205753Y-56977687D01*
X74168676Y-56847376D01*
X74147403Y-56772610D01*
X74147401Y-56772605D01*
X74147401Y-56772604D01*
X74052365Y-56581745D01*
X73923870Y-56411592D01*
X73923868Y-56411590D01*
X73766300Y-56267947D01*
X73585017Y-56155701D01*
X73585015Y-56155700D01*
X73409722Y-56087792D01*
X73386196Y-56078678D01*
X73176608Y-56039499D01*
X72963388Y-56039499D01*
X72753800Y-56078678D01*
X72753797Y-56078678D01*
X72753797Y-56078679D01*
X72554980Y-56155700D01*
X72554978Y-56155701D01*
X72373697Y-56267946D01*
X72216125Y-56411592D01*
X72087630Y-56581745D01*
X71992594Y-56772604D01*
X71992594Y-56772606D01*
X71934242Y-56977688D01*
X71923469Y-57093949D01*
X71897683Y-57158886D01*
X71853126Y-57190802D01*
X71889499Y-57211666D01*
X71921690Y-57273679D01*
X71923468Y-57286046D01*
X71926822Y-57322236D01*
X71934242Y-57402309D01*
X71992592Y-57607386D01*
X71992594Y-57607391D01*
X71992594Y-57607393D01*
X72087630Y-57798252D01*
X72216124Y-57968404D01*
X72216126Y-57968406D01*
X72373696Y-58112051D01*
X72554979Y-58224297D01*
X72610294Y-58245725D01*
X72665695Y-58288297D01*
X72689286Y-58354064D01*
X72689500Y-58361352D01*
X72689500Y-58907085D01*
X72669815Y-58974124D01*
X72649232Y-58996084D01*
X72650151Y-58997003D01*
X72643577Y-59003577D01*
X72565618Y-59109207D01*
X72522258Y-59233118D01*
X72522258Y-59233120D01*
X72519500Y-59262538D01*
X72519501Y-59495499D01*
X72499817Y-59562539D01*
X72447013Y-59608294D01*
X72395501Y-59619500D01*
X72297255Y-59619500D01*
X72230216Y-59599815D01*
X72209574Y-59583181D01*
X72166818Y-59540425D01*
X72133333Y-59479102D01*
X72130499Y-59452744D01*
X72130499Y-59262545D01*
X72127741Y-59233125D01*
X72127741Y-59233121D01*
X72084381Y-59109206D01*
X72045402Y-59056391D01*
X72006423Y-59003576D01*
X71926198Y-58944368D01*
X71900794Y-58925619D01*
X71900792Y-58925618D01*
X71776880Y-58882258D01*
X71747461Y-58879500D01*
X71372546Y-58879500D01*
X71343125Y-58882258D01*
X71343115Y-58882260D01*
X71219207Y-58925618D01*
X71138134Y-58985453D01*
X71072505Y-59009424D01*
X71004334Y-58994109D01*
X70955266Y-58944368D01*
X70940500Y-58885683D01*
X70940500Y-58349727D01*
X70960185Y-58282688D01*
X71012989Y-58236933D01*
X71019689Y-58234107D01*
X71045017Y-58224296D01*
X71226300Y-58112050D01*
X71383870Y-57968405D01*
X71512364Y-57798253D01*
X71563360Y-57695838D01*
X71607401Y-57607392D01*
X71607401Y-57607391D01*
X71607403Y-57607387D01*
X71665754Y-57402308D01*
X71676527Y-57286045D01*
X71702311Y-57221110D01*
X71746867Y-57189192D01*
X71710495Y-57168329D01*
X71678305Y-57106316D01*
X71676527Y-57093949D01*
X71670967Y-57033949D01*
X71665754Y-56977688D01*
X71607403Y-56772609D01*
X71607401Y-56772604D01*
X71607401Y-56772603D01*
X71512365Y-56581744D01*
X71383870Y-56411591D01*
X71256131Y-56295141D01*
X71226300Y-56267946D01*
X71045017Y-56155700D01*
X71045015Y-56155699D01*
X70945606Y-56117188D01*
X70846196Y-56078677D01*
X70636608Y-56039498D01*
X70423388Y-56039498D01*
X70213800Y-56078677D01*
X70213797Y-56078677D01*
X70213797Y-56078678D01*
X70014980Y-56155699D01*
X70014978Y-56155700D01*
X69833697Y-56267945D01*
X69676125Y-56411591D01*
X69547630Y-56581744D01*
X69452594Y-56772603D01*
X69452594Y-56772605D01*
X69394242Y-56977687D01*
X69383469Y-57093949D01*
X69357683Y-57158886D01*
X69313128Y-57190802D01*
X69204620Y-57190802D01*
X69206867Y-57189192D01*
X69170495Y-57168329D01*
X69138305Y-57106316D01*
X69136527Y-57093949D01*
X69130967Y-57033949D01*
X69125754Y-56977688D01*
X69067403Y-56772609D01*
X69067401Y-56772604D01*
X69067401Y-56772603D01*
X68972365Y-56581744D01*
X68843870Y-56411591D01*
X68716131Y-56295141D01*
X68686300Y-56267946D01*
X68505017Y-56155700D01*
X68505015Y-56155699D01*
X68405606Y-56117188D01*
X68306196Y-56078677D01*
X68096608Y-56039498D01*
X67883388Y-56039498D01*
X67673800Y-56078677D01*
X67673797Y-56078677D01*
X67673797Y-56078678D01*
X67474980Y-56155699D01*
X67474978Y-56155700D01*
X67293697Y-56267945D01*
X67136125Y-56411591D01*
X67007630Y-56581744D01*
X66912594Y-56772603D01*
X66912594Y-56772605D01*
X66854242Y-56977687D01*
X66843469Y-57093949D01*
X66817683Y-57158886D01*
X66773128Y-57190802D01*
X66664620Y-57190802D01*
X66666867Y-57189192D01*
X66630495Y-57168329D01*
X66598305Y-57106316D01*
X66596527Y-57093949D01*
X66590967Y-57033949D01*
X66585754Y-56977688D01*
X66527403Y-56772609D01*
X66527401Y-56772604D01*
X66527401Y-56772603D01*
X66432365Y-56581744D01*
X66303870Y-56411591D01*
X66176131Y-56295141D01*
X66146300Y-56267946D01*
X65965017Y-56155700D01*
X65965015Y-56155699D01*
X65865606Y-56117188D01*
X65766196Y-56078677D01*
X65556608Y-56039498D01*
X65343388Y-56039498D01*
X65133800Y-56078677D01*
X65133797Y-56078677D01*
X65133797Y-56078678D01*
X64934980Y-56155699D01*
X64934978Y-56155700D01*
X64753697Y-56267945D01*
X64596125Y-56411591D01*
X64467630Y-56581744D01*
X64372594Y-56772603D01*
X64372594Y-56772605D01*
X64314242Y-56977687D01*
X64303468Y-57093955D01*
X64277682Y-57158892D01*
X64233135Y-57190800D01*
X64124613Y-57190800D01*
X64126858Y-57189192D01*
X64090494Y-57168333D01*
X64058304Y-57106321D01*
X64056527Y-57093963D01*
X64045753Y-56977687D01*
X63987402Y-56772608D01*
X63987400Y-56772603D01*
X63987400Y-56772602D01*
X63892364Y-56581743D01*
X63763869Y-56411590D01*
X63636131Y-56295141D01*
X63606299Y-56267945D01*
X63425016Y-56155699D01*
X63425014Y-56155698D01*
X63249726Y-56087792D01*
X63226195Y-56078676D01*
X63016607Y-56039497D01*
X62803387Y-56039497D01*
X62593799Y-56078676D01*
X62593796Y-56078676D01*
X62593796Y-56078677D01*
X62394979Y-56155698D01*
X62394977Y-56155699D01*
X62213696Y-56267944D01*
X62056124Y-56411590D01*
X61927629Y-56581743D01*
X61832593Y-56772602D01*
X61832593Y-56772604D01*
X61774241Y-56977686D01*
X61763468Y-57093944D01*
X61737682Y-57158881D01*
X61693117Y-57190802D01*
X61584628Y-57190802D01*
X61586875Y-57189192D01*
X61550494Y-57168323D01*
X61518304Y-57106310D01*
X61516526Y-57093943D01*
X61510967Y-57033949D01*
X61505754Y-56977689D01*
X61447403Y-56772610D01*
X61447401Y-56772605D01*
X61447401Y-56772604D01*
X61352365Y-56581745D01*
X61223870Y-56411592D01*
X61223868Y-56411590D01*
X61066300Y-56267947D01*
X60885017Y-56155701D01*
X60885015Y-56155700D01*
X60709722Y-56087792D01*
X60686196Y-56078678D01*
X60476608Y-56039499D01*
X60263388Y-56039499D01*
X60053800Y-56078678D01*
X60053797Y-56078678D01*
X60053797Y-56078679D01*
X59854980Y-56155700D01*
X59854978Y-56155701D01*
X59673697Y-56267946D01*
X59516125Y-56411592D01*
X59387630Y-56581745D01*
X59292594Y-56772604D01*
X59292594Y-56772606D01*
X59234242Y-56977688D01*
X59223469Y-57093945D01*
X59197683Y-57158882D01*
X59153118Y-57190803D01*
X59044629Y-57190803D01*
X59046876Y-57189193D01*
X59010495Y-57168323D01*
X58978305Y-57106311D01*
X58976527Y-57093944D01*
X58972028Y-57045389D01*
X58965755Y-56977689D01*
X58907404Y-56772610D01*
X58907402Y-56772605D01*
X58907402Y-56772604D01*
X58812366Y-56581745D01*
X58683871Y-56411592D01*
X58683869Y-56411590D01*
X58526301Y-56267947D01*
X58345018Y-56155701D01*
X58345016Y-56155700D01*
X58169723Y-56087792D01*
X58146197Y-56078678D01*
X57936609Y-56039499D01*
X57723389Y-56039499D01*
X57513801Y-56078678D01*
X57513798Y-56078678D01*
X57513798Y-56078679D01*
X57314981Y-56155700D01*
X57314979Y-56155701D01*
X57133698Y-56267946D01*
X56976126Y-56411592D01*
X56847631Y-56581745D01*
X56752595Y-56772604D01*
X56752595Y-56772606D01*
X56694243Y-56977688D01*
X56676579Y-57168323D01*
X56674570Y-57189999D01*
X54602560Y-57189999D01*
X54629405Y-57152164D01*
X54797855Y-56847376D01*
X54931121Y-56525644D01*
X55027527Y-56191013D01*
X55085859Y-55847693D01*
X55105385Y-55500000D01*
X80894615Y-55500000D01*
X80914140Y-55847688D01*
X80914142Y-55847700D01*
X80972472Y-56191009D01*
X80972474Y-56191017D01*
X80994637Y-56267945D01*
X81068879Y-56525644D01*
X81202145Y-56847376D01*
X81370595Y-57152164D01*
X81572112Y-57436176D01*
X81804161Y-57695839D01*
X82063824Y-57927888D01*
X82347836Y-58129405D01*
X82652624Y-58297855D01*
X82974356Y-58431121D01*
X83308987Y-58527527D01*
X83652307Y-58585859D01*
X84000000Y-58605385D01*
X84347693Y-58585859D01*
X84691013Y-58527527D01*
X85025644Y-58431121D01*
X85347376Y-58297855D01*
X85652164Y-58129405D01*
X85936176Y-57927888D01*
X86195839Y-57695839D01*
X86427888Y-57436176D01*
X86629405Y-57152164D01*
X86797855Y-56847376D01*
X86931121Y-56525644D01*
X87027527Y-56191013D01*
X87085859Y-55847693D01*
X87105385Y-55500000D01*
X87085859Y-55152307D01*
X87027527Y-54808987D01*
X86931121Y-54474356D01*
X86797855Y-54152624D01*
X86629405Y-53847836D01*
X86427888Y-53563824D01*
X86195839Y-53304161D01*
X85936176Y-53072112D01*
X85652164Y-52870595D01*
X85347376Y-52702145D01*
X85025644Y-52568879D01*
X84858328Y-52520676D01*
X84691017Y-52472474D01*
X84691009Y-52472472D01*
X84347700Y-52414142D01*
X84347688Y-52414140D01*
X84000000Y-52394615D01*
X83652311Y-52414140D01*
X83652299Y-52414142D01*
X83308990Y-52472472D01*
X83308982Y-52472474D01*
X83025585Y-52554120D01*
X82974356Y-52568879D01*
X82925869Y-52588963D01*
X82652625Y-52702144D01*
X82347835Y-52870595D01*
X82147294Y-53012887D01*
X82135584Y-53021196D01*
X82063823Y-53072113D01*
X81804161Y-53304161D01*
X81572113Y-53563823D01*
X81370595Y-53847835D01*
X81202144Y-54152625D01*
X81068878Y-54474359D01*
X80972474Y-54808982D01*
X80972472Y-54808990D01*
X80914142Y-55152299D01*
X80914140Y-55152311D01*
X80894615Y-55500000D01*
X55105385Y-55500000D01*
X55085859Y-55152307D01*
X55027527Y-54808987D01*
X54931121Y-54474356D01*
X54797855Y-54152624D01*
X54629405Y-53847836D01*
X54427888Y-53563824D01*
X54195839Y-53304161D01*
X53936176Y-53072112D01*
X53652164Y-52870595D01*
X53347376Y-52702145D01*
X53025644Y-52568879D01*
X52858328Y-52520676D01*
X52691017Y-52472474D01*
X52691009Y-52472472D01*
X52347700Y-52414142D01*
X52347688Y-52414140D01*
X52000000Y-52394615D01*
X51652311Y-52414140D01*
X51652299Y-52414142D01*
X51308990Y-52472472D01*
X51308982Y-52472474D01*
X51025585Y-52554120D01*
X50974356Y-52568879D01*
X50925869Y-52588963D01*
X50652625Y-52702144D01*
X50347835Y-52870595D01*
X50147294Y-53012887D01*
X50135584Y-53021196D01*
X50063823Y-53072113D01*
X49804161Y-53304161D01*
X49572113Y-53563823D01*
X49370595Y-53847835D01*
X49202144Y-54152625D01*
X49068878Y-54474359D01*
X48972474Y-54808982D01*
X48972472Y-54808990D01*
X48914142Y-55152299D01*
X48914140Y-55152311D01*
X48894615Y-55500000D01*
X48300500Y-55500000D01*
X48300500Y-53504427D01*
X48300816Y-53495581D01*
X48317165Y-53266982D01*
X48319683Y-53249470D01*
X48367459Y-53029851D01*
X48372436Y-53012900D01*
X48450985Y-52802299D01*
X48458325Y-52786227D01*
X48566044Y-52588956D01*
X48575600Y-52574086D01*
X48710294Y-52394156D01*
X48721868Y-52380799D01*
X48880799Y-52221868D01*
X48894156Y-52210294D01*
X49074086Y-52075600D01*
X49088956Y-52066044D01*
X49286227Y-51958325D01*
X49302299Y-51950985D01*
X49512900Y-51872436D01*
X49529851Y-51867459D01*
X49749472Y-51819682D01*
X49766977Y-51817165D01*
X49995582Y-51800816D01*
X50004428Y-51800500D01*
X50047595Y-51800500D01*
X85952405Y-51800500D01*
X85995572Y-51800500D01*
X86004418Y-51800816D01*
G37*
G04 #@! TD.AperFunction*
G04 #@! TA.AperFunction,Conductor*
G36*
X54839238Y-85008645D02*
G01*
X54918435Y-85039877D01*
X55006897Y-85050500D01*
X55006902Y-85050500D01*
X57993096Y-85050500D01*
X57993101Y-85050500D01*
X58081563Y-85039877D01*
X58160759Y-85008645D01*
X58206249Y-85000000D01*
X60809245Y-85000000D01*
X60856695Y-85009438D01*
X60862817Y-85011974D01*
X60984039Y-85027933D01*
X60999999Y-85030035D01*
X61000000Y-85030035D01*
X61000001Y-85030035D01*
X61012947Y-85028330D01*
X61137183Y-85011974D01*
X61143304Y-85009438D01*
X61190755Y-85000000D01*
X61376000Y-85000000D01*
X61443039Y-85019685D01*
X61488794Y-85072489D01*
X61500000Y-85124000D01*
X61500000Y-85333388D01*
X61480315Y-85400427D01*
X61474376Y-85408874D01*
X61415976Y-85484982D01*
X61415974Y-85484984D01*
X61363027Y-85612813D01*
X61363026Y-85612818D01*
X61344965Y-85749999D01*
X61344965Y-85750000D01*
X61363026Y-85887181D01*
X61363027Y-85887186D01*
X61415974Y-86015015D01*
X61415975Y-86015017D01*
X61415976Y-86015018D01*
X61474376Y-86091125D01*
X61499570Y-86156291D01*
X61500000Y-86166610D01*
X61500000Y-86448637D01*
X61480315Y-86515676D01*
X61463681Y-86536318D01*
X61279213Y-86720785D01*
X61217890Y-86754270D01*
X61148198Y-86749286D01*
X61135330Y-86743636D01*
X61128360Y-86740092D01*
X61101749Y-86726561D01*
X61101746Y-86726560D01*
X61101748Y-86726560D01*
X61034716Y-86706877D01*
X61034710Y-86706876D01*
X60948638Y-86694500D01*
X60565755Y-86694500D01*
X60561902Y-86694879D01*
X60506174Y-86700366D01*
X60506164Y-86700368D01*
X60506159Y-86700368D01*
X60506158Y-86700369D01*
X60473956Y-86706774D01*
X60458702Y-86709808D01*
X60456579Y-86710340D01*
X60442651Y-86712991D01*
X60391185Y-86719767D01*
X60358815Y-86719767D01*
X60307351Y-86712992D01*
X60293416Y-86710339D01*
X60291313Y-86709812D01*
X60276552Y-86706876D01*
X60243843Y-86700370D01*
X60243839Y-86700369D01*
X60243831Y-86700368D01*
X60195806Y-86695638D01*
X60184245Y-86694500D01*
X59690755Y-86694500D01*
X59686902Y-86694879D01*
X59631174Y-86700366D01*
X59631164Y-86700368D01*
X59631159Y-86700368D01*
X59631158Y-86700369D01*
X59615187Y-86703545D01*
X59583690Y-86709810D01*
X59581585Y-86710338D01*
X59567652Y-86712991D01*
X59468555Y-86726038D01*
X59456012Y-86727045D01*
X59433137Y-86727717D01*
X59433131Y-86727717D01*
X59433130Y-86727718D01*
X59364368Y-86740092D01*
X59364367Y-86740092D01*
X59364363Y-86740093D01*
X59281847Y-86767516D01*
X57843064Y-87486909D01*
X57787609Y-87500000D01*
X55814502Y-87500000D01*
X55747463Y-87480315D01*
X55701708Y-87427511D01*
X55690502Y-87376000D01*
X55690502Y-86926506D01*
X55674722Y-86826878D01*
X55674721Y-86826876D01*
X55674721Y-86826874D01*
X55613530Y-86706780D01*
X55613528Y-86706778D01*
X55613525Y-86706774D01*
X55536319Y-86629568D01*
X55502834Y-86568245D01*
X55500000Y-86541887D01*
X55500000Y-86500000D01*
X54674000Y-86500000D01*
X54606961Y-86480315D01*
X54561206Y-86427511D01*
X54550000Y-86376000D01*
X54550000Y-85124000D01*
X54569685Y-85056961D01*
X54622489Y-85011206D01*
X54674000Y-85000000D01*
X54793749Y-85000000D01*
X54839238Y-85008645D01*
G37*
G04 #@! TD.AperFunction*
G04 #@! TA.AperFunction,Conductor*
G36*
X67839238Y-85008645D02*
G01*
X67918435Y-85039877D01*
X68006897Y-85050500D01*
X68006902Y-85050500D01*
X70993096Y-85050500D01*
X70993101Y-85050500D01*
X71081563Y-85039877D01*
X71160759Y-85008645D01*
X71206249Y-85000000D01*
X73809245Y-85000000D01*
X73856695Y-85009438D01*
X73862817Y-85011974D01*
X73984039Y-85027933D01*
X73999999Y-85030035D01*
X74000000Y-85030035D01*
X74000001Y-85030035D01*
X74012947Y-85028330D01*
X74137183Y-85011974D01*
X74143304Y-85009438D01*
X74190755Y-85000000D01*
X74376000Y-85000000D01*
X74443039Y-85019685D01*
X74488794Y-85072489D01*
X74500000Y-85124000D01*
X74500000Y-85333388D01*
X74480315Y-85400427D01*
X74474376Y-85408874D01*
X74415976Y-85484982D01*
X74415974Y-85484984D01*
X74363027Y-85612813D01*
X74363026Y-85612818D01*
X74344965Y-85749999D01*
X74344965Y-85750000D01*
X74363026Y-85887181D01*
X74363027Y-85887186D01*
X74415974Y-86015015D01*
X74415975Y-86015017D01*
X74415976Y-86015018D01*
X74474376Y-86091125D01*
X74499570Y-86156291D01*
X74500000Y-86166610D01*
X74500000Y-86448637D01*
X74480315Y-86515676D01*
X74463681Y-86536318D01*
X74279213Y-86720785D01*
X74217890Y-86754270D01*
X74148198Y-86749286D01*
X74135330Y-86743636D01*
X74128360Y-86740092D01*
X74101749Y-86726561D01*
X74101746Y-86726560D01*
X74101748Y-86726560D01*
X74034716Y-86706877D01*
X74034710Y-86706876D01*
X73948638Y-86694500D01*
X73565755Y-86694500D01*
X73561902Y-86694879D01*
X73506174Y-86700366D01*
X73506164Y-86700368D01*
X73506159Y-86700368D01*
X73506158Y-86700369D01*
X73473956Y-86706774D01*
X73458702Y-86709808D01*
X73456579Y-86710340D01*
X73442651Y-86712991D01*
X73391185Y-86719767D01*
X73358815Y-86719767D01*
X73307351Y-86712992D01*
X73293416Y-86710339D01*
X73291313Y-86709812D01*
X73276552Y-86706876D01*
X73243843Y-86700370D01*
X73243839Y-86700369D01*
X73243831Y-86700368D01*
X73195806Y-86695638D01*
X73184245Y-86694500D01*
X72690755Y-86694500D01*
X72686902Y-86694879D01*
X72631174Y-86700366D01*
X72631164Y-86700368D01*
X72631159Y-86700368D01*
X72631158Y-86700369D01*
X72615187Y-86703545D01*
X72583690Y-86709810D01*
X72581585Y-86710338D01*
X72567652Y-86712991D01*
X72468555Y-86726038D01*
X72456012Y-86727045D01*
X72433137Y-86727717D01*
X72433131Y-86727717D01*
X72433130Y-86727718D01*
X72364368Y-86740092D01*
X72364367Y-86740092D01*
X72364363Y-86740093D01*
X72281847Y-86767516D01*
X70843064Y-87486909D01*
X70787609Y-87500000D01*
X68814502Y-87500000D01*
X68747463Y-87480315D01*
X68701708Y-87427511D01*
X68690502Y-87376000D01*
X68690502Y-86926506D01*
X68674722Y-86826878D01*
X68674721Y-86826876D01*
X68674721Y-86826874D01*
X68613530Y-86706780D01*
X68613528Y-86706778D01*
X68613525Y-86706774D01*
X68536319Y-86629568D01*
X68502834Y-86568245D01*
X68500000Y-86541887D01*
X68500000Y-86500000D01*
X67674000Y-86500000D01*
X67606961Y-86480315D01*
X67561206Y-86427511D01*
X67550000Y-86376000D01*
X67550000Y-85124000D01*
X67569685Y-85056961D01*
X67622489Y-85011206D01*
X67674000Y-85000000D01*
X67793749Y-85000000D01*
X67839238Y-85008645D01*
G37*
G04 #@! TD.AperFunction*
G04 #@! TA.AperFunction,Conductor*
G36*
X80839238Y-85008645D02*
G01*
X80918435Y-85039877D01*
X81006897Y-85050500D01*
X81006902Y-85050500D01*
X83993096Y-85050500D01*
X83993101Y-85050500D01*
X84081563Y-85039877D01*
X84160759Y-85008645D01*
X84206249Y-85000000D01*
X86809245Y-85000000D01*
X86856695Y-85009438D01*
X86862817Y-85011974D01*
X86984039Y-85027933D01*
X86999999Y-85030035D01*
X87000000Y-85030035D01*
X87000001Y-85030035D01*
X87012947Y-85028330D01*
X87137183Y-85011974D01*
X87143304Y-85009438D01*
X87190755Y-85000000D01*
X87376000Y-85000000D01*
X87443039Y-85019685D01*
X87488794Y-85072489D01*
X87500000Y-85124000D01*
X87500000Y-86448637D01*
X87480315Y-86515676D01*
X87463681Y-86536318D01*
X87279213Y-86720785D01*
X87217890Y-86754270D01*
X87148198Y-86749286D01*
X87135330Y-86743636D01*
X87128360Y-86740092D01*
X87101749Y-86726561D01*
X87101746Y-86726560D01*
X87101748Y-86726560D01*
X87034716Y-86706877D01*
X87034710Y-86706876D01*
X86948638Y-86694500D01*
X86565755Y-86694500D01*
X86561902Y-86694879D01*
X86506174Y-86700366D01*
X86506164Y-86700368D01*
X86506159Y-86700368D01*
X86506158Y-86700369D01*
X86473956Y-86706774D01*
X86458702Y-86709808D01*
X86456579Y-86710340D01*
X86442651Y-86712991D01*
X86391185Y-86719767D01*
X86358815Y-86719767D01*
X86307351Y-86712992D01*
X86293416Y-86710339D01*
X86291313Y-86709812D01*
X86276552Y-86706876D01*
X86243843Y-86700370D01*
X86243839Y-86700369D01*
X86243831Y-86700368D01*
X86195806Y-86695638D01*
X86184245Y-86694500D01*
X85690755Y-86694500D01*
X85686902Y-86694879D01*
X85631174Y-86700366D01*
X85631164Y-86700368D01*
X85631159Y-86700368D01*
X85631158Y-86700369D01*
X85615187Y-86703545D01*
X85583690Y-86709810D01*
X85581585Y-86710338D01*
X85567652Y-86712991D01*
X85468555Y-86726038D01*
X85456012Y-86727045D01*
X85433137Y-86727717D01*
X85433131Y-86727717D01*
X85433130Y-86727718D01*
X85364368Y-86740092D01*
X85364367Y-86740092D01*
X85364363Y-86740093D01*
X85281847Y-86767516D01*
X83843064Y-87486909D01*
X83787609Y-87500000D01*
X81814502Y-87500000D01*
X81747463Y-87480315D01*
X81701708Y-87427511D01*
X81690502Y-87376000D01*
X81690502Y-86926506D01*
X81674722Y-86826878D01*
X81674721Y-86826876D01*
X81674721Y-86826874D01*
X81613530Y-86706780D01*
X81613528Y-86706778D01*
X81613525Y-86706774D01*
X81536319Y-86629568D01*
X81502834Y-86568245D01*
X81500000Y-86541887D01*
X81500000Y-86500000D01*
X80674000Y-86500000D01*
X80606961Y-86480315D01*
X80561206Y-86427511D01*
X80550000Y-86376000D01*
X80550000Y-85124000D01*
X80569685Y-85056961D01*
X80622489Y-85011206D01*
X80674000Y-85000000D01*
X80793749Y-85000000D01*
X80839238Y-85008645D01*
G37*
G04 #@! TD.AperFunction*
G04 #@! TA.AperFunction,Conductor*
G36*
X62356695Y-84509438D02*
G01*
X62362817Y-84511974D01*
X62484039Y-84527933D01*
X62499999Y-84530035D01*
X62500000Y-84530035D01*
X62500001Y-84530035D01*
X62512947Y-84528330D01*
X62637183Y-84511974D01*
X62643304Y-84509438D01*
X62690755Y-84500000D01*
X62809245Y-84500000D01*
X62856695Y-84509438D01*
X62862817Y-84511974D01*
X62984039Y-84527933D01*
X62999999Y-84530035D01*
X63000000Y-84530035D01*
X63000001Y-84530035D01*
X63012947Y-84528330D01*
X63137183Y-84511974D01*
X63143304Y-84509438D01*
X63190755Y-84500000D01*
X63309245Y-84500000D01*
X63356695Y-84509438D01*
X63362817Y-84511974D01*
X63484039Y-84527933D01*
X63499999Y-84530035D01*
X63500000Y-84530035D01*
X63500001Y-84530035D01*
X63512947Y-84528330D01*
X63637183Y-84511974D01*
X63643304Y-84509438D01*
X63690755Y-84500000D01*
X63809245Y-84500000D01*
X63856695Y-84509438D01*
X63862817Y-84511974D01*
X63984039Y-84527933D01*
X63999999Y-84530035D01*
X64000000Y-84530035D01*
X64000001Y-84530035D01*
X64012947Y-84528330D01*
X64137183Y-84511974D01*
X64143304Y-84509438D01*
X64190755Y-84500000D01*
X64309245Y-84500000D01*
X64356695Y-84509438D01*
X64362817Y-84511974D01*
X64484039Y-84527933D01*
X64499999Y-84530035D01*
X64500000Y-84530035D01*
X64500001Y-84530035D01*
X64512947Y-84528330D01*
X64637183Y-84511974D01*
X64643304Y-84509438D01*
X64690755Y-84500000D01*
X64808606Y-84500000D01*
X64875645Y-84519685D01*
X64921400Y-84572489D01*
X64931344Y-84641647D01*
X64931079Y-84643397D01*
X64919500Y-84716505D01*
X64919500Y-85163493D01*
X64935279Y-85263121D01*
X64935280Y-85263124D01*
X64935281Y-85263126D01*
X64986485Y-85363620D01*
X65000000Y-85419913D01*
X65000000Y-85500000D01*
X65104151Y-85500000D01*
X65160445Y-85513515D01*
X65211876Y-85539720D01*
X65311507Y-85555500D01*
X65311512Y-85555500D01*
X65628493Y-85555500D01*
X65728123Y-85539720D01*
X65728124Y-85539719D01*
X65728126Y-85539719D01*
X65767445Y-85519685D01*
X65779555Y-85513515D01*
X65835849Y-85500000D01*
X66876000Y-85500000D01*
X66943039Y-85519685D01*
X66988794Y-85572489D01*
X67000000Y-85624000D01*
X67000000Y-87500000D01*
X67600000Y-88000000D01*
X70500000Y-88000000D01*
X72418475Y-87040762D01*
X72487237Y-87028388D01*
X72490065Y-87028727D01*
X72500000Y-87030035D01*
X72637183Y-87011974D01*
X72643304Y-87009438D01*
X72690755Y-87000000D01*
X73184245Y-87000000D01*
X73231695Y-87009438D01*
X73237817Y-87011974D01*
X73359039Y-87027933D01*
X73374999Y-87030035D01*
X73375000Y-87030035D01*
X73375001Y-87030035D01*
X73387947Y-87028330D01*
X73512183Y-87011974D01*
X73518304Y-87009438D01*
X73565755Y-87000000D01*
X73948638Y-87000000D01*
X74015677Y-87019685D01*
X74036319Y-87036319D01*
X74463681Y-87463681D01*
X74497166Y-87525004D01*
X74500000Y-87551362D01*
X74500000Y-90448638D01*
X74480315Y-90515677D01*
X74463681Y-90536319D01*
X74036319Y-90963681D01*
X73974996Y-90997166D01*
X73948638Y-91000000D01*
X62051362Y-91000000D01*
X61984323Y-90980315D01*
X61963681Y-90963681D01*
X61779214Y-90779214D01*
X61745729Y-90717891D01*
X61750713Y-90648199D01*
X61756356Y-90635343D01*
X61773439Y-90601749D01*
X61793124Y-90534710D01*
X61805500Y-90448638D01*
X61805500Y-87551362D01*
X61803749Y-87518703D01*
X61800915Y-87492345D01*
X61800080Y-87485340D01*
X61765297Y-87378593D01*
X61765295Y-87378588D01*
X61731810Y-87317266D01*
X61679710Y-87247670D01*
X61679699Y-87247657D01*
X61544861Y-87112819D01*
X61511378Y-87051499D01*
X61516362Y-86981807D01*
X61557056Y-86926766D01*
X61624791Y-86874791D01*
X61709024Y-86765018D01*
X61761974Y-86637183D01*
X61761974Y-86637181D01*
X61764078Y-86629333D01*
X61764992Y-86629578D01*
X61771897Y-86607310D01*
X61771321Y-86607082D01*
X61773439Y-86601747D01*
X61778321Y-86585123D01*
X61793124Y-86534709D01*
X61805500Y-86448637D01*
X61805500Y-86166610D01*
X61805235Y-86153891D01*
X61804805Y-86143572D01*
X61784516Y-86046127D01*
X61759322Y-85980961D01*
X61716744Y-85905146D01*
X61692763Y-85873894D01*
X61676580Y-85845863D01*
X61666909Y-85822515D01*
X61658531Y-85791249D01*
X61655231Y-85766178D01*
X61655231Y-85733819D01*
X61658531Y-85708744D01*
X61666907Y-85677487D01*
X61676581Y-85654131D01*
X61692763Y-85626103D01*
X61716745Y-85594851D01*
X61724288Y-85584585D01*
X61730227Y-85576138D01*
X61773439Y-85486499D01*
X61793124Y-85419460D01*
X61805500Y-85333388D01*
X61805500Y-85124000D01*
X61798518Y-85059059D01*
X61787312Y-85007548D01*
X61776354Y-84969342D01*
X61733999Y-84896922D01*
X61717147Y-84829116D01*
X61739629Y-84762962D01*
X61753341Y-84746658D01*
X61963683Y-84536316D01*
X62025004Y-84502834D01*
X62051362Y-84500000D01*
X62309245Y-84500000D01*
X62356695Y-84509438D01*
G37*
G04 #@! TD.AperFunction*
G04 #@! TA.AperFunction,Conductor*
G36*
X75456695Y-84509438D02*
G01*
X75462817Y-84511974D01*
X75584039Y-84527933D01*
X75599999Y-84530035D01*
X75600000Y-84530035D01*
X75600001Y-84530035D01*
X75612947Y-84528330D01*
X75737183Y-84511974D01*
X75743304Y-84509438D01*
X75790755Y-84500000D01*
X75909245Y-84500000D01*
X75956695Y-84509438D01*
X75962817Y-84511974D01*
X76084039Y-84527933D01*
X76099999Y-84530035D01*
X76100000Y-84530035D01*
X76100001Y-84530035D01*
X76112947Y-84528330D01*
X76237183Y-84511974D01*
X76243304Y-84509438D01*
X76290755Y-84500000D01*
X76409245Y-84500000D01*
X76456695Y-84509438D01*
X76462817Y-84511974D01*
X76584039Y-84527933D01*
X76599999Y-84530035D01*
X76600000Y-84530035D01*
X76600001Y-84530035D01*
X76612947Y-84528330D01*
X76737183Y-84511974D01*
X76743304Y-84509438D01*
X76790755Y-84500000D01*
X76909245Y-84500000D01*
X76956695Y-84509438D01*
X76962817Y-84511974D01*
X77084039Y-84527933D01*
X77099999Y-84530035D01*
X77100000Y-84530035D01*
X77100001Y-84530035D01*
X77112947Y-84528330D01*
X77237183Y-84511974D01*
X77243304Y-84509438D01*
X77290755Y-84500000D01*
X77409245Y-84500000D01*
X77456695Y-84509438D01*
X77462817Y-84511974D01*
X77584039Y-84527933D01*
X77599999Y-84530035D01*
X77600000Y-84530035D01*
X77600001Y-84530035D01*
X77612947Y-84528330D01*
X77737183Y-84511974D01*
X77743304Y-84509438D01*
X77790755Y-84500000D01*
X77808605Y-84500000D01*
X77875644Y-84519685D01*
X77921399Y-84572489D01*
X77931343Y-84641647D01*
X77931078Y-84643397D01*
X77919499Y-84716505D01*
X77919499Y-85163493D01*
X77935278Y-85263121D01*
X77935279Y-85263124D01*
X77935280Y-85263126D01*
X77986485Y-85363622D01*
X78000000Y-85419915D01*
X78000000Y-85500000D01*
X78104150Y-85500000D01*
X78160444Y-85513515D01*
X78211875Y-85539720D01*
X78311506Y-85555500D01*
X78311511Y-85555500D01*
X78628492Y-85555500D01*
X78728122Y-85539720D01*
X78728123Y-85539719D01*
X78728125Y-85539719D01*
X78767444Y-85519685D01*
X78779554Y-85513515D01*
X78835848Y-85500000D01*
X79876000Y-85500000D01*
X79943039Y-85519685D01*
X79988794Y-85572489D01*
X80000000Y-85624000D01*
X80000000Y-87500000D01*
X80600000Y-88000000D01*
X83500000Y-88000000D01*
X85418475Y-87040762D01*
X85487237Y-87028388D01*
X85490065Y-87028727D01*
X85500000Y-87030035D01*
X85637183Y-87011974D01*
X85643304Y-87009438D01*
X85690755Y-87000000D01*
X86184245Y-87000000D01*
X86231695Y-87009438D01*
X86237817Y-87011974D01*
X86359039Y-87027933D01*
X86374999Y-87030035D01*
X86375000Y-87030035D01*
X86375001Y-87030035D01*
X86387947Y-87028330D01*
X86512183Y-87011974D01*
X86518304Y-87009438D01*
X86565755Y-87000000D01*
X86948638Y-87000000D01*
X87015677Y-87019685D01*
X87036319Y-87036319D01*
X87463681Y-87463681D01*
X87497166Y-87525004D01*
X87500000Y-87551362D01*
X87500000Y-90258444D01*
X87484832Y-90317872D01*
X87433959Y-90411037D01*
X87424394Y-90425919D01*
X87289710Y-90605836D01*
X87278124Y-90619207D01*
X87119207Y-90778124D01*
X87105836Y-90789710D01*
X86925919Y-90924394D01*
X86911037Y-90933958D01*
X86817873Y-90984831D01*
X86758445Y-91000000D01*
X75051362Y-91000000D01*
X74984323Y-90980315D01*
X74963681Y-90963681D01*
X74779214Y-90779214D01*
X74745729Y-90717891D01*
X74750713Y-90648199D01*
X74756356Y-90635343D01*
X74773439Y-90601749D01*
X74793124Y-90534710D01*
X74805500Y-90448638D01*
X74805500Y-87551362D01*
X74803749Y-87518703D01*
X74800915Y-87492345D01*
X74800080Y-87485340D01*
X74765297Y-87378593D01*
X74765295Y-87378588D01*
X74731810Y-87317266D01*
X74679710Y-87247670D01*
X74679699Y-87247657D01*
X74629951Y-87197909D01*
X74544861Y-87112819D01*
X74511378Y-87051499D01*
X74516362Y-86981807D01*
X74557056Y-86926766D01*
X74624791Y-86874791D01*
X74709024Y-86765018D01*
X74761974Y-86637183D01*
X74761974Y-86637181D01*
X74764078Y-86629333D01*
X74764992Y-86629578D01*
X74771897Y-86607310D01*
X74771321Y-86607082D01*
X74773439Y-86601747D01*
X74778321Y-86585123D01*
X74793124Y-86534709D01*
X74805500Y-86448637D01*
X74805500Y-86166610D01*
X74805235Y-86153891D01*
X74804805Y-86143572D01*
X74784516Y-86046127D01*
X74759322Y-85980961D01*
X74716744Y-85905146D01*
X74692763Y-85873894D01*
X74676580Y-85845863D01*
X74666909Y-85822515D01*
X74658531Y-85791249D01*
X74655231Y-85766178D01*
X74655231Y-85733819D01*
X74658531Y-85708744D01*
X74666907Y-85677487D01*
X74670471Y-85668882D01*
X74676581Y-85654131D01*
X74692763Y-85626103D01*
X74716745Y-85594851D01*
X74724288Y-85584585D01*
X74730227Y-85576138D01*
X74773439Y-85486499D01*
X74793124Y-85419460D01*
X74805500Y-85333388D01*
X74805500Y-85124000D01*
X74798518Y-85059059D01*
X74787312Y-85007548D01*
X74776354Y-84969342D01*
X74733999Y-84896922D01*
X74717147Y-84829116D01*
X74739629Y-84762962D01*
X74753341Y-84746658D01*
X74963683Y-84536316D01*
X75025004Y-84502834D01*
X75051362Y-84500000D01*
X75409245Y-84500000D01*
X75456695Y-84509438D01*
G37*
G04 #@! TD.AperFunction*
G04 #@! TA.AperFunction,Conductor*
G36*
X49356695Y-84509438D02*
G01*
X49362817Y-84511974D01*
X49484039Y-84527933D01*
X49499999Y-84530035D01*
X49500000Y-84530035D01*
X49500001Y-84530035D01*
X49512947Y-84528330D01*
X49637183Y-84511974D01*
X49643304Y-84509438D01*
X49690755Y-84500000D01*
X49809245Y-84500000D01*
X49856695Y-84509438D01*
X49862817Y-84511974D01*
X49984039Y-84527933D01*
X49999999Y-84530035D01*
X50000000Y-84530035D01*
X50000001Y-84530035D01*
X50012947Y-84528330D01*
X50137183Y-84511974D01*
X50143304Y-84509438D01*
X50190755Y-84500000D01*
X50309245Y-84500000D01*
X50356695Y-84509438D01*
X50362817Y-84511974D01*
X50484039Y-84527933D01*
X50499999Y-84530035D01*
X50500000Y-84530035D01*
X50500001Y-84530035D01*
X50512947Y-84528330D01*
X50637183Y-84511974D01*
X50643304Y-84509438D01*
X50690755Y-84500000D01*
X50809245Y-84500000D01*
X50856695Y-84509438D01*
X50862817Y-84511974D01*
X50984039Y-84527933D01*
X50999999Y-84530035D01*
X51000000Y-84530035D01*
X51000001Y-84530035D01*
X51012947Y-84528330D01*
X51137183Y-84511974D01*
X51143304Y-84509438D01*
X51190755Y-84500000D01*
X51309245Y-84500000D01*
X51356695Y-84509438D01*
X51362817Y-84511974D01*
X51484039Y-84527933D01*
X51499999Y-84530035D01*
X51500000Y-84530035D01*
X51500001Y-84530035D01*
X51512947Y-84528330D01*
X51637183Y-84511974D01*
X51643304Y-84509438D01*
X51690755Y-84500000D01*
X51808606Y-84500000D01*
X51875645Y-84519685D01*
X51921400Y-84572489D01*
X51931344Y-84641647D01*
X51931079Y-84643397D01*
X51919500Y-84716505D01*
X51919500Y-85163493D01*
X51935279Y-85263121D01*
X51935280Y-85263124D01*
X51935281Y-85263126D01*
X51986485Y-85363620D01*
X52000000Y-85419913D01*
X52000000Y-85500000D01*
X52104151Y-85500000D01*
X52160445Y-85513515D01*
X52211876Y-85539720D01*
X52311507Y-85555500D01*
X52311512Y-85555500D01*
X52628493Y-85555500D01*
X52728123Y-85539720D01*
X52728124Y-85539719D01*
X52728126Y-85539719D01*
X52767445Y-85519685D01*
X52779555Y-85513515D01*
X52835849Y-85500000D01*
X53876000Y-85500000D01*
X53943039Y-85519685D01*
X53988794Y-85572489D01*
X54000000Y-85624000D01*
X54000000Y-87500000D01*
X54600000Y-88000000D01*
X57500000Y-88000000D01*
X59418475Y-87040762D01*
X59487237Y-87028388D01*
X59490065Y-87028727D01*
X59500000Y-87030035D01*
X59637183Y-87011974D01*
X59643304Y-87009438D01*
X59690755Y-87000000D01*
X60184245Y-87000000D01*
X60231695Y-87009438D01*
X60237817Y-87011974D01*
X60359039Y-87027933D01*
X60374999Y-87030035D01*
X60375000Y-87030035D01*
X60375001Y-87030035D01*
X60387947Y-87028330D01*
X60512183Y-87011974D01*
X60518304Y-87009438D01*
X60565755Y-87000000D01*
X60948638Y-87000000D01*
X61015677Y-87019685D01*
X61036319Y-87036319D01*
X61463681Y-87463681D01*
X61497166Y-87525004D01*
X61500000Y-87551362D01*
X61500000Y-90448638D01*
X61480315Y-90515677D01*
X61463681Y-90536319D01*
X61036319Y-90963681D01*
X60974996Y-90997166D01*
X60948638Y-91000000D01*
X49241555Y-91000000D01*
X49182129Y-90984832D01*
X49088959Y-90933957D01*
X49074080Y-90924394D01*
X48894163Y-90789710D01*
X48880792Y-90778124D01*
X48721875Y-90619207D01*
X48710289Y-90605836D01*
X48575605Y-90425919D01*
X48566040Y-90411036D01*
X48515168Y-90317871D01*
X48500000Y-90258444D01*
X48500000Y-85051362D01*
X48519685Y-84984323D01*
X48536319Y-84963681D01*
X48963681Y-84536319D01*
X49025004Y-84502834D01*
X49051362Y-84500000D01*
X49309245Y-84500000D01*
X49356695Y-84509438D01*
G37*
G04 #@! TD.AperFunction*
M02*
