%TF.GenerationSoftware,KiCad,Pcbnew,8.0.5*%
%TF.CreationDate,2024-10-07T10:05:36-05:00*%
%TF.ProjectId,DRV8323_BreakoutBoard,44525638-3332-4335-9f42-7265616b6f75,rev?*%
%TF.SameCoordinates,Original*%
%TF.FileFunction,Drillmap*%
%TF.FilePolarity,Positive*%
%FSLAX45Y45*%
G04 Gerber Fmt 4.5, Leading zero omitted, Abs format (unit mm)*
G04 Created by KiCad (PCBNEW 8.0.5) date 2024-10-07 10:05:36*
%MOMM*%
%LPD*%
G01*
G04 APERTURE LIST*
%ADD10C,0.050000*%
%ADD11C,0.200000*%
G04 APERTURE END LIST*
D10*
X4800000Y-5350000D02*
G75*
G02*
X5000000Y-5150000I200000J0D01*
G01*
X8600000Y-5150000D02*
G75*
G02*
X8800000Y-5350000I0J-200000D01*
G01*
X8800000Y-8950000D02*
G75*
G02*
X8600000Y-9150000I-200000J0D01*
G01*
X5000000Y-9150000D02*
G75*
G02*
X4800000Y-8950000I0J200000D01*
G01*
X8600000Y-9150000D02*
X5000000Y-9150000D01*
X8800000Y-5350000D02*
X8800000Y-8950000D01*
X4800000Y-8950000D02*
X4800000Y-5350000D01*
X5000000Y-5150000D02*
X8600000Y-5150000D01*
D11*
X5058277Y-9463984D02*
X5058277Y-9263984D01*
X5058277Y-9263984D02*
X5105896Y-9263984D01*
X5105896Y-9263984D02*
X5134467Y-9273508D01*
X5134467Y-9273508D02*
X5153515Y-9292555D01*
X5153515Y-9292555D02*
X5163039Y-9311603D01*
X5163039Y-9311603D02*
X5172563Y-9349698D01*
X5172563Y-9349698D02*
X5172563Y-9378270D01*
X5172563Y-9378270D02*
X5163039Y-9416365D01*
X5163039Y-9416365D02*
X5153515Y-9435412D01*
X5153515Y-9435412D02*
X5134467Y-9454460D01*
X5134467Y-9454460D02*
X5105896Y-9463984D01*
X5105896Y-9463984D02*
X5058277Y-9463984D01*
X5258277Y-9463984D02*
X5258277Y-9330650D01*
X5258277Y-9368746D02*
X5267801Y-9349698D01*
X5267801Y-9349698D02*
X5277324Y-9340174D01*
X5277324Y-9340174D02*
X5296372Y-9330650D01*
X5296372Y-9330650D02*
X5315420Y-9330650D01*
X5382086Y-9463984D02*
X5382086Y-9330650D01*
X5382086Y-9263984D02*
X5372563Y-9273508D01*
X5372563Y-9273508D02*
X5382086Y-9283031D01*
X5382086Y-9283031D02*
X5391610Y-9273508D01*
X5391610Y-9273508D02*
X5382086Y-9263984D01*
X5382086Y-9263984D02*
X5382086Y-9283031D01*
X5505896Y-9463984D02*
X5486848Y-9454460D01*
X5486848Y-9454460D02*
X5477324Y-9435412D01*
X5477324Y-9435412D02*
X5477324Y-9263984D01*
X5610658Y-9463984D02*
X5591610Y-9454460D01*
X5591610Y-9454460D02*
X5582086Y-9435412D01*
X5582086Y-9435412D02*
X5582086Y-9263984D01*
X5839229Y-9463984D02*
X5839229Y-9263984D01*
X5839229Y-9263984D02*
X5905896Y-9406841D01*
X5905896Y-9406841D02*
X5972562Y-9263984D01*
X5972562Y-9263984D02*
X5972562Y-9463984D01*
X6153515Y-9463984D02*
X6153515Y-9359222D01*
X6153515Y-9359222D02*
X6143991Y-9340174D01*
X6143991Y-9340174D02*
X6124943Y-9330650D01*
X6124943Y-9330650D02*
X6086848Y-9330650D01*
X6086848Y-9330650D02*
X6067801Y-9340174D01*
X6153515Y-9454460D02*
X6134467Y-9463984D01*
X6134467Y-9463984D02*
X6086848Y-9463984D01*
X6086848Y-9463984D02*
X6067801Y-9454460D01*
X6067801Y-9454460D02*
X6058277Y-9435412D01*
X6058277Y-9435412D02*
X6058277Y-9416365D01*
X6058277Y-9416365D02*
X6067801Y-9397317D01*
X6067801Y-9397317D02*
X6086848Y-9387793D01*
X6086848Y-9387793D02*
X6134467Y-9387793D01*
X6134467Y-9387793D02*
X6153515Y-9378270D01*
X6248753Y-9330650D02*
X6248753Y-9530650D01*
X6248753Y-9340174D02*
X6267801Y-9330650D01*
X6267801Y-9330650D02*
X6305896Y-9330650D01*
X6305896Y-9330650D02*
X6324943Y-9340174D01*
X6324943Y-9340174D02*
X6334467Y-9349698D01*
X6334467Y-9349698D02*
X6343991Y-9368746D01*
X6343991Y-9368746D02*
X6343991Y-9425889D01*
X6343991Y-9425889D02*
X6334467Y-9444936D01*
X6334467Y-9444936D02*
X6324943Y-9454460D01*
X6324943Y-9454460D02*
X6305896Y-9463984D01*
X6305896Y-9463984D02*
X6267801Y-9463984D01*
X6267801Y-9463984D02*
X6248753Y-9454460D01*
X6429705Y-9444936D02*
X6439229Y-9454460D01*
X6439229Y-9454460D02*
X6429705Y-9463984D01*
X6429705Y-9463984D02*
X6420182Y-9454460D01*
X6420182Y-9454460D02*
X6429705Y-9444936D01*
X6429705Y-9444936D02*
X6429705Y-9463984D01*
X6429705Y-9340174D02*
X6439229Y-9349698D01*
X6439229Y-9349698D02*
X6429705Y-9359222D01*
X6429705Y-9359222D02*
X6420182Y-9349698D01*
X6420182Y-9349698D02*
X6429705Y-9340174D01*
X6429705Y-9340174D02*
X6429705Y-9359222D01*
M02*
