G04 #@! TF.GenerationSoftware,KiCad,Pcbnew,8.0.5*
G04 #@! TF.CreationDate,2024-10-07T10:05:32-05:00*
G04 #@! TF.ProjectId,DRV8323_BreakoutBoard,44525638-3332-4335-9f42-7265616b6f75,rev?*
G04 #@! TF.SameCoordinates,Original*
G04 #@! TF.FileFunction,Copper,L3,Inr*
G04 #@! TF.FilePolarity,Positive*
%FSLAX46Y46*%
G04 Gerber Fmt 4.6, Leading zero omitted, Abs format (unit mm)*
G04 Created by KiCad (PCBNEW 8.0.5) date 2024-10-07 10:05:32*
%MOMM*%
%LPD*%
G01*
G04 APERTURE LIST*
G04 Aperture macros list*
%AMRoundRect*
0 Rectangle with rounded corners*
0 $1 Rounding radius*
0 $2 $3 $4 $5 $6 $7 $8 $9 X,Y pos of 4 corners*
0 Add a 4 corners polygon primitive as box body*
4,1,4,$2,$3,$4,$5,$6,$7,$8,$9,$2,$3,0*
0 Add four circle primitives for the rounded corners*
1,1,$1+$1,$2,$3*
1,1,$1+$1,$4,$5*
1,1,$1+$1,$6,$7*
1,1,$1+$1,$8,$9*
0 Add four rect primitives between the rounded corners*
20,1,$1+$1,$2,$3,$4,$5,0*
20,1,$1+$1,$4,$5,$6,$7,0*
20,1,$1+$1,$6,$7,$8,$9,0*
20,1,$1+$1,$8,$9,$2,$3,0*%
G04 Aperture macros list end*
G04 #@! TA.AperFunction,ComponentPad*
%ADD10C,5.600000*%
G04 #@! TD*
G04 #@! TA.AperFunction,ComponentPad*
%ADD11R,1.700000X1.700000*%
G04 #@! TD*
G04 #@! TA.AperFunction,ComponentPad*
%ADD12O,1.700000X1.700000*%
G04 #@! TD*
G04 #@! TA.AperFunction,ComponentPad*
%ADD13RoundRect,0.250002X-1.699998X-1.699998X1.699998X-1.699998X1.699998X1.699998X-1.699998X1.699998X0*%
G04 #@! TD*
G04 #@! TA.AperFunction,ComponentPad*
%ADD14RoundRect,1.500000X-1.500000X-1.500000X1.500000X-1.500000X1.500000X1.500000X-1.500000X1.500000X0*%
G04 #@! TD*
G04 #@! TA.AperFunction,ComponentPad*
%ADD15C,6.000000*%
G04 #@! TD*
G04 #@! TA.AperFunction,ViaPad*
%ADD16C,0.350000*%
G04 #@! TD*
G04 #@! TA.AperFunction,ViaPad*
%ADD17C,0.450000*%
G04 #@! TD*
G04 #@! TA.AperFunction,Conductor*
%ADD18C,0.200000*%
G04 #@! TD*
G04 APERTURE END LIST*
D10*
X84000000Y-55500000D03*
D11*
X78149998Y-57189998D03*
D12*
X75609998Y-57189998D03*
X73069998Y-57189999D03*
X70529998Y-57189998D03*
X67989998Y-57189998D03*
X65449998Y-57189998D03*
X62909997Y-57189997D03*
X60369998Y-57189999D03*
X57829999Y-57189999D03*
D11*
X78149998Y-64809999D03*
D12*
X75609998Y-64809999D03*
X73069998Y-64810000D03*
X70529998Y-64809999D03*
X67989998Y-64809999D03*
X65449998Y-64809999D03*
X62909997Y-64809998D03*
X60369998Y-64810000D03*
X57829999Y-64810000D03*
D10*
X52000000Y-55500000D03*
D13*
X77500000Y-88000000D03*
X64500000Y-88000000D03*
D14*
X52525000Y-72625000D03*
D15*
X59725000Y-72625000D03*
D13*
X51500000Y-88000000D03*
D16*
X82250000Y-73750000D03*
X82275000Y-68125000D03*
X75000000Y-73750000D03*
D17*
X59625000Y-87250000D03*
X55125000Y-90750000D03*
X49625000Y-85000000D03*
X49125000Y-85250000D03*
X61250000Y-88125000D03*
X48875000Y-85750000D03*
X59625000Y-90750000D03*
X56125000Y-90750000D03*
X61250000Y-89750000D03*
X60750000Y-87250000D03*
X58500000Y-90750000D03*
X60750000Y-90625000D03*
X57125000Y-90750000D03*
X58500000Y-87750000D03*
X75100000Y-83000000D03*
X77600000Y-84000000D03*
X49000000Y-83000000D03*
X75600000Y-84000000D03*
X62000000Y-83000000D03*
X49500000Y-84000000D03*
X63500000Y-84000000D03*
X76100000Y-84000000D03*
X49000000Y-83500000D03*
X62500000Y-84000000D03*
X63000000Y-84000000D03*
X64000000Y-84000000D03*
X76600000Y-84000000D03*
X50000000Y-84000000D03*
X51000000Y-84000000D03*
X62000000Y-83500000D03*
X51500000Y-84000000D03*
X64500000Y-84000000D03*
X50500000Y-84000000D03*
X75100000Y-83500000D03*
X77100000Y-84000000D03*
X84500000Y-83500000D03*
X82000000Y-83500000D03*
X56000000Y-83500000D03*
X83000000Y-83500000D03*
X68500000Y-83500000D03*
D16*
X78500000Y-74000000D03*
D17*
X82500000Y-83500000D03*
X87000000Y-84500000D03*
X57500000Y-83500000D03*
X56500000Y-83500000D03*
D16*
X77500000Y-74000000D03*
D17*
X68000000Y-84500000D03*
X70000000Y-83500000D03*
X60000000Y-83500000D03*
X74000000Y-84500000D03*
D16*
X77500000Y-72000000D03*
X78500000Y-73000000D03*
D17*
X87000000Y-83500000D03*
X70500000Y-83500000D03*
X59000000Y-83500000D03*
X55500000Y-83500000D03*
X72000000Y-83500000D03*
X86500000Y-83500000D03*
X57000000Y-83500000D03*
X83500000Y-83500000D03*
X69000000Y-83500000D03*
X72500000Y-83500000D03*
D16*
X77500000Y-73000000D03*
D17*
X85000000Y-83500000D03*
X71500000Y-83500000D03*
X61000000Y-83500000D03*
D16*
X78500000Y-72000000D03*
X80249999Y-69250000D03*
D17*
X87000000Y-84000000D03*
X73000000Y-83500000D03*
X69500000Y-83500000D03*
X55000000Y-84500000D03*
X85500000Y-83500000D03*
X86000000Y-83500000D03*
X61000000Y-84000000D03*
X55000000Y-84000000D03*
X74000000Y-84000000D03*
X61000000Y-84500000D03*
X71000000Y-83500000D03*
X60500000Y-83500000D03*
X81500000Y-83500000D03*
X59500000Y-83500000D03*
X81000000Y-84000000D03*
X84000000Y-83500000D03*
D16*
X80725000Y-68125000D03*
D17*
X74000000Y-83500000D03*
X58000000Y-83500000D03*
X81000000Y-84500000D03*
D16*
X73120000Y-72400000D03*
D17*
X73500000Y-83500000D03*
X58500000Y-83500000D03*
D16*
X79500000Y-74000000D03*
D17*
X68000000Y-84000000D03*
X62625000Y-85000000D03*
D16*
X77749999Y-76750000D03*
D17*
X74250000Y-89750000D03*
X74250000Y-88125000D03*
X72625000Y-87250000D03*
X71500000Y-90750000D03*
X68125000Y-90750000D03*
X61875000Y-85750000D03*
X71500000Y-87750000D03*
X62125000Y-85250000D03*
X72625000Y-90750000D03*
X69125000Y-90750000D03*
X73750000Y-90625000D03*
X70125000Y-90750000D03*
X73750000Y-87250000D03*
X83125000Y-90750000D03*
X85625000Y-87250000D03*
X81125000Y-90750000D03*
X74875000Y-85750000D03*
X86750000Y-90625000D03*
X85625000Y-90750000D03*
X86750000Y-87250000D03*
X82125000Y-90750000D03*
D16*
X79250000Y-76500000D03*
D17*
X75125000Y-85250000D03*
X87250000Y-88125000D03*
X75625000Y-85000000D03*
X84500000Y-87750000D03*
X84500000Y-90750000D03*
X87250000Y-89750000D03*
D16*
X82000000Y-74250000D03*
X64500000Y-81000000D03*
X75000000Y-72750000D03*
X52470000Y-84940000D03*
X74750000Y-73250000D03*
X55750000Y-81750000D03*
X75000000Y-74750000D03*
X74750000Y-74250000D03*
X55140002Y-87150000D03*
X78250000Y-76500000D03*
X65470000Y-84940000D03*
X76750000Y-76750000D03*
X68500000Y-81250000D03*
X77250000Y-76500000D03*
X68140002Y-87150000D03*
X78469999Y-84940000D03*
X78750000Y-76750000D03*
X79750000Y-76750000D03*
X81140002Y-87150000D03*
X80250000Y-76500000D03*
X81750000Y-81750000D03*
X82250000Y-72750000D03*
X82000000Y-73250000D03*
X82250000Y-74750000D03*
X79249998Y-69250000D03*
X77750000Y-69500000D03*
X82250000Y-71750000D03*
X82000000Y-75250000D03*
X78250000Y-69250000D03*
X82000000Y-72250000D03*
X82000000Y-70125000D03*
X76750000Y-69500000D03*
X82000000Y-71249998D03*
X77250000Y-69250000D03*
X82250000Y-70750000D03*
X78750000Y-69500000D03*
X74750000Y-75250000D03*
X54250000Y-84000000D03*
X67000000Y-84000000D03*
X76250000Y-76500000D03*
X80000000Y-84000000D03*
X80750001Y-76749999D03*
D17*
X59500000Y-86500000D03*
X59500000Y-85250000D03*
X55000000Y-85500000D03*
X61250000Y-85250000D03*
X60375000Y-86500000D03*
X55000000Y-86000000D03*
X61250000Y-86500000D03*
X58000000Y-86000000D03*
X60375000Y-85250000D03*
X58000000Y-85500000D03*
X73375000Y-85250000D03*
X68000000Y-86000000D03*
X71000000Y-86000000D03*
X74250000Y-85250000D03*
X72500000Y-86500000D03*
X73375000Y-86500000D03*
X72500000Y-85250000D03*
X74250000Y-86500000D03*
X68000000Y-85500000D03*
X71000000Y-85500000D03*
X85500000Y-86500000D03*
X87250000Y-86500000D03*
X86375000Y-86500000D03*
X87250000Y-85250000D03*
X84000000Y-85500000D03*
X86375000Y-85250000D03*
X81000000Y-85500000D03*
X85500000Y-85250000D03*
X84000000Y-86000000D03*
X81000000Y-86000000D03*
D18*
X81525000Y-73496752D02*
X81778248Y-73750000D01*
X75888350Y-58625000D02*
X75609998Y-58346648D01*
X86500000Y-70500000D02*
X86500000Y-66375000D01*
X81525000Y-68875000D02*
X81525000Y-73496752D01*
X75609998Y-58346648D02*
X75609998Y-57189998D01*
X78750000Y-58625000D02*
X75888350Y-58625000D01*
X81778248Y-73750000D02*
X82250000Y-73750000D01*
X83250000Y-73750000D02*
X86500000Y-70500000D01*
X86500000Y-66375000D02*
X78750000Y-58625000D01*
X82275000Y-68125000D02*
X81525000Y-68875000D01*
X82250000Y-73750000D02*
X83250000Y-73750000D01*
X75000000Y-73750000D02*
X64625000Y-73750000D01*
X52945000Y-86555000D02*
X51500000Y-88000000D01*
X55100000Y-81275000D02*
X52945000Y-83430000D01*
X57100000Y-81275000D02*
X55100000Y-81275000D01*
X52945000Y-83430000D02*
X52945000Y-86555000D01*
X64625000Y-73750000D02*
X57100000Y-81275000D01*
X79250000Y-76500000D02*
X79250000Y-86250000D01*
X79250000Y-86250000D02*
X77500000Y-88000000D01*
X74921752Y-75750000D02*
X70250000Y-75750000D01*
X75000000Y-72750000D02*
X75475000Y-73225000D01*
X70250000Y-75750000D02*
X65000000Y-81000000D01*
X75475000Y-73225000D02*
X75475000Y-75196752D01*
X65000000Y-81000000D02*
X64500000Y-81000000D01*
X75475000Y-75196752D02*
X74921752Y-75750000D01*
X57875000Y-81750000D02*
X55750000Y-81750000D01*
X75000000Y-74750000D02*
X64875000Y-74750000D01*
X64875000Y-74750000D02*
X57875000Y-81750000D01*
X77750000Y-76000000D02*
X78250000Y-76500000D01*
X75328248Y-76750000D02*
X76078248Y-76000000D01*
X76078248Y-76000000D02*
X77750000Y-76000000D01*
X65470000Y-84940000D02*
X65470000Y-81780000D01*
X65470000Y-81780000D02*
X70500000Y-76750000D01*
X70500000Y-76750000D02*
X75328248Y-76750000D01*
X76421752Y-77750000D02*
X77250000Y-76921752D01*
X77250000Y-76921752D02*
X77250000Y-76500000D01*
X66250000Y-82250000D02*
X70750000Y-77750000D01*
X66250000Y-85259998D02*
X66250000Y-82250000D01*
X70750000Y-77750000D02*
X76421752Y-77750000D01*
X68140002Y-87150000D02*
X66250000Y-85259998D01*
X81125000Y-81750000D02*
X81750000Y-81750000D01*
X80250000Y-80875000D02*
X81125000Y-81750000D01*
X80250000Y-76500000D02*
X80250000Y-80875000D01*
X83000000Y-72750000D02*
X85500000Y-70250000D01*
X78500000Y-59625000D02*
X71736477Y-59625000D01*
X70529998Y-58418521D02*
X70529998Y-57189998D01*
X82250000Y-72750000D02*
X83000000Y-72750000D01*
X85500000Y-70250000D02*
X85500000Y-66625000D01*
X71736477Y-59625000D02*
X70529998Y-58418521D01*
X85500000Y-66625000D02*
X78500000Y-59625000D01*
X77209999Y-65959999D02*
X76834999Y-65959999D01*
X79774999Y-68524999D02*
X77209999Y-65959999D01*
X80375000Y-73296752D02*
X80375000Y-70046753D01*
X76834999Y-65959999D02*
X75684999Y-64809999D01*
X80375000Y-70046753D02*
X79774999Y-69446752D01*
X75684999Y-64809999D02*
X75609998Y-64809999D01*
X82250000Y-74750000D02*
X81828248Y-74750000D01*
X81828248Y-74750000D02*
X80375000Y-73296752D01*
X79774999Y-69446752D02*
X79774999Y-68524999D01*
X76999998Y-67000000D02*
X79249998Y-69250000D01*
X70529998Y-64809999D02*
X70529998Y-66029998D01*
X70529998Y-66029998D02*
X71500000Y-67000000D01*
X71500000Y-67000000D02*
X76999998Y-67000000D01*
X78250000Y-60625000D02*
X67661064Y-60625000D01*
X65449998Y-58413934D02*
X65449998Y-57189998D01*
X84500000Y-66875000D02*
X78250000Y-60625000D01*
X82750000Y-71750000D02*
X84500000Y-70000000D01*
X67661064Y-60625000D02*
X65449998Y-58413934D01*
X82250000Y-71750000D02*
X82750000Y-71750000D01*
X84500000Y-70000000D02*
X84500000Y-66875000D01*
X77000000Y-68000000D02*
X78250000Y-69250000D01*
X67414850Y-68000000D02*
X77000000Y-68000000D01*
X65449998Y-64809999D02*
X65449998Y-66035148D01*
X65449998Y-66035148D02*
X67414850Y-68000000D01*
X63320352Y-69000000D02*
X77000000Y-69000000D01*
X60369998Y-64810000D02*
X60369998Y-66049646D01*
X77000000Y-69000000D02*
X77250000Y-69250000D01*
X60369998Y-66049646D02*
X63320352Y-69000000D01*
X82500000Y-70750000D02*
X83500000Y-69750000D01*
X77875000Y-61625000D02*
X63578042Y-61625000D01*
X63578042Y-61625000D02*
X60369998Y-58416956D01*
X82250000Y-70750000D02*
X82500000Y-70750000D01*
X83500000Y-69750000D02*
X83500000Y-67250000D01*
X60369998Y-58416956D02*
X60369998Y-57189999D01*
X83500000Y-67250000D02*
X77875000Y-61625000D01*
G04 #@! TA.AperFunction,Conductor*
G36*
X70091627Y-75170185D02*
G01*
X70137382Y-75222989D01*
X70147326Y-75292147D01*
X70118301Y-75355703D01*
X70086589Y-75381887D01*
X70004087Y-75429520D01*
X70004084Y-75429522D01*
X64874333Y-80559273D01*
X64813010Y-80592758D01*
X64743318Y-80587774D01*
X64719614Y-80575908D01*
X64699565Y-80563024D01*
X64699558Y-80563020D01*
X64568368Y-80524500D01*
X64568367Y-80524500D01*
X64431633Y-80524500D01*
X64431632Y-80524500D01*
X64300440Y-80563021D01*
X64185413Y-80636942D01*
X64185409Y-80636946D01*
X64095872Y-80740278D01*
X64095867Y-80740285D01*
X64039070Y-80864654D01*
X64039068Y-80864662D01*
X64019610Y-81000000D01*
X64039068Y-81135337D01*
X64039070Y-81135345D01*
X64095867Y-81259714D01*
X64095872Y-81259721D01*
X64185409Y-81363053D01*
X64185413Y-81363057D01*
X64243677Y-81400500D01*
X64300439Y-81436978D01*
X64366036Y-81456239D01*
X64431632Y-81475500D01*
X64431633Y-81475500D01*
X64568367Y-81475500D01*
X64699558Y-81436979D01*
X64699558Y-81436978D01*
X64699561Y-81436978D01*
X64707586Y-81431820D01*
X64725695Y-81420184D01*
X64792733Y-81400500D01*
X65011872Y-81400500D01*
X65078911Y-81420185D01*
X65124666Y-81472989D01*
X65134610Y-81542147D01*
X65119259Y-81586500D01*
X65096792Y-81625412D01*
X65096793Y-81625413D01*
X65069500Y-81727273D01*
X65069500Y-84645359D01*
X65058294Y-84696870D01*
X65009070Y-84804654D01*
X65009068Y-84804662D01*
X64989610Y-84940000D01*
X65009068Y-85075337D01*
X65009070Y-85075345D01*
X65065867Y-85199714D01*
X65065872Y-85199721D01*
X65155409Y-85303053D01*
X65155413Y-85303057D01*
X65209355Y-85337722D01*
X65270439Y-85376978D01*
X65336036Y-85396239D01*
X65401632Y-85415500D01*
X65401633Y-85415500D01*
X65538367Y-85415500D01*
X65669558Y-85376979D01*
X65669558Y-85376978D01*
X65669561Y-85376978D01*
X65696103Y-85359920D01*
X65763140Y-85340236D01*
X65830180Y-85359920D01*
X65871875Y-85408039D01*
X65872729Y-85407547D01*
X65875284Y-85411973D01*
X65875935Y-85412724D01*
X65876601Y-85414253D01*
X65876792Y-85414585D01*
X65876793Y-85414586D01*
X65929520Y-85505911D01*
X65929522Y-85505913D01*
X65961428Y-85537819D01*
X65994913Y-85599142D01*
X65989929Y-85668834D01*
X65948057Y-85724767D01*
X65882593Y-85749184D01*
X65873747Y-85749500D01*
X62812134Y-85749500D01*
X62745095Y-85729815D01*
X62699340Y-85677011D01*
X62689396Y-85607853D01*
X62718421Y-85544297D01*
X62764682Y-85510939D01*
X62827346Y-85484983D01*
X62890018Y-85459024D01*
X62999791Y-85374791D01*
X63084024Y-85265018D01*
X63136974Y-85137183D01*
X63155035Y-85000000D01*
X63136974Y-84862817D01*
X63085285Y-84738027D01*
X63084025Y-84734985D01*
X63084024Y-84734984D01*
X63084024Y-84734983D01*
X62999791Y-84625209D01*
X62999789Y-84625208D01*
X62999789Y-84625207D01*
X62890015Y-84540974D01*
X62762186Y-84488027D01*
X62762184Y-84488026D01*
X62762183Y-84488026D01*
X62657456Y-84474238D01*
X62625001Y-84469965D01*
X62624999Y-84469965D01*
X62556408Y-84478995D01*
X62487817Y-84488026D01*
X62487816Y-84488026D01*
X62487813Y-84488027D01*
X62359985Y-84540974D01*
X62250206Y-84625211D01*
X62214665Y-84671529D01*
X62158236Y-84712731D01*
X62132476Y-84718980D01*
X62010930Y-84734983D01*
X61987817Y-84738026D01*
X61987816Y-84738026D01*
X61987813Y-84738027D01*
X61859984Y-84790974D01*
X61859982Y-84790976D01*
X61762986Y-84865404D01*
X61697817Y-84890598D01*
X61629372Y-84876560D01*
X61612013Y-84865404D01*
X61608636Y-84862813D01*
X61539853Y-84810033D01*
X61498652Y-84753606D01*
X61494497Y-84683859D01*
X61500777Y-84664215D01*
X61511974Y-84637183D01*
X61530035Y-84500000D01*
X61511974Y-84362817D01*
X61484898Y-84297451D01*
X61477430Y-84227983D01*
X61484897Y-84202551D01*
X61511974Y-84137183D01*
X61530035Y-84000000D01*
X61511974Y-83862817D01*
X61484898Y-83797451D01*
X61477430Y-83727983D01*
X61484897Y-83702551D01*
X61511974Y-83637183D01*
X61530035Y-83500000D01*
X61511974Y-83362817D01*
X61459024Y-83234983D01*
X61374791Y-83125209D01*
X61374789Y-83125208D01*
X61374789Y-83125207D01*
X61265015Y-83040974D01*
X61137186Y-82988027D01*
X61137184Y-82988026D01*
X61137183Y-82988026D01*
X61045727Y-82975985D01*
X61000001Y-82969965D01*
X60999999Y-82969965D01*
X60862815Y-82988026D01*
X60797451Y-83015100D01*
X60727981Y-83022567D01*
X60702549Y-83015100D01*
X60637184Y-82988026D01*
X60500001Y-82969965D01*
X60499999Y-82969965D01*
X60362815Y-82988026D01*
X60297451Y-83015100D01*
X60227981Y-83022567D01*
X60202549Y-83015100D01*
X60137184Y-82988026D01*
X60000001Y-82969965D01*
X59999999Y-82969965D01*
X59862815Y-82988026D01*
X59797451Y-83015100D01*
X59727981Y-83022567D01*
X59702549Y-83015100D01*
X59637184Y-82988026D01*
X59500001Y-82969965D01*
X59499999Y-82969965D01*
X59362815Y-82988026D01*
X59297451Y-83015100D01*
X59227981Y-83022567D01*
X59202549Y-83015100D01*
X59137184Y-82988026D01*
X59000001Y-82969965D01*
X58999999Y-82969965D01*
X58862815Y-82988026D01*
X58797451Y-83015100D01*
X58727981Y-83022567D01*
X58702549Y-83015100D01*
X58637184Y-82988026D01*
X58500001Y-82969965D01*
X58499999Y-82969965D01*
X58362815Y-82988026D01*
X58297451Y-83015100D01*
X58227981Y-83022567D01*
X58202549Y-83015100D01*
X58137184Y-82988026D01*
X58000001Y-82969965D01*
X57999999Y-82969965D01*
X57862815Y-82988026D01*
X57797451Y-83015100D01*
X57727981Y-83022567D01*
X57702549Y-83015100D01*
X57637184Y-82988026D01*
X57500001Y-82969965D01*
X57499999Y-82969965D01*
X57362815Y-82988026D01*
X57297451Y-83015100D01*
X57227981Y-83022567D01*
X57202549Y-83015100D01*
X57137184Y-82988026D01*
X57000001Y-82969965D01*
X56999999Y-82969965D01*
X56862815Y-82988026D01*
X56797451Y-83015100D01*
X56727981Y-83022567D01*
X56702549Y-83015100D01*
X56637184Y-82988026D01*
X56500001Y-82969965D01*
X56499999Y-82969965D01*
X56362815Y-82988026D01*
X56297451Y-83015100D01*
X56227981Y-83022567D01*
X56202549Y-83015100D01*
X56137184Y-82988026D01*
X56000001Y-82969965D01*
X55999999Y-82969965D01*
X55862815Y-82988026D01*
X55797451Y-83015100D01*
X55727981Y-83022567D01*
X55702549Y-83015100D01*
X55637184Y-82988026D01*
X55500001Y-82969965D01*
X55499999Y-82969965D01*
X55431408Y-82978995D01*
X55362817Y-82988026D01*
X55362816Y-82988026D01*
X55362813Y-82988027D01*
X55234985Y-83040974D01*
X55125209Y-83125209D01*
X55040974Y-83234985D01*
X54988025Y-83362817D01*
X54988025Y-83362819D01*
X54985877Y-83379130D01*
X54957608Y-83443025D01*
X54899282Y-83481494D01*
X54879130Y-83485877D01*
X54862819Y-83488025D01*
X54862817Y-83488025D01*
X54734984Y-83540974D01*
X54734982Y-83540976D01*
X54658429Y-83599718D01*
X54593260Y-83624912D01*
X54524815Y-83610874D01*
X54515913Y-83605663D01*
X54449561Y-83563022D01*
X54449559Y-83563021D01*
X54449557Y-83563020D01*
X54318368Y-83524500D01*
X54318367Y-83524500D01*
X54181633Y-83524500D01*
X54181632Y-83524500D01*
X54050440Y-83563021D01*
X53935413Y-83636942D01*
X53935409Y-83636946D01*
X53845872Y-83740278D01*
X53845867Y-83740285D01*
X53789070Y-83864654D01*
X53789068Y-83864662D01*
X53769610Y-84000000D01*
X53789068Y-84135337D01*
X53789070Y-84135345D01*
X53845867Y-84259714D01*
X53845872Y-84259721D01*
X53935409Y-84363053D01*
X53935413Y-84363057D01*
X53970845Y-84385827D01*
X54050439Y-84436978D01*
X54080491Y-84445802D01*
X54181632Y-84475500D01*
X54181633Y-84475500D01*
X54318367Y-84475500D01*
X54322242Y-84474361D01*
X54326285Y-84474361D01*
X54327146Y-84474238D01*
X54327163Y-84474361D01*
X54392112Y-84474358D01*
X54450892Y-84512130D01*
X54479920Y-84575684D01*
X54480122Y-84577150D01*
X54488026Y-84637182D01*
X54488027Y-84637186D01*
X54540974Y-84765015D01*
X54540975Y-84765017D01*
X54540976Y-84765018D01*
X54575518Y-84810034D01*
X54625211Y-84874793D01*
X54660178Y-84901625D01*
X54701381Y-84958053D01*
X54705535Y-85027799D01*
X54671322Y-85088719D01*
X54660179Y-85098374D01*
X54625212Y-85125206D01*
X54625210Y-85125207D01*
X54625209Y-85125209D01*
X54616019Y-85137186D01*
X54540974Y-85234985D01*
X54488027Y-85362813D01*
X54488026Y-85362816D01*
X54488026Y-85362817D01*
X54486161Y-85376980D01*
X54469965Y-85499999D01*
X54469965Y-85500000D01*
X54488026Y-85637184D01*
X54515100Y-85702549D01*
X54522567Y-85772019D01*
X54515100Y-85797451D01*
X54488026Y-85862815D01*
X54488026Y-85862816D01*
X54488026Y-85862817D01*
X54469965Y-86000000D01*
X54486627Y-86126560D01*
X54488026Y-86137181D01*
X54488027Y-86137186D01*
X54540974Y-86265015D01*
X54540975Y-86265017D01*
X54540976Y-86265018D01*
X54625209Y-86374791D01*
X54734982Y-86459024D01*
X54734983Y-86459024D01*
X54734984Y-86459025D01*
X54760549Y-86469614D01*
X54862817Y-86511974D01*
X54862830Y-86511975D01*
X54867625Y-86513261D01*
X54927288Y-86549622D01*
X54957821Y-86612467D01*
X54949530Y-86681844D01*
X54905048Y-86735724D01*
X54902579Y-86737353D01*
X54825414Y-86786943D01*
X54825411Y-86786946D01*
X54735874Y-86890278D01*
X54735869Y-86890285D01*
X54679072Y-87014654D01*
X54679070Y-87014662D01*
X54659612Y-87150000D01*
X54679070Y-87285337D01*
X54679072Y-87285345D01*
X54735869Y-87409714D01*
X54735874Y-87409721D01*
X54825411Y-87513053D01*
X54825415Y-87513057D01*
X54885981Y-87551979D01*
X54940441Y-87586978D01*
X55006038Y-87606239D01*
X55071634Y-87625500D01*
X55071635Y-87625500D01*
X55208369Y-87625500D01*
X55339563Y-87586978D01*
X55448482Y-87516980D01*
X55454588Y-87513057D01*
X55454588Y-87513056D01*
X55454591Y-87513055D01*
X55544132Y-87409718D01*
X55600933Y-87285342D01*
X55620392Y-87150000D01*
X55600933Y-87014658D01*
X55574851Y-86957547D01*
X55544134Y-86890285D01*
X55544129Y-86890278D01*
X55454592Y-86786946D01*
X55454588Y-86786942D01*
X55363738Y-86728558D01*
X55339563Y-86713022D01*
X55339562Y-86713021D01*
X55339561Y-86713021D01*
X55274360Y-86693876D01*
X55215583Y-86656101D01*
X55186558Y-86592545D01*
X55196502Y-86523387D01*
X55242257Y-86470583D01*
X55261844Y-86460338D01*
X55265018Y-86459024D01*
X55374791Y-86374791D01*
X55459024Y-86265018D01*
X55511974Y-86137183D01*
X55530035Y-86000000D01*
X55511974Y-85862817D01*
X55484898Y-85797451D01*
X55477430Y-85727983D01*
X55484897Y-85702551D01*
X55511974Y-85637183D01*
X55530035Y-85500000D01*
X55530035Y-85499999D01*
X57469965Y-85499999D01*
X57469965Y-85500000D01*
X57488026Y-85637184D01*
X57515100Y-85702549D01*
X57522567Y-85772019D01*
X57515100Y-85797451D01*
X57488026Y-85862815D01*
X57488026Y-85862816D01*
X57488026Y-85862817D01*
X57469965Y-86000000D01*
X57486627Y-86126560D01*
X57488026Y-86137181D01*
X57488027Y-86137186D01*
X57540974Y-86265015D01*
X57540975Y-86265017D01*
X57540976Y-86265018D01*
X57625209Y-86374791D01*
X57734982Y-86459024D01*
X57734983Y-86459024D01*
X57734984Y-86459025D01*
X57762886Y-86470582D01*
X57862817Y-86511974D01*
X57985702Y-86528152D01*
X57999999Y-86530035D01*
X58000000Y-86530035D01*
X58000001Y-86530035D01*
X58012947Y-86528330D01*
X58137183Y-86511974D01*
X58265018Y-86459024D01*
X58374791Y-86374791D01*
X58459024Y-86265018D01*
X58511974Y-86137183D01*
X58530035Y-86000000D01*
X58511974Y-85862817D01*
X58484898Y-85797451D01*
X58477430Y-85727983D01*
X58484897Y-85702551D01*
X58511974Y-85637183D01*
X58530035Y-85500000D01*
X58511974Y-85362817D01*
X58459024Y-85234983D01*
X58374791Y-85125209D01*
X58374789Y-85125208D01*
X58374789Y-85125207D01*
X58301671Y-85069101D01*
X58265018Y-85040976D01*
X58265017Y-85040975D01*
X58265015Y-85040974D01*
X58137186Y-84988027D01*
X58137184Y-84988026D01*
X58137183Y-84988026D01*
X58045727Y-84975985D01*
X58000001Y-84969965D01*
X57999999Y-84969965D01*
X57931408Y-84978995D01*
X57862817Y-84988026D01*
X57862816Y-84988026D01*
X57862813Y-84988027D01*
X57734985Y-85040974D01*
X57625209Y-85125209D01*
X57540974Y-85234985D01*
X57488027Y-85362813D01*
X57488026Y-85362816D01*
X57488026Y-85362817D01*
X57486161Y-85376980D01*
X57469965Y-85499999D01*
X55530035Y-85499999D01*
X55511974Y-85362817D01*
X55459024Y-85234983D01*
X55374791Y-85125209D01*
X55374788Y-85125207D01*
X55374787Y-85125205D01*
X55339822Y-85098376D01*
X55298619Y-85041948D01*
X55294464Y-84972202D01*
X55328676Y-84911282D01*
X55339822Y-84901624D01*
X55354191Y-84890598D01*
X55374791Y-84874791D01*
X55459024Y-84765018D01*
X55511974Y-84637183D01*
X55530035Y-84500000D01*
X55511974Y-84362817D01*
X55484898Y-84297451D01*
X55477430Y-84227983D01*
X55484897Y-84202551D01*
X55511974Y-84137183D01*
X55514120Y-84120874D01*
X55542383Y-84056981D01*
X55600706Y-84018507D01*
X55620862Y-84014122D01*
X55637183Y-84011974D01*
X55702548Y-83984898D01*
X55772017Y-83977430D01*
X55797448Y-83984897D01*
X55862817Y-84011974D01*
X55973454Y-84026540D01*
X55999999Y-84030035D01*
X56000000Y-84030035D01*
X56000001Y-84030035D01*
X56012947Y-84028330D01*
X56137183Y-84011974D01*
X56202548Y-83984898D01*
X56272017Y-83977430D01*
X56297448Y-83984897D01*
X56362817Y-84011974D01*
X56473454Y-84026540D01*
X56499999Y-84030035D01*
X56500000Y-84030035D01*
X56500001Y-84030035D01*
X56512947Y-84028330D01*
X56637183Y-84011974D01*
X56702548Y-83984898D01*
X56772017Y-83977430D01*
X56797448Y-83984897D01*
X56862817Y-84011974D01*
X56973454Y-84026540D01*
X56999999Y-84030035D01*
X57000000Y-84030035D01*
X57000001Y-84030035D01*
X57012947Y-84028330D01*
X57137183Y-84011974D01*
X57202548Y-83984898D01*
X57272017Y-83977430D01*
X57297448Y-83984897D01*
X57362817Y-84011974D01*
X57473454Y-84026540D01*
X57499999Y-84030035D01*
X57500000Y-84030035D01*
X57500001Y-84030035D01*
X57512947Y-84028330D01*
X57637183Y-84011974D01*
X57702548Y-83984898D01*
X57772017Y-83977430D01*
X57797448Y-83984897D01*
X57862817Y-84011974D01*
X57973454Y-84026540D01*
X57999999Y-84030035D01*
X58000000Y-84030035D01*
X58000001Y-84030035D01*
X58012947Y-84028330D01*
X58137183Y-84011974D01*
X58202548Y-83984898D01*
X58272017Y-83977430D01*
X58297448Y-83984897D01*
X58362817Y-84011974D01*
X58473454Y-84026540D01*
X58499999Y-84030035D01*
X58500000Y-84030035D01*
X58500001Y-84030035D01*
X58512947Y-84028330D01*
X58637183Y-84011974D01*
X58702548Y-83984898D01*
X58772017Y-83977430D01*
X58797448Y-83984897D01*
X58862817Y-84011974D01*
X58973454Y-84026540D01*
X58999999Y-84030035D01*
X59000000Y-84030035D01*
X59000001Y-84030035D01*
X59012947Y-84028330D01*
X59137183Y-84011974D01*
X59202548Y-83984898D01*
X59272017Y-83977430D01*
X59297448Y-83984897D01*
X59362817Y-84011974D01*
X59473454Y-84026540D01*
X59499999Y-84030035D01*
X59500000Y-84030035D01*
X59500001Y-84030035D01*
X59512947Y-84028330D01*
X59637183Y-84011974D01*
X59702548Y-83984898D01*
X59772017Y-83977430D01*
X59797448Y-83984897D01*
X59862817Y-84011974D01*
X59973454Y-84026540D01*
X59999999Y-84030035D01*
X60000000Y-84030035D01*
X60000001Y-84030035D01*
X60012947Y-84028330D01*
X60137183Y-84011974D01*
X60202548Y-83984898D01*
X60272017Y-83977430D01*
X60297448Y-83984897D01*
X60362817Y-84011974D01*
X60379125Y-84014121D01*
X60443018Y-84042384D01*
X60481491Y-84100707D01*
X60485877Y-84120869D01*
X60488025Y-84137181D01*
X60488025Y-84137182D01*
X60515100Y-84202549D01*
X60522567Y-84272019D01*
X60515100Y-84297451D01*
X60488026Y-84362815D01*
X60469965Y-84499999D01*
X60469965Y-84500002D01*
X60480627Y-84580989D01*
X60469861Y-84650024D01*
X60423481Y-84702280D01*
X60373874Y-84720113D01*
X60285382Y-84731763D01*
X60237817Y-84738026D01*
X60237816Y-84738026D01*
X60237813Y-84738027D01*
X60109984Y-84790974D01*
X60109982Y-84790976D01*
X60012986Y-84865404D01*
X59947817Y-84890598D01*
X59879372Y-84876560D01*
X59862013Y-84865404D01*
X59858636Y-84862813D01*
X59765018Y-84790976D01*
X59765017Y-84790975D01*
X59765015Y-84790974D01*
X59637186Y-84738027D01*
X59637184Y-84738026D01*
X59637183Y-84738026D01*
X59545727Y-84725985D01*
X59500001Y-84719965D01*
X59499999Y-84719965D01*
X59452323Y-84726242D01*
X59362817Y-84738026D01*
X59362816Y-84738026D01*
X59362813Y-84738027D01*
X59234985Y-84790974D01*
X59125209Y-84875209D01*
X59040974Y-84984985D01*
X58988027Y-85112813D01*
X58988026Y-85112816D01*
X58988026Y-85112817D01*
X58969965Y-85250000D01*
X58986682Y-85376978D01*
X58988026Y-85387181D01*
X58988027Y-85387186D01*
X59040974Y-85515015D01*
X59040975Y-85515017D01*
X59040976Y-85515018D01*
X59125209Y-85624791D01*
X59234982Y-85709024D01*
X59234983Y-85709024D01*
X59234984Y-85709025D01*
X59359110Y-85760439D01*
X59413514Y-85804279D01*
X59435579Y-85870573D01*
X59418300Y-85938273D01*
X59367163Y-85985884D01*
X59359110Y-85989561D01*
X59234986Y-86040974D01*
X59125209Y-86125209D01*
X59040974Y-86234985D01*
X58988027Y-86362813D01*
X58988026Y-86362818D01*
X58969965Y-86499999D01*
X58969965Y-86500000D01*
X58988026Y-86637181D01*
X58988027Y-86637186D01*
X59040974Y-86765015D01*
X59040975Y-86765017D01*
X59040976Y-86765018D01*
X59057802Y-86786946D01*
X59125207Y-86874789D01*
X59127718Y-86877299D01*
X59129160Y-86879940D01*
X59130157Y-86881239D01*
X59129954Y-86881394D01*
X59161207Y-86938621D01*
X59156226Y-87008313D01*
X59154604Y-87012438D01*
X59113025Y-87112819D01*
X59094965Y-87249999D01*
X59094965Y-87250002D01*
X59100058Y-87288689D01*
X59089292Y-87357725D01*
X59042912Y-87409980D01*
X58975643Y-87428865D01*
X58908842Y-87408384D01*
X58878744Y-87380361D01*
X58874791Y-87375209D01*
X58765018Y-87290976D01*
X58765017Y-87290975D01*
X58765015Y-87290974D01*
X58637186Y-87238027D01*
X58637184Y-87238026D01*
X58637183Y-87238026D01*
X58545727Y-87225985D01*
X58500001Y-87219965D01*
X58499999Y-87219965D01*
X58431408Y-87228995D01*
X58362817Y-87238026D01*
X58362816Y-87238026D01*
X58362813Y-87238027D01*
X58234985Y-87290974D01*
X58125209Y-87375209D01*
X58040974Y-87484985D01*
X57988027Y-87612813D01*
X57988026Y-87612816D01*
X57988026Y-87612817D01*
X57987998Y-87613027D01*
X57969965Y-87749999D01*
X57969965Y-87750000D01*
X57988026Y-87887181D01*
X57988027Y-87887186D01*
X58040974Y-88015015D01*
X58040975Y-88015017D01*
X58040976Y-88015018D01*
X58125209Y-88124791D01*
X58234982Y-88209024D01*
X58362817Y-88261974D01*
X58485702Y-88278152D01*
X58499999Y-88280035D01*
X58500000Y-88280035D01*
X58500001Y-88280035D01*
X58512947Y-88278330D01*
X58637183Y-88261974D01*
X58765018Y-88209024D01*
X58874791Y-88124791D01*
X58959024Y-88015018D01*
X59011974Y-87887183D01*
X59030035Y-87750000D01*
X59024941Y-87711310D01*
X59035706Y-87642278D01*
X59082085Y-87590021D01*
X59149354Y-87571135D01*
X59216154Y-87591615D01*
X59246256Y-87619640D01*
X59250209Y-87624791D01*
X59359982Y-87709024D01*
X59487817Y-87761974D01*
X59610702Y-87778152D01*
X59624999Y-87780035D01*
X59625000Y-87780035D01*
X59625001Y-87780035D01*
X59637947Y-87778330D01*
X59762183Y-87761974D01*
X59890018Y-87709024D01*
X59999791Y-87624791D01*
X60084024Y-87515018D01*
X60084024Y-87515015D01*
X60088971Y-87508570D01*
X60091769Y-87510717D01*
X60130501Y-87473668D01*
X60199087Y-87460334D01*
X60263993Y-87486196D01*
X60284438Y-87509790D01*
X60286029Y-87508570D01*
X60290975Y-87515015D01*
X60290976Y-87515018D01*
X60375209Y-87624791D01*
X60484982Y-87709024D01*
X60612817Y-87761974D01*
X60660044Y-87768191D01*
X60723939Y-87796457D01*
X60762411Y-87854781D01*
X60763243Y-87924646D01*
X60758420Y-87938582D01*
X60738025Y-87987819D01*
X60719965Y-88124999D01*
X60719965Y-88125000D01*
X60737998Y-88261974D01*
X60738026Y-88262181D01*
X60738027Y-88262186D01*
X60790974Y-88390015D01*
X60790975Y-88390017D01*
X60790976Y-88390018D01*
X60875209Y-88499791D01*
X60984982Y-88584024D01*
X61112817Y-88636974D01*
X61235702Y-88653152D01*
X61249999Y-88655035D01*
X61250000Y-88655035D01*
X61250001Y-88655035D01*
X61262947Y-88653330D01*
X61387183Y-88636974D01*
X61515018Y-88584024D01*
X61624791Y-88499791D01*
X61709024Y-88390018D01*
X61761974Y-88262183D01*
X61780035Y-88125000D01*
X61780007Y-88124791D01*
X61778152Y-88110702D01*
X61761974Y-87987817D01*
X61720292Y-87887186D01*
X61709025Y-87859985D01*
X61709024Y-87859984D01*
X61709024Y-87859983D01*
X61624791Y-87750209D01*
X61624789Y-87750208D01*
X61624789Y-87750207D01*
X61558220Y-87699127D01*
X61515018Y-87665976D01*
X61515017Y-87665975D01*
X61515015Y-87665974D01*
X61387186Y-87613027D01*
X61387184Y-87613026D01*
X61387183Y-87613026D01*
X61363819Y-87609950D01*
X61339955Y-87606808D01*
X61276059Y-87578541D01*
X61237589Y-87520216D01*
X61236758Y-87450351D01*
X61241581Y-87436417D01*
X61252531Y-87409980D01*
X61261974Y-87387183D01*
X61280035Y-87250000D01*
X61267242Y-87152832D01*
X61278007Y-87083799D01*
X61324387Y-87031543D01*
X61373994Y-87013710D01*
X61387183Y-87011974D01*
X61515018Y-86959024D01*
X61624791Y-86874791D01*
X61709024Y-86765018D01*
X61761974Y-86637183D01*
X61780035Y-86500000D01*
X61769372Y-86419009D01*
X61780137Y-86349976D01*
X61826517Y-86297720D01*
X61876122Y-86279887D01*
X62012183Y-86261974D01*
X62078049Y-86234691D01*
X62147517Y-86227223D01*
X62209996Y-86258498D01*
X62245648Y-86318587D01*
X62249500Y-86349253D01*
X62249500Y-89743098D01*
X62260123Y-89831560D01*
X62260124Y-89831563D01*
X62314770Y-89970137D01*
X62315640Y-89972343D01*
X62407077Y-90092922D01*
X62517974Y-90177017D01*
X62527659Y-90184361D01*
X62668437Y-90239876D01*
X62756902Y-90250500D01*
X66243098Y-90250500D01*
X66331563Y-90239876D01*
X66472341Y-90184361D01*
X66592922Y-90092922D01*
X66684361Y-89972341D01*
X66739876Y-89831563D01*
X66750500Y-89743098D01*
X66750500Y-86626253D01*
X66770185Y-86559214D01*
X66822989Y-86513459D01*
X66892147Y-86503515D01*
X66955703Y-86532540D01*
X66962181Y-86538572D01*
X67644870Y-87221261D01*
X67675402Y-87277177D01*
X67676573Y-87276834D01*
X67678152Y-87282213D01*
X67678355Y-87282584D01*
X67678504Y-87283412D01*
X67679071Y-87285342D01*
X67735871Y-87409716D01*
X67735874Y-87409721D01*
X67825411Y-87513053D01*
X67825415Y-87513057D01*
X67885981Y-87551979D01*
X67940441Y-87586978D01*
X68006038Y-87606239D01*
X68071634Y-87625500D01*
X68071635Y-87625500D01*
X68208369Y-87625500D01*
X68339563Y-87586978D01*
X68448482Y-87516980D01*
X68454588Y-87513057D01*
X68454588Y-87513056D01*
X68454591Y-87513055D01*
X68544132Y-87409718D01*
X68600933Y-87285342D01*
X68620392Y-87150000D01*
X68600933Y-87014658D01*
X68574851Y-86957547D01*
X68544134Y-86890285D01*
X68544129Y-86890278D01*
X68454592Y-86786946D01*
X68454588Y-86786942D01*
X68372461Y-86734164D01*
X68339563Y-86713022D01*
X68336433Y-86712103D01*
X68274359Y-86693875D01*
X68215582Y-86656100D01*
X68186558Y-86592544D01*
X68196503Y-86523385D01*
X68242258Y-86470582D01*
X68261844Y-86460338D01*
X68265018Y-86459024D01*
X68374791Y-86374791D01*
X68459024Y-86265018D01*
X68511974Y-86137183D01*
X68530035Y-86000000D01*
X68511974Y-85862817D01*
X68484898Y-85797451D01*
X68477430Y-85727983D01*
X68484897Y-85702551D01*
X68511974Y-85637183D01*
X68530035Y-85500000D01*
X68530035Y-85499999D01*
X70469965Y-85499999D01*
X70469965Y-85500000D01*
X70488026Y-85637184D01*
X70515100Y-85702549D01*
X70522567Y-85772019D01*
X70515100Y-85797451D01*
X70488026Y-85862815D01*
X70488026Y-85862816D01*
X70488026Y-85862817D01*
X70469965Y-86000000D01*
X70486627Y-86126560D01*
X70488026Y-86137181D01*
X70488027Y-86137186D01*
X70540974Y-86265015D01*
X70540975Y-86265017D01*
X70540976Y-86265018D01*
X70625209Y-86374791D01*
X70734982Y-86459024D01*
X70734983Y-86459024D01*
X70734984Y-86459025D01*
X70762886Y-86470582D01*
X70862817Y-86511974D01*
X70985702Y-86528152D01*
X70999999Y-86530035D01*
X71000000Y-86530035D01*
X71000001Y-86530035D01*
X71012947Y-86528330D01*
X71137183Y-86511974D01*
X71265018Y-86459024D01*
X71374791Y-86374791D01*
X71459024Y-86265018D01*
X71511974Y-86137183D01*
X71530035Y-86000000D01*
X71511974Y-85862817D01*
X71484898Y-85797451D01*
X71477430Y-85727983D01*
X71484897Y-85702551D01*
X71511974Y-85637183D01*
X71530035Y-85500000D01*
X71511974Y-85362817D01*
X71459024Y-85234983D01*
X71374791Y-85125209D01*
X71374789Y-85125208D01*
X71374789Y-85125207D01*
X71301671Y-85069101D01*
X71265018Y-85040976D01*
X71265017Y-85040975D01*
X71265015Y-85040974D01*
X71137186Y-84988027D01*
X71137184Y-84988026D01*
X71137183Y-84988026D01*
X71045727Y-84975985D01*
X71000001Y-84969965D01*
X70999999Y-84969965D01*
X70931408Y-84978995D01*
X70862817Y-84988026D01*
X70862816Y-84988026D01*
X70862813Y-84988027D01*
X70734985Y-85040974D01*
X70625209Y-85125209D01*
X70540974Y-85234985D01*
X70488027Y-85362813D01*
X70488026Y-85362816D01*
X70488026Y-85362817D01*
X70486161Y-85376980D01*
X70469965Y-85499999D01*
X68530035Y-85499999D01*
X68511974Y-85362817D01*
X68459024Y-85234983D01*
X68374791Y-85125209D01*
X68374788Y-85125207D01*
X68374787Y-85125205D01*
X68339822Y-85098376D01*
X68298619Y-85041948D01*
X68294464Y-84972202D01*
X68328676Y-84911282D01*
X68339822Y-84901624D01*
X68354191Y-84890598D01*
X68374791Y-84874791D01*
X68459024Y-84765018D01*
X68511974Y-84637183D01*
X68530035Y-84500000D01*
X68511974Y-84362817D01*
X68484898Y-84297451D01*
X68477430Y-84227983D01*
X68484897Y-84202551D01*
X68511974Y-84137183D01*
X68514120Y-84120874D01*
X68542383Y-84056981D01*
X68600706Y-84018507D01*
X68620862Y-84014122D01*
X68637183Y-84011974D01*
X68702548Y-83984898D01*
X68772017Y-83977430D01*
X68797448Y-83984897D01*
X68862817Y-84011974D01*
X68973454Y-84026540D01*
X68999999Y-84030035D01*
X69000000Y-84030035D01*
X69000001Y-84030035D01*
X69012947Y-84028330D01*
X69137183Y-84011974D01*
X69202548Y-83984898D01*
X69272017Y-83977430D01*
X69297448Y-83984897D01*
X69362817Y-84011974D01*
X69473454Y-84026540D01*
X69499999Y-84030035D01*
X69500000Y-84030035D01*
X69500001Y-84030035D01*
X69512947Y-84028330D01*
X69637183Y-84011974D01*
X69702548Y-83984898D01*
X69772017Y-83977430D01*
X69797448Y-83984897D01*
X69862817Y-84011974D01*
X69973454Y-84026540D01*
X69999999Y-84030035D01*
X70000000Y-84030035D01*
X70000001Y-84030035D01*
X70012947Y-84028330D01*
X70137183Y-84011974D01*
X70202548Y-83984898D01*
X70272017Y-83977430D01*
X70297448Y-83984897D01*
X70362817Y-84011974D01*
X70473454Y-84026540D01*
X70499999Y-84030035D01*
X70500000Y-84030035D01*
X70500001Y-84030035D01*
X70512947Y-84028330D01*
X70637183Y-84011974D01*
X70702548Y-83984898D01*
X70772017Y-83977430D01*
X70797448Y-83984897D01*
X70862817Y-84011974D01*
X70973454Y-84026540D01*
X70999999Y-84030035D01*
X71000000Y-84030035D01*
X71000001Y-84030035D01*
X71012947Y-84028330D01*
X71137183Y-84011974D01*
X71202548Y-83984898D01*
X71272017Y-83977430D01*
X71297448Y-83984897D01*
X71362817Y-84011974D01*
X71473454Y-84026540D01*
X71499999Y-84030035D01*
X71500000Y-84030035D01*
X71500001Y-84030035D01*
X71512947Y-84028330D01*
X71637183Y-84011974D01*
X71702548Y-83984898D01*
X71772017Y-83977430D01*
X71797448Y-83984897D01*
X71862817Y-84011974D01*
X71973454Y-84026540D01*
X71999999Y-84030035D01*
X72000000Y-84030035D01*
X72000001Y-84030035D01*
X72012947Y-84028330D01*
X72137183Y-84011974D01*
X72202548Y-83984898D01*
X72272017Y-83977430D01*
X72297448Y-83984897D01*
X72362817Y-84011974D01*
X72473454Y-84026540D01*
X72499999Y-84030035D01*
X72500000Y-84030035D01*
X72500001Y-84030035D01*
X72512947Y-84028330D01*
X72637183Y-84011974D01*
X72702548Y-83984898D01*
X72772017Y-83977430D01*
X72797448Y-83984897D01*
X72862817Y-84011974D01*
X72973454Y-84026540D01*
X72999999Y-84030035D01*
X73000000Y-84030035D01*
X73000001Y-84030035D01*
X73012947Y-84028330D01*
X73137183Y-84011974D01*
X73202548Y-83984898D01*
X73272017Y-83977430D01*
X73297448Y-83984897D01*
X73362817Y-84011974D01*
X73379125Y-84014121D01*
X73443018Y-84042384D01*
X73481491Y-84100707D01*
X73485877Y-84120869D01*
X73488025Y-84137181D01*
X73488025Y-84137182D01*
X73515100Y-84202549D01*
X73522567Y-84272019D01*
X73515100Y-84297451D01*
X73488026Y-84362815D01*
X73469965Y-84499999D01*
X73469965Y-84500002D01*
X73480627Y-84580989D01*
X73469861Y-84650024D01*
X73423481Y-84702280D01*
X73373874Y-84720113D01*
X73285382Y-84731763D01*
X73237817Y-84738026D01*
X73237816Y-84738026D01*
X73237813Y-84738027D01*
X73109984Y-84790974D01*
X73109982Y-84790976D01*
X73012986Y-84865404D01*
X72947817Y-84890598D01*
X72879372Y-84876560D01*
X72862013Y-84865404D01*
X72858636Y-84862813D01*
X72765018Y-84790976D01*
X72765017Y-84790975D01*
X72765015Y-84790974D01*
X72637186Y-84738027D01*
X72637184Y-84738026D01*
X72637183Y-84738026D01*
X72545727Y-84725985D01*
X72500001Y-84719965D01*
X72499999Y-84719965D01*
X72452323Y-84726242D01*
X72362817Y-84738026D01*
X72362816Y-84738026D01*
X72362813Y-84738027D01*
X72234985Y-84790974D01*
X72125209Y-84875209D01*
X72040974Y-84984985D01*
X71988027Y-85112813D01*
X71988026Y-85112816D01*
X71988026Y-85112817D01*
X71969965Y-85250000D01*
X71986682Y-85376978D01*
X71988026Y-85387181D01*
X71988027Y-85387186D01*
X72040974Y-85515015D01*
X72040975Y-85515017D01*
X72040976Y-85515018D01*
X72125209Y-85624791D01*
X72234982Y-85709024D01*
X72234983Y-85709024D01*
X72234984Y-85709025D01*
X72359110Y-85760439D01*
X72413514Y-85804279D01*
X72435579Y-85870573D01*
X72418300Y-85938273D01*
X72367163Y-85985884D01*
X72359110Y-85989561D01*
X72234986Y-86040974D01*
X72125209Y-86125209D01*
X72040974Y-86234985D01*
X71988027Y-86362813D01*
X71988026Y-86362818D01*
X71969965Y-86499999D01*
X71969965Y-86500000D01*
X71988026Y-86637181D01*
X71988027Y-86637186D01*
X72040974Y-86765015D01*
X72040975Y-86765017D01*
X72040976Y-86765018D01*
X72057802Y-86786946D01*
X72125207Y-86874789D01*
X72127718Y-86877299D01*
X72129160Y-86879940D01*
X72130157Y-86881239D01*
X72129954Y-86881394D01*
X72161207Y-86938621D01*
X72156226Y-87008313D01*
X72154604Y-87012438D01*
X72113025Y-87112819D01*
X72094965Y-87249999D01*
X72094965Y-87250002D01*
X72100058Y-87288689D01*
X72089292Y-87357725D01*
X72042912Y-87409980D01*
X71975643Y-87428865D01*
X71908842Y-87408384D01*
X71878744Y-87380361D01*
X71874791Y-87375209D01*
X71765018Y-87290976D01*
X71765017Y-87290975D01*
X71765015Y-87290974D01*
X71637186Y-87238027D01*
X71637184Y-87238026D01*
X71637183Y-87238026D01*
X71545727Y-87225985D01*
X71500001Y-87219965D01*
X71499999Y-87219965D01*
X71431408Y-87228995D01*
X71362817Y-87238026D01*
X71362816Y-87238026D01*
X71362813Y-87238027D01*
X71234985Y-87290974D01*
X71125209Y-87375209D01*
X71040974Y-87484985D01*
X70988027Y-87612813D01*
X70988026Y-87612816D01*
X70988026Y-87612817D01*
X70987998Y-87613027D01*
X70969965Y-87749999D01*
X70969965Y-87750000D01*
X70988026Y-87887181D01*
X70988027Y-87887186D01*
X71040974Y-88015015D01*
X71040975Y-88015017D01*
X71040976Y-88015018D01*
X71125209Y-88124791D01*
X71234982Y-88209024D01*
X71362817Y-88261974D01*
X71485702Y-88278152D01*
X71499999Y-88280035D01*
X71500000Y-88280035D01*
X71500001Y-88280035D01*
X71512947Y-88278330D01*
X71637183Y-88261974D01*
X71765018Y-88209024D01*
X71874791Y-88124791D01*
X71959024Y-88015018D01*
X72011974Y-87887183D01*
X72030035Y-87750000D01*
X72024941Y-87711310D01*
X72035706Y-87642278D01*
X72082085Y-87590021D01*
X72149354Y-87571135D01*
X72216154Y-87591615D01*
X72246256Y-87619640D01*
X72250209Y-87624791D01*
X72359982Y-87709024D01*
X72487817Y-87761974D01*
X72610702Y-87778152D01*
X72624999Y-87780035D01*
X72625000Y-87780035D01*
X72625001Y-87780035D01*
X72637947Y-87778330D01*
X72762183Y-87761974D01*
X72890018Y-87709024D01*
X72999791Y-87624791D01*
X73084024Y-87515018D01*
X73084024Y-87515015D01*
X73088971Y-87508570D01*
X73091769Y-87510717D01*
X73130501Y-87473668D01*
X73199087Y-87460334D01*
X73263993Y-87486196D01*
X73284438Y-87509790D01*
X73286029Y-87508570D01*
X73290975Y-87515015D01*
X73290976Y-87515018D01*
X73375209Y-87624791D01*
X73484982Y-87709024D01*
X73612817Y-87761974D01*
X73660044Y-87768191D01*
X73723939Y-87796457D01*
X73762411Y-87854781D01*
X73763243Y-87924646D01*
X73758420Y-87938582D01*
X73738025Y-87987819D01*
X73719965Y-88124999D01*
X73719965Y-88125000D01*
X73737998Y-88261974D01*
X73738026Y-88262181D01*
X73738027Y-88262186D01*
X73790974Y-88390015D01*
X73790975Y-88390017D01*
X73790976Y-88390018D01*
X73875209Y-88499791D01*
X73984982Y-88584024D01*
X74112817Y-88636974D01*
X74235702Y-88653152D01*
X74249999Y-88655035D01*
X74250000Y-88655035D01*
X74250001Y-88655035D01*
X74262947Y-88653330D01*
X74387183Y-88636974D01*
X74515018Y-88584024D01*
X74624791Y-88499791D01*
X74709024Y-88390018D01*
X74761974Y-88262183D01*
X74780035Y-88125000D01*
X74780007Y-88124791D01*
X74778152Y-88110702D01*
X74761974Y-87987817D01*
X74720292Y-87887186D01*
X74709025Y-87859985D01*
X74709024Y-87859984D01*
X74709024Y-87859983D01*
X74624791Y-87750209D01*
X74624789Y-87750208D01*
X74624789Y-87750207D01*
X74558220Y-87699127D01*
X74515018Y-87665976D01*
X74515017Y-87665975D01*
X74515015Y-87665974D01*
X74387186Y-87613027D01*
X74387184Y-87613026D01*
X74387183Y-87613026D01*
X74363819Y-87609950D01*
X74339955Y-87606808D01*
X74276059Y-87578541D01*
X74237589Y-87520216D01*
X74236758Y-87450351D01*
X74241581Y-87436417D01*
X74252531Y-87409980D01*
X74261974Y-87387183D01*
X74280035Y-87250000D01*
X74267242Y-87152832D01*
X74278007Y-87083799D01*
X74324387Y-87031543D01*
X74373994Y-87013710D01*
X74387183Y-87011974D01*
X74515018Y-86959024D01*
X74624791Y-86874791D01*
X74709024Y-86765018D01*
X74761974Y-86637183D01*
X74780035Y-86500000D01*
X74769372Y-86419009D01*
X74780137Y-86349976D01*
X74826517Y-86297720D01*
X74876122Y-86279887D01*
X75012183Y-86261974D01*
X75078049Y-86234691D01*
X75147517Y-86227223D01*
X75209996Y-86258498D01*
X75245648Y-86318587D01*
X75249500Y-86349253D01*
X75249500Y-89743098D01*
X75260123Y-89831560D01*
X75260124Y-89831563D01*
X75314770Y-89970137D01*
X75315640Y-89972343D01*
X75407077Y-90092922D01*
X75517974Y-90177017D01*
X75527659Y-90184361D01*
X75668437Y-90239876D01*
X75756902Y-90250500D01*
X79243098Y-90250500D01*
X79331563Y-90239876D01*
X79472341Y-90184361D01*
X79592922Y-90092922D01*
X79684361Y-89972341D01*
X79739876Y-89831563D01*
X79750500Y-89743098D01*
X79750500Y-86256902D01*
X79750051Y-86253167D01*
X79739876Y-86168439D01*
X79739876Y-86168437D01*
X79684361Y-86027659D01*
X79680227Y-86022207D01*
X79675694Y-86016229D01*
X79650873Y-85950917D01*
X79650500Y-85941307D01*
X79650500Y-84558596D01*
X79670185Y-84491557D01*
X79722989Y-84445802D01*
X79792147Y-84435858D01*
X79809428Y-84439617D01*
X79884122Y-84461549D01*
X79931632Y-84475500D01*
X79931633Y-84475500D01*
X80068367Y-84475500D01*
X80199561Y-84436978D01*
X80279155Y-84385826D01*
X80346193Y-84366143D01*
X80413232Y-84385828D01*
X80458987Y-84438632D01*
X80466975Y-84491872D01*
X80469965Y-84491872D01*
X80469965Y-84499999D01*
X80469965Y-84500000D01*
X80486449Y-84625207D01*
X80488026Y-84637181D01*
X80488027Y-84637186D01*
X80540974Y-84765015D01*
X80540975Y-84765017D01*
X80540976Y-84765018D01*
X80575518Y-84810034D01*
X80625211Y-84874793D01*
X80660178Y-84901625D01*
X80701381Y-84958053D01*
X80705535Y-85027799D01*
X80671322Y-85088719D01*
X80660179Y-85098374D01*
X80625212Y-85125206D01*
X80625210Y-85125207D01*
X80625209Y-85125209D01*
X80616019Y-85137186D01*
X80540974Y-85234985D01*
X80488027Y-85362813D01*
X80488026Y-85362816D01*
X80488026Y-85362817D01*
X80486161Y-85376980D01*
X80469965Y-85499999D01*
X80469965Y-85500000D01*
X80488026Y-85637184D01*
X80515100Y-85702549D01*
X80522567Y-85772019D01*
X80515100Y-85797451D01*
X80488026Y-85862815D01*
X80488026Y-85862816D01*
X80488026Y-85862817D01*
X80469965Y-86000000D01*
X80486627Y-86126560D01*
X80488026Y-86137181D01*
X80488027Y-86137186D01*
X80540974Y-86265015D01*
X80540975Y-86265017D01*
X80540976Y-86265018D01*
X80625209Y-86374791D01*
X80734982Y-86459024D01*
X80734983Y-86459024D01*
X80734984Y-86459025D01*
X80760549Y-86469614D01*
X80862817Y-86511974D01*
X80862830Y-86511975D01*
X80867625Y-86513261D01*
X80927288Y-86549622D01*
X80957821Y-86612467D01*
X80949530Y-86681844D01*
X80905048Y-86735724D01*
X80902579Y-86737353D01*
X80825414Y-86786943D01*
X80825411Y-86786946D01*
X80735874Y-86890278D01*
X80735869Y-86890285D01*
X80679072Y-87014654D01*
X80679070Y-87014662D01*
X80659612Y-87150000D01*
X80679070Y-87285337D01*
X80679072Y-87285345D01*
X80735869Y-87409714D01*
X80735874Y-87409721D01*
X80825411Y-87513053D01*
X80825415Y-87513057D01*
X80885981Y-87551979D01*
X80940441Y-87586978D01*
X81006038Y-87606239D01*
X81071634Y-87625500D01*
X81071635Y-87625500D01*
X81208369Y-87625500D01*
X81339563Y-87586978D01*
X81448482Y-87516980D01*
X81454588Y-87513057D01*
X81454588Y-87513056D01*
X81454591Y-87513055D01*
X81544132Y-87409718D01*
X81600933Y-87285342D01*
X81620392Y-87150000D01*
X81600933Y-87014658D01*
X81574851Y-86957547D01*
X81544134Y-86890285D01*
X81544129Y-86890278D01*
X81454592Y-86786946D01*
X81454588Y-86786942D01*
X81363738Y-86728558D01*
X81339563Y-86713022D01*
X81339562Y-86713021D01*
X81339561Y-86713021D01*
X81274360Y-86693876D01*
X81215583Y-86656101D01*
X81186558Y-86592545D01*
X81196502Y-86523387D01*
X81242257Y-86470583D01*
X81261844Y-86460338D01*
X81265018Y-86459024D01*
X81374791Y-86374791D01*
X81459024Y-86265018D01*
X81511974Y-86137183D01*
X81530035Y-86000000D01*
X81511974Y-85862817D01*
X81484898Y-85797451D01*
X81477430Y-85727983D01*
X81484897Y-85702551D01*
X81511974Y-85637183D01*
X81530035Y-85500000D01*
X81530035Y-85499999D01*
X83469965Y-85499999D01*
X83469965Y-85500000D01*
X83488026Y-85637184D01*
X83515100Y-85702549D01*
X83522567Y-85772019D01*
X83515100Y-85797451D01*
X83488026Y-85862815D01*
X83488026Y-85862816D01*
X83488026Y-85862817D01*
X83469965Y-86000000D01*
X83486627Y-86126560D01*
X83488026Y-86137181D01*
X83488027Y-86137186D01*
X83540974Y-86265015D01*
X83540975Y-86265017D01*
X83540976Y-86265018D01*
X83625209Y-86374791D01*
X83734982Y-86459024D01*
X83734983Y-86459024D01*
X83734984Y-86459025D01*
X83762886Y-86470582D01*
X83862817Y-86511974D01*
X83985702Y-86528152D01*
X83999999Y-86530035D01*
X84000000Y-86530035D01*
X84000001Y-86530035D01*
X84012947Y-86528330D01*
X84137183Y-86511974D01*
X84265018Y-86459024D01*
X84374791Y-86374791D01*
X84459024Y-86265018D01*
X84511974Y-86137183D01*
X84530035Y-86000000D01*
X84511974Y-85862817D01*
X84484898Y-85797451D01*
X84477430Y-85727983D01*
X84484897Y-85702551D01*
X84511974Y-85637183D01*
X84530035Y-85500000D01*
X84511974Y-85362817D01*
X84459024Y-85234983D01*
X84374791Y-85125209D01*
X84374789Y-85125208D01*
X84374789Y-85125207D01*
X84301671Y-85069101D01*
X84265018Y-85040976D01*
X84265017Y-85040975D01*
X84265015Y-85040974D01*
X84137186Y-84988027D01*
X84137184Y-84988026D01*
X84137183Y-84988026D01*
X84045727Y-84975985D01*
X84000001Y-84969965D01*
X83999999Y-84969965D01*
X83931408Y-84978995D01*
X83862817Y-84988026D01*
X83862816Y-84988026D01*
X83862813Y-84988027D01*
X83734985Y-85040974D01*
X83625209Y-85125209D01*
X83540974Y-85234985D01*
X83488027Y-85362813D01*
X83488026Y-85362816D01*
X83488026Y-85362817D01*
X83486161Y-85376980D01*
X83469965Y-85499999D01*
X81530035Y-85499999D01*
X81511974Y-85362817D01*
X81459024Y-85234983D01*
X81374791Y-85125209D01*
X81374788Y-85125207D01*
X81374787Y-85125205D01*
X81339822Y-85098376D01*
X81298619Y-85041948D01*
X81294464Y-84972202D01*
X81328676Y-84911282D01*
X81339822Y-84901624D01*
X81354191Y-84890598D01*
X81374791Y-84874791D01*
X81459024Y-84765018D01*
X81511974Y-84637183D01*
X81530035Y-84500000D01*
X81511974Y-84362817D01*
X81484898Y-84297451D01*
X81477430Y-84227983D01*
X81484897Y-84202551D01*
X81511974Y-84137183D01*
X81514120Y-84120874D01*
X81542383Y-84056981D01*
X81600706Y-84018507D01*
X81620862Y-84014122D01*
X81637183Y-84011974D01*
X81702548Y-83984898D01*
X81772017Y-83977430D01*
X81797448Y-83984897D01*
X81862817Y-84011974D01*
X81973454Y-84026540D01*
X81999999Y-84030035D01*
X82000000Y-84030035D01*
X82000001Y-84030035D01*
X82012947Y-84028330D01*
X82137183Y-84011974D01*
X82202548Y-83984898D01*
X82272017Y-83977430D01*
X82297448Y-83984897D01*
X82362817Y-84011974D01*
X82473454Y-84026540D01*
X82499999Y-84030035D01*
X82500000Y-84030035D01*
X82500001Y-84030035D01*
X82512947Y-84028330D01*
X82637183Y-84011974D01*
X82702548Y-83984898D01*
X82772017Y-83977430D01*
X82797448Y-83984897D01*
X82862817Y-84011974D01*
X82973454Y-84026540D01*
X82999999Y-84030035D01*
X83000000Y-84030035D01*
X83000001Y-84030035D01*
X83012947Y-84028330D01*
X83137183Y-84011974D01*
X83202548Y-83984898D01*
X83272017Y-83977430D01*
X83297448Y-83984897D01*
X83362817Y-84011974D01*
X83473454Y-84026540D01*
X83499999Y-84030035D01*
X83500000Y-84030035D01*
X83500001Y-84030035D01*
X83512947Y-84028330D01*
X83637183Y-84011974D01*
X83702548Y-83984898D01*
X83772017Y-83977430D01*
X83797448Y-83984897D01*
X83862817Y-84011974D01*
X83973454Y-84026540D01*
X83999999Y-84030035D01*
X84000000Y-84030035D01*
X84000001Y-84030035D01*
X84012947Y-84028330D01*
X84137183Y-84011974D01*
X84202548Y-83984898D01*
X84272017Y-83977430D01*
X84297448Y-83984897D01*
X84362817Y-84011974D01*
X84473454Y-84026540D01*
X84499999Y-84030035D01*
X84500000Y-84030035D01*
X84500001Y-84030035D01*
X84512947Y-84028330D01*
X84637183Y-84011974D01*
X84702548Y-83984898D01*
X84772017Y-83977430D01*
X84797448Y-83984897D01*
X84862817Y-84011974D01*
X84973454Y-84026540D01*
X84999999Y-84030035D01*
X85000000Y-84030035D01*
X85000001Y-84030035D01*
X85012947Y-84028330D01*
X85137183Y-84011974D01*
X85202548Y-83984898D01*
X85272017Y-83977430D01*
X85297448Y-83984897D01*
X85362817Y-84011974D01*
X85473454Y-84026540D01*
X85499999Y-84030035D01*
X85500000Y-84030035D01*
X85500001Y-84030035D01*
X85512947Y-84028330D01*
X85637183Y-84011974D01*
X85702548Y-83984898D01*
X85772017Y-83977430D01*
X85797448Y-83984897D01*
X85862817Y-84011974D01*
X85973454Y-84026540D01*
X85999999Y-84030035D01*
X86000000Y-84030035D01*
X86000001Y-84030035D01*
X86012947Y-84028330D01*
X86137183Y-84011974D01*
X86202548Y-83984898D01*
X86272017Y-83977430D01*
X86297448Y-83984897D01*
X86362817Y-84011974D01*
X86379125Y-84014121D01*
X86443018Y-84042384D01*
X86481491Y-84100707D01*
X86485877Y-84120869D01*
X86488025Y-84137181D01*
X86488025Y-84137182D01*
X86515100Y-84202549D01*
X86522567Y-84272019D01*
X86515100Y-84297451D01*
X86488026Y-84362815D01*
X86469965Y-84499999D01*
X86469965Y-84500002D01*
X86480627Y-84580989D01*
X86469861Y-84650024D01*
X86423481Y-84702280D01*
X86373874Y-84720113D01*
X86285382Y-84731763D01*
X86237817Y-84738026D01*
X86237816Y-84738026D01*
X86237813Y-84738027D01*
X86109984Y-84790974D01*
X86109982Y-84790976D01*
X86012986Y-84865404D01*
X85947817Y-84890598D01*
X85879372Y-84876560D01*
X85862013Y-84865404D01*
X85858636Y-84862813D01*
X85765018Y-84790976D01*
X85765017Y-84790975D01*
X85765015Y-84790974D01*
X85637186Y-84738027D01*
X85637184Y-84738026D01*
X85637183Y-84738026D01*
X85545727Y-84725985D01*
X85500001Y-84719965D01*
X85499999Y-84719965D01*
X85452323Y-84726242D01*
X85362817Y-84738026D01*
X85362816Y-84738026D01*
X85362813Y-84738027D01*
X85234985Y-84790974D01*
X85125209Y-84875209D01*
X85040974Y-84984985D01*
X84988027Y-85112813D01*
X84988026Y-85112816D01*
X84988026Y-85112817D01*
X84969965Y-85250000D01*
X84986682Y-85376978D01*
X84988026Y-85387181D01*
X84988027Y-85387186D01*
X85040974Y-85515015D01*
X85040975Y-85515017D01*
X85040976Y-85515018D01*
X85125209Y-85624791D01*
X85234982Y-85709024D01*
X85234983Y-85709024D01*
X85234984Y-85709025D01*
X85359110Y-85760439D01*
X85413514Y-85804279D01*
X85435579Y-85870573D01*
X85418300Y-85938273D01*
X85367163Y-85985884D01*
X85359110Y-85989561D01*
X85234986Y-86040974D01*
X85125209Y-86125209D01*
X85040974Y-86234985D01*
X84988027Y-86362813D01*
X84988026Y-86362818D01*
X84969965Y-86499999D01*
X84969965Y-86500000D01*
X84988026Y-86637181D01*
X84988027Y-86637186D01*
X85040974Y-86765015D01*
X85040975Y-86765017D01*
X85040976Y-86765018D01*
X85057802Y-86786946D01*
X85125207Y-86874789D01*
X85127718Y-86877299D01*
X85129160Y-86879940D01*
X85130157Y-86881239D01*
X85129954Y-86881394D01*
X85161207Y-86938621D01*
X85156226Y-87008313D01*
X85154604Y-87012438D01*
X85113025Y-87112819D01*
X85094965Y-87249999D01*
X85094965Y-87250002D01*
X85100058Y-87288689D01*
X85089292Y-87357725D01*
X85042912Y-87409980D01*
X84975643Y-87428865D01*
X84908842Y-87408384D01*
X84878744Y-87380361D01*
X84874791Y-87375209D01*
X84765018Y-87290976D01*
X84765017Y-87290975D01*
X84765015Y-87290974D01*
X84637186Y-87238027D01*
X84637184Y-87238026D01*
X84637183Y-87238026D01*
X84545727Y-87225985D01*
X84500001Y-87219965D01*
X84499999Y-87219965D01*
X84431408Y-87228995D01*
X84362817Y-87238026D01*
X84362816Y-87238026D01*
X84362813Y-87238027D01*
X84234985Y-87290974D01*
X84125209Y-87375209D01*
X84040974Y-87484985D01*
X83988027Y-87612813D01*
X83988026Y-87612816D01*
X83988026Y-87612817D01*
X83987998Y-87613027D01*
X83969965Y-87749999D01*
X83969965Y-87750000D01*
X83988026Y-87887181D01*
X83988027Y-87887186D01*
X84040974Y-88015015D01*
X84040975Y-88015017D01*
X84040976Y-88015018D01*
X84125209Y-88124791D01*
X84234982Y-88209024D01*
X84362817Y-88261974D01*
X84485702Y-88278152D01*
X84499999Y-88280035D01*
X84500000Y-88280035D01*
X84500001Y-88280035D01*
X84512947Y-88278330D01*
X84637183Y-88261974D01*
X84765018Y-88209024D01*
X84874791Y-88124791D01*
X84959024Y-88015018D01*
X85011974Y-87887183D01*
X85030035Y-87750000D01*
X85024941Y-87711310D01*
X85035706Y-87642278D01*
X85082085Y-87590021D01*
X85149354Y-87571135D01*
X85216154Y-87591615D01*
X85246256Y-87619640D01*
X85250209Y-87624791D01*
X85359982Y-87709024D01*
X85487817Y-87761974D01*
X85610702Y-87778152D01*
X85624999Y-87780035D01*
X85625000Y-87780035D01*
X85625001Y-87780035D01*
X85637947Y-87778330D01*
X85762183Y-87761974D01*
X85890018Y-87709024D01*
X85999791Y-87624791D01*
X86084024Y-87515018D01*
X86084024Y-87515015D01*
X86088971Y-87508570D01*
X86091769Y-87510717D01*
X86130501Y-87473668D01*
X86199087Y-87460334D01*
X86263993Y-87486196D01*
X86284438Y-87509790D01*
X86286029Y-87508570D01*
X86290975Y-87515015D01*
X86290976Y-87515018D01*
X86375209Y-87624791D01*
X86484982Y-87709024D01*
X86612817Y-87761974D01*
X86660044Y-87768191D01*
X86723939Y-87796457D01*
X86762411Y-87854781D01*
X86763243Y-87924646D01*
X86758420Y-87938582D01*
X86738025Y-87987819D01*
X86719965Y-88124999D01*
X86719965Y-88125000D01*
X86737998Y-88261974D01*
X86738026Y-88262181D01*
X86738027Y-88262186D01*
X86790974Y-88390015D01*
X86790975Y-88390017D01*
X86790976Y-88390018D01*
X86875209Y-88499791D01*
X86984982Y-88584024D01*
X87112817Y-88636974D01*
X87235702Y-88653152D01*
X87249999Y-88655035D01*
X87250000Y-88655035D01*
X87250001Y-88655035D01*
X87262947Y-88653330D01*
X87387183Y-88636974D01*
X87515016Y-88584025D01*
X87522527Y-88580914D01*
X87523203Y-88582547D01*
X87581393Y-88568427D01*
X87647421Y-88591275D01*
X87690615Y-88646194D01*
X87699500Y-88692287D01*
X87699500Y-89182712D01*
X87679815Y-89249751D01*
X87627011Y-89295506D01*
X87557853Y-89305450D01*
X87522838Y-89293333D01*
X87522527Y-89294086D01*
X87387186Y-89238027D01*
X87387184Y-89238026D01*
X87387183Y-89238026D01*
X87295727Y-89225985D01*
X87250001Y-89219965D01*
X87249999Y-89219965D01*
X87181408Y-89228995D01*
X87112817Y-89238026D01*
X87112816Y-89238026D01*
X87112813Y-89238027D01*
X86984985Y-89290974D01*
X86875209Y-89375209D01*
X86790974Y-89484985D01*
X86738027Y-89612813D01*
X86738026Y-89612816D01*
X86738026Y-89612817D01*
X86728995Y-89681408D01*
X86719965Y-89749999D01*
X86719965Y-89750000D01*
X86738026Y-89887181D01*
X86738027Y-89887186D01*
X86758419Y-89936419D01*
X86765886Y-90005888D01*
X86734610Y-90068367D01*
X86674521Y-90104018D01*
X86660044Y-90106808D01*
X86612817Y-90113026D01*
X86612813Y-90113027D01*
X86484985Y-90165974D01*
X86375209Y-90250209D01*
X86290974Y-90359986D01*
X86266990Y-90417890D01*
X86223149Y-90472294D01*
X86156855Y-90494359D01*
X86089156Y-90477080D01*
X86054054Y-90445925D01*
X85999791Y-90375209D01*
X85890015Y-90290974D01*
X85762186Y-90238027D01*
X85762184Y-90238026D01*
X85762183Y-90238026D01*
X85670727Y-90225985D01*
X85625001Y-90219965D01*
X85624999Y-90219965D01*
X85556408Y-90228995D01*
X85487817Y-90238026D01*
X85487816Y-90238026D01*
X85487813Y-90238027D01*
X85359985Y-90290974D01*
X85270052Y-90359983D01*
X85250209Y-90375209D01*
X85165976Y-90484983D01*
X85165975Y-90484985D01*
X85161029Y-90491431D01*
X85158254Y-90489301D01*
X85119319Y-90526425D01*
X85050712Y-90539647D01*
X84985848Y-90513679D01*
X84965531Y-90490233D01*
X84963971Y-90491431D01*
X84959024Y-90484985D01*
X84959024Y-90484983D01*
X84874791Y-90375209D01*
X84874789Y-90375208D01*
X84874789Y-90375207D01*
X84765015Y-90290974D01*
X84637186Y-90238027D01*
X84637184Y-90238026D01*
X84637183Y-90238026D01*
X84545727Y-90225985D01*
X84500001Y-90219965D01*
X84499999Y-90219965D01*
X84431408Y-90228995D01*
X84362817Y-90238026D01*
X84362816Y-90238026D01*
X84362813Y-90238027D01*
X84234985Y-90290974D01*
X84125209Y-90375209D01*
X84040974Y-90484985D01*
X83988027Y-90612813D01*
X83988026Y-90612816D01*
X83988026Y-90612817D01*
X83969965Y-90750000D01*
X83974493Y-90784396D01*
X83988026Y-90887181D01*
X83988027Y-90887186D01*
X84044086Y-91022527D01*
X84042452Y-91023203D01*
X84056573Y-91081393D01*
X84033725Y-91147421D01*
X83978806Y-91190615D01*
X83932713Y-91199500D01*
X83692287Y-91199500D01*
X83625248Y-91179815D01*
X83579493Y-91127011D01*
X83569549Y-91057853D01*
X83581668Y-91022839D01*
X83580914Y-91022527D01*
X83621561Y-90924394D01*
X83636974Y-90887183D01*
X83655035Y-90750000D01*
X83636974Y-90612817D01*
X83584024Y-90484983D01*
X83499791Y-90375209D01*
X83499789Y-90375208D01*
X83499789Y-90375207D01*
X83390015Y-90290974D01*
X83262186Y-90238027D01*
X83262184Y-90238026D01*
X83262183Y-90238026D01*
X83170727Y-90225985D01*
X83125001Y-90219965D01*
X83124999Y-90219965D01*
X83056408Y-90228995D01*
X82987817Y-90238026D01*
X82987816Y-90238026D01*
X82987813Y-90238027D01*
X82859985Y-90290974D01*
X82750206Y-90375211D01*
X82723375Y-90410179D01*
X82666947Y-90451382D01*
X82597201Y-90455536D01*
X82536281Y-90421323D01*
X82526625Y-90410179D01*
X82499791Y-90375209D01*
X82390015Y-90290974D01*
X82262186Y-90238027D01*
X82262184Y-90238026D01*
X82262183Y-90238026D01*
X82170727Y-90225985D01*
X82125001Y-90219965D01*
X82124999Y-90219965D01*
X82056408Y-90228995D01*
X81987817Y-90238026D01*
X81987816Y-90238026D01*
X81987813Y-90238027D01*
X81859985Y-90290974D01*
X81750206Y-90375211D01*
X81723375Y-90410179D01*
X81666947Y-90451382D01*
X81597201Y-90455536D01*
X81536281Y-90421323D01*
X81526625Y-90410179D01*
X81499791Y-90375209D01*
X81390015Y-90290974D01*
X81262186Y-90238027D01*
X81262184Y-90238026D01*
X81262183Y-90238026D01*
X81170727Y-90225985D01*
X81125001Y-90219965D01*
X81124999Y-90219965D01*
X81056408Y-90228995D01*
X80987817Y-90238026D01*
X80987816Y-90238026D01*
X80987813Y-90238027D01*
X80859985Y-90290974D01*
X80750209Y-90375209D01*
X80665974Y-90484985D01*
X80613027Y-90612813D01*
X80613026Y-90612816D01*
X80613026Y-90612817D01*
X80594965Y-90750000D01*
X80599493Y-90784396D01*
X80613026Y-90887181D01*
X80613027Y-90887186D01*
X80669086Y-91022527D01*
X80667452Y-91023203D01*
X80681573Y-91081393D01*
X80658725Y-91147421D01*
X80603806Y-91190615D01*
X80557713Y-91199500D01*
X74222996Y-91199500D01*
X74155957Y-91179815D01*
X74110202Y-91127011D01*
X74100258Y-91057853D01*
X74124621Y-91000013D01*
X74209023Y-90890019D01*
X74209022Y-90890019D01*
X74209024Y-90890018D01*
X74261974Y-90762183D01*
X74280035Y-90625000D01*
X74261974Y-90487817D01*
X74241579Y-90438580D01*
X74234111Y-90369114D01*
X74265386Y-90306635D01*
X74325474Y-90270982D01*
X74339947Y-90268192D01*
X74387183Y-90261974D01*
X74515018Y-90209024D01*
X74624791Y-90124791D01*
X74709024Y-90015018D01*
X74761974Y-89887183D01*
X74780035Y-89750000D01*
X74761974Y-89612817D01*
X74709024Y-89484983D01*
X74624791Y-89375209D01*
X74624789Y-89375208D01*
X74624789Y-89375207D01*
X74558220Y-89324127D01*
X74515018Y-89290976D01*
X74515017Y-89290975D01*
X74515015Y-89290974D01*
X74387186Y-89238027D01*
X74387184Y-89238026D01*
X74387183Y-89238026D01*
X74295727Y-89225985D01*
X74250001Y-89219965D01*
X74249999Y-89219965D01*
X74181408Y-89228995D01*
X74112817Y-89238026D01*
X74112816Y-89238026D01*
X74112813Y-89238027D01*
X73984985Y-89290974D01*
X73875209Y-89375209D01*
X73790974Y-89484985D01*
X73738027Y-89612813D01*
X73738026Y-89612816D01*
X73738026Y-89612817D01*
X73728995Y-89681408D01*
X73719965Y-89749999D01*
X73719965Y-89750000D01*
X73738026Y-89887181D01*
X73738027Y-89887186D01*
X73758419Y-89936419D01*
X73765886Y-90005888D01*
X73734610Y-90068367D01*
X73674521Y-90104018D01*
X73660044Y-90106808D01*
X73612817Y-90113026D01*
X73612813Y-90113027D01*
X73484985Y-90165974D01*
X73375209Y-90250209D01*
X73290974Y-90359986D01*
X73266990Y-90417890D01*
X73223149Y-90472294D01*
X73156855Y-90494359D01*
X73089156Y-90477080D01*
X73054054Y-90445925D01*
X72999791Y-90375209D01*
X72890015Y-90290974D01*
X72762186Y-90238027D01*
X72762184Y-90238026D01*
X72762183Y-90238026D01*
X72670727Y-90225985D01*
X72625001Y-90219965D01*
X72624999Y-90219965D01*
X72556408Y-90228995D01*
X72487817Y-90238026D01*
X72487816Y-90238026D01*
X72487813Y-90238027D01*
X72359985Y-90290974D01*
X72270052Y-90359983D01*
X72250209Y-90375209D01*
X72165976Y-90484983D01*
X72165975Y-90484985D01*
X72161029Y-90491431D01*
X72158254Y-90489301D01*
X72119319Y-90526425D01*
X72050712Y-90539647D01*
X71985848Y-90513679D01*
X71965531Y-90490233D01*
X71963971Y-90491431D01*
X71959024Y-90484985D01*
X71959024Y-90484983D01*
X71874791Y-90375209D01*
X71874789Y-90375208D01*
X71874789Y-90375207D01*
X71765015Y-90290974D01*
X71637186Y-90238027D01*
X71637184Y-90238026D01*
X71637183Y-90238026D01*
X71545727Y-90225985D01*
X71500001Y-90219965D01*
X71499999Y-90219965D01*
X71431408Y-90228995D01*
X71362817Y-90238026D01*
X71362816Y-90238026D01*
X71362813Y-90238027D01*
X71234985Y-90290974D01*
X71125209Y-90375209D01*
X71040974Y-90484985D01*
X70988027Y-90612813D01*
X70988026Y-90612816D01*
X70988026Y-90612817D01*
X70969965Y-90750000D01*
X70974493Y-90784396D01*
X70988026Y-90887181D01*
X70988027Y-90887186D01*
X71044086Y-91022527D01*
X71042452Y-91023203D01*
X71056573Y-91081393D01*
X71033725Y-91147421D01*
X70978806Y-91190615D01*
X70932713Y-91199500D01*
X70692287Y-91199500D01*
X70625248Y-91179815D01*
X70579493Y-91127011D01*
X70569549Y-91057853D01*
X70581668Y-91022839D01*
X70580914Y-91022527D01*
X70621561Y-90924394D01*
X70636974Y-90887183D01*
X70655035Y-90750000D01*
X70636974Y-90612817D01*
X70584024Y-90484983D01*
X70499791Y-90375209D01*
X70499789Y-90375208D01*
X70499789Y-90375207D01*
X70390015Y-90290974D01*
X70262186Y-90238027D01*
X70262184Y-90238026D01*
X70262183Y-90238026D01*
X70170727Y-90225985D01*
X70125001Y-90219965D01*
X70124999Y-90219965D01*
X70056408Y-90228995D01*
X69987817Y-90238026D01*
X69987816Y-90238026D01*
X69987813Y-90238027D01*
X69859985Y-90290974D01*
X69750206Y-90375211D01*
X69723375Y-90410179D01*
X69666947Y-90451382D01*
X69597201Y-90455536D01*
X69536281Y-90421323D01*
X69526625Y-90410179D01*
X69499791Y-90375209D01*
X69390015Y-90290974D01*
X69262186Y-90238027D01*
X69262184Y-90238026D01*
X69262183Y-90238026D01*
X69170727Y-90225985D01*
X69125001Y-90219965D01*
X69124999Y-90219965D01*
X69056408Y-90228995D01*
X68987817Y-90238026D01*
X68987816Y-90238026D01*
X68987813Y-90238027D01*
X68859985Y-90290974D01*
X68750206Y-90375211D01*
X68723375Y-90410179D01*
X68666947Y-90451382D01*
X68597201Y-90455536D01*
X68536281Y-90421323D01*
X68526625Y-90410179D01*
X68499791Y-90375209D01*
X68390015Y-90290974D01*
X68262186Y-90238027D01*
X68262184Y-90238026D01*
X68262183Y-90238026D01*
X68170727Y-90225985D01*
X68125001Y-90219965D01*
X68124999Y-90219965D01*
X68056408Y-90228995D01*
X67987817Y-90238026D01*
X67987816Y-90238026D01*
X67987813Y-90238027D01*
X67859985Y-90290974D01*
X67750209Y-90375209D01*
X67665974Y-90484985D01*
X67613027Y-90612813D01*
X67613026Y-90612816D01*
X67613026Y-90612817D01*
X67594965Y-90750000D01*
X67599493Y-90784396D01*
X67613026Y-90887181D01*
X67613027Y-90887186D01*
X67669086Y-91022527D01*
X67667452Y-91023203D01*
X67681573Y-91081393D01*
X67658725Y-91147421D01*
X67603806Y-91190615D01*
X67557713Y-91199500D01*
X61222996Y-91199500D01*
X61155957Y-91179815D01*
X61110202Y-91127011D01*
X61100258Y-91057853D01*
X61124621Y-91000013D01*
X61209023Y-90890019D01*
X61209022Y-90890019D01*
X61209024Y-90890018D01*
X61261974Y-90762183D01*
X61280035Y-90625000D01*
X61261974Y-90487817D01*
X61241579Y-90438580D01*
X61234111Y-90369114D01*
X61265386Y-90306635D01*
X61325474Y-90270982D01*
X61339947Y-90268192D01*
X61387183Y-90261974D01*
X61515018Y-90209024D01*
X61624791Y-90124791D01*
X61709024Y-90015018D01*
X61761974Y-89887183D01*
X61780035Y-89750000D01*
X61761974Y-89612817D01*
X61709024Y-89484983D01*
X61624791Y-89375209D01*
X61624789Y-89375208D01*
X61624789Y-89375207D01*
X61558220Y-89324127D01*
X61515018Y-89290976D01*
X61515017Y-89290975D01*
X61515015Y-89290974D01*
X61387186Y-89238027D01*
X61387184Y-89238026D01*
X61387183Y-89238026D01*
X61295727Y-89225985D01*
X61250001Y-89219965D01*
X61249999Y-89219965D01*
X61181408Y-89228995D01*
X61112817Y-89238026D01*
X61112816Y-89238026D01*
X61112813Y-89238027D01*
X60984985Y-89290974D01*
X60875209Y-89375209D01*
X60790974Y-89484985D01*
X60738027Y-89612813D01*
X60738026Y-89612816D01*
X60738026Y-89612817D01*
X60728995Y-89681408D01*
X60719965Y-89749999D01*
X60719965Y-89750000D01*
X60738026Y-89887181D01*
X60738027Y-89887186D01*
X60758419Y-89936419D01*
X60765886Y-90005888D01*
X60734610Y-90068367D01*
X60674521Y-90104018D01*
X60660044Y-90106808D01*
X60612817Y-90113026D01*
X60612813Y-90113027D01*
X60484985Y-90165974D01*
X60375209Y-90250209D01*
X60290974Y-90359986D01*
X60266990Y-90417890D01*
X60223149Y-90472294D01*
X60156855Y-90494359D01*
X60089156Y-90477080D01*
X60054054Y-90445925D01*
X59999791Y-90375209D01*
X59890015Y-90290974D01*
X59762186Y-90238027D01*
X59762184Y-90238026D01*
X59762183Y-90238026D01*
X59670727Y-90225985D01*
X59625001Y-90219965D01*
X59624999Y-90219965D01*
X59556408Y-90228995D01*
X59487817Y-90238026D01*
X59487816Y-90238026D01*
X59487813Y-90238027D01*
X59359985Y-90290974D01*
X59270052Y-90359983D01*
X59250209Y-90375209D01*
X59165976Y-90484983D01*
X59165975Y-90484985D01*
X59161029Y-90491431D01*
X59158254Y-90489301D01*
X59119319Y-90526425D01*
X59050712Y-90539647D01*
X58985848Y-90513679D01*
X58965531Y-90490233D01*
X58963971Y-90491431D01*
X58959024Y-90484985D01*
X58959024Y-90484983D01*
X58874791Y-90375209D01*
X58874789Y-90375208D01*
X58874789Y-90375207D01*
X58765015Y-90290974D01*
X58637186Y-90238027D01*
X58637184Y-90238026D01*
X58637183Y-90238026D01*
X58545727Y-90225985D01*
X58500001Y-90219965D01*
X58499999Y-90219965D01*
X58431408Y-90228995D01*
X58362817Y-90238026D01*
X58362816Y-90238026D01*
X58362813Y-90238027D01*
X58234985Y-90290974D01*
X58125209Y-90375209D01*
X58040974Y-90484985D01*
X57988027Y-90612813D01*
X57988026Y-90612816D01*
X57988026Y-90612817D01*
X57969965Y-90750000D01*
X57974493Y-90784396D01*
X57988026Y-90887181D01*
X57988027Y-90887186D01*
X58044086Y-91022527D01*
X58042452Y-91023203D01*
X58056573Y-91081393D01*
X58033725Y-91147421D01*
X57978806Y-91190615D01*
X57932713Y-91199500D01*
X57692287Y-91199500D01*
X57625248Y-91179815D01*
X57579493Y-91127011D01*
X57569549Y-91057853D01*
X57581668Y-91022839D01*
X57580914Y-91022527D01*
X57621561Y-90924394D01*
X57636974Y-90887183D01*
X57655035Y-90750000D01*
X57636974Y-90612817D01*
X57584024Y-90484983D01*
X57499791Y-90375209D01*
X57499789Y-90375208D01*
X57499789Y-90375207D01*
X57390015Y-90290974D01*
X57262186Y-90238027D01*
X57262184Y-90238026D01*
X57262183Y-90238026D01*
X57170727Y-90225985D01*
X57125001Y-90219965D01*
X57124999Y-90219965D01*
X57056408Y-90228995D01*
X56987817Y-90238026D01*
X56987816Y-90238026D01*
X56987813Y-90238027D01*
X56859985Y-90290974D01*
X56750206Y-90375211D01*
X56723375Y-90410179D01*
X56666947Y-90451382D01*
X56597201Y-90455536D01*
X56536281Y-90421323D01*
X56526625Y-90410179D01*
X56499791Y-90375209D01*
X56390015Y-90290974D01*
X56262186Y-90238027D01*
X56262184Y-90238026D01*
X56262183Y-90238026D01*
X56170727Y-90225985D01*
X56125001Y-90219965D01*
X56124999Y-90219965D01*
X56056408Y-90228995D01*
X55987817Y-90238026D01*
X55987816Y-90238026D01*
X55987813Y-90238027D01*
X55859985Y-90290974D01*
X55750206Y-90375211D01*
X55723375Y-90410179D01*
X55666947Y-90451382D01*
X55597201Y-90455536D01*
X55536281Y-90421323D01*
X55526625Y-90410179D01*
X55499791Y-90375209D01*
X55390015Y-90290974D01*
X55262186Y-90238027D01*
X55262184Y-90238026D01*
X55262183Y-90238026D01*
X55170727Y-90225985D01*
X55125001Y-90219965D01*
X55124999Y-90219965D01*
X55056408Y-90228995D01*
X54987817Y-90238026D01*
X54987816Y-90238026D01*
X54987813Y-90238027D01*
X54859985Y-90290974D01*
X54750209Y-90375209D01*
X54665974Y-90484985D01*
X54613027Y-90612813D01*
X54613026Y-90612816D01*
X54613026Y-90612817D01*
X54594965Y-90750000D01*
X54599493Y-90784396D01*
X54613026Y-90887181D01*
X54613027Y-90887186D01*
X54669086Y-91022527D01*
X54667452Y-91023203D01*
X54681573Y-91081393D01*
X54658725Y-91147421D01*
X54603806Y-91190615D01*
X54557713Y-91199500D01*
X50004428Y-91199500D01*
X49995582Y-91199184D01*
X49766982Y-91182834D01*
X49749470Y-91180316D01*
X49529862Y-91132543D01*
X49512887Y-91127559D01*
X49302311Y-91049019D01*
X49286217Y-91041669D01*
X49088963Y-90933959D01*
X49074080Y-90924394D01*
X48894163Y-90789710D01*
X48880792Y-90778124D01*
X48721875Y-90619207D01*
X48710289Y-90605836D01*
X48575605Y-90425919D01*
X48566040Y-90411036D01*
X48500482Y-90290976D01*
X48458327Y-90213777D01*
X48450983Y-90197694D01*
X48372437Y-89987103D01*
X48367458Y-89970144D01*
X48319683Y-89750529D01*
X48317165Y-89733017D01*
X48300816Y-89504418D01*
X48300500Y-89495572D01*
X48300500Y-86222996D01*
X48320185Y-86155957D01*
X48372989Y-86110202D01*
X48442147Y-86100258D01*
X48499987Y-86124621D01*
X48609980Y-86209023D01*
X48609981Y-86209023D01*
X48609982Y-86209024D01*
X48737817Y-86261974D01*
X48860702Y-86278152D01*
X48874999Y-86280035D01*
X48875000Y-86280035D01*
X48875001Y-86280035D01*
X48887947Y-86278330D01*
X49012183Y-86261974D01*
X49078049Y-86234691D01*
X49147517Y-86227223D01*
X49209996Y-86258498D01*
X49245648Y-86318587D01*
X49249500Y-86349253D01*
X49249500Y-89743098D01*
X49260123Y-89831560D01*
X49260124Y-89831563D01*
X49314770Y-89970137D01*
X49315640Y-89972343D01*
X49407077Y-90092922D01*
X49517974Y-90177017D01*
X49527659Y-90184361D01*
X49668437Y-90239876D01*
X49756902Y-90250500D01*
X53243098Y-90250500D01*
X53331563Y-90239876D01*
X53472341Y-90184361D01*
X53592922Y-90092922D01*
X53684361Y-89972341D01*
X53739876Y-89831563D01*
X53750500Y-89743098D01*
X53750500Y-86256902D01*
X53750051Y-86253167D01*
X53739876Y-86168439D01*
X53739876Y-86168437D01*
X53684361Y-86027659D01*
X53684359Y-86027656D01*
X53592922Y-85907077D01*
X53472342Y-85815639D01*
X53443534Y-85804279D01*
X53424008Y-85796579D01*
X53368866Y-85753674D01*
X53345673Y-85687766D01*
X53345500Y-85681225D01*
X53345500Y-83647255D01*
X53365185Y-83580216D01*
X53381819Y-83559574D01*
X53971428Y-82969965D01*
X55089733Y-81851659D01*
X55151054Y-81818176D01*
X55220746Y-81823160D01*
X55276679Y-81865032D01*
X55290201Y-81887821D01*
X55345870Y-82009718D01*
X55345871Y-82009719D01*
X55345872Y-82009721D01*
X55435409Y-82113053D01*
X55435413Y-82113057D01*
X55493676Y-82150499D01*
X55550439Y-82186978D01*
X55616036Y-82206239D01*
X55681632Y-82225500D01*
X55681633Y-82225500D01*
X55818367Y-82225500D01*
X55949558Y-82186979D01*
X55949558Y-82186978D01*
X55949561Y-82186978D01*
X55957586Y-82181820D01*
X55975695Y-82170184D01*
X56042733Y-82150500D01*
X57927725Y-82150500D01*
X57927727Y-82150500D01*
X58029588Y-82123207D01*
X58120913Y-82070480D01*
X65004574Y-75186819D01*
X65065897Y-75153334D01*
X65092255Y-75150500D01*
X70024588Y-75150500D01*
X70091627Y-75170185D01*
G37*
G04 #@! TD.AperFunction*
G04 #@! TA.AperFunction,Conductor*
G36*
X86004418Y-51800816D02*
G01*
X86233020Y-51817165D01*
X86250529Y-51819683D01*
X86470144Y-51867458D01*
X86487103Y-51872437D01*
X86697694Y-51950983D01*
X86713777Y-51958327D01*
X86911036Y-52066040D01*
X86925919Y-52075605D01*
X87105836Y-52210289D01*
X87119207Y-52221875D01*
X87278124Y-52380792D01*
X87289710Y-52394163D01*
X87424394Y-52574080D01*
X87433959Y-52588963D01*
X87541669Y-52786217D01*
X87549019Y-52802311D01*
X87627559Y-53012887D01*
X87632543Y-53029862D01*
X87680316Y-53249470D01*
X87682834Y-53266982D01*
X87699184Y-53495581D01*
X87699500Y-53504427D01*
X87699500Y-83192153D01*
X87679815Y-83259192D01*
X87627011Y-83304947D01*
X87557853Y-83314891D01*
X87494297Y-83285866D01*
X87460940Y-83239607D01*
X87459026Y-83234986D01*
X87419970Y-83184087D01*
X87374791Y-83125209D01*
X87374789Y-83125208D01*
X87374789Y-83125207D01*
X87265015Y-83040974D01*
X87137186Y-82988027D01*
X87137184Y-82988026D01*
X87137183Y-82988026D01*
X87045727Y-82975985D01*
X87000001Y-82969965D01*
X86999999Y-82969965D01*
X86862815Y-82988026D01*
X86797451Y-83015100D01*
X86727981Y-83022567D01*
X86702549Y-83015100D01*
X86637184Y-82988026D01*
X86500001Y-82969965D01*
X86499999Y-82969965D01*
X86362815Y-82988026D01*
X86297451Y-83015100D01*
X86227981Y-83022567D01*
X86202549Y-83015100D01*
X86137184Y-82988026D01*
X86000001Y-82969965D01*
X85999999Y-82969965D01*
X85862815Y-82988026D01*
X85797451Y-83015100D01*
X85727981Y-83022567D01*
X85702549Y-83015100D01*
X85637184Y-82988026D01*
X85500001Y-82969965D01*
X85499999Y-82969965D01*
X85362815Y-82988026D01*
X85297451Y-83015100D01*
X85227981Y-83022567D01*
X85202549Y-83015100D01*
X85137184Y-82988026D01*
X85000001Y-82969965D01*
X84999999Y-82969965D01*
X84862815Y-82988026D01*
X84797451Y-83015100D01*
X84727981Y-83022567D01*
X84702549Y-83015100D01*
X84637184Y-82988026D01*
X84500001Y-82969965D01*
X84499999Y-82969965D01*
X84362815Y-82988026D01*
X84297451Y-83015100D01*
X84227981Y-83022567D01*
X84202549Y-83015100D01*
X84137184Y-82988026D01*
X84000001Y-82969965D01*
X83999999Y-82969965D01*
X83862815Y-82988026D01*
X83797451Y-83015100D01*
X83727981Y-83022567D01*
X83702549Y-83015100D01*
X83637184Y-82988026D01*
X83500001Y-82969965D01*
X83499999Y-82969965D01*
X83362815Y-82988026D01*
X83297451Y-83015100D01*
X83227981Y-83022567D01*
X83202549Y-83015100D01*
X83137184Y-82988026D01*
X83000001Y-82969965D01*
X82999999Y-82969965D01*
X82862815Y-82988026D01*
X82797451Y-83015100D01*
X82727981Y-83022567D01*
X82702549Y-83015100D01*
X82637184Y-82988026D01*
X82500001Y-82969965D01*
X82499999Y-82969965D01*
X82362815Y-82988026D01*
X82297451Y-83015100D01*
X82227981Y-83022567D01*
X82202549Y-83015100D01*
X82137184Y-82988026D01*
X82000001Y-82969965D01*
X81999999Y-82969965D01*
X81862815Y-82988026D01*
X81797451Y-83015100D01*
X81727981Y-83022567D01*
X81702549Y-83015100D01*
X81637184Y-82988026D01*
X81500001Y-82969965D01*
X81499999Y-82969965D01*
X81431408Y-82978995D01*
X81362817Y-82988026D01*
X81362816Y-82988026D01*
X81362813Y-82988027D01*
X81234985Y-83040974D01*
X81125209Y-83125209D01*
X81040974Y-83234985D01*
X80988025Y-83362817D01*
X80988025Y-83362819D01*
X80985877Y-83379130D01*
X80957608Y-83443025D01*
X80899282Y-83481494D01*
X80879130Y-83485877D01*
X80862819Y-83488025D01*
X80862817Y-83488025D01*
X80734985Y-83540974D01*
X80706252Y-83563022D01*
X80625209Y-83625209D01*
X80625208Y-83625210D01*
X80625207Y-83625211D01*
X80567090Y-83700950D01*
X80510662Y-83742152D01*
X80440916Y-83746307D01*
X80379996Y-83712094D01*
X80375002Y-83706666D01*
X80341962Y-83668536D01*
X80314589Y-83636945D01*
X80314586Y-83636943D01*
X80314586Y-83636942D01*
X80199559Y-83563021D01*
X80068368Y-83524500D01*
X80068367Y-83524500D01*
X79931633Y-83524500D01*
X79931632Y-83524500D01*
X79809435Y-83560380D01*
X79739565Y-83560380D01*
X79680787Y-83522606D01*
X79651762Y-83459050D01*
X79650500Y-83441403D01*
X79650500Y-81100411D01*
X79670185Y-81033372D01*
X79722989Y-80987617D01*
X79792147Y-80977673D01*
X79855703Y-81006698D01*
X79881887Y-81038411D01*
X79929517Y-81120909D01*
X79929519Y-81120911D01*
X79929520Y-81120913D01*
X80879087Y-82070480D01*
X80970412Y-82123207D01*
X81072273Y-82150500D01*
X81177727Y-82150500D01*
X81457267Y-82150500D01*
X81524305Y-82170184D01*
X81550434Y-82186975D01*
X81550441Y-82186979D01*
X81681632Y-82225500D01*
X81681633Y-82225500D01*
X81818367Y-82225500D01*
X81949561Y-82186978D01*
X82064589Y-82113055D01*
X82154130Y-82009718D01*
X82210931Y-81885342D01*
X82230390Y-81750000D01*
X82210931Y-81614658D01*
X82177816Y-81542147D01*
X82154132Y-81490285D01*
X82154127Y-81490278D01*
X82064590Y-81386946D01*
X82064586Y-81386942D01*
X81949559Y-81313021D01*
X81818368Y-81274500D01*
X81818367Y-81274500D01*
X81681633Y-81274500D01*
X81681632Y-81274500D01*
X81550441Y-81313020D01*
X81550434Y-81313024D01*
X81524305Y-81329816D01*
X81457267Y-81349500D01*
X81342255Y-81349500D01*
X81275216Y-81329815D01*
X81254574Y-81313181D01*
X80686819Y-80745426D01*
X80653334Y-80684103D01*
X80650500Y-80657745D01*
X80650500Y-77349499D01*
X80670185Y-77282460D01*
X80722989Y-77236705D01*
X80774500Y-77225499D01*
X80818368Y-77225499D01*
X80949562Y-77186977D01*
X81064590Y-77113054D01*
X81154131Y-77009717D01*
X81210932Y-76885341D01*
X81230391Y-76749999D01*
X81210932Y-76614657D01*
X81198678Y-76587826D01*
X81154133Y-76490284D01*
X81154128Y-76490277D01*
X81064591Y-76386945D01*
X81064587Y-76386941D01*
X80949560Y-76313020D01*
X80818369Y-76274499D01*
X80818368Y-76274499D01*
X80740408Y-76274499D01*
X80673369Y-76254814D01*
X80646695Y-76231701D01*
X80564590Y-76136946D01*
X80564586Y-76136942D01*
X80449559Y-76063021D01*
X80318368Y-76024500D01*
X80318367Y-76024500D01*
X80181633Y-76024500D01*
X80181632Y-76024500D01*
X80050440Y-76063021D01*
X79935413Y-76136942D01*
X79935409Y-76136946D01*
X79853304Y-76231702D01*
X79794526Y-76269477D01*
X79759591Y-76274500D01*
X79740409Y-76274500D01*
X79673370Y-76254815D01*
X79646696Y-76231702D01*
X79564590Y-76136946D01*
X79564586Y-76136942D01*
X79449559Y-76063021D01*
X79318368Y-76024500D01*
X79318367Y-76024500D01*
X79181633Y-76024500D01*
X79181632Y-76024500D01*
X79050440Y-76063021D01*
X78935413Y-76136942D01*
X78935409Y-76136946D01*
X78853304Y-76231702D01*
X78794526Y-76269477D01*
X78759591Y-76274500D01*
X78740409Y-76274500D01*
X78673370Y-76254815D01*
X78646696Y-76231702D01*
X78564590Y-76136946D01*
X78564586Y-76136942D01*
X78449559Y-76063021D01*
X78380621Y-76042779D01*
X78327875Y-76011483D01*
X77995915Y-75679522D01*
X77995914Y-75679521D01*
X77995913Y-75679520D01*
X77950250Y-75653156D01*
X77904589Y-75626793D01*
X77853309Y-75613053D01*
X77802727Y-75599500D01*
X76130975Y-75599500D01*
X76025521Y-75599500D01*
X75941627Y-75621979D01*
X75935420Y-75623642D01*
X75865570Y-75621979D01*
X75807707Y-75582816D01*
X75780204Y-75518587D01*
X75791791Y-75449685D01*
X75795930Y-75441883D01*
X75848207Y-75351340D01*
X75875500Y-75249479D01*
X75875500Y-75144025D01*
X75875500Y-73172273D01*
X75848207Y-73070413D01*
X75795480Y-72979087D01*
X75720913Y-72904520D01*
X75495131Y-72678738D01*
X75464598Y-72622821D01*
X75463429Y-72623165D01*
X75461851Y-72617790D01*
X75461646Y-72617415D01*
X75461495Y-72616578D01*
X75460931Y-72614657D01*
X75404130Y-72490283D01*
X75404130Y-72490282D01*
X75397261Y-72482355D01*
X75314590Y-72386946D01*
X75314586Y-72386942D01*
X75199559Y-72313021D01*
X75068368Y-72274500D01*
X75068367Y-72274500D01*
X74931633Y-72274500D01*
X74931632Y-72274500D01*
X74800440Y-72313021D01*
X74685413Y-72386942D01*
X74685409Y-72386946D01*
X74595872Y-72490278D01*
X74595867Y-72490285D01*
X74539070Y-72614654D01*
X74539068Y-72614662D01*
X74519610Y-72750000D01*
X74519610Y-72758868D01*
X74517459Y-72758868D01*
X74509224Y-72816115D01*
X74463474Y-72868909D01*
X74435414Y-72886942D01*
X74435409Y-72886946D01*
X74345870Y-72990282D01*
X74345867Y-72990285D01*
X74289070Y-73114654D01*
X74289068Y-73114662D01*
X74270595Y-73243147D01*
X74241570Y-73306703D01*
X74182792Y-73344477D01*
X74147857Y-73349500D01*
X64572273Y-73349500D01*
X64470410Y-73376793D01*
X64379087Y-73429520D01*
X64379084Y-73429522D01*
X56970426Y-80838181D01*
X56909103Y-80871666D01*
X56882745Y-80874500D01*
X55047273Y-80874500D01*
X54945410Y-80901793D01*
X54854087Y-80954520D01*
X54854084Y-80954522D01*
X52624522Y-83184084D01*
X52624518Y-83184090D01*
X52571792Y-83275412D01*
X52571793Y-83275413D01*
X52544500Y-83377273D01*
X52544500Y-84340500D01*
X52524815Y-84407539D01*
X52472011Y-84453294D01*
X52420500Y-84464500D01*
X52401632Y-84464500D01*
X52270440Y-84503021D01*
X52155413Y-84576942D01*
X52155409Y-84576946D01*
X52065872Y-84680278D01*
X52065867Y-84680285D01*
X52009070Y-84804654D01*
X52009068Y-84804662D01*
X51989610Y-84940000D01*
X52009068Y-85075337D01*
X52009070Y-85075345D01*
X52065867Y-85199714D01*
X52065872Y-85199721D01*
X52155409Y-85303053D01*
X52155413Y-85303057D01*
X52209355Y-85337722D01*
X52270439Y-85376978D01*
X52336036Y-85396239D01*
X52401632Y-85415500D01*
X52420500Y-85415500D01*
X52487539Y-85435185D01*
X52533294Y-85487989D01*
X52544500Y-85539500D01*
X52544500Y-85625500D01*
X52524815Y-85692539D01*
X52472011Y-85738294D01*
X52420500Y-85749500D01*
X49812134Y-85749500D01*
X49745095Y-85729815D01*
X49699340Y-85677011D01*
X49689396Y-85607853D01*
X49718421Y-85544297D01*
X49764682Y-85510939D01*
X49827346Y-85484983D01*
X49890018Y-85459024D01*
X49999791Y-85374791D01*
X50084024Y-85265018D01*
X50136974Y-85137183D01*
X50155035Y-85000000D01*
X50136974Y-84862817D01*
X50085285Y-84738027D01*
X50084025Y-84734985D01*
X50084024Y-84734984D01*
X50084024Y-84734983D01*
X49999791Y-84625209D01*
X49999789Y-84625208D01*
X49999789Y-84625207D01*
X49890015Y-84540974D01*
X49762186Y-84488027D01*
X49762184Y-84488026D01*
X49762183Y-84488026D01*
X49657456Y-84474238D01*
X49625001Y-84469965D01*
X49624999Y-84469965D01*
X49556408Y-84478995D01*
X49487817Y-84488026D01*
X49487816Y-84488026D01*
X49487813Y-84488027D01*
X49359985Y-84540974D01*
X49250206Y-84625211D01*
X49214665Y-84671529D01*
X49158236Y-84712731D01*
X49132476Y-84718980D01*
X49010930Y-84734983D01*
X48987817Y-84738026D01*
X48987816Y-84738026D01*
X48987813Y-84738027D01*
X48859985Y-84790974D01*
X48750209Y-84875209D01*
X48665974Y-84984985D01*
X48613027Y-85112813D01*
X48613026Y-85112818D01*
X48593980Y-85257476D01*
X48565713Y-85321373D01*
X48546529Y-85339665D01*
X48499988Y-85375378D01*
X48434819Y-85400573D01*
X48366374Y-85386535D01*
X48316383Y-85337722D01*
X48300500Y-85277003D01*
X48300500Y-71035097D01*
X49224500Y-71035097D01*
X49224500Y-74214885D01*
X49224500Y-74214902D01*
X49224501Y-74214904D01*
X49226878Y-74257229D01*
X49230804Y-74327158D01*
X49230805Y-74327165D01*
X49280971Y-74592299D01*
X49280973Y-74592309D01*
X49370103Y-74847027D01*
X49390353Y-74885342D01*
X49480739Y-75056361D01*
X49496196Y-75085606D01*
X49496199Y-75085612D01*
X49656444Y-75302736D01*
X49847263Y-75493555D01*
X50023524Y-75623642D01*
X50064390Y-75653802D01*
X50302975Y-75779898D01*
X50557690Y-75869026D01*
X50557700Y-75869028D01*
X50690266Y-75894111D01*
X50822843Y-75919196D01*
X50935095Y-75925500D01*
X54114904Y-75925499D01*
X54227157Y-75919196D01*
X54492310Y-75869026D01*
X54747025Y-75779898D01*
X54985610Y-75653802D01*
X55202737Y-75493555D01*
X55393555Y-75302737D01*
X55553802Y-75085610D01*
X55679898Y-74847025D01*
X55769026Y-74592310D01*
X55819196Y-74327157D01*
X55825500Y-74214905D01*
X55825499Y-72400000D01*
X72639610Y-72400000D01*
X72659068Y-72535337D01*
X72659070Y-72535345D01*
X72715867Y-72659714D01*
X72715872Y-72659721D01*
X72805409Y-72763053D01*
X72805413Y-72763057D01*
X72832626Y-72780545D01*
X72920439Y-72836978D01*
X72986036Y-72856239D01*
X73051632Y-72875500D01*
X73051633Y-72875500D01*
X73188367Y-72875500D01*
X73319561Y-72836978D01*
X73434589Y-72763055D01*
X73524130Y-72659718D01*
X73580931Y-72535342D01*
X73600390Y-72400000D01*
X73580931Y-72264658D01*
X73560287Y-72219454D01*
X73524132Y-72140285D01*
X73524127Y-72140278D01*
X73434590Y-72036946D01*
X73434586Y-72036942D01*
X73377101Y-72000000D01*
X77019610Y-72000000D01*
X77039068Y-72135337D01*
X77039070Y-72135345D01*
X77095867Y-72259714D01*
X77095872Y-72259721D01*
X77185409Y-72363053D01*
X77185411Y-72363055D01*
X77236184Y-72395684D01*
X77281939Y-72448488D01*
X77291883Y-72517646D01*
X77262859Y-72581202D01*
X77236185Y-72604314D01*
X77217274Y-72616467D01*
X77185410Y-72636945D01*
X77185409Y-72636946D01*
X77095872Y-72740278D01*
X77095867Y-72740285D01*
X77039070Y-72864654D01*
X77039068Y-72864662D01*
X77019610Y-73000000D01*
X77039068Y-73135337D01*
X77039070Y-73135345D01*
X77095867Y-73259714D01*
X77095872Y-73259721D01*
X77185409Y-73363053D01*
X77185411Y-73363055D01*
X77236184Y-73395684D01*
X77281939Y-73448488D01*
X77291883Y-73517646D01*
X77262859Y-73581202D01*
X77236185Y-73604314D01*
X77236182Y-73604317D01*
X77185410Y-73636945D01*
X77185409Y-73636946D01*
X77095872Y-73740278D01*
X77095867Y-73740285D01*
X77039070Y-73864654D01*
X77039068Y-73864662D01*
X77019610Y-74000000D01*
X77039068Y-74135337D01*
X77039070Y-74135345D01*
X77095867Y-74259714D01*
X77095872Y-74259721D01*
X77185409Y-74363053D01*
X77185413Y-74363057D01*
X77222585Y-74386945D01*
X77300439Y-74436978D01*
X77366036Y-74456239D01*
X77431632Y-74475500D01*
X77431633Y-74475500D01*
X77568367Y-74475500D01*
X77699561Y-74436978D01*
X77814589Y-74363055D01*
X77880049Y-74287508D01*
X77906287Y-74257229D01*
X77965065Y-74219454D01*
X78034934Y-74219454D01*
X78093713Y-74257228D01*
X78093713Y-74257229D01*
X78185409Y-74363053D01*
X78185413Y-74363057D01*
X78222585Y-74386945D01*
X78300439Y-74436978D01*
X78366036Y-74456239D01*
X78431632Y-74475500D01*
X78431633Y-74475500D01*
X78568367Y-74475500D01*
X78699561Y-74436978D01*
X78814589Y-74363055D01*
X78880049Y-74287508D01*
X78906287Y-74257229D01*
X78965065Y-74219454D01*
X79034934Y-74219454D01*
X79093713Y-74257228D01*
X79093713Y-74257229D01*
X79185409Y-74363053D01*
X79185413Y-74363057D01*
X79222585Y-74386945D01*
X79300439Y-74436978D01*
X79366036Y-74456239D01*
X79431632Y-74475500D01*
X79431633Y-74475500D01*
X79568367Y-74475500D01*
X79699561Y-74436978D01*
X79814589Y-74363055D01*
X79904130Y-74259718D01*
X79905439Y-74256853D01*
X79922518Y-74219454D01*
X79960931Y-74135342D01*
X79980390Y-74000000D01*
X79960931Y-73864658D01*
X79904130Y-73740282D01*
X79904127Y-73740278D01*
X79901810Y-73736672D01*
X79900599Y-73732551D01*
X79900446Y-73732214D01*
X79900494Y-73732191D01*
X79891373Y-73701128D01*
X79854453Y-73682095D01*
X79846316Y-73673560D01*
X79814589Y-73636945D01*
X79814586Y-73636942D01*
X79699559Y-73563021D01*
X79568368Y-73524500D01*
X79568367Y-73524500D01*
X79431633Y-73524500D01*
X79431632Y-73524500D01*
X79300440Y-73563021D01*
X79185413Y-73636942D01*
X79185413Y-73636943D01*
X79093713Y-73742771D01*
X79034935Y-73780545D01*
X78965065Y-73780545D01*
X78906287Y-73742771D01*
X78853711Y-73682095D01*
X78814589Y-73636945D01*
X78763813Y-73604313D01*
X78718060Y-73551513D01*
X78708116Y-73482355D01*
X78737140Y-73418799D01*
X78763809Y-73395688D01*
X78814589Y-73363055D01*
X78904130Y-73259718D01*
X78960931Y-73135342D01*
X78980390Y-73000000D01*
X78960931Y-72864658D01*
X78922518Y-72780545D01*
X78904132Y-72740285D01*
X78904127Y-72740278D01*
X78814590Y-72636946D01*
X78814591Y-72636946D01*
X78805899Y-72631360D01*
X78763813Y-72604313D01*
X78718060Y-72551513D01*
X78708116Y-72482355D01*
X78737140Y-72418799D01*
X78763809Y-72395688D01*
X78814589Y-72363055D01*
X78904130Y-72259718D01*
X78960931Y-72135342D01*
X78980390Y-72000000D01*
X78960931Y-71864658D01*
X78905267Y-71742771D01*
X78904132Y-71740285D01*
X78904127Y-71740278D01*
X78814590Y-71636946D01*
X78814586Y-71636942D01*
X78699559Y-71563021D01*
X78568368Y-71524500D01*
X78568367Y-71524500D01*
X78431633Y-71524500D01*
X78431632Y-71524500D01*
X78300440Y-71563021D01*
X78185413Y-71636942D01*
X78185413Y-71636943D01*
X78093713Y-71742771D01*
X78034935Y-71780545D01*
X77965065Y-71780545D01*
X77906287Y-71742771D01*
X77889025Y-71722850D01*
X77814589Y-71636945D01*
X77814586Y-71636943D01*
X77814586Y-71636942D01*
X77699559Y-71563021D01*
X77568368Y-71524500D01*
X77568367Y-71524500D01*
X77431633Y-71524500D01*
X77431632Y-71524500D01*
X77300440Y-71563021D01*
X77185413Y-71636942D01*
X77185409Y-71636946D01*
X77095872Y-71740278D01*
X77095867Y-71740285D01*
X77039070Y-71864654D01*
X77039068Y-71864662D01*
X77019610Y-72000000D01*
X73377101Y-72000000D01*
X73319559Y-71963021D01*
X73188368Y-71924500D01*
X73188367Y-71924500D01*
X73051633Y-71924500D01*
X73051632Y-71924500D01*
X72920440Y-71963021D01*
X72805413Y-72036942D01*
X72805409Y-72036946D01*
X72715872Y-72140278D01*
X72715867Y-72140285D01*
X72659070Y-72264654D01*
X72659068Y-72264662D01*
X72639610Y-72400000D01*
X55825499Y-72400000D01*
X55825499Y-71035096D01*
X55819196Y-70922843D01*
X55769026Y-70657690D01*
X55679898Y-70402975D01*
X55553802Y-70164390D01*
X55513268Y-70109469D01*
X55393555Y-69947263D01*
X55202736Y-69756444D01*
X54985612Y-69596199D01*
X54985606Y-69596196D01*
X54981742Y-69594154D01*
X54803595Y-69500000D01*
X54747027Y-69470103D01*
X54747026Y-69470102D01*
X54747025Y-69470102D01*
X54666565Y-69441948D01*
X54492309Y-69380973D01*
X54492299Y-69380971D01*
X54227166Y-69330805D01*
X54227159Y-69330804D01*
X54208448Y-69329753D01*
X54114905Y-69324500D01*
X54114895Y-69324500D01*
X50935114Y-69324500D01*
X50935096Y-69324501D01*
X50822841Y-69330804D01*
X50822834Y-69330805D01*
X50557700Y-69380971D01*
X50557690Y-69380973D01*
X50302972Y-69470103D01*
X50064393Y-69596196D01*
X50064387Y-69596199D01*
X49847263Y-69756444D01*
X49656444Y-69947263D01*
X49496199Y-70164387D01*
X49496196Y-70164393D01*
X49370103Y-70402972D01*
X49280973Y-70657690D01*
X49280971Y-70657700D01*
X49230805Y-70922833D01*
X49230804Y-70922840D01*
X49224500Y-71035097D01*
X48300500Y-71035097D01*
X48300500Y-64810000D01*
X56674570Y-64810000D01*
X56694243Y-65022310D01*
X56752593Y-65227387D01*
X56752595Y-65227392D01*
X56752595Y-65227394D01*
X56847631Y-65418253D01*
X56976125Y-65588405D01*
X56976127Y-65588407D01*
X57133697Y-65732052D01*
X57314980Y-65844298D01*
X57513801Y-65921321D01*
X57723389Y-65960500D01*
X57723391Y-65960500D01*
X57936607Y-65960500D01*
X57936609Y-65960500D01*
X58146197Y-65921321D01*
X58345018Y-65844298D01*
X58526301Y-65732052D01*
X58683871Y-65588407D01*
X58812365Y-65418255D01*
X58858410Y-65325783D01*
X58907402Y-65227394D01*
X58907402Y-65227393D01*
X58907404Y-65227389D01*
X58965755Y-65022310D01*
X58976527Y-64906052D01*
X59002313Y-64841117D01*
X59046876Y-64809194D01*
X59010495Y-64788324D01*
X58978305Y-64726312D01*
X58976527Y-64713945D01*
X58976527Y-64713944D01*
X58965755Y-64597690D01*
X58907404Y-64392611D01*
X58907402Y-64392606D01*
X58907402Y-64392605D01*
X58812366Y-64201746D01*
X58683871Y-64031593D01*
X58683869Y-64031591D01*
X58526301Y-63887948D01*
X58345018Y-63775702D01*
X58345016Y-63775701D01*
X58169723Y-63707793D01*
X58146197Y-63698679D01*
X57936609Y-63659500D01*
X57723389Y-63659500D01*
X57513801Y-63698679D01*
X57513798Y-63698679D01*
X57513798Y-63698680D01*
X57314981Y-63775701D01*
X57314979Y-63775702D01*
X57133698Y-63887947D01*
X56976126Y-64031593D01*
X56847631Y-64201746D01*
X56752595Y-64392605D01*
X56752595Y-64392607D01*
X56694243Y-64597689D01*
X56676579Y-64788324D01*
X56674570Y-64810000D01*
X48300500Y-64810000D01*
X48300500Y-55500000D01*
X48894615Y-55500000D01*
X48914140Y-55847688D01*
X48914142Y-55847700D01*
X48972472Y-56191009D01*
X48972474Y-56191017D01*
X48994637Y-56267945D01*
X49068879Y-56525644D01*
X49202145Y-56847376D01*
X49370595Y-57152164D01*
X49572112Y-57436176D01*
X49804161Y-57695839D01*
X50063824Y-57927888D01*
X50347836Y-58129405D01*
X50652624Y-58297855D01*
X50974356Y-58431121D01*
X51308987Y-58527527D01*
X51652307Y-58585859D01*
X52000000Y-58605385D01*
X52347693Y-58585859D01*
X52691013Y-58527527D01*
X53025644Y-58431121D01*
X53347376Y-58297855D01*
X53652164Y-58129405D01*
X53936176Y-57927888D01*
X54195839Y-57695839D01*
X54427888Y-57436176D01*
X54602560Y-57189999D01*
X56674570Y-57189999D01*
X56694243Y-57402309D01*
X56752593Y-57607386D01*
X56752595Y-57607391D01*
X56752595Y-57607393D01*
X56847631Y-57798252D01*
X56976125Y-57968404D01*
X56976127Y-57968406D01*
X57133697Y-58112051D01*
X57314980Y-58224297D01*
X57513801Y-58301320D01*
X57723389Y-58340499D01*
X57723391Y-58340499D01*
X57936607Y-58340499D01*
X57936609Y-58340499D01*
X58146197Y-58301320D01*
X58345018Y-58224297D01*
X58526301Y-58112051D01*
X58683871Y-57968406D01*
X58812365Y-57798254D01*
X58907404Y-57607388D01*
X58965755Y-57402309D01*
X58976527Y-57286051D01*
X59002313Y-57221116D01*
X59044629Y-57190803D01*
X59153118Y-57190803D01*
X59189501Y-57211673D01*
X59221691Y-57273685D01*
X59223469Y-57286052D01*
X59226822Y-57322236D01*
X59234242Y-57402309D01*
X59292592Y-57607386D01*
X59292594Y-57607391D01*
X59292594Y-57607393D01*
X59387630Y-57798252D01*
X59516124Y-57968404D01*
X59516126Y-57968406D01*
X59673696Y-58112051D01*
X59854979Y-58224297D01*
X59890293Y-58237977D01*
X59945692Y-58280547D01*
X59969284Y-58346313D01*
X59969498Y-58353602D01*
X59969498Y-58364229D01*
X59969498Y-58469683D01*
X59977953Y-58501237D01*
X59996791Y-58571545D01*
X60008925Y-58592561D01*
X60049518Y-58662869D01*
X63257561Y-61870912D01*
X63257562Y-61870913D01*
X63332129Y-61945480D01*
X63423455Y-61998207D01*
X63525315Y-62025500D01*
X63630769Y-62025500D01*
X77657745Y-62025500D01*
X77724784Y-62045185D01*
X77745426Y-62061819D01*
X79131425Y-63447818D01*
X79164910Y-63509141D01*
X79159926Y-63578833D01*
X79118054Y-63634766D01*
X79052590Y-63659183D01*
X79043744Y-63659499D01*
X77255141Y-63659499D01*
X77255115Y-63659501D01*
X77230010Y-63662412D01*
X77230006Y-63662414D01*
X77127233Y-63707792D01*
X77047792Y-63787233D01*
X77002413Y-63890005D01*
X77002413Y-63890007D01*
X76999498Y-63915130D01*
X76999498Y-64653945D01*
X76979813Y-64720984D01*
X76927009Y-64766739D01*
X76857851Y-64776683D01*
X76794295Y-64747658D01*
X76756521Y-64688880D01*
X76752027Y-64665386D01*
X76750967Y-64653945D01*
X76745754Y-64597689D01*
X76687403Y-64392610D01*
X76687401Y-64392605D01*
X76687401Y-64392604D01*
X76592365Y-64201745D01*
X76463870Y-64031592D01*
X76463869Y-64031591D01*
X76306300Y-63887947D01*
X76125017Y-63775701D01*
X76125015Y-63775700D01*
X76025606Y-63737189D01*
X75926196Y-63698678D01*
X75716608Y-63659499D01*
X75503388Y-63659499D01*
X75293800Y-63698678D01*
X75293797Y-63698678D01*
X75293797Y-63698679D01*
X75094980Y-63775700D01*
X75094978Y-63775701D01*
X74913697Y-63887946D01*
X74756125Y-64031592D01*
X74627630Y-64201745D01*
X74532594Y-64392604D01*
X74532594Y-64392606D01*
X74474242Y-64597688D01*
X74463468Y-64713951D01*
X74437681Y-64778888D01*
X74393126Y-64810803D01*
X74429501Y-64831668D01*
X74461691Y-64893681D01*
X74463469Y-64906048D01*
X74474242Y-65022309D01*
X74532594Y-65227391D01*
X74532594Y-65227393D01*
X74627630Y-65418252D01*
X74733244Y-65558106D01*
X74756126Y-65588406D01*
X74913696Y-65732051D01*
X75094979Y-65844297D01*
X75293800Y-65921320D01*
X75503388Y-65960499D01*
X75503390Y-65960499D01*
X75716606Y-65960499D01*
X75716608Y-65960499D01*
X75926196Y-65921320D01*
X76069777Y-65865696D01*
X76139398Y-65859834D01*
X76201138Y-65892543D01*
X76202250Y-65893642D01*
X76510178Y-66201570D01*
X76510188Y-66201581D01*
X76514518Y-66205911D01*
X76514519Y-66205912D01*
X76589086Y-66280479D01*
X76680412Y-66333206D01*
X76764453Y-66355725D01*
X76824113Y-66392091D01*
X76854642Y-66454938D01*
X76846347Y-66524313D01*
X76801861Y-66578191D01*
X76735309Y-66599465D01*
X76732359Y-66599500D01*
X71717255Y-66599500D01*
X71650216Y-66579815D01*
X71629574Y-66563181D01*
X71072752Y-66006359D01*
X71039267Y-65945036D01*
X71044251Y-65875344D01*
X71086123Y-65819411D01*
X71095137Y-65813263D01*
X71226300Y-65732051D01*
X71383870Y-65588406D01*
X71512364Y-65418254D01*
X71605062Y-65232090D01*
X71607401Y-65227393D01*
X71607401Y-65227392D01*
X71607403Y-65227388D01*
X71665754Y-65022309D01*
X71676527Y-64906046D01*
X71702311Y-64841111D01*
X71744620Y-64810803D01*
X71853126Y-64810803D01*
X71889499Y-64831667D01*
X71921690Y-64893680D01*
X71923468Y-64906047D01*
X71929029Y-64966052D01*
X71934242Y-65022310D01*
X71992592Y-65227387D01*
X71992594Y-65227392D01*
X71992594Y-65227394D01*
X72087630Y-65418253D01*
X72216124Y-65588405D01*
X72216126Y-65588407D01*
X72373696Y-65732052D01*
X72554979Y-65844298D01*
X72753800Y-65921321D01*
X72963388Y-65960500D01*
X72963390Y-65960500D01*
X73176606Y-65960500D01*
X73176608Y-65960500D01*
X73386196Y-65921321D01*
X73585017Y-65844298D01*
X73766300Y-65732052D01*
X73923870Y-65588407D01*
X74052364Y-65418255D01*
X74098409Y-65325783D01*
X74147401Y-65227394D01*
X74147401Y-65227393D01*
X74147403Y-65227389D01*
X74205754Y-65022310D01*
X74216527Y-64906047D01*
X74242313Y-64841111D01*
X74286867Y-64809194D01*
X74250493Y-64788329D01*
X74218304Y-64726316D01*
X74216527Y-64713955D01*
X74205754Y-64597690D01*
X74205753Y-64597688D01*
X74191271Y-64546789D01*
X74147403Y-64392611D01*
X74147401Y-64392606D01*
X74147401Y-64392605D01*
X74052365Y-64201746D01*
X73923870Y-64031593D01*
X73923868Y-64031591D01*
X73766300Y-63887948D01*
X73585017Y-63775702D01*
X73585015Y-63775701D01*
X73409722Y-63707793D01*
X73386196Y-63698679D01*
X73176608Y-63659500D01*
X72963388Y-63659500D01*
X72753800Y-63698679D01*
X72753797Y-63698679D01*
X72753797Y-63698680D01*
X72554980Y-63775701D01*
X72554978Y-63775702D01*
X72373697Y-63887947D01*
X72216125Y-64031593D01*
X72087630Y-64201746D01*
X71992594Y-64392605D01*
X71992594Y-64392607D01*
X71934242Y-64597689D01*
X71923469Y-64713950D01*
X71897683Y-64778887D01*
X71853126Y-64810803D01*
X71744620Y-64810803D01*
X71746867Y-64809193D01*
X71710495Y-64788330D01*
X71678305Y-64726317D01*
X71676527Y-64713950D01*
X71672027Y-64665386D01*
X71665754Y-64597689D01*
X71607403Y-64392610D01*
X71607401Y-64392605D01*
X71607401Y-64392604D01*
X71512365Y-64201745D01*
X71383870Y-64031592D01*
X71383869Y-64031591D01*
X71226300Y-63887947D01*
X71045017Y-63775701D01*
X71045015Y-63775700D01*
X70945606Y-63737189D01*
X70846196Y-63698678D01*
X70636608Y-63659499D01*
X70423388Y-63659499D01*
X70213800Y-63698678D01*
X70213797Y-63698678D01*
X70213797Y-63698679D01*
X70014980Y-63775700D01*
X70014978Y-63775701D01*
X69833697Y-63887946D01*
X69676125Y-64031592D01*
X69547630Y-64201745D01*
X69452594Y-64392604D01*
X69452594Y-64392606D01*
X69394242Y-64597688D01*
X69383469Y-64713950D01*
X69357683Y-64778887D01*
X69313128Y-64810803D01*
X69349501Y-64831667D01*
X69381691Y-64893680D01*
X69383469Y-64906047D01*
X69394242Y-65022309D01*
X69452594Y-65227391D01*
X69452594Y-65227393D01*
X69547630Y-65418252D01*
X69653244Y-65558106D01*
X69676126Y-65588406D01*
X69833696Y-65732051D01*
X70014979Y-65844297D01*
X70050293Y-65857977D01*
X70105692Y-65900547D01*
X70129284Y-65966313D01*
X70129498Y-65973603D01*
X70129498Y-66082724D01*
X70156791Y-66184587D01*
X70177474Y-66220410D01*
X70209518Y-66275911D01*
X71254087Y-67320480D01*
X71335898Y-67367714D01*
X71336589Y-67368113D01*
X71384804Y-67418681D01*
X71398026Y-67487288D01*
X71372058Y-67552153D01*
X71315143Y-67592680D01*
X71274588Y-67599500D01*
X67632105Y-67599500D01*
X67565066Y-67579815D01*
X67544424Y-67563181D01*
X65989572Y-66008329D01*
X65956087Y-65947006D01*
X65961071Y-65877314D01*
X66002943Y-65821381D01*
X66011976Y-65815221D01*
X66015158Y-65813251D01*
X66146300Y-65732051D01*
X66303870Y-65588406D01*
X66432364Y-65418254D01*
X66525062Y-65232090D01*
X66527401Y-65227393D01*
X66527401Y-65227392D01*
X66527403Y-65227388D01*
X66585754Y-65022309D01*
X66596527Y-64906046D01*
X66622313Y-64841110D01*
X66664620Y-64810803D01*
X66773128Y-64810803D01*
X66809501Y-64831667D01*
X66841691Y-64893680D01*
X66843469Y-64906047D01*
X66854242Y-65022309D01*
X66912594Y-65227391D01*
X66912594Y-65227393D01*
X67007630Y-65418252D01*
X67113244Y-65558106D01*
X67136126Y-65588406D01*
X67293696Y-65732051D01*
X67474979Y-65844297D01*
X67673800Y-65921320D01*
X67883388Y-65960499D01*
X67883390Y-65960499D01*
X68096606Y-65960499D01*
X68096608Y-65960499D01*
X68306196Y-65921320D01*
X68505017Y-65844297D01*
X68686300Y-65732051D01*
X68843870Y-65588406D01*
X68972364Y-65418254D01*
X69065062Y-65232090D01*
X69067401Y-65227393D01*
X69067401Y-65227392D01*
X69067403Y-65227388D01*
X69125754Y-65022309D01*
X69136527Y-64906046D01*
X69162313Y-64841110D01*
X69206867Y-64809193D01*
X69170495Y-64788330D01*
X69138305Y-64726317D01*
X69136527Y-64713950D01*
X69132027Y-64665386D01*
X69125754Y-64597689D01*
X69067403Y-64392610D01*
X69067401Y-64392605D01*
X69067401Y-64392604D01*
X68972365Y-64201745D01*
X68843870Y-64031592D01*
X68843869Y-64031591D01*
X68686300Y-63887947D01*
X68505017Y-63775701D01*
X68505015Y-63775700D01*
X68405606Y-63737189D01*
X68306196Y-63698678D01*
X68096608Y-63659499D01*
X67883388Y-63659499D01*
X67673800Y-63698678D01*
X67673797Y-63698678D01*
X67673797Y-63698679D01*
X67474980Y-63775700D01*
X67474978Y-63775701D01*
X67293697Y-63887946D01*
X67136125Y-64031592D01*
X67007630Y-64201745D01*
X66912594Y-64392604D01*
X66912594Y-64392606D01*
X66854242Y-64597688D01*
X66843469Y-64713950D01*
X66817683Y-64778887D01*
X66773128Y-64810803D01*
X66664620Y-64810803D01*
X66666867Y-64809193D01*
X66630495Y-64788330D01*
X66598305Y-64726317D01*
X66596527Y-64713950D01*
X66592027Y-64665386D01*
X66585754Y-64597689D01*
X66527403Y-64392610D01*
X66527401Y-64392605D01*
X66527401Y-64392604D01*
X66432365Y-64201745D01*
X66303870Y-64031592D01*
X66303869Y-64031591D01*
X66146300Y-63887947D01*
X65965017Y-63775701D01*
X65965015Y-63775700D01*
X65865606Y-63737189D01*
X65766196Y-63698678D01*
X65556608Y-63659499D01*
X65343388Y-63659499D01*
X65133800Y-63698678D01*
X65133797Y-63698678D01*
X65133797Y-63698679D01*
X64934980Y-63775700D01*
X64934978Y-63775701D01*
X64753697Y-63887946D01*
X64596125Y-64031592D01*
X64467630Y-64201745D01*
X64372594Y-64392604D01*
X64372594Y-64392606D01*
X64314242Y-64597688D01*
X64303468Y-64713956D01*
X64277682Y-64778893D01*
X64233135Y-64810801D01*
X64269500Y-64831661D01*
X64301690Y-64893673D01*
X64303468Y-64906041D01*
X64314242Y-65022309D01*
X64372594Y-65227391D01*
X64372594Y-65227393D01*
X64467630Y-65418252D01*
X64573244Y-65558106D01*
X64596126Y-65588406D01*
X64753696Y-65732051D01*
X64934979Y-65844297D01*
X64970293Y-65857977D01*
X65025692Y-65900547D01*
X65049284Y-65966313D01*
X65049498Y-65973603D01*
X65049498Y-65982421D01*
X65049498Y-66087875D01*
X65063144Y-66138805D01*
X65076791Y-66189737D01*
X65086130Y-66205912D01*
X65129518Y-66281061D01*
X67094369Y-68245912D01*
X67094370Y-68245913D01*
X67168937Y-68320480D01*
X67216730Y-68348073D01*
X67251440Y-68368113D01*
X67299656Y-68418680D01*
X67312878Y-68487287D01*
X67286910Y-68552152D01*
X67229996Y-68592680D01*
X67189440Y-68599500D01*
X63537606Y-68599500D01*
X63470567Y-68579815D01*
X63449925Y-68563181D01*
X60900618Y-66013873D01*
X60867133Y-65952550D01*
X60872117Y-65882858D01*
X60913989Y-65826925D01*
X60923002Y-65820778D01*
X61066300Y-65732052D01*
X61223870Y-65588407D01*
X61352364Y-65418255D01*
X61398409Y-65325783D01*
X61447401Y-65227394D01*
X61447401Y-65227393D01*
X61447403Y-65227389D01*
X61505754Y-65022310D01*
X61516526Y-64906052D01*
X61542312Y-64841116D01*
X61584628Y-64810803D01*
X61693117Y-64810803D01*
X61729500Y-64831673D01*
X61761690Y-64893685D01*
X61763468Y-64906052D01*
X61774241Y-65022308D01*
X61832593Y-65227390D01*
X61832593Y-65227392D01*
X61927629Y-65418251D01*
X62033244Y-65558106D01*
X62056125Y-65588405D01*
X62213695Y-65732050D01*
X62394978Y-65844296D01*
X62593799Y-65921319D01*
X62803387Y-65960498D01*
X62803389Y-65960498D01*
X63016605Y-65960498D01*
X63016607Y-65960498D01*
X63226195Y-65921319D01*
X63425016Y-65844296D01*
X63606299Y-65732050D01*
X63763869Y-65588405D01*
X63892363Y-65418253D01*
X63938407Y-65325783D01*
X63987400Y-65227392D01*
X63987400Y-65227391D01*
X63987402Y-65227387D01*
X64045753Y-65022308D01*
X64056526Y-64906039D01*
X64082312Y-64841104D01*
X64126858Y-64809193D01*
X64090494Y-64788334D01*
X64058304Y-64726322D01*
X64056527Y-64713964D01*
X64045753Y-64597688D01*
X63987402Y-64392609D01*
X63987400Y-64392604D01*
X63987400Y-64392603D01*
X63892364Y-64201744D01*
X63763869Y-64031591D01*
X63606299Y-63887946D01*
X63425016Y-63775700D01*
X63425014Y-63775699D01*
X63249726Y-63707793D01*
X63226195Y-63698677D01*
X63016607Y-63659498D01*
X62803387Y-63659498D01*
X62593799Y-63698677D01*
X62593796Y-63698677D01*
X62593796Y-63698678D01*
X62394979Y-63775699D01*
X62394977Y-63775700D01*
X62213696Y-63887945D01*
X62056124Y-64031591D01*
X61927629Y-64201744D01*
X61832593Y-64392603D01*
X61832593Y-64392605D01*
X61774241Y-64597687D01*
X61763468Y-64713945D01*
X61737682Y-64778882D01*
X61693117Y-64810803D01*
X61584628Y-64810803D01*
X61586875Y-64809193D01*
X61550494Y-64788324D01*
X61518304Y-64726311D01*
X61516526Y-64713944D01*
X61505754Y-64597690D01*
X61447403Y-64392611D01*
X61447401Y-64392606D01*
X61447401Y-64392605D01*
X61352365Y-64201746D01*
X61223870Y-64031593D01*
X61223868Y-64031591D01*
X61066300Y-63887948D01*
X60885017Y-63775702D01*
X60885015Y-63775701D01*
X60709722Y-63707793D01*
X60686196Y-63698679D01*
X60476608Y-63659500D01*
X60263388Y-63659500D01*
X60053800Y-63698679D01*
X60053797Y-63698679D01*
X60053797Y-63698680D01*
X59854980Y-63775701D01*
X59854978Y-63775702D01*
X59673697Y-63887947D01*
X59516125Y-64031593D01*
X59387630Y-64201746D01*
X59292594Y-64392605D01*
X59292594Y-64392607D01*
X59234242Y-64597689D01*
X59223469Y-64713946D01*
X59197683Y-64778883D01*
X59153118Y-64810804D01*
X59189501Y-64831674D01*
X59221691Y-64893686D01*
X59223469Y-64906053D01*
X59226823Y-64942244D01*
X59234242Y-65022310D01*
X59292592Y-65227387D01*
X59292594Y-65227392D01*
X59292594Y-65227394D01*
X59387630Y-65418253D01*
X59516124Y-65588405D01*
X59516126Y-65588407D01*
X59673696Y-65732052D01*
X59854979Y-65844298D01*
X59890293Y-65857978D01*
X59945692Y-65900548D01*
X59969284Y-65966314D01*
X59969498Y-65973604D01*
X59969498Y-66102372D01*
X59996791Y-66204235D01*
X60006130Y-66220410D01*
X60049518Y-66295559D01*
X60049519Y-66295560D01*
X60049520Y-66295561D01*
X62995531Y-69241571D01*
X62995541Y-69241582D01*
X62999871Y-69245912D01*
X62999872Y-69245913D01*
X63074439Y-69320480D01*
X63150958Y-69364658D01*
X63165765Y-69373207D01*
X63267625Y-69400501D01*
X63267627Y-69400501D01*
X63380675Y-69400501D01*
X63380691Y-69400500D01*
X76147857Y-69400500D01*
X76214896Y-69420185D01*
X76260651Y-69472989D01*
X76270595Y-69506853D01*
X76289068Y-69635337D01*
X76289070Y-69635345D01*
X76345867Y-69759714D01*
X76345872Y-69759721D01*
X76435409Y-69863053D01*
X76435413Y-69863057D01*
X76480709Y-69892166D01*
X76550439Y-69936978D01*
X76585467Y-69947263D01*
X76681632Y-69975500D01*
X76681633Y-69975500D01*
X76818367Y-69975500D01*
X76949561Y-69936978D01*
X77064589Y-69863055D01*
X77118498Y-69800840D01*
X77146696Y-69768298D01*
X77205474Y-69730523D01*
X77240409Y-69725500D01*
X77259591Y-69725500D01*
X77326630Y-69745185D01*
X77353304Y-69768298D01*
X77435409Y-69863053D01*
X77435413Y-69863057D01*
X77480709Y-69892166D01*
X77550439Y-69936978D01*
X77585467Y-69947263D01*
X77681632Y-69975500D01*
X77681633Y-69975500D01*
X77818367Y-69975500D01*
X77949561Y-69936978D01*
X78064589Y-69863055D01*
X78118498Y-69800840D01*
X78146696Y-69768298D01*
X78205474Y-69730523D01*
X78240409Y-69725500D01*
X78259591Y-69725500D01*
X78326630Y-69745185D01*
X78353304Y-69768298D01*
X78435409Y-69863053D01*
X78435413Y-69863057D01*
X78480709Y-69892166D01*
X78550439Y-69936978D01*
X78585467Y-69947263D01*
X78681632Y-69975500D01*
X78681633Y-69975500D01*
X78818367Y-69975500D01*
X78949561Y-69936978D01*
X79064589Y-69863055D01*
X79118498Y-69800840D01*
X79146696Y-69768298D01*
X79205474Y-69730523D01*
X79240409Y-69725500D01*
X79318363Y-69725500D01*
X79318365Y-69725500D01*
X79378407Y-69707869D01*
X79448272Y-69707869D01*
X79501020Y-69739166D01*
X79938181Y-70176326D01*
X79971666Y-70237649D01*
X79974500Y-70264007D01*
X79974500Y-73244025D01*
X79974500Y-73349479D01*
X79995947Y-73429522D01*
X80001794Y-73451343D01*
X80047410Y-73530352D01*
X80054868Y-73561095D01*
X80087327Y-73575919D01*
X80093806Y-73581951D01*
X81506893Y-74995038D01*
X81540378Y-75056361D01*
X81538618Y-75105633D01*
X81540331Y-75105880D01*
X81519610Y-75250000D01*
X81539068Y-75385337D01*
X81539070Y-75385345D01*
X81595867Y-75509714D01*
X81595872Y-75509721D01*
X81685409Y-75613053D01*
X81685413Y-75613057D01*
X81745979Y-75651979D01*
X81800439Y-75686978D01*
X81866036Y-75706239D01*
X81931632Y-75725500D01*
X81931633Y-75725500D01*
X82068367Y-75725500D01*
X82199561Y-75686978D01*
X82314589Y-75613055D01*
X82404130Y-75509718D01*
X82411512Y-75493555D01*
X82434752Y-75442665D01*
X82460931Y-75385342D01*
X82480390Y-75250000D01*
X82480390Y-75249998D01*
X82480390Y-75241131D01*
X82482544Y-75241131D01*
X82490767Y-75183904D01*
X82536513Y-75131097D01*
X82564589Y-75113055D01*
X82654130Y-75009718D01*
X82710931Y-74885342D01*
X82730390Y-74750000D01*
X82710931Y-74614658D01*
X82698677Y-74587827D01*
X82654132Y-74490285D01*
X82654130Y-74490283D01*
X82654130Y-74490282D01*
X82564589Y-74386945D01*
X82564588Y-74386944D01*
X82551939Y-74378815D01*
X82506184Y-74326011D01*
X82496241Y-74256853D01*
X82525266Y-74193297D01*
X82584045Y-74155523D01*
X82618979Y-74150500D01*
X83302725Y-74150500D01*
X83302727Y-74150500D01*
X83404588Y-74123207D01*
X83495913Y-74070480D01*
X86820480Y-70745913D01*
X86873207Y-70654588D01*
X86900500Y-70552727D01*
X86900500Y-70447273D01*
X86900500Y-66322273D01*
X86893342Y-66295559D01*
X86873207Y-66220412D01*
X86820480Y-66129087D01*
X79165861Y-58474468D01*
X79132376Y-58413145D01*
X79137360Y-58343453D01*
X79165861Y-58299106D01*
X79208118Y-58256849D01*
X79252204Y-58212763D01*
X79297583Y-58109989D01*
X79300498Y-58084863D01*
X79300497Y-56295134D01*
X79300495Y-56295115D01*
X79297584Y-56270010D01*
X79297583Y-56270008D01*
X79297583Y-56270007D01*
X79252204Y-56167233D01*
X79172763Y-56087792D01*
X79152122Y-56078678D01*
X79069990Y-56042413D01*
X79044863Y-56039498D01*
X77255141Y-56039498D01*
X77255115Y-56039500D01*
X77230010Y-56042411D01*
X77230006Y-56042413D01*
X77127233Y-56087791D01*
X77047792Y-56167232D01*
X77002413Y-56270004D01*
X77002413Y-56270006D01*
X76999498Y-56295129D01*
X76999498Y-57033949D01*
X76979813Y-57100988D01*
X76927009Y-57146743D01*
X76857851Y-57156687D01*
X76794295Y-57127662D01*
X76756521Y-57068884D01*
X76752027Y-57045389D01*
X76745754Y-56977687D01*
X76708676Y-56847376D01*
X76687403Y-56772609D01*
X76687401Y-56772604D01*
X76687401Y-56772603D01*
X76592365Y-56581744D01*
X76463870Y-56411591D01*
X76336131Y-56295141D01*
X76306300Y-56267946D01*
X76125017Y-56155700D01*
X76125015Y-56155699D01*
X76025606Y-56117188D01*
X75926196Y-56078677D01*
X75716608Y-56039498D01*
X75503388Y-56039498D01*
X75293800Y-56078677D01*
X75293797Y-56078677D01*
X75293797Y-56078678D01*
X75094980Y-56155699D01*
X75094978Y-56155700D01*
X74913697Y-56267945D01*
X74756125Y-56411591D01*
X74627630Y-56581744D01*
X74532594Y-56772603D01*
X74532594Y-56772605D01*
X74474242Y-56977687D01*
X74463468Y-57093950D01*
X74437681Y-57158887D01*
X74393126Y-57190802D01*
X74429501Y-57211667D01*
X74461691Y-57273680D01*
X74463469Y-57286047D01*
X74474242Y-57402308D01*
X74532594Y-57607390D01*
X74532594Y-57607392D01*
X74627630Y-57798251D01*
X74756124Y-57968403D01*
X74756126Y-57968405D01*
X74913696Y-58112050D01*
X75094979Y-58224296D01*
X75130293Y-58237976D01*
X75185692Y-58280546D01*
X75209284Y-58346312D01*
X75209498Y-58353602D01*
X75209498Y-58399374D01*
X75236791Y-58501237D01*
X75251969Y-58527525D01*
X75289518Y-58592561D01*
X75642437Y-58945480D01*
X75724248Y-58992714D01*
X75724939Y-58993113D01*
X75773154Y-59043681D01*
X75786376Y-59112288D01*
X75760408Y-59177153D01*
X75703493Y-59217680D01*
X75662938Y-59224500D01*
X71953732Y-59224500D01*
X71886693Y-59204815D01*
X71866051Y-59188181D01*
X71067488Y-58389618D01*
X71034003Y-58328295D01*
X71038987Y-58258603D01*
X71080859Y-58202670D01*
X71089884Y-58196515D01*
X71226300Y-58112050D01*
X71383870Y-57968405D01*
X71512364Y-57798253D01*
X71563360Y-57695838D01*
X71607401Y-57607392D01*
X71607401Y-57607391D01*
X71607403Y-57607387D01*
X71665754Y-57402308D01*
X71676527Y-57286045D01*
X71702311Y-57221110D01*
X71744620Y-57190802D01*
X71853126Y-57190802D01*
X71889499Y-57211666D01*
X71921690Y-57273679D01*
X71923468Y-57286046D01*
X71926822Y-57322236D01*
X71934242Y-57402309D01*
X71992592Y-57607386D01*
X71992594Y-57607391D01*
X71992594Y-57607393D01*
X72087630Y-57798252D01*
X72216124Y-57968404D01*
X72216126Y-57968406D01*
X72373696Y-58112051D01*
X72554979Y-58224297D01*
X72753800Y-58301320D01*
X72963388Y-58340499D01*
X72963390Y-58340499D01*
X73176606Y-58340499D01*
X73176608Y-58340499D01*
X73386196Y-58301320D01*
X73585017Y-58224297D01*
X73766300Y-58112051D01*
X73923870Y-57968406D01*
X74052364Y-57798254D01*
X74147403Y-57607388D01*
X74205754Y-57402309D01*
X74216527Y-57286046D01*
X74242313Y-57221110D01*
X74286867Y-57189193D01*
X74250493Y-57168328D01*
X74218304Y-57106315D01*
X74216527Y-57093954D01*
X74205754Y-56977689D01*
X74205753Y-56977687D01*
X74168676Y-56847376D01*
X74147403Y-56772610D01*
X74147401Y-56772605D01*
X74147401Y-56772604D01*
X74052365Y-56581745D01*
X73923870Y-56411592D01*
X73923868Y-56411590D01*
X73766300Y-56267947D01*
X73585017Y-56155701D01*
X73585015Y-56155700D01*
X73409722Y-56087792D01*
X73386196Y-56078678D01*
X73176608Y-56039499D01*
X72963388Y-56039499D01*
X72753800Y-56078678D01*
X72753797Y-56078678D01*
X72753797Y-56078679D01*
X72554980Y-56155700D01*
X72554978Y-56155701D01*
X72373697Y-56267946D01*
X72216125Y-56411592D01*
X72087630Y-56581745D01*
X71992594Y-56772604D01*
X71992594Y-56772606D01*
X71934242Y-56977688D01*
X71923469Y-57093949D01*
X71897683Y-57158886D01*
X71853126Y-57190802D01*
X71744620Y-57190802D01*
X71746867Y-57189192D01*
X71710495Y-57168329D01*
X71678305Y-57106316D01*
X71676527Y-57093949D01*
X71670967Y-57033949D01*
X71665754Y-56977688D01*
X71607403Y-56772609D01*
X71607401Y-56772604D01*
X71607401Y-56772603D01*
X71512365Y-56581744D01*
X71383870Y-56411591D01*
X71256131Y-56295141D01*
X71226300Y-56267946D01*
X71045017Y-56155700D01*
X71045015Y-56155699D01*
X70945606Y-56117188D01*
X70846196Y-56078677D01*
X70636608Y-56039498D01*
X70423388Y-56039498D01*
X70213800Y-56078677D01*
X70213797Y-56078677D01*
X70213797Y-56078678D01*
X70014980Y-56155699D01*
X70014978Y-56155700D01*
X69833697Y-56267945D01*
X69676125Y-56411591D01*
X69547630Y-56581744D01*
X69452594Y-56772603D01*
X69452594Y-56772605D01*
X69394242Y-56977687D01*
X69383469Y-57093949D01*
X69357683Y-57158886D01*
X69313128Y-57190802D01*
X69349501Y-57211666D01*
X69381691Y-57273679D01*
X69383469Y-57286046D01*
X69394242Y-57402308D01*
X69452594Y-57607390D01*
X69452594Y-57607392D01*
X69547630Y-57798251D01*
X69676124Y-57968403D01*
X69676126Y-57968405D01*
X69833696Y-58112050D01*
X70014979Y-58224296D01*
X70050293Y-58237976D01*
X70105692Y-58280546D01*
X70129284Y-58346312D01*
X70129498Y-58353602D01*
X70129498Y-58471247D01*
X70156791Y-58573110D01*
X70168023Y-58592563D01*
X70209518Y-58664434D01*
X71490564Y-59945480D01*
X71572375Y-59992714D01*
X71573066Y-59993113D01*
X71621281Y-60043681D01*
X71634503Y-60112288D01*
X71608535Y-60177153D01*
X71551620Y-60217680D01*
X71511065Y-60224500D01*
X67878318Y-60224500D01*
X67811279Y-60204815D01*
X67790637Y-60188181D01*
X65990320Y-58387864D01*
X65956835Y-58326541D01*
X65961819Y-58256849D01*
X66003691Y-58200916D01*
X66012708Y-58194766D01*
X66146300Y-58112050D01*
X66303870Y-57968405D01*
X66432364Y-57798253D01*
X66483360Y-57695838D01*
X66527401Y-57607392D01*
X66527401Y-57607391D01*
X66527403Y-57607387D01*
X66585754Y-57402308D01*
X66596527Y-57286045D01*
X66622313Y-57221109D01*
X66664620Y-57190802D01*
X66773128Y-57190802D01*
X66809501Y-57211666D01*
X66841691Y-57273679D01*
X66843469Y-57286046D01*
X66854242Y-57402308D01*
X66912594Y-57607390D01*
X66912594Y-57607392D01*
X67007630Y-57798251D01*
X67136124Y-57968403D01*
X67136126Y-57968405D01*
X67293696Y-58112050D01*
X67474979Y-58224296D01*
X67673800Y-58301319D01*
X67883388Y-58340498D01*
X67883390Y-58340498D01*
X68096606Y-58340498D01*
X68096608Y-58340498D01*
X68306196Y-58301319D01*
X68505017Y-58224296D01*
X68686300Y-58112050D01*
X68843870Y-57968405D01*
X68972364Y-57798253D01*
X69023360Y-57695838D01*
X69067401Y-57607392D01*
X69067401Y-57607391D01*
X69067403Y-57607387D01*
X69125754Y-57402308D01*
X69136527Y-57286045D01*
X69162313Y-57221109D01*
X69206867Y-57189192D01*
X69170495Y-57168329D01*
X69138305Y-57106316D01*
X69136527Y-57093949D01*
X69130967Y-57033949D01*
X69125754Y-56977688D01*
X69067403Y-56772609D01*
X69067401Y-56772604D01*
X69067401Y-56772603D01*
X68972365Y-56581744D01*
X68843870Y-56411591D01*
X68716131Y-56295141D01*
X68686300Y-56267946D01*
X68505017Y-56155700D01*
X68505015Y-56155699D01*
X68405606Y-56117188D01*
X68306196Y-56078677D01*
X68096608Y-56039498D01*
X67883388Y-56039498D01*
X67673800Y-56078677D01*
X67673797Y-56078677D01*
X67673797Y-56078678D01*
X67474980Y-56155699D01*
X67474978Y-56155700D01*
X67293697Y-56267945D01*
X67136125Y-56411591D01*
X67007630Y-56581744D01*
X66912594Y-56772603D01*
X66912594Y-56772605D01*
X66854242Y-56977687D01*
X66843469Y-57093949D01*
X66817683Y-57158886D01*
X66773128Y-57190802D01*
X66664620Y-57190802D01*
X66666867Y-57189192D01*
X66630495Y-57168329D01*
X66598305Y-57106316D01*
X66596527Y-57093949D01*
X66590967Y-57033949D01*
X66585754Y-56977688D01*
X66527403Y-56772609D01*
X66527401Y-56772604D01*
X66527401Y-56772603D01*
X66432365Y-56581744D01*
X66303870Y-56411591D01*
X66176131Y-56295141D01*
X66146300Y-56267946D01*
X65965017Y-56155700D01*
X65965015Y-56155699D01*
X65865606Y-56117188D01*
X65766196Y-56078677D01*
X65556608Y-56039498D01*
X65343388Y-56039498D01*
X65133800Y-56078677D01*
X65133797Y-56078677D01*
X65133797Y-56078678D01*
X64934980Y-56155699D01*
X64934978Y-56155700D01*
X64753697Y-56267945D01*
X64596125Y-56411591D01*
X64467630Y-56581744D01*
X64372594Y-56772603D01*
X64372594Y-56772605D01*
X64314242Y-56977687D01*
X64303468Y-57093955D01*
X64277682Y-57158892D01*
X64233135Y-57190800D01*
X64269500Y-57211660D01*
X64301690Y-57273672D01*
X64303468Y-57286040D01*
X64314242Y-57402308D01*
X64372594Y-57607390D01*
X64372594Y-57607392D01*
X64467630Y-57798251D01*
X64596124Y-57968403D01*
X64596126Y-57968405D01*
X64753696Y-58112050D01*
X64934979Y-58224296D01*
X64970293Y-58237976D01*
X65025692Y-58280546D01*
X65049284Y-58346312D01*
X65049498Y-58353602D01*
X65049498Y-58361207D01*
X65049498Y-58466661D01*
X65063144Y-58517591D01*
X65076791Y-58568523D01*
X65090669Y-58592560D01*
X65129518Y-58659847D01*
X65129519Y-58659848D01*
X65129520Y-58659849D01*
X67336243Y-60866571D01*
X67336253Y-60866582D01*
X67340583Y-60870912D01*
X67340584Y-60870913D01*
X67415151Y-60945480D01*
X67497654Y-60993113D01*
X67545869Y-61043681D01*
X67559091Y-61112288D01*
X67533123Y-61177153D01*
X67476208Y-61217680D01*
X67435653Y-61224500D01*
X63795297Y-61224500D01*
X63728258Y-61204815D01*
X63707616Y-61188181D01*
X60908455Y-58389020D01*
X60874970Y-58327697D01*
X60879954Y-58258005D01*
X60921826Y-58202072D01*
X60930846Y-58195920D01*
X61066300Y-58112051D01*
X61223870Y-57968406D01*
X61352364Y-57798254D01*
X61447403Y-57607388D01*
X61505754Y-57402309D01*
X61516526Y-57286051D01*
X61542312Y-57221115D01*
X61584628Y-57190802D01*
X61693117Y-57190802D01*
X61729500Y-57211672D01*
X61761690Y-57273684D01*
X61763468Y-57286051D01*
X61774241Y-57402307D01*
X61832593Y-57607389D01*
X61832593Y-57607391D01*
X61927629Y-57798250D01*
X62025527Y-57927886D01*
X62056125Y-57968404D01*
X62213695Y-58112049D01*
X62394978Y-58224295D01*
X62593799Y-58301318D01*
X62803387Y-58340497D01*
X62803389Y-58340497D01*
X63016605Y-58340497D01*
X63016607Y-58340497D01*
X63226195Y-58301318D01*
X63425016Y-58224295D01*
X63606299Y-58112049D01*
X63763869Y-57968404D01*
X63892363Y-57798252D01*
X63987399Y-57607393D01*
X63987400Y-57607391D01*
X63987400Y-57607390D01*
X63987402Y-57607386D01*
X64045753Y-57402307D01*
X64056526Y-57286038D01*
X64082312Y-57221103D01*
X64126858Y-57189192D01*
X64090494Y-57168333D01*
X64058304Y-57106321D01*
X64056527Y-57093963D01*
X64045753Y-56977687D01*
X63987402Y-56772608D01*
X63987400Y-56772603D01*
X63987400Y-56772602D01*
X63892364Y-56581743D01*
X63763869Y-56411590D01*
X63636131Y-56295141D01*
X63606299Y-56267945D01*
X63425016Y-56155699D01*
X63425014Y-56155698D01*
X63249726Y-56087792D01*
X63226195Y-56078676D01*
X63016607Y-56039497D01*
X62803387Y-56039497D01*
X62593799Y-56078676D01*
X62593796Y-56078676D01*
X62593796Y-56078677D01*
X62394979Y-56155698D01*
X62394977Y-56155699D01*
X62213696Y-56267944D01*
X62056124Y-56411590D01*
X61927629Y-56581743D01*
X61832593Y-56772602D01*
X61832593Y-56772604D01*
X61774241Y-56977686D01*
X61763468Y-57093944D01*
X61737682Y-57158881D01*
X61693117Y-57190802D01*
X61584628Y-57190802D01*
X61586875Y-57189192D01*
X61550494Y-57168323D01*
X61518304Y-57106310D01*
X61516526Y-57093943D01*
X61510967Y-57033949D01*
X61505754Y-56977689D01*
X61447403Y-56772610D01*
X61447401Y-56772605D01*
X61447401Y-56772604D01*
X61352365Y-56581745D01*
X61223870Y-56411592D01*
X61223868Y-56411590D01*
X61066300Y-56267947D01*
X60885017Y-56155701D01*
X60885015Y-56155700D01*
X60709722Y-56087792D01*
X60686196Y-56078678D01*
X60476608Y-56039499D01*
X60263388Y-56039499D01*
X60053800Y-56078678D01*
X60053797Y-56078678D01*
X60053797Y-56078679D01*
X59854980Y-56155700D01*
X59854978Y-56155701D01*
X59673697Y-56267946D01*
X59516125Y-56411592D01*
X59387630Y-56581745D01*
X59292594Y-56772604D01*
X59292594Y-56772606D01*
X59234242Y-56977688D01*
X59223469Y-57093945D01*
X59197683Y-57158882D01*
X59153118Y-57190803D01*
X59044629Y-57190803D01*
X59046876Y-57189193D01*
X59010495Y-57168323D01*
X58978305Y-57106311D01*
X58976527Y-57093944D01*
X58972028Y-57045389D01*
X58965755Y-56977689D01*
X58907404Y-56772610D01*
X58907402Y-56772605D01*
X58907402Y-56772604D01*
X58812366Y-56581745D01*
X58683871Y-56411592D01*
X58683869Y-56411590D01*
X58526301Y-56267947D01*
X58345018Y-56155701D01*
X58345016Y-56155700D01*
X58169723Y-56087792D01*
X58146197Y-56078678D01*
X57936609Y-56039499D01*
X57723389Y-56039499D01*
X57513801Y-56078678D01*
X57513798Y-56078678D01*
X57513798Y-56078679D01*
X57314981Y-56155700D01*
X57314979Y-56155701D01*
X57133698Y-56267946D01*
X56976126Y-56411592D01*
X56847631Y-56581745D01*
X56752595Y-56772604D01*
X56752595Y-56772606D01*
X56694243Y-56977688D01*
X56676579Y-57168323D01*
X56674570Y-57189999D01*
X54602560Y-57189999D01*
X54629405Y-57152164D01*
X54797855Y-56847376D01*
X54931121Y-56525644D01*
X55027527Y-56191013D01*
X55085859Y-55847693D01*
X55105385Y-55500000D01*
X80894615Y-55500000D01*
X80914140Y-55847688D01*
X80914142Y-55847700D01*
X80972472Y-56191009D01*
X80972474Y-56191017D01*
X80994637Y-56267945D01*
X81068879Y-56525644D01*
X81202145Y-56847376D01*
X81370595Y-57152164D01*
X81572112Y-57436176D01*
X81804161Y-57695839D01*
X82063824Y-57927888D01*
X82347836Y-58129405D01*
X82652624Y-58297855D01*
X82974356Y-58431121D01*
X83308987Y-58527527D01*
X83652307Y-58585859D01*
X84000000Y-58605385D01*
X84347693Y-58585859D01*
X84691013Y-58527527D01*
X85025644Y-58431121D01*
X85347376Y-58297855D01*
X85652164Y-58129405D01*
X85936176Y-57927888D01*
X86195839Y-57695839D01*
X86427888Y-57436176D01*
X86629405Y-57152164D01*
X86797855Y-56847376D01*
X86931121Y-56525644D01*
X87027527Y-56191013D01*
X87085859Y-55847693D01*
X87105385Y-55500000D01*
X87085859Y-55152307D01*
X87027527Y-54808987D01*
X86931121Y-54474356D01*
X86797855Y-54152624D01*
X86629405Y-53847836D01*
X86427888Y-53563824D01*
X86195839Y-53304161D01*
X85936176Y-53072112D01*
X85652164Y-52870595D01*
X85347376Y-52702145D01*
X85025644Y-52568879D01*
X84858328Y-52520676D01*
X84691017Y-52472474D01*
X84691009Y-52472472D01*
X84347700Y-52414142D01*
X84347688Y-52414140D01*
X84000000Y-52394615D01*
X83652311Y-52414140D01*
X83652299Y-52414142D01*
X83308990Y-52472472D01*
X83308982Y-52472474D01*
X83025585Y-52554120D01*
X82974356Y-52568879D01*
X82925869Y-52588963D01*
X82652625Y-52702144D01*
X82347835Y-52870595D01*
X82147294Y-53012887D01*
X82135584Y-53021196D01*
X82063823Y-53072113D01*
X81804161Y-53304161D01*
X81572113Y-53563823D01*
X81370595Y-53847835D01*
X81202144Y-54152625D01*
X81068878Y-54474359D01*
X80972474Y-54808982D01*
X80972472Y-54808990D01*
X80914142Y-55152299D01*
X80914140Y-55152311D01*
X80894615Y-55500000D01*
X55105385Y-55500000D01*
X55085859Y-55152307D01*
X55027527Y-54808987D01*
X54931121Y-54474356D01*
X54797855Y-54152624D01*
X54629405Y-53847836D01*
X54427888Y-53563824D01*
X54195839Y-53304161D01*
X53936176Y-53072112D01*
X53652164Y-52870595D01*
X53347376Y-52702145D01*
X53025644Y-52568879D01*
X52858328Y-52520676D01*
X52691017Y-52472474D01*
X52691009Y-52472472D01*
X52347700Y-52414142D01*
X52347688Y-52414140D01*
X52000000Y-52394615D01*
X51652311Y-52414140D01*
X51652299Y-52414142D01*
X51308990Y-52472472D01*
X51308982Y-52472474D01*
X51025585Y-52554120D01*
X50974356Y-52568879D01*
X50925869Y-52588963D01*
X50652625Y-52702144D01*
X50347835Y-52870595D01*
X50147294Y-53012887D01*
X50135584Y-53021196D01*
X50063823Y-53072113D01*
X49804161Y-53304161D01*
X49572113Y-53563823D01*
X49370595Y-53847835D01*
X49202144Y-54152625D01*
X49068878Y-54474359D01*
X48972474Y-54808982D01*
X48972472Y-54808990D01*
X48914142Y-55152299D01*
X48914140Y-55152311D01*
X48894615Y-55500000D01*
X48300500Y-55500000D01*
X48300500Y-53504427D01*
X48300816Y-53495581D01*
X48317165Y-53266982D01*
X48319683Y-53249470D01*
X48367459Y-53029851D01*
X48372436Y-53012900D01*
X48450985Y-52802299D01*
X48458325Y-52786227D01*
X48566044Y-52588956D01*
X48575600Y-52574086D01*
X48710294Y-52394156D01*
X48721868Y-52380799D01*
X48880799Y-52221868D01*
X48894156Y-52210294D01*
X49074086Y-52075600D01*
X49088956Y-52066044D01*
X49286227Y-51958325D01*
X49302299Y-51950985D01*
X49512900Y-51872436D01*
X49529851Y-51867459D01*
X49749472Y-51819682D01*
X49766977Y-51817165D01*
X49995582Y-51800816D01*
X50004428Y-51800500D01*
X50047595Y-51800500D01*
X85952405Y-51800500D01*
X85995572Y-51800500D01*
X86004418Y-51800816D01*
G37*
G04 #@! TD.AperFunction*
G04 #@! TA.AperFunction,Conductor*
G36*
X78326630Y-76995185D02*
G01*
X78353304Y-77018298D01*
X78435409Y-77113053D01*
X78435413Y-77113057D01*
X78484025Y-77144297D01*
X78550439Y-77186978D01*
X78614142Y-77205683D01*
X78681632Y-77225500D01*
X78725500Y-77225500D01*
X78792539Y-77245185D01*
X78838294Y-77297989D01*
X78849500Y-77349500D01*
X78849500Y-84392250D01*
X78829815Y-84459289D01*
X78777011Y-84505044D01*
X78707853Y-84514988D01*
X78673987Y-84505043D01*
X78669562Y-84503022D01*
X78538367Y-84464500D01*
X78538366Y-84464500D01*
X78401632Y-84464500D01*
X78401631Y-84464500D01*
X78270439Y-84503021D01*
X78155412Y-84576942D01*
X78155408Y-84576946D01*
X78065871Y-84680278D01*
X78065866Y-84680285D01*
X78009069Y-84804654D01*
X78009067Y-84804662D01*
X77989609Y-84940000D01*
X78009067Y-85075337D01*
X78009069Y-85075345D01*
X78065866Y-85199714D01*
X78065871Y-85199721D01*
X78155408Y-85303053D01*
X78155412Y-85303057D01*
X78209354Y-85337722D01*
X78270438Y-85376978D01*
X78336035Y-85396239D01*
X78401631Y-85415500D01*
X78401632Y-85415500D01*
X78538366Y-85415500D01*
X78669554Y-85376980D01*
X78669555Y-85376979D01*
X78669560Y-85376978D01*
X78669563Y-85376975D01*
X78673979Y-85374959D01*
X78743137Y-85365010D01*
X78806695Y-85394029D01*
X78844474Y-85452804D01*
X78849500Y-85487749D01*
X78849500Y-85625500D01*
X78829815Y-85692539D01*
X78777011Y-85738294D01*
X78725500Y-85749500D01*
X75812134Y-85749500D01*
X75745095Y-85729815D01*
X75699340Y-85677011D01*
X75689396Y-85607853D01*
X75718421Y-85544297D01*
X75764682Y-85510939D01*
X75827346Y-85484983D01*
X75890018Y-85459024D01*
X75999791Y-85374791D01*
X76084024Y-85265018D01*
X76136974Y-85137183D01*
X76155035Y-85000000D01*
X76136974Y-84862817D01*
X76085285Y-84738027D01*
X76084025Y-84734985D01*
X76084024Y-84734984D01*
X76084024Y-84734983D01*
X75999791Y-84625209D01*
X75999789Y-84625208D01*
X75999789Y-84625207D01*
X75890015Y-84540974D01*
X75762186Y-84488027D01*
X75762184Y-84488026D01*
X75762183Y-84488026D01*
X75657456Y-84474238D01*
X75625001Y-84469965D01*
X75624999Y-84469965D01*
X75556408Y-84478995D01*
X75487817Y-84488026D01*
X75487816Y-84488026D01*
X75487813Y-84488027D01*
X75359985Y-84540974D01*
X75250206Y-84625211D01*
X75214665Y-84671529D01*
X75158236Y-84712731D01*
X75132476Y-84718980D01*
X75010930Y-84734983D01*
X74987817Y-84738026D01*
X74987816Y-84738026D01*
X74987813Y-84738027D01*
X74859984Y-84790974D01*
X74859982Y-84790976D01*
X74762986Y-84865404D01*
X74697817Y-84890598D01*
X74629372Y-84876560D01*
X74612013Y-84865404D01*
X74608636Y-84862813D01*
X74539853Y-84810033D01*
X74498652Y-84753606D01*
X74494497Y-84683859D01*
X74500777Y-84664215D01*
X74511974Y-84637183D01*
X74530035Y-84500000D01*
X74511974Y-84362817D01*
X74484898Y-84297451D01*
X74477430Y-84227983D01*
X74484897Y-84202551D01*
X74511974Y-84137183D01*
X74530035Y-84000000D01*
X74511974Y-83862817D01*
X74484898Y-83797451D01*
X74477430Y-83727983D01*
X74484897Y-83702551D01*
X74511974Y-83637183D01*
X74530035Y-83500000D01*
X74511974Y-83362817D01*
X74459024Y-83234983D01*
X74374791Y-83125209D01*
X74374789Y-83125208D01*
X74374789Y-83125207D01*
X74265015Y-83040974D01*
X74137186Y-82988027D01*
X74137184Y-82988026D01*
X74137183Y-82988026D01*
X74045727Y-82975985D01*
X74000001Y-82969965D01*
X73999999Y-82969965D01*
X73862815Y-82988026D01*
X73797451Y-83015100D01*
X73727981Y-83022567D01*
X73702549Y-83015100D01*
X73637184Y-82988026D01*
X73500001Y-82969965D01*
X73499999Y-82969965D01*
X73362815Y-82988026D01*
X73297451Y-83015100D01*
X73227981Y-83022567D01*
X73202549Y-83015100D01*
X73137184Y-82988026D01*
X73000001Y-82969965D01*
X72999999Y-82969965D01*
X72862815Y-82988026D01*
X72797451Y-83015100D01*
X72727981Y-83022567D01*
X72702549Y-83015100D01*
X72637184Y-82988026D01*
X72500001Y-82969965D01*
X72499999Y-82969965D01*
X72362815Y-82988026D01*
X72297451Y-83015100D01*
X72227981Y-83022567D01*
X72202549Y-83015100D01*
X72137184Y-82988026D01*
X72000001Y-82969965D01*
X71999999Y-82969965D01*
X71862815Y-82988026D01*
X71797451Y-83015100D01*
X71727981Y-83022567D01*
X71702549Y-83015100D01*
X71637184Y-82988026D01*
X71500001Y-82969965D01*
X71499999Y-82969965D01*
X71362815Y-82988026D01*
X71297451Y-83015100D01*
X71227981Y-83022567D01*
X71202549Y-83015100D01*
X71137184Y-82988026D01*
X71000001Y-82969965D01*
X70999999Y-82969965D01*
X70862815Y-82988026D01*
X70797451Y-83015100D01*
X70727981Y-83022567D01*
X70702549Y-83015100D01*
X70637184Y-82988026D01*
X70500001Y-82969965D01*
X70499999Y-82969965D01*
X70362815Y-82988026D01*
X70297451Y-83015100D01*
X70227981Y-83022567D01*
X70202549Y-83015100D01*
X70137184Y-82988026D01*
X70000001Y-82969965D01*
X69999999Y-82969965D01*
X69862815Y-82988026D01*
X69797451Y-83015100D01*
X69727981Y-83022567D01*
X69702549Y-83015100D01*
X69637184Y-82988026D01*
X69500001Y-82969965D01*
X69499999Y-82969965D01*
X69362815Y-82988026D01*
X69297451Y-83015100D01*
X69227981Y-83022567D01*
X69202549Y-83015100D01*
X69137184Y-82988026D01*
X69000001Y-82969965D01*
X68999999Y-82969965D01*
X68862815Y-82988026D01*
X68797451Y-83015100D01*
X68727981Y-83022567D01*
X68702549Y-83015100D01*
X68637184Y-82988026D01*
X68500001Y-82969965D01*
X68499999Y-82969965D01*
X68431408Y-82978995D01*
X68362817Y-82988026D01*
X68362816Y-82988026D01*
X68362813Y-82988027D01*
X68234985Y-83040974D01*
X68125209Y-83125209D01*
X68040974Y-83234985D01*
X67988025Y-83362817D01*
X67988025Y-83362819D01*
X67985877Y-83379130D01*
X67957608Y-83443025D01*
X67899282Y-83481494D01*
X67879130Y-83485877D01*
X67862819Y-83488025D01*
X67862817Y-83488025D01*
X67734985Y-83540974D01*
X67706252Y-83563022D01*
X67625209Y-83625209D01*
X67625208Y-83625210D01*
X67625207Y-83625211D01*
X67567090Y-83700950D01*
X67510662Y-83742152D01*
X67440916Y-83746307D01*
X67379996Y-83712094D01*
X67375002Y-83706666D01*
X67341962Y-83668536D01*
X67314589Y-83636945D01*
X67314586Y-83636943D01*
X67314586Y-83636942D01*
X67199559Y-83563021D01*
X67068368Y-83524500D01*
X67068367Y-83524500D01*
X66931633Y-83524500D01*
X66931632Y-83524500D01*
X66809435Y-83560380D01*
X66739565Y-83560380D01*
X66680787Y-83522606D01*
X66651762Y-83459050D01*
X66650500Y-83441403D01*
X66650500Y-82467255D01*
X66670185Y-82400216D01*
X66686819Y-82379574D01*
X67248217Y-81818176D01*
X67818901Y-81247491D01*
X67880222Y-81214008D01*
X67949914Y-81218992D01*
X68005847Y-81260864D01*
X68029318Y-81317526D01*
X68039068Y-81385337D01*
X68039070Y-81385345D01*
X68095867Y-81509714D01*
X68095872Y-81509721D01*
X68185409Y-81613053D01*
X68185413Y-81613057D01*
X68245979Y-81651979D01*
X68300439Y-81686978D01*
X68366036Y-81706239D01*
X68431632Y-81725500D01*
X68431633Y-81725500D01*
X68568367Y-81725500D01*
X68699561Y-81686978D01*
X68814589Y-81613055D01*
X68904130Y-81509718D01*
X68960931Y-81385342D01*
X68980390Y-81250000D01*
X68960931Y-81114658D01*
X68922081Y-81029588D01*
X68904132Y-80990285D01*
X68904127Y-80990278D01*
X68814590Y-80886946D01*
X68814586Y-80886942D01*
X68699559Y-80813021D01*
X68559857Y-80772001D01*
X68560498Y-80769817D01*
X68508290Y-80745975D01*
X68470515Y-80687197D01*
X68470515Y-80617328D01*
X68501809Y-80564583D01*
X70879574Y-78186819D01*
X70940897Y-78153334D01*
X70967255Y-78150500D01*
X76474477Y-78150500D01*
X76474479Y-78150500D01*
X76576340Y-78123207D01*
X76667665Y-78070480D01*
X77485702Y-77252440D01*
X77485707Y-77252437D01*
X77495911Y-77242232D01*
X77495913Y-77242232D01*
X77498976Y-77239168D01*
X77560296Y-77205683D01*
X77621593Y-77207870D01*
X77681632Y-77225500D01*
X77818366Y-77225500D01*
X77949560Y-77186978D01*
X78064588Y-77113055D01*
X78113779Y-77056285D01*
X78146695Y-77018298D01*
X78205473Y-76980523D01*
X78240408Y-76975500D01*
X78259591Y-76975500D01*
X78326630Y-76995185D01*
G37*
G04 #@! TD.AperFunction*
M02*
