G04 #@! TF.GenerationSoftware,KiCad,Pcbnew,8.0.5*
G04 #@! TF.CreationDate,2024-10-07T10:05:32-05:00*
G04 #@! TF.ProjectId,DRV8323_BreakoutBoard,44525638-3332-4335-9f42-7265616b6f75,rev?*
G04 #@! TF.SameCoordinates,Original*
G04 #@! TF.FileFunction,Copper,L4,Bot*
G04 #@! TF.FilePolarity,Positive*
%FSLAX46Y46*%
G04 Gerber Fmt 4.6, Leading zero omitted, Abs format (unit mm)*
G04 Created by KiCad (PCBNEW 8.0.5) date 2024-10-07 10:05:32*
%MOMM*%
%LPD*%
G01*
G04 APERTURE LIST*
G04 Aperture macros list*
%AMRoundRect*
0 Rectangle with rounded corners*
0 $1 Rounding radius*
0 $2 $3 $4 $5 $6 $7 $8 $9 X,Y pos of 4 corners*
0 Add a 4 corners polygon primitive as box body*
4,1,4,$2,$3,$4,$5,$6,$7,$8,$9,$2,$3,0*
0 Add four circle primitives for the rounded corners*
1,1,$1+$1,$2,$3*
1,1,$1+$1,$4,$5*
1,1,$1+$1,$6,$7*
1,1,$1+$1,$8,$9*
0 Add four rect primitives between the rounded corners*
20,1,$1+$1,$2,$3,$4,$5,0*
20,1,$1+$1,$4,$5,$6,$7,0*
20,1,$1+$1,$6,$7,$8,$9,0*
20,1,$1+$1,$8,$9,$2,$3,0*%
G04 Aperture macros list end*
G04 #@! TA.AperFunction,ComponentPad*
%ADD10C,5.600000*%
G04 #@! TD*
G04 #@! TA.AperFunction,ComponentPad*
%ADD11R,1.700000X1.700000*%
G04 #@! TD*
G04 #@! TA.AperFunction,ComponentPad*
%ADD12O,1.700000X1.700000*%
G04 #@! TD*
G04 #@! TA.AperFunction,ComponentPad*
%ADD13RoundRect,0.250002X-1.699998X-1.699998X1.699998X-1.699998X1.699998X1.699998X-1.699998X1.699998X0*%
G04 #@! TD*
G04 #@! TA.AperFunction,ComponentPad*
%ADD14RoundRect,1.500000X-1.500000X-1.500000X1.500000X-1.500000X1.500000X1.500000X-1.500000X1.500000X0*%
G04 #@! TD*
G04 #@! TA.AperFunction,ComponentPad*
%ADD15C,6.000000*%
G04 #@! TD*
G04 #@! TA.AperFunction,ViaPad*
%ADD16C,0.350000*%
G04 #@! TD*
G04 #@! TA.AperFunction,ViaPad*
%ADD17C,0.450000*%
G04 #@! TD*
G04 APERTURE END LIST*
D10*
X84000000Y-55500000D03*
D11*
X78149998Y-57189998D03*
D12*
X75609998Y-57189998D03*
X73069998Y-57189999D03*
X70529998Y-57189998D03*
X67989998Y-57189998D03*
X65449998Y-57189998D03*
X62909997Y-57189997D03*
X60369998Y-57189999D03*
X57829999Y-57189999D03*
D11*
X78149998Y-64809999D03*
D12*
X75609998Y-64809999D03*
X73069998Y-64810000D03*
X70529998Y-64809999D03*
X67989998Y-64809999D03*
X65449998Y-64809999D03*
X62909997Y-64809998D03*
X60369998Y-64810000D03*
X57829999Y-64810000D03*
D10*
X52000000Y-55500000D03*
D13*
X77500000Y-88000000D03*
X64500000Y-88000000D03*
D14*
X52525000Y-72625000D03*
D15*
X59725000Y-72625000D03*
D13*
X51500000Y-88000000D03*
D16*
X82250000Y-73750000D03*
X82275000Y-68125000D03*
X75000000Y-73750000D03*
D17*
X59625000Y-87250000D03*
X55125000Y-90750000D03*
X49625000Y-85000000D03*
X49125000Y-85250000D03*
X61250000Y-88125000D03*
X48875000Y-85750000D03*
X59625000Y-90750000D03*
X56125000Y-90750000D03*
X61250000Y-89750000D03*
X60750000Y-87250000D03*
X58500000Y-90750000D03*
X60750000Y-90625000D03*
X57125000Y-90750000D03*
X58500000Y-87750000D03*
X75100000Y-83000000D03*
X77600000Y-84000000D03*
X49000000Y-83000000D03*
X75600000Y-84000000D03*
X62000000Y-83000000D03*
X49500000Y-84000000D03*
X63500000Y-84000000D03*
X76100000Y-84000000D03*
X49000000Y-83500000D03*
X62500000Y-84000000D03*
X63000000Y-84000000D03*
X64000000Y-84000000D03*
X76600000Y-84000000D03*
X50000000Y-84000000D03*
X51000000Y-84000000D03*
X62000000Y-83500000D03*
X51500000Y-84000000D03*
X64500000Y-84000000D03*
X50500000Y-84000000D03*
X75100000Y-83500000D03*
X77100000Y-84000000D03*
X84500000Y-83500000D03*
X82000000Y-83500000D03*
X56000000Y-83500000D03*
X83000000Y-83500000D03*
X68500000Y-83500000D03*
D16*
X78500000Y-74000000D03*
D17*
X82500000Y-83500000D03*
X87000000Y-84500000D03*
X57500000Y-83500000D03*
X56500000Y-83500000D03*
D16*
X77500000Y-74000000D03*
D17*
X68000000Y-84500000D03*
X70000000Y-83500000D03*
X60000000Y-83500000D03*
X74000000Y-84500000D03*
D16*
X77500000Y-72000000D03*
X78500000Y-73000000D03*
D17*
X87000000Y-83500000D03*
X70500000Y-83500000D03*
X59000000Y-83500000D03*
X55500000Y-83500000D03*
X72000000Y-83500000D03*
X86500000Y-83500000D03*
X57000000Y-83500000D03*
X83500000Y-83500000D03*
X69000000Y-83500000D03*
X72500000Y-83500000D03*
D16*
X77500000Y-73000000D03*
D17*
X85000000Y-83500000D03*
X71500000Y-83500000D03*
X61000000Y-83500000D03*
D16*
X78500000Y-72000000D03*
X80249999Y-69250000D03*
D17*
X87000000Y-84000000D03*
X73000000Y-83500000D03*
X69500000Y-83500000D03*
X55000000Y-84500000D03*
X85500000Y-83500000D03*
X86000000Y-83500000D03*
X61000000Y-84000000D03*
X55000000Y-84000000D03*
X74000000Y-84000000D03*
X61000000Y-84500000D03*
X71000000Y-83500000D03*
X60500000Y-83500000D03*
X81500000Y-83500000D03*
X59500000Y-83500000D03*
X81000000Y-84000000D03*
X84000000Y-83500000D03*
D16*
X80725000Y-68125000D03*
D17*
X74000000Y-83500000D03*
X58000000Y-83500000D03*
X81000000Y-84500000D03*
D16*
X73120000Y-72400000D03*
D17*
X73500000Y-83500000D03*
X58500000Y-83500000D03*
D16*
X79500000Y-74000000D03*
D17*
X68000000Y-84000000D03*
X62625000Y-85000000D03*
D16*
X77749999Y-76750000D03*
D17*
X74250000Y-89750000D03*
X74250000Y-88125000D03*
X72625000Y-87250000D03*
X71500000Y-90750000D03*
X68125000Y-90750000D03*
X61875000Y-85750000D03*
X71500000Y-87750000D03*
X62125000Y-85250000D03*
X72625000Y-90750000D03*
X69125000Y-90750000D03*
X73750000Y-90625000D03*
X70125000Y-90750000D03*
X73750000Y-87250000D03*
X83125000Y-90750000D03*
X85625000Y-87250000D03*
X81125000Y-90750000D03*
X74875000Y-85750000D03*
X86750000Y-90625000D03*
X85625000Y-90750000D03*
X86750000Y-87250000D03*
X82125000Y-90750000D03*
D16*
X79250000Y-76500000D03*
D17*
X75125000Y-85250000D03*
X87250000Y-88125000D03*
X75625000Y-85000000D03*
X84500000Y-87750000D03*
X84500000Y-90750000D03*
X87250000Y-89750000D03*
D16*
X82000000Y-74250000D03*
X64500000Y-81000000D03*
X75000000Y-72750000D03*
X52470000Y-84940000D03*
X74750000Y-73250000D03*
X55750000Y-81750000D03*
X75000000Y-74750000D03*
X74750000Y-74250000D03*
X55140002Y-87150000D03*
X78250000Y-76500000D03*
X65470000Y-84940000D03*
X76750000Y-76750000D03*
X68500000Y-81250000D03*
X77250000Y-76500000D03*
X68140002Y-87150000D03*
X78469999Y-84940000D03*
X78750000Y-76750000D03*
X79750000Y-76750000D03*
X81140002Y-87150000D03*
X80250000Y-76500000D03*
X81750000Y-81750000D03*
X82250000Y-72750000D03*
X82000000Y-73250000D03*
X82250000Y-74750000D03*
X79249998Y-69250000D03*
X77750000Y-69500000D03*
X82250000Y-71750000D03*
X82000000Y-75250000D03*
X78250000Y-69250000D03*
X82000000Y-72250000D03*
X82000000Y-70125000D03*
X76750000Y-69500000D03*
X82000000Y-71249998D03*
X77250000Y-69250000D03*
X82250000Y-70750000D03*
X78750000Y-69500000D03*
X74750000Y-75250000D03*
X54250000Y-84000000D03*
X67000000Y-84000000D03*
X76250000Y-76500000D03*
X80000000Y-84000000D03*
X80750001Y-76749999D03*
D17*
X59500000Y-86500000D03*
X59500000Y-85250000D03*
X55000000Y-85500000D03*
X61250000Y-85250000D03*
X60375000Y-86500000D03*
X55000000Y-86000000D03*
X61250000Y-86500000D03*
X58000000Y-86000000D03*
X60375000Y-85250000D03*
X58000000Y-85500000D03*
X73375000Y-85250000D03*
X68000000Y-86000000D03*
X71000000Y-86000000D03*
X74250000Y-85250000D03*
X72500000Y-86500000D03*
X73375000Y-86500000D03*
X72500000Y-85250000D03*
X74250000Y-86500000D03*
X68000000Y-85500000D03*
X71000000Y-85500000D03*
X85500000Y-86500000D03*
X87250000Y-86500000D03*
X86375000Y-86500000D03*
X87250000Y-85250000D03*
X84000000Y-85500000D03*
X86375000Y-85250000D03*
X81000000Y-85500000D03*
X85500000Y-85250000D03*
X84000000Y-86000000D03*
X81000000Y-86000000D03*
G04 #@! TA.AperFunction,Conductor*
G36*
X54856695Y-85009438D02*
G01*
X54862817Y-85011974D01*
X54984039Y-85027933D01*
X54999999Y-85030035D01*
X55000000Y-85030035D01*
X55000001Y-85030035D01*
X55012947Y-85028330D01*
X55137183Y-85011974D01*
X55143304Y-85009438D01*
X55190755Y-85000000D01*
X60809245Y-85000000D01*
X60856695Y-85009438D01*
X60862817Y-85011974D01*
X60984039Y-85027933D01*
X60999999Y-85030035D01*
X61000000Y-85030035D01*
X61000001Y-85030035D01*
X61012947Y-85028330D01*
X61137183Y-85011974D01*
X61143304Y-85009438D01*
X61190755Y-85000000D01*
X61376000Y-85000000D01*
X61443039Y-85019685D01*
X61488794Y-85072489D01*
X61500000Y-85124000D01*
X61500000Y-85333388D01*
X61480315Y-85400427D01*
X61474376Y-85408874D01*
X61415976Y-85484982D01*
X61415974Y-85484984D01*
X61363027Y-85612813D01*
X61363026Y-85612818D01*
X61344965Y-85749999D01*
X61344965Y-85750000D01*
X61363026Y-85887181D01*
X61363027Y-85887186D01*
X61415974Y-86015015D01*
X61415975Y-86015017D01*
X61415976Y-86015018D01*
X61474376Y-86091125D01*
X61499570Y-86156291D01*
X61500000Y-86166610D01*
X61500000Y-86448637D01*
X61480315Y-86515676D01*
X61463681Y-86536318D01*
X61279213Y-86720785D01*
X61217890Y-86754270D01*
X61148198Y-86749286D01*
X61135330Y-86743636D01*
X61128360Y-86740092D01*
X61101749Y-86726561D01*
X61101746Y-86726560D01*
X61101748Y-86726560D01*
X61034716Y-86706877D01*
X61034710Y-86706876D01*
X60948638Y-86694500D01*
X60565755Y-86694500D01*
X60561902Y-86694879D01*
X60506174Y-86700366D01*
X60506164Y-86700368D01*
X60506159Y-86700368D01*
X60506158Y-86700369D01*
X60473443Y-86706876D01*
X60458702Y-86709808D01*
X60456579Y-86710340D01*
X60442651Y-86712991D01*
X60391185Y-86719767D01*
X60358815Y-86719767D01*
X60307351Y-86712992D01*
X60293416Y-86710339D01*
X60291313Y-86709812D01*
X60276552Y-86706876D01*
X60243843Y-86700370D01*
X60243839Y-86700369D01*
X60243831Y-86700368D01*
X60195806Y-86695638D01*
X60184245Y-86694500D01*
X59690755Y-86694500D01*
X59686902Y-86694879D01*
X59631174Y-86700366D01*
X59631164Y-86700368D01*
X59631159Y-86700368D01*
X59631158Y-86700369D01*
X59615187Y-86703545D01*
X59583690Y-86709810D01*
X59581585Y-86710338D01*
X59567652Y-86712991D01*
X59468555Y-86726038D01*
X59456012Y-86727045D01*
X59433137Y-86727717D01*
X59433131Y-86727717D01*
X59433130Y-86727718D01*
X59364368Y-86740092D01*
X59364367Y-86740092D01*
X59364363Y-86740093D01*
X59281847Y-86767516D01*
X57843064Y-87486909D01*
X57787609Y-87500000D01*
X55695849Y-87500000D01*
X55628810Y-87480315D01*
X55583055Y-87427511D01*
X55573111Y-87358353D01*
X55583055Y-87324488D01*
X55600933Y-87285342D01*
X55620392Y-87150000D01*
X55600933Y-87014658D01*
X55588679Y-86987827D01*
X55544134Y-86890285D01*
X55544129Y-86890277D01*
X55530285Y-86874300D01*
X55501262Y-86810744D01*
X55500000Y-86793100D01*
X55500000Y-86500000D01*
X54674000Y-86500000D01*
X54606961Y-86480315D01*
X54561206Y-86427511D01*
X54550000Y-86376000D01*
X54550000Y-85124000D01*
X54569685Y-85056961D01*
X54622489Y-85011206D01*
X54674000Y-85000000D01*
X54809245Y-85000000D01*
X54856695Y-85009438D01*
G37*
G04 #@! TD.AperFunction*
G04 #@! TA.AperFunction,Conductor*
G36*
X67856695Y-85009438D02*
G01*
X67862817Y-85011974D01*
X67984039Y-85027933D01*
X67999999Y-85030035D01*
X68000000Y-85030035D01*
X68000001Y-85030035D01*
X68012947Y-85028330D01*
X68137183Y-85011974D01*
X68143304Y-85009438D01*
X68190755Y-85000000D01*
X73809245Y-85000000D01*
X73856695Y-85009438D01*
X73862817Y-85011974D01*
X73984039Y-85027933D01*
X73999999Y-85030035D01*
X74000000Y-85030035D01*
X74000001Y-85030035D01*
X74012947Y-85028330D01*
X74137183Y-85011974D01*
X74143304Y-85009438D01*
X74190755Y-85000000D01*
X74376000Y-85000000D01*
X74443039Y-85019685D01*
X74488794Y-85072489D01*
X74500000Y-85124000D01*
X74500000Y-85333388D01*
X74480315Y-85400427D01*
X74474376Y-85408874D01*
X74415976Y-85484982D01*
X74415974Y-85484984D01*
X74363027Y-85612813D01*
X74363026Y-85612818D01*
X74344965Y-85749999D01*
X74344965Y-85750000D01*
X74363026Y-85887181D01*
X74363027Y-85887186D01*
X74415974Y-86015015D01*
X74415975Y-86015017D01*
X74415976Y-86015018D01*
X74474376Y-86091125D01*
X74499570Y-86156291D01*
X74500000Y-86166610D01*
X74500000Y-86448637D01*
X74480315Y-86515676D01*
X74463681Y-86536318D01*
X74279213Y-86720785D01*
X74217890Y-86754270D01*
X74148198Y-86749286D01*
X74135330Y-86743636D01*
X74128360Y-86740092D01*
X74101749Y-86726561D01*
X74101746Y-86726560D01*
X74101748Y-86726560D01*
X74034716Y-86706877D01*
X74034710Y-86706876D01*
X73948638Y-86694500D01*
X73565755Y-86694500D01*
X73561902Y-86694879D01*
X73506174Y-86700366D01*
X73506164Y-86700368D01*
X73506159Y-86700368D01*
X73506158Y-86700369D01*
X73473443Y-86706876D01*
X73458702Y-86709808D01*
X73456579Y-86710340D01*
X73442651Y-86712991D01*
X73391185Y-86719767D01*
X73358815Y-86719767D01*
X73307351Y-86712992D01*
X73293416Y-86710339D01*
X73291313Y-86709812D01*
X73276552Y-86706876D01*
X73243843Y-86700370D01*
X73243839Y-86700369D01*
X73243831Y-86700368D01*
X73195806Y-86695638D01*
X73184245Y-86694500D01*
X72690755Y-86694500D01*
X72686902Y-86694879D01*
X72631174Y-86700366D01*
X72631164Y-86700368D01*
X72631159Y-86700368D01*
X72631158Y-86700369D01*
X72615187Y-86703545D01*
X72583690Y-86709810D01*
X72581585Y-86710338D01*
X72567652Y-86712991D01*
X72468555Y-86726038D01*
X72456012Y-86727045D01*
X72433137Y-86727717D01*
X72433131Y-86727717D01*
X72433130Y-86727718D01*
X72364368Y-86740092D01*
X72364367Y-86740092D01*
X72364363Y-86740093D01*
X72281847Y-86767516D01*
X70843064Y-87486909D01*
X70787609Y-87500000D01*
X68695849Y-87500000D01*
X68628810Y-87480315D01*
X68583055Y-87427511D01*
X68573111Y-87358353D01*
X68583055Y-87324488D01*
X68600933Y-87285342D01*
X68620392Y-87150000D01*
X68600933Y-87014658D01*
X68575978Y-86960015D01*
X68544134Y-86890285D01*
X68544129Y-86890277D01*
X68530285Y-86874300D01*
X68501262Y-86810744D01*
X68500000Y-86793100D01*
X68500000Y-86500000D01*
X67674000Y-86500000D01*
X67606961Y-86480315D01*
X67561206Y-86427511D01*
X67550000Y-86376000D01*
X67550000Y-85124000D01*
X67569685Y-85056961D01*
X67622489Y-85011206D01*
X67674000Y-85000000D01*
X67809245Y-85000000D01*
X67856695Y-85009438D01*
G37*
G04 #@! TD.AperFunction*
G04 #@! TA.AperFunction,Conductor*
G36*
X80856695Y-85009438D02*
G01*
X80862817Y-85011974D01*
X80984039Y-85027933D01*
X80999999Y-85030035D01*
X81000000Y-85030035D01*
X81000001Y-85030035D01*
X81012947Y-85028330D01*
X81137183Y-85011974D01*
X81143304Y-85009438D01*
X81190755Y-85000000D01*
X86809245Y-85000000D01*
X86856695Y-85009438D01*
X86862817Y-85011974D01*
X86984039Y-85027933D01*
X86999999Y-85030035D01*
X87000000Y-85030035D01*
X87000001Y-85030035D01*
X87012947Y-85028330D01*
X87137183Y-85011974D01*
X87143304Y-85009438D01*
X87190755Y-85000000D01*
X87376000Y-85000000D01*
X87443039Y-85019685D01*
X87488794Y-85072489D01*
X87500000Y-85124000D01*
X87500000Y-86448637D01*
X87480315Y-86515676D01*
X87463681Y-86536318D01*
X87279213Y-86720785D01*
X87217890Y-86754270D01*
X87148198Y-86749286D01*
X87135330Y-86743636D01*
X87128360Y-86740092D01*
X87101749Y-86726561D01*
X87101746Y-86726560D01*
X87101748Y-86726560D01*
X87034716Y-86706877D01*
X87034710Y-86706876D01*
X86948638Y-86694500D01*
X86565755Y-86694500D01*
X86561902Y-86694879D01*
X86506174Y-86700366D01*
X86506164Y-86700368D01*
X86506159Y-86700368D01*
X86506158Y-86700369D01*
X86473443Y-86706876D01*
X86458702Y-86709808D01*
X86456579Y-86710340D01*
X86442651Y-86712991D01*
X86391185Y-86719767D01*
X86358815Y-86719767D01*
X86307351Y-86712992D01*
X86293416Y-86710339D01*
X86291313Y-86709812D01*
X86276552Y-86706876D01*
X86243843Y-86700370D01*
X86243839Y-86700369D01*
X86243831Y-86700368D01*
X86195806Y-86695638D01*
X86184245Y-86694500D01*
X85690755Y-86694500D01*
X85686902Y-86694879D01*
X85631174Y-86700366D01*
X85631164Y-86700368D01*
X85631159Y-86700368D01*
X85631158Y-86700369D01*
X85615187Y-86703545D01*
X85583690Y-86709810D01*
X85581585Y-86710338D01*
X85567652Y-86712991D01*
X85468555Y-86726038D01*
X85456012Y-86727045D01*
X85433137Y-86727717D01*
X85433131Y-86727717D01*
X85433130Y-86727718D01*
X85364368Y-86740092D01*
X85364367Y-86740092D01*
X85364363Y-86740093D01*
X85281847Y-86767516D01*
X83843064Y-87486909D01*
X83787609Y-87500000D01*
X81695849Y-87500000D01*
X81628810Y-87480315D01*
X81583055Y-87427511D01*
X81573111Y-87358353D01*
X81583055Y-87324488D01*
X81600933Y-87285342D01*
X81620392Y-87150000D01*
X81600933Y-87014658D01*
X81575978Y-86960015D01*
X81544134Y-86890285D01*
X81544129Y-86890277D01*
X81530285Y-86874300D01*
X81501262Y-86810744D01*
X81500000Y-86793100D01*
X81500000Y-86500000D01*
X80674000Y-86500000D01*
X80606961Y-86480315D01*
X80561206Y-86427511D01*
X80550000Y-86376000D01*
X80550000Y-85124000D01*
X80569685Y-85056961D01*
X80622489Y-85011206D01*
X80674000Y-85000000D01*
X80809245Y-85000000D01*
X80856695Y-85009438D01*
G37*
G04 #@! TD.AperFunction*
G04 #@! TA.AperFunction,Conductor*
G36*
X62356695Y-84509438D02*
G01*
X62362817Y-84511974D01*
X62484039Y-84527933D01*
X62499999Y-84530035D01*
X62500000Y-84530035D01*
X62500001Y-84530035D01*
X62512947Y-84528330D01*
X62637183Y-84511974D01*
X62643304Y-84509438D01*
X62690755Y-84500000D01*
X62809245Y-84500000D01*
X62856695Y-84509438D01*
X62862817Y-84511974D01*
X62984039Y-84527933D01*
X62999999Y-84530035D01*
X63000000Y-84530035D01*
X63000001Y-84530035D01*
X63012947Y-84528330D01*
X63137183Y-84511974D01*
X63143304Y-84509438D01*
X63190755Y-84500000D01*
X63309245Y-84500000D01*
X63356695Y-84509438D01*
X63362817Y-84511974D01*
X63484039Y-84527933D01*
X63499999Y-84530035D01*
X63500000Y-84530035D01*
X63500001Y-84530035D01*
X63512947Y-84528330D01*
X63637183Y-84511974D01*
X63643304Y-84509438D01*
X63690755Y-84500000D01*
X63809245Y-84500000D01*
X63856695Y-84509438D01*
X63862817Y-84511974D01*
X63984039Y-84527933D01*
X63999999Y-84530035D01*
X64000000Y-84530035D01*
X64000001Y-84530035D01*
X64012947Y-84528330D01*
X64137183Y-84511974D01*
X64143304Y-84509438D01*
X64190755Y-84500000D01*
X64309245Y-84500000D01*
X64356695Y-84509438D01*
X64362817Y-84511974D01*
X64484039Y-84527933D01*
X64499999Y-84530035D01*
X64500000Y-84530035D01*
X64500001Y-84530035D01*
X64512947Y-84528330D01*
X64637183Y-84511974D01*
X64643304Y-84509438D01*
X64690755Y-84500000D01*
X64876000Y-84500000D01*
X64943039Y-84519685D01*
X64988794Y-84572489D01*
X65000000Y-84624000D01*
X65000000Y-84858865D01*
X64998738Y-84876511D01*
X64995605Y-84898304D01*
X64989610Y-84940000D01*
X64996077Y-84984983D01*
X64998738Y-85003486D01*
X65000000Y-85021133D01*
X65000000Y-85500000D01*
X66876000Y-85500000D01*
X66943039Y-85519685D01*
X66988794Y-85572489D01*
X67000000Y-85624000D01*
X67000000Y-87500000D01*
X67600000Y-88000000D01*
X70500000Y-88000000D01*
X72418475Y-87040762D01*
X72487237Y-87028388D01*
X72490065Y-87028727D01*
X72500000Y-87030035D01*
X72637183Y-87011974D01*
X72643304Y-87009438D01*
X72690755Y-87000000D01*
X73184245Y-87000000D01*
X73231695Y-87009438D01*
X73237817Y-87011974D01*
X73359039Y-87027933D01*
X73374999Y-87030035D01*
X73375000Y-87030035D01*
X73375001Y-87030035D01*
X73387947Y-87028330D01*
X73512183Y-87011974D01*
X73518304Y-87009438D01*
X73565755Y-87000000D01*
X73948638Y-87000000D01*
X74015677Y-87019685D01*
X74036319Y-87036319D01*
X74463681Y-87463681D01*
X74497166Y-87525004D01*
X74500000Y-87551362D01*
X74500000Y-90448638D01*
X74480315Y-90515677D01*
X74463681Y-90536319D01*
X74036319Y-90963681D01*
X73974996Y-90997166D01*
X73948638Y-91000000D01*
X62051362Y-91000000D01*
X61984323Y-90980315D01*
X61963681Y-90963681D01*
X61779214Y-90779214D01*
X61745729Y-90717891D01*
X61750713Y-90648199D01*
X61756356Y-90635343D01*
X61773439Y-90601749D01*
X61793124Y-90534710D01*
X61805500Y-90448638D01*
X61805500Y-87551362D01*
X61803749Y-87518703D01*
X61800915Y-87492345D01*
X61800080Y-87485340D01*
X61765297Y-87378593D01*
X61765295Y-87378588D01*
X61731810Y-87317266D01*
X61679710Y-87247670D01*
X61679699Y-87247657D01*
X61630725Y-87198683D01*
X61544861Y-87112819D01*
X61511378Y-87051499D01*
X61516362Y-86981807D01*
X61557056Y-86926766D01*
X61624791Y-86874791D01*
X61709024Y-86765018D01*
X61761974Y-86637183D01*
X61761974Y-86637181D01*
X61764078Y-86629333D01*
X61764992Y-86629578D01*
X61771897Y-86607310D01*
X61771321Y-86607082D01*
X61773439Y-86601747D01*
X61778321Y-86585123D01*
X61793124Y-86534709D01*
X61805500Y-86448637D01*
X61805500Y-86166610D01*
X61805235Y-86153891D01*
X61804805Y-86143572D01*
X61784516Y-86046127D01*
X61759322Y-85980961D01*
X61716744Y-85905146D01*
X61692763Y-85873894D01*
X61676580Y-85845863D01*
X61666909Y-85822515D01*
X61658531Y-85791249D01*
X61655231Y-85766178D01*
X61655231Y-85733819D01*
X61658531Y-85708744D01*
X61666907Y-85677487D01*
X61676581Y-85654131D01*
X61692763Y-85626103D01*
X61716745Y-85594851D01*
X61724288Y-85584585D01*
X61730227Y-85576138D01*
X61773439Y-85486499D01*
X61793124Y-85419460D01*
X61805500Y-85333388D01*
X61805500Y-85124000D01*
X61798518Y-85059059D01*
X61787312Y-85007548D01*
X61776354Y-84969342D01*
X61733999Y-84896922D01*
X61717147Y-84829116D01*
X61739629Y-84762962D01*
X61753341Y-84746658D01*
X61963683Y-84536316D01*
X62025004Y-84502834D01*
X62051362Y-84500000D01*
X62309245Y-84500000D01*
X62356695Y-84509438D01*
G37*
G04 #@! TD.AperFunction*
G04 #@! TA.AperFunction,Conductor*
G36*
X75456695Y-84509438D02*
G01*
X75462817Y-84511974D01*
X75584039Y-84527933D01*
X75599999Y-84530035D01*
X75600000Y-84530035D01*
X75600001Y-84530035D01*
X75612947Y-84528330D01*
X75737183Y-84511974D01*
X75743304Y-84509438D01*
X75790755Y-84500000D01*
X75909245Y-84500000D01*
X75956695Y-84509438D01*
X75962817Y-84511974D01*
X76084039Y-84527933D01*
X76099999Y-84530035D01*
X76100000Y-84530035D01*
X76100001Y-84530035D01*
X76112947Y-84528330D01*
X76237183Y-84511974D01*
X76243304Y-84509438D01*
X76290755Y-84500000D01*
X76409245Y-84500000D01*
X76456695Y-84509438D01*
X76462817Y-84511974D01*
X76584039Y-84527933D01*
X76599999Y-84530035D01*
X76600000Y-84530035D01*
X76600001Y-84530035D01*
X76612947Y-84528330D01*
X76737183Y-84511974D01*
X76743304Y-84509438D01*
X76790755Y-84500000D01*
X76909245Y-84500000D01*
X76956695Y-84509438D01*
X76962817Y-84511974D01*
X77084039Y-84527933D01*
X77099999Y-84530035D01*
X77100000Y-84530035D01*
X77100001Y-84530035D01*
X77112947Y-84528330D01*
X77237183Y-84511974D01*
X77243304Y-84509438D01*
X77290755Y-84500000D01*
X77409245Y-84500000D01*
X77456695Y-84509438D01*
X77462817Y-84511974D01*
X77584039Y-84527933D01*
X77599999Y-84530035D01*
X77600000Y-84530035D01*
X77600001Y-84530035D01*
X77612947Y-84528330D01*
X77737183Y-84511974D01*
X77743304Y-84509438D01*
X77790755Y-84500000D01*
X77876000Y-84500000D01*
X77943039Y-84519685D01*
X77988794Y-84572489D01*
X78000000Y-84624000D01*
X78000000Y-84858858D01*
X77998738Y-84876504D01*
X77989609Y-84940000D01*
X77996076Y-84984983D01*
X77998738Y-85003493D01*
X78000000Y-85021140D01*
X78000000Y-85500000D01*
X79876000Y-85500000D01*
X79943039Y-85519685D01*
X79988794Y-85572489D01*
X80000000Y-85624000D01*
X80000000Y-87500000D01*
X80600000Y-88000000D01*
X83500000Y-88000000D01*
X85418475Y-87040762D01*
X85487237Y-87028388D01*
X85490065Y-87028727D01*
X85500000Y-87030035D01*
X85637183Y-87011974D01*
X85643304Y-87009438D01*
X85690755Y-87000000D01*
X86184245Y-87000000D01*
X86231695Y-87009438D01*
X86237817Y-87011974D01*
X86359039Y-87027933D01*
X86374999Y-87030035D01*
X86375000Y-87030035D01*
X86375001Y-87030035D01*
X86387947Y-87028330D01*
X86512183Y-87011974D01*
X86518304Y-87009438D01*
X86565755Y-87000000D01*
X86948638Y-87000000D01*
X87015677Y-87019685D01*
X87036319Y-87036319D01*
X87463681Y-87463681D01*
X87497166Y-87525004D01*
X87500000Y-87551362D01*
X87500000Y-90258444D01*
X87484832Y-90317872D01*
X87433959Y-90411037D01*
X87424394Y-90425919D01*
X87289710Y-90605836D01*
X87278124Y-90619207D01*
X87119207Y-90778124D01*
X87105836Y-90789710D01*
X86925919Y-90924394D01*
X86911037Y-90933958D01*
X86817873Y-90984831D01*
X86758445Y-91000000D01*
X75051362Y-91000000D01*
X74984323Y-90980315D01*
X74963681Y-90963681D01*
X74779214Y-90779214D01*
X74745729Y-90717891D01*
X74750713Y-90648199D01*
X74756356Y-90635343D01*
X74773439Y-90601749D01*
X74793124Y-90534710D01*
X74805500Y-90448638D01*
X74805500Y-87551362D01*
X74803749Y-87518703D01*
X74800915Y-87492345D01*
X74800080Y-87485340D01*
X74765297Y-87378593D01*
X74765295Y-87378588D01*
X74731810Y-87317266D01*
X74679710Y-87247670D01*
X74679699Y-87247657D01*
X74629951Y-87197909D01*
X74544861Y-87112819D01*
X74511378Y-87051499D01*
X74516362Y-86981807D01*
X74557056Y-86926766D01*
X74624791Y-86874791D01*
X74709024Y-86765018D01*
X74761974Y-86637183D01*
X74761974Y-86637181D01*
X74764078Y-86629333D01*
X74764992Y-86629578D01*
X74771897Y-86607310D01*
X74771321Y-86607082D01*
X74773439Y-86601747D01*
X74778321Y-86585123D01*
X74793124Y-86534709D01*
X74805500Y-86448637D01*
X74805500Y-86166610D01*
X74805235Y-86153891D01*
X74804805Y-86143572D01*
X74784516Y-86046127D01*
X74759322Y-85980961D01*
X74716744Y-85905146D01*
X74692763Y-85873894D01*
X74676580Y-85845863D01*
X74666909Y-85822515D01*
X74658531Y-85791249D01*
X74655231Y-85766178D01*
X74655231Y-85733819D01*
X74658531Y-85708744D01*
X74666907Y-85677487D01*
X74670471Y-85668882D01*
X74676581Y-85654131D01*
X74692763Y-85626103D01*
X74716745Y-85594851D01*
X74724288Y-85584585D01*
X74730227Y-85576138D01*
X74773439Y-85486499D01*
X74793124Y-85419460D01*
X74805500Y-85333388D01*
X74805500Y-85124000D01*
X74798518Y-85059059D01*
X74787312Y-85007548D01*
X74776354Y-84969342D01*
X74733999Y-84896922D01*
X74717147Y-84829116D01*
X74739629Y-84762962D01*
X74753341Y-84746658D01*
X74963683Y-84536316D01*
X75025004Y-84502834D01*
X75051362Y-84500000D01*
X75409245Y-84500000D01*
X75456695Y-84509438D01*
G37*
G04 #@! TD.AperFunction*
G04 #@! TA.AperFunction,Conductor*
G36*
X49356695Y-84509438D02*
G01*
X49362817Y-84511974D01*
X49484039Y-84527933D01*
X49499999Y-84530035D01*
X49500000Y-84530035D01*
X49500001Y-84530035D01*
X49512947Y-84528330D01*
X49637183Y-84511974D01*
X49643304Y-84509438D01*
X49690755Y-84500000D01*
X49809245Y-84500000D01*
X49856695Y-84509438D01*
X49862817Y-84511974D01*
X49984039Y-84527933D01*
X49999999Y-84530035D01*
X50000000Y-84530035D01*
X50000001Y-84530035D01*
X50012947Y-84528330D01*
X50137183Y-84511974D01*
X50143304Y-84509438D01*
X50190755Y-84500000D01*
X50309245Y-84500000D01*
X50356695Y-84509438D01*
X50362817Y-84511974D01*
X50484039Y-84527933D01*
X50499999Y-84530035D01*
X50500000Y-84530035D01*
X50500001Y-84530035D01*
X50512947Y-84528330D01*
X50637183Y-84511974D01*
X50643304Y-84509438D01*
X50690755Y-84500000D01*
X50809245Y-84500000D01*
X50856695Y-84509438D01*
X50862817Y-84511974D01*
X50984039Y-84527933D01*
X50999999Y-84530035D01*
X51000000Y-84530035D01*
X51000001Y-84530035D01*
X51012947Y-84528330D01*
X51137183Y-84511974D01*
X51143304Y-84509438D01*
X51190755Y-84500000D01*
X51309245Y-84500000D01*
X51356695Y-84509438D01*
X51362817Y-84511974D01*
X51484039Y-84527933D01*
X51499999Y-84530035D01*
X51500000Y-84530035D01*
X51500001Y-84530035D01*
X51512947Y-84528330D01*
X51637183Y-84511974D01*
X51643304Y-84509438D01*
X51690755Y-84500000D01*
X51876000Y-84500000D01*
X51943039Y-84519685D01*
X51988794Y-84572489D01*
X52000000Y-84624000D01*
X52000000Y-84858865D01*
X51998738Y-84876511D01*
X51989610Y-84940000D01*
X51996077Y-84984983D01*
X51998738Y-85003486D01*
X52000000Y-85021133D01*
X52000000Y-85500000D01*
X53876000Y-85500000D01*
X53943039Y-85519685D01*
X53988794Y-85572489D01*
X54000000Y-85624000D01*
X54000000Y-87500000D01*
X54600000Y-88000000D01*
X57500000Y-88000000D01*
X59418475Y-87040762D01*
X59487237Y-87028388D01*
X59490065Y-87028727D01*
X59500000Y-87030035D01*
X59637183Y-87011974D01*
X59643304Y-87009438D01*
X59690755Y-87000000D01*
X60184245Y-87000000D01*
X60231695Y-87009438D01*
X60237817Y-87011974D01*
X60359039Y-87027933D01*
X60374999Y-87030035D01*
X60375000Y-87030035D01*
X60375001Y-87030035D01*
X60387947Y-87028330D01*
X60512183Y-87011974D01*
X60518304Y-87009438D01*
X60565755Y-87000000D01*
X60948638Y-87000000D01*
X61015677Y-87019685D01*
X61036319Y-87036319D01*
X61463681Y-87463681D01*
X61497166Y-87525004D01*
X61500000Y-87551362D01*
X61500000Y-90448638D01*
X61480315Y-90515677D01*
X61463681Y-90536319D01*
X61036319Y-90963681D01*
X60974996Y-90997166D01*
X60948638Y-91000000D01*
X49241555Y-91000000D01*
X49182129Y-90984832D01*
X49088959Y-90933957D01*
X49074080Y-90924394D01*
X48894163Y-90789710D01*
X48880792Y-90778124D01*
X48721875Y-90619207D01*
X48710289Y-90605836D01*
X48575605Y-90425919D01*
X48566040Y-90411036D01*
X48515168Y-90317871D01*
X48500000Y-90258444D01*
X48500000Y-85051362D01*
X48519685Y-84984323D01*
X48536319Y-84963681D01*
X48963681Y-84536319D01*
X49025004Y-84502834D01*
X49051362Y-84500000D01*
X49309245Y-84500000D01*
X49356695Y-84509438D01*
G37*
G04 #@! TD.AperFunction*
G04 #@! TA.AperFunction,Conductor*
G36*
X86004418Y-51800816D02*
G01*
X86233020Y-51817165D01*
X86250529Y-51819683D01*
X86470144Y-51867458D01*
X86487103Y-51872437D01*
X86697694Y-51950983D01*
X86713777Y-51958327D01*
X86911036Y-52066040D01*
X86925919Y-52075605D01*
X87105836Y-52210289D01*
X87119207Y-52221875D01*
X87278124Y-52380792D01*
X87289710Y-52394163D01*
X87424394Y-52574080D01*
X87433959Y-52588963D01*
X87541669Y-52786217D01*
X87549019Y-52802311D01*
X87627559Y-53012887D01*
X87632543Y-53029862D01*
X87680316Y-53249470D01*
X87682834Y-53266982D01*
X87699184Y-53495581D01*
X87699500Y-53504427D01*
X87699500Y-84611563D01*
X87679815Y-84678602D01*
X87627011Y-84724357D01*
X87557853Y-84734301D01*
X87534629Y-84728113D01*
X87534611Y-84728176D01*
X87532117Y-84727443D01*
X87529735Y-84726809D01*
X87529108Y-84726560D01*
X87462078Y-84706877D01*
X87462072Y-84706876D01*
X87376000Y-84694500D01*
X87190755Y-84694500D01*
X87186902Y-84694879D01*
X87131174Y-84700366D01*
X87131164Y-84700368D01*
X87131159Y-84700368D01*
X87131158Y-84700369D01*
X87116397Y-84703305D01*
X87083702Y-84709808D01*
X87081579Y-84710340D01*
X87067651Y-84712991D01*
X87016185Y-84719767D01*
X86983815Y-84719767D01*
X86932351Y-84712992D01*
X86918416Y-84710339D01*
X86916313Y-84709812D01*
X86901552Y-84706876D01*
X86868843Y-84700370D01*
X86868839Y-84700369D01*
X86868831Y-84700368D01*
X86820806Y-84695638D01*
X86809245Y-84694500D01*
X81190755Y-84694500D01*
X81186902Y-84694879D01*
X81131174Y-84700366D01*
X81131164Y-84700368D01*
X81131159Y-84700368D01*
X81131158Y-84700369D01*
X81116397Y-84703305D01*
X81083702Y-84709808D01*
X81081579Y-84710340D01*
X81067651Y-84712991D01*
X81016185Y-84719767D01*
X80983815Y-84719767D01*
X80932351Y-84712992D01*
X80918416Y-84710339D01*
X80916313Y-84709812D01*
X80901552Y-84706876D01*
X80868843Y-84700370D01*
X80868839Y-84700369D01*
X80868831Y-84700368D01*
X80820806Y-84695638D01*
X80809245Y-84694500D01*
X80674000Y-84694500D01*
X80673991Y-84694500D01*
X80673990Y-84694501D01*
X80609064Y-84701481D01*
X80609052Y-84701483D01*
X80557546Y-84712688D01*
X80519345Y-84723644D01*
X80519341Y-84723646D01*
X80422431Y-84780323D01*
X80422428Y-84780325D01*
X80369623Y-84826081D01*
X80369612Y-84826091D01*
X80327451Y-84870807D01*
X80327445Y-84870816D01*
X80276560Y-84970890D01*
X80256877Y-85037921D01*
X80244500Y-85124002D01*
X80244500Y-85133920D01*
X80224815Y-85200959D01*
X80172011Y-85246714D01*
X80102853Y-85256658D01*
X80064300Y-85244453D01*
X80029109Y-85226560D01*
X80029110Y-85226560D01*
X79962078Y-85206877D01*
X79962072Y-85206876D01*
X79876000Y-85194500D01*
X79875997Y-85194500D01*
X79056901Y-85194500D01*
X78989862Y-85174815D01*
X78944107Y-85122011D01*
X78934163Y-85052853D01*
X78936310Y-85037921D01*
X78950389Y-84940000D01*
X78930930Y-84804658D01*
X78895667Y-84727443D01*
X78874131Y-84680285D01*
X78874126Y-84680278D01*
X78784589Y-84576946D01*
X78784585Y-84576942D01*
X78669558Y-84503021D01*
X78538367Y-84464500D01*
X78538366Y-84464500D01*
X78401632Y-84464500D01*
X78401630Y-84464500D01*
X78385323Y-84469288D01*
X78315453Y-84469288D01*
X78256675Y-84431513D01*
X78243351Y-84412912D01*
X78219676Y-84372431D01*
X78219674Y-84372428D01*
X78211552Y-84363055D01*
X78173920Y-84319625D01*
X78173918Y-84319623D01*
X78173908Y-84319612D01*
X78137247Y-84285046D01*
X78101974Y-84224734D01*
X78104908Y-84154926D01*
X78107745Y-84147390D01*
X78111974Y-84137183D01*
X78130035Y-84000000D01*
X79519610Y-84000000D01*
X79539068Y-84135337D01*
X79539070Y-84135345D01*
X79595867Y-84259714D01*
X79595872Y-84259721D01*
X79685409Y-84363053D01*
X79685413Y-84363057D01*
X79745979Y-84401979D01*
X79800439Y-84436978D01*
X79866036Y-84456239D01*
X79931632Y-84475500D01*
X79931633Y-84475500D01*
X80068367Y-84475500D01*
X80199561Y-84436978D01*
X80314589Y-84363055D01*
X80404130Y-84259718D01*
X80460931Y-84135342D01*
X80480390Y-84000000D01*
X80460931Y-83864658D01*
X80415426Y-83765016D01*
X80404132Y-83740285D01*
X80404127Y-83740278D01*
X80314590Y-83636946D01*
X80314586Y-83636942D01*
X80199559Y-83563021D01*
X80068368Y-83524500D01*
X80068367Y-83524500D01*
X79931633Y-83524500D01*
X79931632Y-83524500D01*
X79800440Y-83563021D01*
X79685413Y-83636942D01*
X79685409Y-83636946D01*
X79595872Y-83740278D01*
X79595867Y-83740285D01*
X79539070Y-83864654D01*
X79539068Y-83864662D01*
X79519610Y-84000000D01*
X78130035Y-84000000D01*
X78111974Y-83862817D01*
X78059024Y-83734983D01*
X77974791Y-83625209D01*
X77974789Y-83625208D01*
X77974789Y-83625207D01*
X77865015Y-83540974D01*
X77737186Y-83488027D01*
X77737184Y-83488026D01*
X77737183Y-83488026D01*
X77626539Y-83473459D01*
X77600001Y-83469965D01*
X77599999Y-83469965D01*
X77462815Y-83488026D01*
X77397451Y-83515100D01*
X77327981Y-83522567D01*
X77302549Y-83515100D01*
X77237184Y-83488026D01*
X77100001Y-83469965D01*
X77099999Y-83469965D01*
X76962815Y-83488026D01*
X76897451Y-83515100D01*
X76827981Y-83522567D01*
X76802549Y-83515100D01*
X76737184Y-83488026D01*
X76600001Y-83469965D01*
X76599999Y-83469965D01*
X76462815Y-83488026D01*
X76397451Y-83515100D01*
X76327981Y-83522567D01*
X76302549Y-83515100D01*
X76237184Y-83488026D01*
X76100001Y-83469965D01*
X76099999Y-83469965D01*
X75962815Y-83488026D01*
X75897451Y-83515100D01*
X75827981Y-83522567D01*
X75802549Y-83515100D01*
X75737181Y-83488025D01*
X75720869Y-83485877D01*
X75656973Y-83457608D01*
X75618505Y-83399282D01*
X75614122Y-83379137D01*
X75611974Y-83362817D01*
X75584898Y-83297451D01*
X75577430Y-83227983D01*
X75584897Y-83202551D01*
X75611974Y-83137183D01*
X75630035Y-83000000D01*
X75611974Y-82862817D01*
X75559024Y-82734983D01*
X75474791Y-82625209D01*
X75474789Y-82625208D01*
X75474789Y-82625207D01*
X75365015Y-82540974D01*
X75237186Y-82488027D01*
X75237184Y-82488026D01*
X75237183Y-82488026D01*
X75145727Y-82475985D01*
X75100001Y-82469965D01*
X75099999Y-82469965D01*
X75031408Y-82478995D01*
X74962817Y-82488026D01*
X74962816Y-82488026D01*
X74962813Y-82488027D01*
X74834985Y-82540974D01*
X74725209Y-82625209D01*
X74640974Y-82734985D01*
X74588027Y-82862813D01*
X74588026Y-82862818D01*
X74569965Y-82999999D01*
X74569965Y-83000000D01*
X74588026Y-83137184D01*
X74615100Y-83202549D01*
X74622567Y-83272019D01*
X74615100Y-83297451D01*
X74588026Y-83362815D01*
X74571541Y-83488026D01*
X74569965Y-83500000D01*
X74587994Y-83636942D01*
X74588026Y-83637181D01*
X74588027Y-83637186D01*
X74640974Y-83765015D01*
X74640975Y-83765016D01*
X74640976Y-83765018D01*
X74725209Y-83874791D01*
X74834982Y-83959024D01*
X74916562Y-83992815D01*
X74970964Y-84036654D01*
X74993030Y-84102947D01*
X74975752Y-84170647D01*
X74924615Y-84218258D01*
X74907526Y-84225274D01*
X74878597Y-84234700D01*
X74817278Y-84268181D01*
X74747667Y-84320290D01*
X74747653Y-84320302D01*
X74537329Y-84530626D01*
X74519528Y-84550031D01*
X74505843Y-84566302D01*
X74505844Y-84566303D01*
X74505417Y-84566810D01*
X74469146Y-84631293D01*
X74419123Y-84680072D01*
X74361071Y-84694500D01*
X74190755Y-84694500D01*
X74186902Y-84694879D01*
X74131174Y-84700366D01*
X74131164Y-84700368D01*
X74131159Y-84700368D01*
X74131158Y-84700369D01*
X74116397Y-84703305D01*
X74083702Y-84709808D01*
X74081579Y-84710340D01*
X74067651Y-84712991D01*
X74016185Y-84719767D01*
X73983815Y-84719767D01*
X73932351Y-84712992D01*
X73918416Y-84710339D01*
X73916313Y-84709812D01*
X73901552Y-84706876D01*
X73868843Y-84700370D01*
X73868839Y-84700369D01*
X73868831Y-84700368D01*
X73820806Y-84695638D01*
X73809245Y-84694500D01*
X68190755Y-84694500D01*
X68186902Y-84694879D01*
X68131174Y-84700366D01*
X68131164Y-84700368D01*
X68131159Y-84700368D01*
X68131158Y-84700369D01*
X68116397Y-84703305D01*
X68083702Y-84709808D01*
X68081579Y-84710340D01*
X68067651Y-84712991D01*
X68016185Y-84719767D01*
X67983815Y-84719767D01*
X67932351Y-84712992D01*
X67918416Y-84710339D01*
X67916313Y-84709812D01*
X67901552Y-84706876D01*
X67868843Y-84700370D01*
X67868839Y-84700369D01*
X67868831Y-84700368D01*
X67820806Y-84695638D01*
X67809245Y-84694500D01*
X67674000Y-84694500D01*
X67673991Y-84694500D01*
X67673990Y-84694501D01*
X67609064Y-84701481D01*
X67609052Y-84701483D01*
X67557546Y-84712688D01*
X67519345Y-84723644D01*
X67519341Y-84723646D01*
X67422431Y-84780323D01*
X67422428Y-84780325D01*
X67369623Y-84826081D01*
X67369612Y-84826091D01*
X67327451Y-84870807D01*
X67327445Y-84870816D01*
X67276560Y-84970890D01*
X67256877Y-85037921D01*
X67244500Y-85124002D01*
X67244500Y-85133920D01*
X67224815Y-85200959D01*
X67172011Y-85246714D01*
X67102853Y-85256658D01*
X67064300Y-85244453D01*
X67029109Y-85226560D01*
X67029110Y-85226560D01*
X66962078Y-85206877D01*
X66962072Y-85206876D01*
X66876000Y-85194500D01*
X66875997Y-85194500D01*
X66056902Y-85194500D01*
X65989863Y-85174815D01*
X65944108Y-85122011D01*
X65934164Y-85052853D01*
X65936311Y-85037921D01*
X65950390Y-84940000D01*
X65930931Y-84804658D01*
X65895668Y-84727443D01*
X65874132Y-84680285D01*
X65874127Y-84680278D01*
X65784590Y-84576946D01*
X65784586Y-84576942D01*
X65669559Y-84503021D01*
X65538368Y-84464500D01*
X65538367Y-84464500D01*
X65401633Y-84464500D01*
X65385322Y-84469289D01*
X65315452Y-84469287D01*
X65256674Y-84431512D01*
X65243351Y-84412912D01*
X65219676Y-84372431D01*
X65219674Y-84372428D01*
X65211552Y-84363055D01*
X65173920Y-84319625D01*
X65173918Y-84319623D01*
X65173908Y-84319612D01*
X65129192Y-84277451D01*
X65129189Y-84277449D01*
X65129187Y-84277447D01*
X65129182Y-84277444D01*
X65129180Y-84277443D01*
X65080205Y-84252540D01*
X65029369Y-84204608D01*
X65012517Y-84136801D01*
X65013467Y-84125836D01*
X65030035Y-84000000D01*
X66519610Y-84000000D01*
X66539068Y-84135337D01*
X66539070Y-84135345D01*
X66595867Y-84259714D01*
X66595872Y-84259721D01*
X66685409Y-84363053D01*
X66685413Y-84363057D01*
X66745979Y-84401979D01*
X66800439Y-84436978D01*
X66866036Y-84456239D01*
X66931632Y-84475500D01*
X66931633Y-84475500D01*
X67068367Y-84475500D01*
X67199561Y-84436978D01*
X67314589Y-84363055D01*
X67404130Y-84259718D01*
X67460931Y-84135342D01*
X67480390Y-84000000D01*
X67460931Y-83864658D01*
X67415426Y-83765016D01*
X67404132Y-83740285D01*
X67404127Y-83740278D01*
X67314590Y-83636946D01*
X67314586Y-83636942D01*
X67199559Y-83563021D01*
X67068368Y-83524500D01*
X67068367Y-83524500D01*
X66931633Y-83524500D01*
X66931632Y-83524500D01*
X66800440Y-83563021D01*
X66685413Y-83636942D01*
X66685409Y-83636946D01*
X66595872Y-83740278D01*
X66595867Y-83740285D01*
X66539070Y-83864654D01*
X66539068Y-83864662D01*
X66519610Y-84000000D01*
X65030035Y-84000000D01*
X65011974Y-83862817D01*
X64959024Y-83734983D01*
X64874791Y-83625209D01*
X64874789Y-83625208D01*
X64874789Y-83625207D01*
X64765015Y-83540974D01*
X64637186Y-83488027D01*
X64637184Y-83488026D01*
X64637183Y-83488026D01*
X64526539Y-83473459D01*
X64500001Y-83469965D01*
X64499999Y-83469965D01*
X64362815Y-83488026D01*
X64297451Y-83515100D01*
X64227981Y-83522567D01*
X64202549Y-83515100D01*
X64137184Y-83488026D01*
X64000001Y-83469965D01*
X63999999Y-83469965D01*
X63862815Y-83488026D01*
X63797451Y-83515100D01*
X63727981Y-83522567D01*
X63702549Y-83515100D01*
X63637184Y-83488026D01*
X63500001Y-83469965D01*
X63499999Y-83469965D01*
X63362815Y-83488026D01*
X63297451Y-83515100D01*
X63227981Y-83522567D01*
X63202549Y-83515100D01*
X63137184Y-83488026D01*
X63000001Y-83469965D01*
X62999999Y-83469965D01*
X62862815Y-83488026D01*
X62797451Y-83515100D01*
X62727981Y-83522567D01*
X62702549Y-83515100D01*
X62637181Y-83488025D01*
X62620869Y-83485877D01*
X62556973Y-83457608D01*
X62518505Y-83399282D01*
X62514122Y-83379137D01*
X62511974Y-83362817D01*
X62484898Y-83297451D01*
X62477430Y-83227983D01*
X62484897Y-83202551D01*
X62511974Y-83137183D01*
X62530035Y-83000000D01*
X62511974Y-82862817D01*
X62459024Y-82734983D01*
X62374791Y-82625209D01*
X62374789Y-82625208D01*
X62374789Y-82625207D01*
X62265015Y-82540974D01*
X62137186Y-82488027D01*
X62137184Y-82488026D01*
X62137183Y-82488026D01*
X62045727Y-82475985D01*
X62000001Y-82469965D01*
X61999999Y-82469965D01*
X61931408Y-82478995D01*
X61862817Y-82488026D01*
X61862816Y-82488026D01*
X61862813Y-82488027D01*
X61734985Y-82540974D01*
X61625209Y-82625209D01*
X61540974Y-82734985D01*
X61488027Y-82862813D01*
X61488026Y-82862818D01*
X61469965Y-82999999D01*
X61469965Y-83000000D01*
X61488026Y-83137184D01*
X61515100Y-83202549D01*
X61522567Y-83272019D01*
X61515100Y-83297451D01*
X61488026Y-83362815D01*
X61471541Y-83488026D01*
X61469965Y-83500000D01*
X61487994Y-83636942D01*
X61488026Y-83637181D01*
X61488027Y-83637186D01*
X61540974Y-83765015D01*
X61540975Y-83765016D01*
X61540976Y-83765018D01*
X61625209Y-83874791D01*
X61734982Y-83959024D01*
X61862817Y-84011974D01*
X61862822Y-84011974D01*
X61864286Y-84012581D01*
X61918690Y-84056422D01*
X61940756Y-84122715D01*
X61923478Y-84190415D01*
X61876260Y-84235976D01*
X61817278Y-84268181D01*
X61747667Y-84320290D01*
X61747653Y-84320302D01*
X61537329Y-84530626D01*
X61519528Y-84550031D01*
X61505843Y-84566302D01*
X61505844Y-84566303D01*
X61505417Y-84566810D01*
X61469146Y-84631293D01*
X61419123Y-84680072D01*
X61361071Y-84694500D01*
X61190755Y-84694500D01*
X61186902Y-84694879D01*
X61131174Y-84700366D01*
X61131164Y-84700368D01*
X61131159Y-84700368D01*
X61131158Y-84700369D01*
X61116397Y-84703305D01*
X61083702Y-84709808D01*
X61081579Y-84710340D01*
X61067651Y-84712991D01*
X61016185Y-84719767D01*
X60983815Y-84719767D01*
X60932351Y-84712992D01*
X60918416Y-84710339D01*
X60916313Y-84709812D01*
X60901552Y-84706876D01*
X60868843Y-84700370D01*
X60868839Y-84700369D01*
X60868831Y-84700368D01*
X60820806Y-84695638D01*
X60809245Y-84694500D01*
X55190755Y-84694500D01*
X55186902Y-84694879D01*
X55131174Y-84700366D01*
X55131164Y-84700368D01*
X55131159Y-84700368D01*
X55131158Y-84700369D01*
X55116397Y-84703305D01*
X55083702Y-84709808D01*
X55081579Y-84710340D01*
X55067651Y-84712991D01*
X55016185Y-84719767D01*
X54983815Y-84719767D01*
X54932351Y-84712992D01*
X54918416Y-84710339D01*
X54916313Y-84709812D01*
X54901552Y-84706876D01*
X54868843Y-84700370D01*
X54868839Y-84700369D01*
X54868831Y-84700368D01*
X54820806Y-84695638D01*
X54809245Y-84694500D01*
X54674000Y-84694500D01*
X54673991Y-84694500D01*
X54673990Y-84694501D01*
X54609064Y-84701481D01*
X54609052Y-84701483D01*
X54557546Y-84712688D01*
X54519345Y-84723644D01*
X54519341Y-84723646D01*
X54422431Y-84780323D01*
X54422428Y-84780325D01*
X54369623Y-84826081D01*
X54369612Y-84826091D01*
X54327451Y-84870807D01*
X54327445Y-84870816D01*
X54276560Y-84970890D01*
X54256877Y-85037921D01*
X54244500Y-85124002D01*
X54244500Y-85133920D01*
X54224815Y-85200959D01*
X54172011Y-85246714D01*
X54102853Y-85256658D01*
X54064300Y-85244453D01*
X54029109Y-85226560D01*
X54029110Y-85226560D01*
X53962078Y-85206877D01*
X53962072Y-85206876D01*
X53876000Y-85194500D01*
X53875997Y-85194500D01*
X53056902Y-85194500D01*
X52989863Y-85174815D01*
X52944108Y-85122011D01*
X52934164Y-85052853D01*
X52936311Y-85037921D01*
X52950390Y-84940000D01*
X52930931Y-84804658D01*
X52895668Y-84727443D01*
X52874132Y-84680285D01*
X52874127Y-84680278D01*
X52784590Y-84576946D01*
X52784586Y-84576942D01*
X52669559Y-84503021D01*
X52538368Y-84464500D01*
X52538367Y-84464500D01*
X52401633Y-84464500D01*
X52385322Y-84469289D01*
X52315452Y-84469287D01*
X52256674Y-84431512D01*
X52243351Y-84412912D01*
X52219676Y-84372431D01*
X52219674Y-84372428D01*
X52211552Y-84363055D01*
X52173920Y-84319625D01*
X52173918Y-84319623D01*
X52173908Y-84319612D01*
X52129192Y-84277451D01*
X52129189Y-84277449D01*
X52129187Y-84277447D01*
X52129182Y-84277444D01*
X52129180Y-84277443D01*
X52080205Y-84252540D01*
X52029369Y-84204608D01*
X52012517Y-84136801D01*
X52013467Y-84125836D01*
X52030035Y-84000000D01*
X53769610Y-84000000D01*
X53789068Y-84135337D01*
X53789070Y-84135345D01*
X53845867Y-84259714D01*
X53845872Y-84259721D01*
X53935409Y-84363053D01*
X53935413Y-84363057D01*
X53995979Y-84401979D01*
X54050439Y-84436978D01*
X54116036Y-84456239D01*
X54181632Y-84475500D01*
X54181633Y-84475500D01*
X54318367Y-84475500D01*
X54449561Y-84436978D01*
X54564589Y-84363055D01*
X54654130Y-84259718D01*
X54710931Y-84135342D01*
X54730390Y-84000000D01*
X54710931Y-83864658D01*
X54665426Y-83765016D01*
X54654132Y-83740285D01*
X54654127Y-83740278D01*
X54564590Y-83636946D01*
X54564586Y-83636942D01*
X54449559Y-83563021D01*
X54318368Y-83524500D01*
X54318367Y-83524500D01*
X54181633Y-83524500D01*
X54181632Y-83524500D01*
X54050440Y-83563021D01*
X53935413Y-83636942D01*
X53935409Y-83636946D01*
X53845872Y-83740278D01*
X53845867Y-83740285D01*
X53789070Y-83864654D01*
X53789068Y-83864662D01*
X53769610Y-84000000D01*
X52030035Y-84000000D01*
X52011974Y-83862817D01*
X51959024Y-83734983D01*
X51874791Y-83625209D01*
X51874789Y-83625208D01*
X51874789Y-83625207D01*
X51765015Y-83540974D01*
X51637186Y-83488027D01*
X51637184Y-83488026D01*
X51637183Y-83488026D01*
X51526539Y-83473459D01*
X51500001Y-83469965D01*
X51499999Y-83469965D01*
X51362815Y-83488026D01*
X51297451Y-83515100D01*
X51227981Y-83522567D01*
X51202549Y-83515100D01*
X51137184Y-83488026D01*
X51000001Y-83469965D01*
X50999999Y-83469965D01*
X50862815Y-83488026D01*
X50797451Y-83515100D01*
X50727981Y-83522567D01*
X50702549Y-83515100D01*
X50637184Y-83488026D01*
X50500001Y-83469965D01*
X50499999Y-83469965D01*
X50362815Y-83488026D01*
X50297451Y-83515100D01*
X50227981Y-83522567D01*
X50202549Y-83515100D01*
X50137184Y-83488026D01*
X50000001Y-83469965D01*
X49999999Y-83469965D01*
X49862815Y-83488026D01*
X49797451Y-83515100D01*
X49727981Y-83522567D01*
X49702549Y-83515100D01*
X49637181Y-83488025D01*
X49620869Y-83485877D01*
X49556973Y-83457608D01*
X49518505Y-83399282D01*
X49514122Y-83379137D01*
X49511974Y-83362817D01*
X49484898Y-83297451D01*
X49477430Y-83227983D01*
X49484897Y-83202551D01*
X49511974Y-83137183D01*
X49530035Y-83000000D01*
X49511974Y-82862817D01*
X49459024Y-82734983D01*
X49374791Y-82625209D01*
X49374789Y-82625208D01*
X49374789Y-82625207D01*
X49265015Y-82540974D01*
X49137186Y-82488027D01*
X49137184Y-82488026D01*
X49137183Y-82488026D01*
X49045727Y-82475985D01*
X49000001Y-82469965D01*
X48999999Y-82469965D01*
X48931408Y-82478995D01*
X48862817Y-82488026D01*
X48862816Y-82488026D01*
X48862813Y-82488027D01*
X48734985Y-82540974D01*
X48625209Y-82625209D01*
X48540973Y-82734986D01*
X48539060Y-82739607D01*
X48495219Y-82794010D01*
X48428924Y-82816074D01*
X48361225Y-82798794D01*
X48313615Y-82747656D01*
X48300500Y-82692153D01*
X48300500Y-81750000D01*
X55269610Y-81750000D01*
X55289068Y-81885337D01*
X55289070Y-81885345D01*
X55345867Y-82009714D01*
X55345872Y-82009721D01*
X55435409Y-82113053D01*
X55435413Y-82113057D01*
X55495979Y-82151979D01*
X55550439Y-82186978D01*
X55616036Y-82206239D01*
X55681632Y-82225500D01*
X55681633Y-82225500D01*
X55818367Y-82225500D01*
X55949561Y-82186978D01*
X56064589Y-82113055D01*
X56154130Y-82009718D01*
X56210931Y-81885342D01*
X56230390Y-81750000D01*
X81269610Y-81750000D01*
X81289068Y-81885337D01*
X81289070Y-81885345D01*
X81345867Y-82009714D01*
X81345872Y-82009721D01*
X81435409Y-82113053D01*
X81435413Y-82113057D01*
X81495979Y-82151979D01*
X81550439Y-82186978D01*
X81616036Y-82206239D01*
X81681632Y-82225500D01*
X81681633Y-82225500D01*
X81818367Y-82225500D01*
X81949561Y-82186978D01*
X82064589Y-82113055D01*
X82154130Y-82009718D01*
X82210931Y-81885342D01*
X82230390Y-81750000D01*
X82210931Y-81614658D01*
X82163008Y-81509721D01*
X82154132Y-81490285D01*
X82154127Y-81490278D01*
X82064590Y-81386946D01*
X82064586Y-81386942D01*
X81949559Y-81313021D01*
X81818368Y-81274500D01*
X81818367Y-81274500D01*
X81681633Y-81274500D01*
X81681632Y-81274500D01*
X81550440Y-81313021D01*
X81435413Y-81386942D01*
X81435409Y-81386946D01*
X81345872Y-81490278D01*
X81345867Y-81490285D01*
X81289070Y-81614654D01*
X81289068Y-81614662D01*
X81269610Y-81750000D01*
X56230390Y-81750000D01*
X56210931Y-81614658D01*
X56163008Y-81509721D01*
X56154132Y-81490285D01*
X56154127Y-81490278D01*
X56064590Y-81386946D01*
X56064586Y-81386942D01*
X55949559Y-81313021D01*
X55818368Y-81274500D01*
X55818367Y-81274500D01*
X55681633Y-81274500D01*
X55681632Y-81274500D01*
X55550440Y-81313021D01*
X55435413Y-81386942D01*
X55435409Y-81386946D01*
X55345872Y-81490278D01*
X55345867Y-81490285D01*
X55289070Y-81614654D01*
X55289068Y-81614662D01*
X55269610Y-81750000D01*
X48300500Y-81750000D01*
X48300500Y-81000000D01*
X64019610Y-81000000D01*
X64039068Y-81135337D01*
X64039070Y-81135345D01*
X64095867Y-81259714D01*
X64095872Y-81259721D01*
X64185409Y-81363053D01*
X64185413Y-81363057D01*
X64245979Y-81401979D01*
X64300439Y-81436978D01*
X64366036Y-81456239D01*
X64431632Y-81475500D01*
X64431633Y-81475500D01*
X64568367Y-81475500D01*
X64699561Y-81436978D01*
X64814589Y-81363055D01*
X64904130Y-81259718D01*
X64908568Y-81250000D01*
X68019610Y-81250000D01*
X68039068Y-81385337D01*
X68039070Y-81385345D01*
X68095867Y-81509714D01*
X68095872Y-81509721D01*
X68185409Y-81613053D01*
X68185413Y-81613057D01*
X68245979Y-81651979D01*
X68300439Y-81686978D01*
X68366036Y-81706239D01*
X68431632Y-81725500D01*
X68431633Y-81725500D01*
X68568367Y-81725500D01*
X68699561Y-81686978D01*
X68814589Y-81613055D01*
X68904130Y-81509718D01*
X68960931Y-81385342D01*
X68980390Y-81250000D01*
X68960931Y-81114658D01*
X68948677Y-81087827D01*
X68904132Y-80990285D01*
X68904127Y-80990278D01*
X68814590Y-80886946D01*
X68814586Y-80886942D01*
X68699559Y-80813021D01*
X68568368Y-80774500D01*
X68568367Y-80774500D01*
X68431633Y-80774500D01*
X68431632Y-80774500D01*
X68300440Y-80813021D01*
X68185413Y-80886942D01*
X68185409Y-80886946D01*
X68095872Y-80990278D01*
X68095867Y-80990285D01*
X68039070Y-81114654D01*
X68039068Y-81114662D01*
X68019610Y-81250000D01*
X64908568Y-81250000D01*
X64960931Y-81135342D01*
X64980390Y-81000000D01*
X64960931Y-80864658D01*
X64948677Y-80837827D01*
X64904132Y-80740285D01*
X64904127Y-80740278D01*
X64814590Y-80636946D01*
X64814586Y-80636942D01*
X64699559Y-80563021D01*
X64568368Y-80524500D01*
X64568367Y-80524500D01*
X64431633Y-80524500D01*
X64431632Y-80524500D01*
X64300440Y-80563021D01*
X64185413Y-80636942D01*
X64185409Y-80636946D01*
X64095872Y-80740278D01*
X64095867Y-80740285D01*
X64039070Y-80864654D01*
X64039068Y-80864662D01*
X64019610Y-81000000D01*
X48300500Y-81000000D01*
X48300500Y-76500000D01*
X75769610Y-76500000D01*
X75789068Y-76635337D01*
X75789070Y-76635345D01*
X75845867Y-76759714D01*
X75845872Y-76759721D01*
X75935409Y-76863053D01*
X75935413Y-76863057D01*
X75995979Y-76901979D01*
X76050439Y-76936978D01*
X76116036Y-76956239D01*
X76181632Y-76975500D01*
X76259591Y-76975500D01*
X76326630Y-76995185D01*
X76353304Y-77018298D01*
X76435409Y-77113053D01*
X76435413Y-77113057D01*
X76495979Y-77151979D01*
X76550439Y-77186978D01*
X76616036Y-77206239D01*
X76681632Y-77225500D01*
X76681633Y-77225500D01*
X76818367Y-77225500D01*
X76949561Y-77186978D01*
X77064589Y-77113055D01*
X77112331Y-77057956D01*
X77146696Y-77018298D01*
X77205474Y-76980523D01*
X77240409Y-76975500D01*
X77259590Y-76975500D01*
X77326629Y-76995185D01*
X77353303Y-77018298D01*
X77435408Y-77113053D01*
X77435412Y-77113057D01*
X77495978Y-77151979D01*
X77550438Y-77186978D01*
X77616035Y-77206239D01*
X77681631Y-77225500D01*
X77681632Y-77225500D01*
X77818366Y-77225500D01*
X77949560Y-77186978D01*
X78064588Y-77113055D01*
X78112330Y-77057956D01*
X78146695Y-77018298D01*
X78205473Y-76980523D01*
X78240408Y-76975500D01*
X78259591Y-76975500D01*
X78326630Y-76995185D01*
X78353304Y-77018298D01*
X78435409Y-77113053D01*
X78435413Y-77113057D01*
X78495979Y-77151979D01*
X78550439Y-77186978D01*
X78616036Y-77206239D01*
X78681632Y-77225500D01*
X78681633Y-77225500D01*
X78818367Y-77225500D01*
X78949561Y-77186978D01*
X79064589Y-77113055D01*
X79112331Y-77057956D01*
X79146696Y-77018298D01*
X79205474Y-76980523D01*
X79240409Y-76975500D01*
X79259591Y-76975500D01*
X79326630Y-76995185D01*
X79353304Y-77018298D01*
X79435409Y-77113053D01*
X79435413Y-77113057D01*
X79495979Y-77151979D01*
X79550439Y-77186978D01*
X79616036Y-77206239D01*
X79681632Y-77225500D01*
X79681633Y-77225500D01*
X79818367Y-77225500D01*
X79949561Y-77186978D01*
X80064589Y-77113055D01*
X80112331Y-77057956D01*
X80146696Y-77018298D01*
X80205474Y-76980523D01*
X80240409Y-76975500D01*
X80259593Y-76975500D01*
X80326632Y-76995185D01*
X80353306Y-77018298D01*
X80435410Y-77113052D01*
X80435414Y-77113056D01*
X80495980Y-77151978D01*
X80550440Y-77186977D01*
X80616037Y-77206238D01*
X80681633Y-77225499D01*
X80681634Y-77225499D01*
X80818368Y-77225499D01*
X80949562Y-77186977D01*
X81064590Y-77113054D01*
X81154131Y-77009717D01*
X81210932Y-76885341D01*
X81230391Y-76749999D01*
X81210932Y-76614657D01*
X81158570Y-76500000D01*
X81154133Y-76490284D01*
X81154128Y-76490277D01*
X81064591Y-76386945D01*
X81064587Y-76386941D01*
X80949560Y-76313020D01*
X80818369Y-76274499D01*
X80818368Y-76274499D01*
X80740408Y-76274499D01*
X80673369Y-76254814D01*
X80646695Y-76231701D01*
X80564590Y-76136946D01*
X80564586Y-76136942D01*
X80449559Y-76063021D01*
X80318368Y-76024500D01*
X80318367Y-76024500D01*
X80181633Y-76024500D01*
X80181632Y-76024500D01*
X80050440Y-76063021D01*
X79935413Y-76136942D01*
X79935409Y-76136946D01*
X79853304Y-76231702D01*
X79794526Y-76269477D01*
X79759591Y-76274500D01*
X79740409Y-76274500D01*
X79673370Y-76254815D01*
X79646696Y-76231702D01*
X79564590Y-76136946D01*
X79564586Y-76136942D01*
X79449559Y-76063021D01*
X79318368Y-76024500D01*
X79318367Y-76024500D01*
X79181633Y-76024500D01*
X79181632Y-76024500D01*
X79050440Y-76063021D01*
X78935413Y-76136942D01*
X78935409Y-76136946D01*
X78853304Y-76231702D01*
X78794526Y-76269477D01*
X78759591Y-76274500D01*
X78740409Y-76274500D01*
X78673370Y-76254815D01*
X78646696Y-76231702D01*
X78564590Y-76136946D01*
X78564586Y-76136942D01*
X78449559Y-76063021D01*
X78318368Y-76024500D01*
X78318367Y-76024500D01*
X78181633Y-76024500D01*
X78181632Y-76024500D01*
X78050440Y-76063021D01*
X77935413Y-76136942D01*
X77935409Y-76136946D01*
X77853304Y-76231702D01*
X77794526Y-76269477D01*
X77759591Y-76274500D01*
X77740409Y-76274500D01*
X77673370Y-76254815D01*
X77646696Y-76231702D01*
X77564590Y-76136946D01*
X77564586Y-76136942D01*
X77449559Y-76063021D01*
X77318368Y-76024500D01*
X77318367Y-76024500D01*
X77181633Y-76024500D01*
X77181632Y-76024500D01*
X77050440Y-76063021D01*
X76935413Y-76136942D01*
X76935409Y-76136946D01*
X76853304Y-76231702D01*
X76794526Y-76269477D01*
X76759591Y-76274500D01*
X76740409Y-76274500D01*
X76673370Y-76254815D01*
X76646696Y-76231702D01*
X76564590Y-76136946D01*
X76564586Y-76136942D01*
X76449559Y-76063021D01*
X76318368Y-76024500D01*
X76318367Y-76024500D01*
X76181633Y-76024500D01*
X76181632Y-76024500D01*
X76050440Y-76063021D01*
X75935413Y-76136942D01*
X75935409Y-76136946D01*
X75845872Y-76240278D01*
X75845867Y-76240285D01*
X75789070Y-76364654D01*
X75789068Y-76364662D01*
X75769610Y-76500000D01*
X48300500Y-76500000D01*
X48300500Y-72625000D01*
X56419652Y-72625000D01*
X56433767Y-72885345D01*
X56439028Y-72982368D01*
X56439029Y-72982385D01*
X56496926Y-73335539D01*
X56496932Y-73335565D01*
X56592672Y-73680392D01*
X56592674Y-73680399D01*
X56725142Y-74012870D01*
X56725151Y-74012888D01*
X56892784Y-74329077D01*
X56892787Y-74329082D01*
X56892789Y-74329085D01*
X57086409Y-74614654D01*
X57093634Y-74625309D01*
X57093641Y-74625319D01*
X57325331Y-74898085D01*
X57325332Y-74898086D01*
X57585163Y-75144211D01*
X57870081Y-75360800D01*
X58176747Y-75545315D01*
X58176749Y-75545316D01*
X58176751Y-75545317D01*
X58176755Y-75545319D01*
X58482948Y-75686978D01*
X58501565Y-75695591D01*
X58840726Y-75809868D01*
X59190254Y-75886805D01*
X59546052Y-75925500D01*
X59546058Y-75925500D01*
X59903942Y-75925500D01*
X59903948Y-75925500D01*
X60259746Y-75886805D01*
X60609274Y-75809868D01*
X60948435Y-75695591D01*
X61273253Y-75545315D01*
X61579919Y-75360800D01*
X61864837Y-75144211D01*
X62124668Y-74898086D01*
X62356365Y-74625311D01*
X62557211Y-74329085D01*
X62724853Y-74012880D01*
X62857324Y-73680403D01*
X62953071Y-73335552D01*
X62967096Y-73250000D01*
X74269610Y-73250000D01*
X74289068Y-73385337D01*
X74289070Y-73385345D01*
X74345867Y-73509714D01*
X74345872Y-73509721D01*
X74435409Y-73613053D01*
X74435413Y-73613057D01*
X74463471Y-73631088D01*
X74509227Y-73683891D01*
X74517460Y-73741132D01*
X74519610Y-73741132D01*
X74519610Y-73758868D01*
X74517459Y-73758868D01*
X74509224Y-73816115D01*
X74463474Y-73868909D01*
X74435414Y-73886942D01*
X74435409Y-73886946D01*
X74345870Y-73990282D01*
X74345867Y-73990285D01*
X74289070Y-74114654D01*
X74289068Y-74114662D01*
X74269610Y-74250000D01*
X74289068Y-74385337D01*
X74289070Y-74385345D01*
X74345867Y-74509714D01*
X74345872Y-74509721D01*
X74435409Y-74613053D01*
X74435413Y-74613057D01*
X74463471Y-74631088D01*
X74509227Y-74683891D01*
X74517460Y-74741132D01*
X74519610Y-74741132D01*
X74519610Y-74758868D01*
X74517459Y-74758868D01*
X74509224Y-74816115D01*
X74463474Y-74868909D01*
X74435414Y-74886942D01*
X74435409Y-74886946D01*
X74345870Y-74990282D01*
X74345867Y-74990285D01*
X74289070Y-75114654D01*
X74289068Y-75114662D01*
X74269610Y-75250000D01*
X74289068Y-75385337D01*
X74289070Y-75385345D01*
X74345867Y-75509714D01*
X74345872Y-75509721D01*
X74435409Y-75613053D01*
X74435413Y-75613057D01*
X74495979Y-75651979D01*
X74550439Y-75686978D01*
X74616036Y-75706239D01*
X74681632Y-75725500D01*
X74681633Y-75725500D01*
X74818367Y-75725500D01*
X74949561Y-75686978D01*
X75064589Y-75613055D01*
X75154130Y-75509718D01*
X75210931Y-75385342D01*
X75230390Y-75250000D01*
X75230390Y-75249998D01*
X75230390Y-75241131D01*
X75232544Y-75241131D01*
X75240767Y-75183904D01*
X75286513Y-75131097D01*
X75314589Y-75113055D01*
X75404130Y-75009718D01*
X75460931Y-74885342D01*
X75480390Y-74750000D01*
X75460931Y-74614658D01*
X75413008Y-74509721D01*
X75404132Y-74490285D01*
X75404130Y-74490283D01*
X75404130Y-74490282D01*
X75314589Y-74386945D01*
X75286526Y-74368910D01*
X75240772Y-74316107D01*
X75232542Y-74258869D01*
X75230390Y-74258869D01*
X75230390Y-74241131D01*
X75232544Y-74241131D01*
X75240767Y-74183904D01*
X75286513Y-74131097D01*
X75314589Y-74113055D01*
X75404130Y-74009718D01*
X75460931Y-73885342D01*
X75480390Y-73750000D01*
X75460931Y-73614658D01*
X75413008Y-73509721D01*
X75404132Y-73490285D01*
X75404130Y-73490283D01*
X75404130Y-73490282D01*
X75314589Y-73386945D01*
X75286526Y-73368910D01*
X75240772Y-73316107D01*
X75232542Y-73258869D01*
X75230390Y-73258869D01*
X75230390Y-73241131D01*
X75232544Y-73241131D01*
X75240767Y-73183904D01*
X75286513Y-73131097D01*
X75314589Y-73113055D01*
X75404130Y-73009718D01*
X75460931Y-72885342D01*
X75480390Y-72750000D01*
X75460931Y-72614658D01*
X75413008Y-72509721D01*
X75404132Y-72490285D01*
X75404127Y-72490278D01*
X75314590Y-72386946D01*
X75314586Y-72386942D01*
X75199559Y-72313021D01*
X75068368Y-72274500D01*
X75068367Y-72274500D01*
X74931633Y-72274500D01*
X74931632Y-72274500D01*
X74800440Y-72313021D01*
X74685413Y-72386942D01*
X74685409Y-72386946D01*
X74595872Y-72490278D01*
X74595867Y-72490285D01*
X74539070Y-72614654D01*
X74539068Y-72614662D01*
X74519610Y-72750000D01*
X74519610Y-72758868D01*
X74517459Y-72758868D01*
X74509224Y-72816115D01*
X74463474Y-72868909D01*
X74435414Y-72886942D01*
X74435409Y-72886946D01*
X74345870Y-72990282D01*
X74345867Y-72990285D01*
X74289070Y-73114654D01*
X74289068Y-73114662D01*
X74269610Y-73250000D01*
X62967096Y-73250000D01*
X62989285Y-73114654D01*
X63010970Y-72982385D01*
X63010970Y-72982382D01*
X63010972Y-72982371D01*
X63030348Y-72625000D01*
X63029787Y-72614662D01*
X63024098Y-72509721D01*
X63010972Y-72267629D01*
X62988588Y-72131095D01*
X62953073Y-71914460D01*
X62953072Y-71914459D01*
X62953071Y-71914448D01*
X62889057Y-71683889D01*
X62857327Y-71569607D01*
X62857325Y-71569600D01*
X62724857Y-71237129D01*
X62724848Y-71237111D01*
X62557215Y-70920922D01*
X62557213Y-70920919D01*
X62557211Y-70920915D01*
X62356365Y-70624689D01*
X62356361Y-70624684D01*
X62356358Y-70624680D01*
X62124668Y-70351914D01*
X62075705Y-70305534D01*
X61885118Y-70125000D01*
X81519610Y-70125000D01*
X81539068Y-70260337D01*
X81539070Y-70260345D01*
X81595867Y-70384714D01*
X81595872Y-70384721D01*
X81685409Y-70488053D01*
X81685411Y-70488055D01*
X81729924Y-70516661D01*
X81775679Y-70569465D01*
X81785623Y-70638623D01*
X81785623Y-70638624D01*
X81769610Y-70750000D01*
X81769610Y-70758869D01*
X81767457Y-70758869D01*
X81759227Y-70816104D01*
X81713473Y-70868908D01*
X81685413Y-70886941D01*
X81685409Y-70886944D01*
X81595872Y-70990276D01*
X81595867Y-70990283D01*
X81539070Y-71114652D01*
X81539068Y-71114660D01*
X81519610Y-71249998D01*
X81539068Y-71385335D01*
X81539070Y-71385343D01*
X81595867Y-71509712D01*
X81595872Y-71509719D01*
X81685409Y-71613051D01*
X81685413Y-71613055D01*
X81713471Y-71631086D01*
X81759227Y-71683889D01*
X81767461Y-71741132D01*
X81769610Y-71741132D01*
X81769610Y-71758869D01*
X81767458Y-71758869D01*
X81759225Y-71816112D01*
X81713474Y-71868909D01*
X81685414Y-71886942D01*
X81685409Y-71886946D01*
X81595870Y-71990282D01*
X81595867Y-71990285D01*
X81539070Y-72114654D01*
X81539068Y-72114662D01*
X81519610Y-72250000D01*
X81539068Y-72385337D01*
X81539070Y-72385345D01*
X81595867Y-72509714D01*
X81595872Y-72509721D01*
X81685409Y-72613053D01*
X81685413Y-72613057D01*
X81713471Y-72631088D01*
X81759227Y-72683891D01*
X81767460Y-72741132D01*
X81769610Y-72741132D01*
X81769610Y-72758868D01*
X81767459Y-72758868D01*
X81759224Y-72816115D01*
X81713474Y-72868909D01*
X81685414Y-72886942D01*
X81685409Y-72886946D01*
X81595870Y-72990282D01*
X81595867Y-72990285D01*
X81539070Y-73114654D01*
X81539068Y-73114662D01*
X81519610Y-73250000D01*
X81539068Y-73385337D01*
X81539070Y-73385345D01*
X81595867Y-73509714D01*
X81595872Y-73509721D01*
X81685409Y-73613053D01*
X81685413Y-73613057D01*
X81713471Y-73631088D01*
X81759227Y-73683891D01*
X81767460Y-73741132D01*
X81769610Y-73741132D01*
X81769610Y-73758868D01*
X81767459Y-73758868D01*
X81759224Y-73816115D01*
X81713474Y-73868909D01*
X81685414Y-73886942D01*
X81685409Y-73886946D01*
X81595870Y-73990282D01*
X81595867Y-73990285D01*
X81539070Y-74114654D01*
X81539068Y-74114662D01*
X81519610Y-74250000D01*
X81539068Y-74385337D01*
X81539070Y-74385345D01*
X81595867Y-74509714D01*
X81595872Y-74509721D01*
X81685409Y-74613053D01*
X81685413Y-74613057D01*
X81713471Y-74631088D01*
X81759227Y-74683891D01*
X81767460Y-74741132D01*
X81769610Y-74741132D01*
X81769610Y-74758868D01*
X81767459Y-74758868D01*
X81759224Y-74816115D01*
X81713474Y-74868909D01*
X81685414Y-74886942D01*
X81685409Y-74886946D01*
X81595870Y-74990282D01*
X81595867Y-74990285D01*
X81539070Y-75114654D01*
X81539068Y-75114662D01*
X81519610Y-75250000D01*
X81539068Y-75385337D01*
X81539070Y-75385345D01*
X81595867Y-75509714D01*
X81595872Y-75509721D01*
X81685409Y-75613053D01*
X81685413Y-75613057D01*
X81745979Y-75651979D01*
X81800439Y-75686978D01*
X81866036Y-75706239D01*
X81931632Y-75725500D01*
X81931633Y-75725500D01*
X82068367Y-75725500D01*
X82199561Y-75686978D01*
X82314589Y-75613055D01*
X82404130Y-75509718D01*
X82460931Y-75385342D01*
X82480390Y-75250000D01*
X82480390Y-75249998D01*
X82480390Y-75241131D01*
X82482544Y-75241131D01*
X82490767Y-75183904D01*
X82536513Y-75131097D01*
X82564589Y-75113055D01*
X82654130Y-75009718D01*
X82710931Y-74885342D01*
X82730390Y-74750000D01*
X82710931Y-74614658D01*
X82663008Y-74509721D01*
X82654132Y-74490285D01*
X82654130Y-74490283D01*
X82654130Y-74490282D01*
X82564589Y-74386945D01*
X82536526Y-74368910D01*
X82490772Y-74316107D01*
X82482542Y-74258869D01*
X82480390Y-74258869D01*
X82480390Y-74241131D01*
X82482544Y-74241131D01*
X82490767Y-74183904D01*
X82536513Y-74131097D01*
X82564589Y-74113055D01*
X82654130Y-74009718D01*
X82710931Y-73885342D01*
X82730390Y-73750000D01*
X82710931Y-73614658D01*
X82663008Y-73509721D01*
X82654132Y-73490285D01*
X82654130Y-73490283D01*
X82654130Y-73490282D01*
X82564589Y-73386945D01*
X82536526Y-73368910D01*
X82490772Y-73316107D01*
X82482542Y-73258869D01*
X82480390Y-73258869D01*
X82480390Y-73241131D01*
X82482544Y-73241131D01*
X82490767Y-73183904D01*
X82536513Y-73131097D01*
X82564589Y-73113055D01*
X82654130Y-73009718D01*
X82710931Y-72885342D01*
X82730390Y-72750000D01*
X82710931Y-72614658D01*
X82663008Y-72509721D01*
X82654132Y-72490285D01*
X82654130Y-72490283D01*
X82654130Y-72490282D01*
X82564589Y-72386945D01*
X82536526Y-72368910D01*
X82490772Y-72316107D01*
X82482542Y-72258869D01*
X82480390Y-72258869D01*
X82480390Y-72241131D01*
X82482544Y-72241131D01*
X82490767Y-72183904D01*
X82536513Y-72131097D01*
X82564589Y-72113055D01*
X82654130Y-72009718D01*
X82710931Y-71885342D01*
X82730390Y-71750000D01*
X82710931Y-71614658D01*
X82663007Y-71509719D01*
X82654132Y-71490285D01*
X82654130Y-71490283D01*
X82654130Y-71490282D01*
X82564589Y-71386945D01*
X82536526Y-71368910D01*
X82490772Y-71316107D01*
X82482542Y-71258867D01*
X82480390Y-71258867D01*
X82480390Y-71241129D01*
X82482546Y-71241129D01*
X82490764Y-71183909D01*
X82536511Y-71131099D01*
X82536512Y-71131098D01*
X82564589Y-71113055D01*
X82654130Y-71009718D01*
X82710931Y-70885342D01*
X82730390Y-70750000D01*
X82710931Y-70614658D01*
X82666177Y-70516661D01*
X82654132Y-70490285D01*
X82654127Y-70490278D01*
X82564590Y-70386946D01*
X82564589Y-70386945D01*
X82520074Y-70358337D01*
X82474320Y-70305534D01*
X82464376Y-70236378D01*
X82480390Y-70125000D01*
X82460931Y-69989658D01*
X82436873Y-69936978D01*
X82404132Y-69865285D01*
X82404127Y-69865278D01*
X82314590Y-69761946D01*
X82314586Y-69761942D01*
X82199559Y-69688021D01*
X82068368Y-69649500D01*
X82068367Y-69649500D01*
X81931633Y-69649500D01*
X81931632Y-69649500D01*
X81800440Y-69688021D01*
X81685413Y-69761942D01*
X81685409Y-69761946D01*
X81595872Y-69865278D01*
X81595867Y-69865285D01*
X81539070Y-69989654D01*
X81539068Y-69989662D01*
X81519610Y-70125000D01*
X61885118Y-70125000D01*
X61864837Y-70105789D01*
X61864830Y-70105783D01*
X61864827Y-70105781D01*
X61797245Y-70054407D01*
X61579919Y-69889200D01*
X61273253Y-69704685D01*
X61273252Y-69704684D01*
X61273248Y-69704682D01*
X61273244Y-69704680D01*
X60948447Y-69554414D01*
X60948441Y-69554411D01*
X60948435Y-69554409D01*
X60786956Y-69500000D01*
X76269610Y-69500000D01*
X76289068Y-69635337D01*
X76289070Y-69635345D01*
X76345867Y-69759714D01*
X76345872Y-69759721D01*
X76435409Y-69863053D01*
X76435413Y-69863057D01*
X76476092Y-69889199D01*
X76550439Y-69936978D01*
X76616036Y-69956239D01*
X76681632Y-69975500D01*
X76681633Y-69975500D01*
X76818367Y-69975500D01*
X76949561Y-69936978D01*
X77064589Y-69863055D01*
X77112331Y-69807956D01*
X77146696Y-69768298D01*
X77205474Y-69730523D01*
X77240409Y-69725500D01*
X77259591Y-69725500D01*
X77326630Y-69745185D01*
X77353304Y-69768298D01*
X77435409Y-69863053D01*
X77435413Y-69863057D01*
X77476092Y-69889199D01*
X77550439Y-69936978D01*
X77616036Y-69956239D01*
X77681632Y-69975500D01*
X77681633Y-69975500D01*
X77818367Y-69975500D01*
X77949561Y-69936978D01*
X78064589Y-69863055D01*
X78112331Y-69807956D01*
X78146696Y-69768298D01*
X78205474Y-69730523D01*
X78240409Y-69725500D01*
X78259591Y-69725500D01*
X78326630Y-69745185D01*
X78353304Y-69768298D01*
X78435409Y-69863053D01*
X78435413Y-69863057D01*
X78476092Y-69889199D01*
X78550439Y-69936978D01*
X78616036Y-69956239D01*
X78681632Y-69975500D01*
X78681633Y-69975500D01*
X78818367Y-69975500D01*
X78949561Y-69936978D01*
X79064589Y-69863055D01*
X79112331Y-69807956D01*
X79146696Y-69768298D01*
X79205474Y-69730523D01*
X79240409Y-69725500D01*
X79318365Y-69725500D01*
X79449559Y-69686978D01*
X79564587Y-69613055D01*
X79654128Y-69509718D01*
X79710929Y-69385342D01*
X79730388Y-69250000D01*
X79710929Y-69114658D01*
X79698675Y-69087827D01*
X79654130Y-68990285D01*
X79654125Y-68990278D01*
X79564588Y-68886946D01*
X79564584Y-68886942D01*
X79449557Y-68813021D01*
X79318366Y-68774500D01*
X79318365Y-68774500D01*
X79181631Y-68774500D01*
X79181630Y-68774500D01*
X79050438Y-68813021D01*
X78935411Y-68886942D01*
X78935407Y-68886946D01*
X78853302Y-68981702D01*
X78794524Y-69019477D01*
X78759589Y-69024500D01*
X78740409Y-69024500D01*
X78673370Y-69004815D01*
X78646696Y-68981702D01*
X78564590Y-68886946D01*
X78564586Y-68886942D01*
X78449559Y-68813021D01*
X78318368Y-68774500D01*
X78318367Y-68774500D01*
X78181633Y-68774500D01*
X78181632Y-68774500D01*
X78050440Y-68813021D01*
X77935413Y-68886942D01*
X77935409Y-68886946D01*
X77853304Y-68981702D01*
X77794526Y-69019477D01*
X77759591Y-69024500D01*
X77740409Y-69024500D01*
X77673370Y-69004815D01*
X77646696Y-68981702D01*
X77564590Y-68886946D01*
X77564586Y-68886942D01*
X77449559Y-68813021D01*
X77318368Y-68774500D01*
X77318367Y-68774500D01*
X77181633Y-68774500D01*
X77181632Y-68774500D01*
X77050440Y-68813021D01*
X76935413Y-68886942D01*
X76935409Y-68886946D01*
X76853304Y-68981702D01*
X76794526Y-69019477D01*
X76759591Y-69024500D01*
X76681632Y-69024500D01*
X76550440Y-69063021D01*
X76435413Y-69136942D01*
X76435409Y-69136946D01*
X76345872Y-69240278D01*
X76345867Y-69240285D01*
X76289070Y-69364654D01*
X76289068Y-69364662D01*
X76269610Y-69500000D01*
X60786956Y-69500000D01*
X60778854Y-69497270D01*
X60609273Y-69440131D01*
X60259744Y-69363194D01*
X59903949Y-69324500D01*
X59903948Y-69324500D01*
X59546052Y-69324500D01*
X59546050Y-69324500D01*
X59190255Y-69363194D01*
X58840726Y-69440131D01*
X58584970Y-69526306D01*
X58501565Y-69554409D01*
X58501563Y-69554410D01*
X58501552Y-69554414D01*
X58176755Y-69704680D01*
X58176751Y-69704682D01*
X58071021Y-69768298D01*
X57870081Y-69889200D01*
X57807230Y-69936978D01*
X57585172Y-70105781D01*
X57585163Y-70105789D01*
X57325331Y-70351914D01*
X57093641Y-70624680D01*
X57093634Y-70624690D01*
X56892790Y-70920913D01*
X56892784Y-70920922D01*
X56725151Y-71237111D01*
X56725142Y-71237129D01*
X56592674Y-71569600D01*
X56592672Y-71569607D01*
X56496932Y-71914434D01*
X56496926Y-71914460D01*
X56439029Y-72267614D01*
X56439028Y-72267627D01*
X56439028Y-72267629D01*
X56436567Y-72313021D01*
X56420213Y-72614662D01*
X56419652Y-72625000D01*
X48300500Y-72625000D01*
X48300500Y-68125000D01*
X81794610Y-68125000D01*
X81814068Y-68260337D01*
X81814070Y-68260345D01*
X81870867Y-68384714D01*
X81870872Y-68384721D01*
X81960409Y-68488053D01*
X81960413Y-68488057D01*
X82020979Y-68526979D01*
X82075439Y-68561978D01*
X82141036Y-68581239D01*
X82206632Y-68600500D01*
X82206633Y-68600500D01*
X82343367Y-68600500D01*
X82474561Y-68561978D01*
X82589589Y-68488055D01*
X82679130Y-68384718D01*
X82735931Y-68260342D01*
X82755390Y-68125000D01*
X82735931Y-67989658D01*
X82723677Y-67962827D01*
X82679132Y-67865285D01*
X82679127Y-67865278D01*
X82589590Y-67761946D01*
X82589586Y-67761942D01*
X82474559Y-67688021D01*
X82343368Y-67649500D01*
X82343367Y-67649500D01*
X82206633Y-67649500D01*
X82206632Y-67649500D01*
X82075440Y-67688021D01*
X81960413Y-67761942D01*
X81960409Y-67761946D01*
X81870872Y-67865278D01*
X81870867Y-67865285D01*
X81814070Y-67989654D01*
X81814068Y-67989662D01*
X81794610Y-68125000D01*
X48300500Y-68125000D01*
X48300500Y-64810000D01*
X56674570Y-64810000D01*
X56694243Y-65022310D01*
X56752593Y-65227387D01*
X56752595Y-65227392D01*
X56752595Y-65227394D01*
X56847631Y-65418253D01*
X56976125Y-65588405D01*
X56976127Y-65588407D01*
X57133697Y-65732052D01*
X57314980Y-65844298D01*
X57513801Y-65921321D01*
X57723389Y-65960500D01*
X57723391Y-65960500D01*
X57936607Y-65960500D01*
X57936609Y-65960500D01*
X58146197Y-65921321D01*
X58345018Y-65844298D01*
X58526301Y-65732052D01*
X58683871Y-65588407D01*
X58812365Y-65418255D01*
X58907404Y-65227389D01*
X58965755Y-65022310D01*
X58976527Y-64906052D01*
X59002313Y-64841117D01*
X59044629Y-64810804D01*
X59153118Y-64810804D01*
X59189501Y-64831674D01*
X59221691Y-64893686D01*
X59223469Y-64906053D01*
X59226822Y-64942237D01*
X59234242Y-65022310D01*
X59292592Y-65227387D01*
X59292594Y-65227392D01*
X59292594Y-65227394D01*
X59387630Y-65418253D01*
X59516124Y-65588405D01*
X59516126Y-65588407D01*
X59673696Y-65732052D01*
X59854979Y-65844298D01*
X60053800Y-65921321D01*
X60263388Y-65960500D01*
X60263390Y-65960500D01*
X60476606Y-65960500D01*
X60476608Y-65960500D01*
X60686196Y-65921321D01*
X60885017Y-65844298D01*
X61066300Y-65732052D01*
X61223870Y-65588407D01*
X61352364Y-65418255D01*
X61447403Y-65227389D01*
X61505754Y-65022310D01*
X61516526Y-64906052D01*
X61542312Y-64841116D01*
X61584628Y-64810803D01*
X61693117Y-64810803D01*
X61729500Y-64831673D01*
X61761690Y-64893685D01*
X61763468Y-64906052D01*
X61774241Y-65022308D01*
X61832593Y-65227390D01*
X61832593Y-65227392D01*
X61927629Y-65418251D01*
X62056124Y-65588404D01*
X62056125Y-65588405D01*
X62213695Y-65732050D01*
X62394978Y-65844296D01*
X62593799Y-65921319D01*
X62803387Y-65960498D01*
X62803389Y-65960498D01*
X63016605Y-65960498D01*
X63016607Y-65960498D01*
X63226195Y-65921319D01*
X63425016Y-65844296D01*
X63606299Y-65732050D01*
X63763869Y-65588405D01*
X63892363Y-65418253D01*
X63987399Y-65227394D01*
X63987400Y-65227392D01*
X63987400Y-65227391D01*
X63987402Y-65227387D01*
X64045753Y-65022308D01*
X64056526Y-64906039D01*
X64082312Y-64841104D01*
X64124613Y-64810801D01*
X64233135Y-64810801D01*
X64269500Y-64831661D01*
X64301690Y-64893673D01*
X64303468Y-64906041D01*
X64314242Y-65022309D01*
X64372594Y-65227391D01*
X64372594Y-65227393D01*
X64467630Y-65418252D01*
X64596124Y-65588404D01*
X64596126Y-65588406D01*
X64753696Y-65732051D01*
X64934979Y-65844297D01*
X65133800Y-65921320D01*
X65343388Y-65960499D01*
X65343390Y-65960499D01*
X65556606Y-65960499D01*
X65556608Y-65960499D01*
X65766196Y-65921320D01*
X65965017Y-65844297D01*
X66146300Y-65732051D01*
X66303870Y-65588406D01*
X66432364Y-65418254D01*
X66432365Y-65418251D01*
X66527401Y-65227393D01*
X66527401Y-65227392D01*
X66527403Y-65227388D01*
X66585754Y-65022309D01*
X66596527Y-64906046D01*
X66622313Y-64841110D01*
X66664620Y-64810803D01*
X66773128Y-64810803D01*
X66809501Y-64831667D01*
X66841691Y-64893680D01*
X66843469Y-64906047D01*
X66854242Y-65022309D01*
X66912594Y-65227391D01*
X66912594Y-65227393D01*
X67007630Y-65418252D01*
X67136124Y-65588404D01*
X67136126Y-65588406D01*
X67293696Y-65732051D01*
X67474979Y-65844297D01*
X67673800Y-65921320D01*
X67883388Y-65960499D01*
X67883390Y-65960499D01*
X68096606Y-65960499D01*
X68096608Y-65960499D01*
X68306196Y-65921320D01*
X68505017Y-65844297D01*
X68686300Y-65732051D01*
X68843870Y-65588406D01*
X68972364Y-65418254D01*
X68972365Y-65418251D01*
X69067401Y-65227393D01*
X69067401Y-65227392D01*
X69067403Y-65227388D01*
X69125754Y-65022309D01*
X69136527Y-64906046D01*
X69162313Y-64841110D01*
X69204620Y-64810803D01*
X69313128Y-64810803D01*
X69349501Y-64831667D01*
X69381691Y-64893680D01*
X69383469Y-64906047D01*
X69394242Y-65022309D01*
X69452594Y-65227391D01*
X69452594Y-65227393D01*
X69547630Y-65418252D01*
X69676124Y-65588404D01*
X69676126Y-65588406D01*
X69833696Y-65732051D01*
X70014979Y-65844297D01*
X70213800Y-65921320D01*
X70423388Y-65960499D01*
X70423390Y-65960499D01*
X70636606Y-65960499D01*
X70636608Y-65960499D01*
X70846196Y-65921320D01*
X71045017Y-65844297D01*
X71226300Y-65732051D01*
X71383870Y-65588406D01*
X71512364Y-65418254D01*
X71512365Y-65418251D01*
X71607401Y-65227393D01*
X71607401Y-65227392D01*
X71607403Y-65227388D01*
X71665754Y-65022309D01*
X71676527Y-64906046D01*
X71702311Y-64841111D01*
X71744620Y-64810803D01*
X71853126Y-64810803D01*
X71889499Y-64831667D01*
X71921690Y-64893680D01*
X71923468Y-64906047D01*
X71926822Y-64942237D01*
X71934242Y-65022310D01*
X71992592Y-65227387D01*
X71992594Y-65227392D01*
X71992594Y-65227394D01*
X72087630Y-65418253D01*
X72216124Y-65588405D01*
X72216126Y-65588407D01*
X72373696Y-65732052D01*
X72554979Y-65844298D01*
X72753800Y-65921321D01*
X72963388Y-65960500D01*
X72963390Y-65960500D01*
X73176606Y-65960500D01*
X73176608Y-65960500D01*
X73386196Y-65921321D01*
X73585017Y-65844298D01*
X73766300Y-65732052D01*
X73923870Y-65588407D01*
X74052364Y-65418255D01*
X74147403Y-65227389D01*
X74205754Y-65022310D01*
X74216527Y-64906047D01*
X74242313Y-64841111D01*
X74284621Y-64810803D01*
X74393126Y-64810803D01*
X74429501Y-64831668D01*
X74461691Y-64893681D01*
X74463469Y-64906048D01*
X74474242Y-65022309D01*
X74532594Y-65227391D01*
X74532594Y-65227393D01*
X74627630Y-65418252D01*
X74756124Y-65588404D01*
X74756126Y-65588406D01*
X74913696Y-65732051D01*
X75094979Y-65844297D01*
X75293800Y-65921320D01*
X75503388Y-65960499D01*
X75503390Y-65960499D01*
X75716606Y-65960499D01*
X75716608Y-65960499D01*
X75926196Y-65921320D01*
X76125017Y-65844297D01*
X76306300Y-65732051D01*
X76463870Y-65588406D01*
X76592364Y-65418254D01*
X76592365Y-65418251D01*
X76687401Y-65227393D01*
X76687401Y-65227392D01*
X76687403Y-65227388D01*
X76745754Y-65022309D01*
X76752027Y-64954604D01*
X76777812Y-64889668D01*
X76834612Y-64848980D01*
X76904393Y-64845460D01*
X76965000Y-64880224D01*
X76997191Y-64942237D01*
X76999498Y-64966046D01*
X76999498Y-65704855D01*
X76999500Y-65704881D01*
X77002411Y-65729986D01*
X77002413Y-65729990D01*
X77047791Y-65832763D01*
X77047792Y-65832764D01*
X77127233Y-65912205D01*
X77230007Y-65957584D01*
X77255133Y-65960499D01*
X79044862Y-65960498D01*
X79044877Y-65960496D01*
X79044880Y-65960496D01*
X79069985Y-65957585D01*
X79069986Y-65957584D01*
X79069989Y-65957584D01*
X79172763Y-65912205D01*
X79252204Y-65832764D01*
X79297583Y-65729990D01*
X79300498Y-65704864D01*
X79300497Y-63915135D01*
X79300495Y-63915116D01*
X79297584Y-63890011D01*
X79297583Y-63890009D01*
X79297583Y-63890008D01*
X79252204Y-63787234D01*
X79172763Y-63707793D01*
X79152122Y-63698679D01*
X79069990Y-63662414D01*
X79044863Y-63659499D01*
X77255141Y-63659499D01*
X77255115Y-63659501D01*
X77230010Y-63662412D01*
X77230006Y-63662414D01*
X77127233Y-63707792D01*
X77047792Y-63787233D01*
X77002413Y-63890005D01*
X77002413Y-63890007D01*
X76999498Y-63915130D01*
X76999498Y-64653950D01*
X76979813Y-64720989D01*
X76927009Y-64766744D01*
X76857851Y-64776688D01*
X76794295Y-64747663D01*
X76756521Y-64688885D01*
X76752027Y-64665390D01*
X76745754Y-64597688D01*
X76731271Y-64546788D01*
X76687403Y-64392610D01*
X76687401Y-64392605D01*
X76687401Y-64392604D01*
X76592365Y-64201745D01*
X76463870Y-64031592D01*
X76336131Y-63915142D01*
X76306300Y-63887947D01*
X76125017Y-63775701D01*
X76125015Y-63775700D01*
X76025606Y-63737189D01*
X75926196Y-63698678D01*
X75716608Y-63659499D01*
X75503388Y-63659499D01*
X75293800Y-63698678D01*
X75293797Y-63698678D01*
X75293797Y-63698679D01*
X75094980Y-63775700D01*
X75094978Y-63775701D01*
X74913697Y-63887946D01*
X74756125Y-64031592D01*
X74627630Y-64201745D01*
X74532594Y-64392604D01*
X74532594Y-64392606D01*
X74474242Y-64597688D01*
X74463468Y-64713951D01*
X74437681Y-64778888D01*
X74393126Y-64810803D01*
X74284621Y-64810803D01*
X74286867Y-64809194D01*
X74250493Y-64788329D01*
X74218304Y-64726316D01*
X74216527Y-64713955D01*
X74205754Y-64597690D01*
X74205753Y-64597688D01*
X74191271Y-64546789D01*
X74147403Y-64392611D01*
X74147401Y-64392606D01*
X74147401Y-64392605D01*
X74052365Y-64201746D01*
X73923870Y-64031593D01*
X73923868Y-64031591D01*
X73766300Y-63887948D01*
X73585017Y-63775702D01*
X73585015Y-63775701D01*
X73409722Y-63707793D01*
X73386196Y-63698679D01*
X73176608Y-63659500D01*
X72963388Y-63659500D01*
X72753800Y-63698679D01*
X72753797Y-63698679D01*
X72753797Y-63698680D01*
X72554980Y-63775701D01*
X72554978Y-63775702D01*
X72373697Y-63887947D01*
X72216125Y-64031593D01*
X72087630Y-64201746D01*
X71992594Y-64392605D01*
X71992594Y-64392607D01*
X71934242Y-64597689D01*
X71923469Y-64713950D01*
X71897683Y-64778887D01*
X71853126Y-64810803D01*
X71744620Y-64810803D01*
X71746867Y-64809193D01*
X71710495Y-64788330D01*
X71678305Y-64726317D01*
X71676527Y-64713950D01*
X71670967Y-64653950D01*
X71665754Y-64597689D01*
X71607403Y-64392610D01*
X71607401Y-64392605D01*
X71607401Y-64392604D01*
X71512365Y-64201745D01*
X71383870Y-64031592D01*
X71256131Y-63915142D01*
X71226300Y-63887947D01*
X71045017Y-63775701D01*
X71045015Y-63775700D01*
X70945606Y-63737189D01*
X70846196Y-63698678D01*
X70636608Y-63659499D01*
X70423388Y-63659499D01*
X70213800Y-63698678D01*
X70213797Y-63698678D01*
X70213797Y-63698679D01*
X70014980Y-63775700D01*
X70014978Y-63775701D01*
X69833697Y-63887946D01*
X69676125Y-64031592D01*
X69547630Y-64201745D01*
X69452594Y-64392604D01*
X69452594Y-64392606D01*
X69394242Y-64597688D01*
X69383469Y-64713950D01*
X69357683Y-64778887D01*
X69313128Y-64810803D01*
X69204620Y-64810803D01*
X69206867Y-64809193D01*
X69170495Y-64788330D01*
X69138305Y-64726317D01*
X69136527Y-64713950D01*
X69130967Y-64653950D01*
X69125754Y-64597689D01*
X69067403Y-64392610D01*
X69067401Y-64392605D01*
X69067401Y-64392604D01*
X68972365Y-64201745D01*
X68843870Y-64031592D01*
X68716131Y-63915142D01*
X68686300Y-63887947D01*
X68505017Y-63775701D01*
X68505015Y-63775700D01*
X68405606Y-63737189D01*
X68306196Y-63698678D01*
X68096608Y-63659499D01*
X67883388Y-63659499D01*
X67673800Y-63698678D01*
X67673797Y-63698678D01*
X67673797Y-63698679D01*
X67474980Y-63775700D01*
X67474978Y-63775701D01*
X67293697Y-63887946D01*
X67136125Y-64031592D01*
X67007630Y-64201745D01*
X66912594Y-64392604D01*
X66912594Y-64392606D01*
X66854242Y-64597688D01*
X66843469Y-64713950D01*
X66817683Y-64778887D01*
X66773128Y-64810803D01*
X66664620Y-64810803D01*
X66666867Y-64809193D01*
X66630495Y-64788330D01*
X66598305Y-64726317D01*
X66596527Y-64713950D01*
X66590967Y-64653950D01*
X66585754Y-64597689D01*
X66527403Y-64392610D01*
X66527401Y-64392605D01*
X66527401Y-64392604D01*
X66432365Y-64201745D01*
X66303870Y-64031592D01*
X66176131Y-63915142D01*
X66146300Y-63887947D01*
X65965017Y-63775701D01*
X65965015Y-63775700D01*
X65865606Y-63737189D01*
X65766196Y-63698678D01*
X65556608Y-63659499D01*
X65343388Y-63659499D01*
X65133800Y-63698678D01*
X65133797Y-63698678D01*
X65133797Y-63698679D01*
X64934980Y-63775700D01*
X64934978Y-63775701D01*
X64753697Y-63887946D01*
X64596125Y-64031592D01*
X64467630Y-64201745D01*
X64372594Y-64392604D01*
X64372594Y-64392606D01*
X64314242Y-64597688D01*
X64303468Y-64713956D01*
X64277682Y-64778893D01*
X64233135Y-64810801D01*
X64124613Y-64810801D01*
X64126858Y-64809193D01*
X64090494Y-64788334D01*
X64058304Y-64726322D01*
X64056527Y-64713964D01*
X64045753Y-64597688D01*
X63987402Y-64392609D01*
X63987400Y-64392604D01*
X63987400Y-64392603D01*
X63892364Y-64201744D01*
X63763869Y-64031591D01*
X63636131Y-63915142D01*
X63606299Y-63887946D01*
X63425016Y-63775700D01*
X63425014Y-63775699D01*
X63249726Y-63707793D01*
X63226195Y-63698677D01*
X63016607Y-63659498D01*
X62803387Y-63659498D01*
X62593799Y-63698677D01*
X62593796Y-63698677D01*
X62593796Y-63698678D01*
X62394979Y-63775699D01*
X62394977Y-63775700D01*
X62213696Y-63887945D01*
X62056124Y-64031591D01*
X61927629Y-64201744D01*
X61832593Y-64392603D01*
X61832593Y-64392605D01*
X61774241Y-64597687D01*
X61763468Y-64713945D01*
X61737682Y-64778882D01*
X61693117Y-64810803D01*
X61584628Y-64810803D01*
X61586875Y-64809193D01*
X61550494Y-64788324D01*
X61518304Y-64726311D01*
X61516526Y-64713944D01*
X61510967Y-64653950D01*
X61505754Y-64597690D01*
X61447403Y-64392611D01*
X61447401Y-64392606D01*
X61447401Y-64392605D01*
X61352365Y-64201746D01*
X61223870Y-64031593D01*
X61223868Y-64031591D01*
X61066300Y-63887948D01*
X60885017Y-63775702D01*
X60885015Y-63775701D01*
X60709722Y-63707793D01*
X60686196Y-63698679D01*
X60476608Y-63659500D01*
X60263388Y-63659500D01*
X60053800Y-63698679D01*
X60053797Y-63698679D01*
X60053797Y-63698680D01*
X59854980Y-63775701D01*
X59854978Y-63775702D01*
X59673697Y-63887947D01*
X59516125Y-64031593D01*
X59387630Y-64201746D01*
X59292594Y-64392605D01*
X59292594Y-64392607D01*
X59234242Y-64597689D01*
X59223469Y-64713946D01*
X59197683Y-64778883D01*
X59153118Y-64810804D01*
X59044629Y-64810804D01*
X59046876Y-64809194D01*
X59010495Y-64788324D01*
X58978305Y-64726312D01*
X58976527Y-64713945D01*
X58972028Y-64665390D01*
X58965755Y-64597690D01*
X58907404Y-64392611D01*
X58907402Y-64392606D01*
X58907402Y-64392605D01*
X58812366Y-64201746D01*
X58683871Y-64031593D01*
X58683869Y-64031591D01*
X58526301Y-63887948D01*
X58345018Y-63775702D01*
X58345016Y-63775701D01*
X58169723Y-63707793D01*
X58146197Y-63698679D01*
X57936609Y-63659500D01*
X57723389Y-63659500D01*
X57513801Y-63698679D01*
X57513798Y-63698679D01*
X57513798Y-63698680D01*
X57314981Y-63775701D01*
X57314979Y-63775702D01*
X57133698Y-63887947D01*
X56976126Y-64031593D01*
X56847631Y-64201746D01*
X56752595Y-64392605D01*
X56752595Y-64392607D01*
X56694243Y-64597689D01*
X56676579Y-64788324D01*
X56674570Y-64810000D01*
X48300500Y-64810000D01*
X48300500Y-55500000D01*
X48894615Y-55500000D01*
X48914140Y-55847688D01*
X48914142Y-55847700D01*
X48972472Y-56191009D01*
X48972474Y-56191017D01*
X48994637Y-56267945D01*
X49068879Y-56525644D01*
X49202145Y-56847376D01*
X49370595Y-57152164D01*
X49572112Y-57436176D01*
X49804161Y-57695839D01*
X50063824Y-57927888D01*
X50347836Y-58129405D01*
X50652624Y-58297855D01*
X50974356Y-58431121D01*
X51308987Y-58527527D01*
X51652307Y-58585859D01*
X52000000Y-58605385D01*
X52347693Y-58585859D01*
X52691013Y-58527527D01*
X53025644Y-58431121D01*
X53347376Y-58297855D01*
X53652164Y-58129405D01*
X53936176Y-57927888D01*
X54195839Y-57695839D01*
X54427888Y-57436176D01*
X54602560Y-57189999D01*
X56674570Y-57189999D01*
X56694243Y-57402309D01*
X56752593Y-57607386D01*
X56752595Y-57607391D01*
X56752595Y-57607393D01*
X56847631Y-57798252D01*
X56976125Y-57968404D01*
X56976127Y-57968406D01*
X57133697Y-58112051D01*
X57314980Y-58224297D01*
X57513801Y-58301320D01*
X57723389Y-58340499D01*
X57723391Y-58340499D01*
X57936607Y-58340499D01*
X57936609Y-58340499D01*
X58146197Y-58301320D01*
X58345018Y-58224297D01*
X58526301Y-58112051D01*
X58683871Y-57968406D01*
X58812365Y-57798254D01*
X58907404Y-57607388D01*
X58965755Y-57402309D01*
X58976527Y-57286051D01*
X59002313Y-57221116D01*
X59044629Y-57190803D01*
X59153118Y-57190803D01*
X59189501Y-57211673D01*
X59221691Y-57273685D01*
X59223469Y-57286052D01*
X59234242Y-57402307D01*
X59234242Y-57402309D01*
X59292592Y-57607386D01*
X59292594Y-57607391D01*
X59292594Y-57607393D01*
X59387630Y-57798252D01*
X59516124Y-57968404D01*
X59516126Y-57968406D01*
X59673696Y-58112051D01*
X59854979Y-58224297D01*
X60053800Y-58301320D01*
X60263388Y-58340499D01*
X60263390Y-58340499D01*
X60476606Y-58340499D01*
X60476608Y-58340499D01*
X60686196Y-58301320D01*
X60885017Y-58224297D01*
X61066300Y-58112051D01*
X61223870Y-57968406D01*
X61352364Y-57798254D01*
X61447403Y-57607388D01*
X61505754Y-57402309D01*
X61516526Y-57286051D01*
X61542312Y-57221115D01*
X61584628Y-57190802D01*
X61693117Y-57190802D01*
X61729500Y-57211672D01*
X61761690Y-57273684D01*
X61763468Y-57286051D01*
X61774241Y-57402307D01*
X61832593Y-57607389D01*
X61832593Y-57607391D01*
X61927629Y-57798250D01*
X62025527Y-57927886D01*
X62056125Y-57968404D01*
X62213695Y-58112049D01*
X62394978Y-58224295D01*
X62593799Y-58301318D01*
X62803387Y-58340497D01*
X62803389Y-58340497D01*
X63016605Y-58340497D01*
X63016607Y-58340497D01*
X63226195Y-58301318D01*
X63425016Y-58224295D01*
X63606299Y-58112049D01*
X63763869Y-57968404D01*
X63892363Y-57798252D01*
X63987399Y-57607393D01*
X63987400Y-57607391D01*
X63987400Y-57607390D01*
X63987402Y-57607386D01*
X64045753Y-57402307D01*
X64056526Y-57286038D01*
X64082312Y-57221103D01*
X64124613Y-57190800D01*
X64233135Y-57190800D01*
X64269500Y-57211660D01*
X64301690Y-57273672D01*
X64303468Y-57286040D01*
X64314242Y-57402308D01*
X64372594Y-57607390D01*
X64372594Y-57607392D01*
X64467630Y-57798251D01*
X64596124Y-57968403D01*
X64596126Y-57968405D01*
X64753696Y-58112050D01*
X64934979Y-58224296D01*
X65133800Y-58301319D01*
X65343388Y-58340498D01*
X65343390Y-58340498D01*
X65556606Y-58340498D01*
X65556608Y-58340498D01*
X65766196Y-58301319D01*
X65965017Y-58224296D01*
X66146300Y-58112050D01*
X66303870Y-57968405D01*
X66432364Y-57798253D01*
X66483360Y-57695838D01*
X66527401Y-57607392D01*
X66527401Y-57607391D01*
X66527403Y-57607387D01*
X66585754Y-57402308D01*
X66596527Y-57286045D01*
X66622313Y-57221109D01*
X66664620Y-57190802D01*
X66773128Y-57190802D01*
X66809501Y-57211666D01*
X66841691Y-57273679D01*
X66843469Y-57286046D01*
X66854242Y-57402308D01*
X66912594Y-57607390D01*
X66912594Y-57607392D01*
X67007630Y-57798251D01*
X67136124Y-57968403D01*
X67136126Y-57968405D01*
X67293696Y-58112050D01*
X67474979Y-58224296D01*
X67673800Y-58301319D01*
X67883388Y-58340498D01*
X67883390Y-58340498D01*
X68096606Y-58340498D01*
X68096608Y-58340498D01*
X68306196Y-58301319D01*
X68505017Y-58224296D01*
X68686300Y-58112050D01*
X68843870Y-57968405D01*
X68972364Y-57798253D01*
X69023360Y-57695838D01*
X69067401Y-57607392D01*
X69067401Y-57607391D01*
X69067403Y-57607387D01*
X69125754Y-57402308D01*
X69136527Y-57286045D01*
X69162313Y-57221109D01*
X69204620Y-57190802D01*
X69313128Y-57190802D01*
X69349501Y-57211666D01*
X69381691Y-57273679D01*
X69383469Y-57286046D01*
X69394242Y-57402308D01*
X69452594Y-57607390D01*
X69452594Y-57607392D01*
X69547630Y-57798251D01*
X69676124Y-57968403D01*
X69676126Y-57968405D01*
X69833696Y-58112050D01*
X70014979Y-58224296D01*
X70213800Y-58301319D01*
X70423388Y-58340498D01*
X70423390Y-58340498D01*
X70636606Y-58340498D01*
X70636608Y-58340498D01*
X70846196Y-58301319D01*
X71045017Y-58224296D01*
X71226300Y-58112050D01*
X71383870Y-57968405D01*
X71512364Y-57798253D01*
X71563360Y-57695838D01*
X71607401Y-57607392D01*
X71607401Y-57607391D01*
X71607403Y-57607387D01*
X71665754Y-57402308D01*
X71676527Y-57286045D01*
X71702311Y-57221110D01*
X71744620Y-57190802D01*
X71853126Y-57190802D01*
X71889499Y-57211666D01*
X71921690Y-57273679D01*
X71923468Y-57286046D01*
X71934242Y-57402307D01*
X71934242Y-57402309D01*
X71992592Y-57607386D01*
X71992594Y-57607391D01*
X71992594Y-57607393D01*
X72087630Y-57798252D01*
X72216124Y-57968404D01*
X72216126Y-57968406D01*
X72373696Y-58112051D01*
X72554979Y-58224297D01*
X72753800Y-58301320D01*
X72963388Y-58340499D01*
X72963390Y-58340499D01*
X73176606Y-58340499D01*
X73176608Y-58340499D01*
X73386196Y-58301320D01*
X73585017Y-58224297D01*
X73766300Y-58112051D01*
X73923870Y-57968406D01*
X74052364Y-57798254D01*
X74147403Y-57607388D01*
X74205754Y-57402309D01*
X74216527Y-57286046D01*
X74242313Y-57221110D01*
X74284621Y-57190802D01*
X74393126Y-57190802D01*
X74429501Y-57211667D01*
X74461691Y-57273680D01*
X74463469Y-57286047D01*
X74474242Y-57402308D01*
X74532594Y-57607390D01*
X74532594Y-57607392D01*
X74627630Y-57798251D01*
X74756124Y-57968403D01*
X74756126Y-57968405D01*
X74913696Y-58112050D01*
X75094979Y-58224296D01*
X75293800Y-58301319D01*
X75503388Y-58340498D01*
X75503390Y-58340498D01*
X75716606Y-58340498D01*
X75716608Y-58340498D01*
X75926196Y-58301319D01*
X76125017Y-58224296D01*
X76306300Y-58112050D01*
X76463870Y-57968405D01*
X76592364Y-57798253D01*
X76643360Y-57695838D01*
X76687401Y-57607392D01*
X76687401Y-57607391D01*
X76687403Y-57607387D01*
X76745754Y-57402308D01*
X76765427Y-57189998D01*
X76745754Y-56977688D01*
X76687403Y-56772609D01*
X76687401Y-56772604D01*
X76687401Y-56772603D01*
X76592365Y-56581744D01*
X76463870Y-56411591D01*
X76463869Y-56411590D01*
X76306300Y-56267946D01*
X76125017Y-56155700D01*
X76125015Y-56155699D01*
X75926201Y-56078679D01*
X75926196Y-56078677D01*
X75716608Y-56039498D01*
X75503388Y-56039498D01*
X75293800Y-56078677D01*
X75293797Y-56078677D01*
X75293797Y-56078678D01*
X75094980Y-56155699D01*
X75094978Y-56155700D01*
X74913697Y-56267945D01*
X74756125Y-56411591D01*
X74627630Y-56581744D01*
X74532594Y-56772603D01*
X74532594Y-56772605D01*
X74474242Y-56977687D01*
X74463468Y-57093950D01*
X74437681Y-57158887D01*
X74393126Y-57190802D01*
X74284621Y-57190802D01*
X74286867Y-57189193D01*
X74250493Y-57168328D01*
X74218304Y-57106315D01*
X74216527Y-57093954D01*
X74205754Y-56977689D01*
X74205753Y-56977687D01*
X74168676Y-56847376D01*
X74147403Y-56772610D01*
X74147401Y-56772605D01*
X74147401Y-56772604D01*
X74052365Y-56581745D01*
X73923870Y-56411592D01*
X73923868Y-56411590D01*
X73766300Y-56267947D01*
X73585017Y-56155701D01*
X73585015Y-56155700D01*
X73485606Y-56117189D01*
X73386196Y-56078678D01*
X73176608Y-56039499D01*
X72963388Y-56039499D01*
X72753800Y-56078678D01*
X72753797Y-56078678D01*
X72753797Y-56078679D01*
X72554980Y-56155700D01*
X72554978Y-56155701D01*
X72373697Y-56267946D01*
X72216125Y-56411592D01*
X72087630Y-56581745D01*
X71992594Y-56772604D01*
X71992594Y-56772606D01*
X71934242Y-56977688D01*
X71923469Y-57093949D01*
X71897683Y-57158886D01*
X71853126Y-57190802D01*
X71744620Y-57190802D01*
X71746867Y-57189192D01*
X71710495Y-57168329D01*
X71678305Y-57106316D01*
X71676527Y-57093949D01*
X71675847Y-57086611D01*
X71665754Y-56977688D01*
X71607403Y-56772609D01*
X71607401Y-56772604D01*
X71607401Y-56772603D01*
X71512365Y-56581744D01*
X71383870Y-56411591D01*
X71383869Y-56411590D01*
X71226300Y-56267946D01*
X71045017Y-56155700D01*
X71045015Y-56155699D01*
X70846201Y-56078679D01*
X70846196Y-56078677D01*
X70636608Y-56039498D01*
X70423388Y-56039498D01*
X70213800Y-56078677D01*
X70213797Y-56078677D01*
X70213797Y-56078678D01*
X70014980Y-56155699D01*
X70014978Y-56155700D01*
X69833697Y-56267945D01*
X69676125Y-56411591D01*
X69547630Y-56581744D01*
X69452594Y-56772603D01*
X69452594Y-56772605D01*
X69394242Y-56977687D01*
X69383469Y-57093949D01*
X69357683Y-57158886D01*
X69313128Y-57190802D01*
X69204620Y-57190802D01*
X69206867Y-57189192D01*
X69170495Y-57168329D01*
X69138305Y-57106316D01*
X69136527Y-57093949D01*
X69135847Y-57086611D01*
X69125754Y-56977688D01*
X69067403Y-56772609D01*
X69067401Y-56772604D01*
X69067401Y-56772603D01*
X68972365Y-56581744D01*
X68843870Y-56411591D01*
X68843869Y-56411590D01*
X68686300Y-56267946D01*
X68505017Y-56155700D01*
X68505015Y-56155699D01*
X68306201Y-56078679D01*
X68306196Y-56078677D01*
X68096608Y-56039498D01*
X67883388Y-56039498D01*
X67673800Y-56078677D01*
X67673797Y-56078677D01*
X67673797Y-56078678D01*
X67474980Y-56155699D01*
X67474978Y-56155700D01*
X67293697Y-56267945D01*
X67136125Y-56411591D01*
X67007630Y-56581744D01*
X66912594Y-56772603D01*
X66912594Y-56772605D01*
X66854242Y-56977687D01*
X66843469Y-57093949D01*
X66817683Y-57158886D01*
X66773128Y-57190802D01*
X66664620Y-57190802D01*
X66666867Y-57189192D01*
X66630495Y-57168329D01*
X66598305Y-57106316D01*
X66596527Y-57093949D01*
X66595847Y-57086611D01*
X66585754Y-56977688D01*
X66527403Y-56772609D01*
X66527401Y-56772604D01*
X66527401Y-56772603D01*
X66432365Y-56581744D01*
X66303870Y-56411591D01*
X66303869Y-56411590D01*
X66146300Y-56267946D01*
X65965017Y-56155700D01*
X65965015Y-56155699D01*
X65766201Y-56078679D01*
X65766196Y-56078677D01*
X65556608Y-56039498D01*
X65343388Y-56039498D01*
X65133800Y-56078677D01*
X65133797Y-56078677D01*
X65133797Y-56078678D01*
X64934980Y-56155699D01*
X64934978Y-56155700D01*
X64753697Y-56267945D01*
X64596125Y-56411591D01*
X64467630Y-56581744D01*
X64372594Y-56772603D01*
X64372594Y-56772605D01*
X64314242Y-56977687D01*
X64303468Y-57093955D01*
X64277682Y-57158892D01*
X64233135Y-57190800D01*
X64124613Y-57190800D01*
X64126858Y-57189192D01*
X64090494Y-57168333D01*
X64058304Y-57106321D01*
X64056527Y-57093963D01*
X64045753Y-56977687D01*
X63987402Y-56772608D01*
X63987400Y-56772603D01*
X63987400Y-56772602D01*
X63892364Y-56581743D01*
X63763869Y-56411590D01*
X63606299Y-56267945D01*
X63425016Y-56155699D01*
X63425014Y-56155698D01*
X63325605Y-56117187D01*
X63226195Y-56078676D01*
X63016607Y-56039497D01*
X62803387Y-56039497D01*
X62593799Y-56078676D01*
X62593796Y-56078676D01*
X62593796Y-56078677D01*
X62394979Y-56155698D01*
X62394977Y-56155699D01*
X62213696Y-56267944D01*
X62056124Y-56411590D01*
X61927629Y-56581743D01*
X61832593Y-56772602D01*
X61832593Y-56772604D01*
X61774241Y-56977686D01*
X61763468Y-57093944D01*
X61737682Y-57158881D01*
X61693117Y-57190802D01*
X61584628Y-57190802D01*
X61586875Y-57189192D01*
X61550494Y-57168323D01*
X61518304Y-57106310D01*
X61516526Y-57093943D01*
X61505754Y-56977689D01*
X61447403Y-56772610D01*
X61447401Y-56772605D01*
X61447401Y-56772604D01*
X61352365Y-56581745D01*
X61223870Y-56411592D01*
X61223868Y-56411590D01*
X61066300Y-56267947D01*
X60885017Y-56155701D01*
X60885015Y-56155700D01*
X60785606Y-56117189D01*
X60686196Y-56078678D01*
X60476608Y-56039499D01*
X60263388Y-56039499D01*
X60053800Y-56078678D01*
X60053797Y-56078678D01*
X60053797Y-56078679D01*
X59854980Y-56155700D01*
X59854978Y-56155701D01*
X59673697Y-56267946D01*
X59516125Y-56411592D01*
X59387630Y-56581745D01*
X59292594Y-56772604D01*
X59292594Y-56772606D01*
X59234242Y-56977688D01*
X59223469Y-57093945D01*
X59197683Y-57158882D01*
X59153118Y-57190803D01*
X59044629Y-57190803D01*
X59046876Y-57189193D01*
X59010495Y-57168323D01*
X58978305Y-57106311D01*
X58976527Y-57093944D01*
X58976527Y-57093943D01*
X58965755Y-56977689D01*
X58907404Y-56772610D01*
X58907402Y-56772605D01*
X58907402Y-56772604D01*
X58812366Y-56581745D01*
X58683871Y-56411592D01*
X58683869Y-56411590D01*
X58526301Y-56267947D01*
X58345018Y-56155701D01*
X58345016Y-56155700D01*
X58245607Y-56117189D01*
X58146197Y-56078678D01*
X57936609Y-56039499D01*
X57723389Y-56039499D01*
X57513801Y-56078678D01*
X57513798Y-56078678D01*
X57513798Y-56078679D01*
X57314981Y-56155700D01*
X57314979Y-56155701D01*
X57133698Y-56267946D01*
X56976126Y-56411592D01*
X56847631Y-56581745D01*
X56752595Y-56772604D01*
X56752595Y-56772606D01*
X56694243Y-56977688D01*
X56676579Y-57168323D01*
X56674570Y-57189999D01*
X54602560Y-57189999D01*
X54629405Y-57152164D01*
X54797855Y-56847376D01*
X54931121Y-56525644D01*
X55027527Y-56191013D01*
X55085859Y-55847693D01*
X55105385Y-55500000D01*
X80894615Y-55500000D01*
X80914140Y-55847688D01*
X80914142Y-55847700D01*
X80972472Y-56191009D01*
X80972474Y-56191017D01*
X80994637Y-56267945D01*
X81068879Y-56525644D01*
X81202145Y-56847376D01*
X81370595Y-57152164D01*
X81572112Y-57436176D01*
X81804161Y-57695839D01*
X82063824Y-57927888D01*
X82347836Y-58129405D01*
X82652624Y-58297855D01*
X82974356Y-58431121D01*
X83308987Y-58527527D01*
X83652307Y-58585859D01*
X84000000Y-58605385D01*
X84347693Y-58585859D01*
X84691013Y-58527527D01*
X85025644Y-58431121D01*
X85347376Y-58297855D01*
X85652164Y-58129405D01*
X85936176Y-57927888D01*
X86195839Y-57695839D01*
X86427888Y-57436176D01*
X86629405Y-57152164D01*
X86797855Y-56847376D01*
X86931121Y-56525644D01*
X87027527Y-56191013D01*
X87085859Y-55847693D01*
X87105385Y-55500000D01*
X87085859Y-55152307D01*
X87027527Y-54808987D01*
X86931121Y-54474356D01*
X86797855Y-54152624D01*
X86629405Y-53847836D01*
X86427888Y-53563824D01*
X86195839Y-53304161D01*
X85936176Y-53072112D01*
X85652164Y-52870595D01*
X85347376Y-52702145D01*
X85025644Y-52568879D01*
X84858328Y-52520676D01*
X84691017Y-52472474D01*
X84691009Y-52472472D01*
X84347700Y-52414142D01*
X84347688Y-52414140D01*
X84000000Y-52394615D01*
X83652311Y-52414140D01*
X83652299Y-52414142D01*
X83308990Y-52472472D01*
X83308982Y-52472474D01*
X83025585Y-52554120D01*
X82974356Y-52568879D01*
X82925869Y-52588963D01*
X82652625Y-52702144D01*
X82347835Y-52870595D01*
X82147294Y-53012887D01*
X82135584Y-53021196D01*
X82063823Y-53072113D01*
X81804161Y-53304161D01*
X81572113Y-53563823D01*
X81370595Y-53847835D01*
X81202144Y-54152625D01*
X81068878Y-54474359D01*
X80972474Y-54808982D01*
X80972472Y-54808990D01*
X80914142Y-55152299D01*
X80914140Y-55152311D01*
X80894615Y-55500000D01*
X55105385Y-55500000D01*
X55085859Y-55152307D01*
X55027527Y-54808987D01*
X54931121Y-54474356D01*
X54797855Y-54152624D01*
X54629405Y-53847836D01*
X54427888Y-53563824D01*
X54195839Y-53304161D01*
X53936176Y-53072112D01*
X53652164Y-52870595D01*
X53347376Y-52702145D01*
X53025644Y-52568879D01*
X52858328Y-52520676D01*
X52691017Y-52472474D01*
X52691009Y-52472472D01*
X52347700Y-52414142D01*
X52347688Y-52414140D01*
X52000000Y-52394615D01*
X51652311Y-52414140D01*
X51652299Y-52414142D01*
X51308990Y-52472472D01*
X51308982Y-52472474D01*
X51025585Y-52554120D01*
X50974356Y-52568879D01*
X50925869Y-52588963D01*
X50652625Y-52702144D01*
X50347835Y-52870595D01*
X50147294Y-53012887D01*
X50135584Y-53021196D01*
X50063823Y-53072113D01*
X49804161Y-53304161D01*
X49572113Y-53563823D01*
X49370595Y-53847835D01*
X49202144Y-54152625D01*
X49068878Y-54474359D01*
X48972474Y-54808982D01*
X48972472Y-54808990D01*
X48914142Y-55152299D01*
X48914140Y-55152311D01*
X48894615Y-55500000D01*
X48300500Y-55500000D01*
X48300500Y-53504427D01*
X48300816Y-53495581D01*
X48317165Y-53266982D01*
X48319683Y-53249470D01*
X48367459Y-53029851D01*
X48372436Y-53012900D01*
X48450985Y-52802299D01*
X48458325Y-52786227D01*
X48566044Y-52588956D01*
X48575600Y-52574086D01*
X48710294Y-52394156D01*
X48721868Y-52380799D01*
X48880799Y-52221868D01*
X48894156Y-52210294D01*
X49074086Y-52075600D01*
X49088956Y-52066044D01*
X49286227Y-51958325D01*
X49302299Y-51950985D01*
X49512900Y-51872436D01*
X49529851Y-51867459D01*
X49749472Y-51819682D01*
X49766977Y-51817165D01*
X49995582Y-51800816D01*
X50004428Y-51800500D01*
X50047595Y-51800500D01*
X85952405Y-51800500D01*
X85995572Y-51800500D01*
X86004418Y-51800816D01*
G37*
G04 #@! TD.AperFunction*
M02*
