G04 #@! TF.GenerationSoftware,KiCad,Pcbnew,8.0.5*
G04 #@! TF.CreationDate,2024-10-07T10:05:32-05:00*
G04 #@! TF.ProjectId,DRV8323_BreakoutBoard,44525638-3332-4335-9f42-7265616b6f75,rev?*
G04 #@! TF.SameCoordinates,Original*
G04 #@! TF.FileFunction,Copper,L2,Inr*
G04 #@! TF.FilePolarity,Positive*
%FSLAX46Y46*%
G04 Gerber Fmt 4.6, Leading zero omitted, Abs format (unit mm)*
G04 Created by KiCad (PCBNEW 8.0.5) date 2024-10-07 10:05:32*
%MOMM*%
%LPD*%
G01*
G04 APERTURE LIST*
G04 Aperture macros list*
%AMRoundRect*
0 Rectangle with rounded corners*
0 $1 Rounding radius*
0 $2 $3 $4 $5 $6 $7 $8 $9 X,Y pos of 4 corners*
0 Add a 4 corners polygon primitive as box body*
4,1,4,$2,$3,$4,$5,$6,$7,$8,$9,$2,$3,0*
0 Add four circle primitives for the rounded corners*
1,1,$1+$1,$2,$3*
1,1,$1+$1,$4,$5*
1,1,$1+$1,$6,$7*
1,1,$1+$1,$8,$9*
0 Add four rect primitives between the rounded corners*
20,1,$1+$1,$2,$3,$4,$5,0*
20,1,$1+$1,$4,$5,$6,$7,0*
20,1,$1+$1,$6,$7,$8,$9,0*
20,1,$1+$1,$8,$9,$2,$3,0*%
G04 Aperture macros list end*
G04 #@! TA.AperFunction,ComponentPad*
%ADD10C,5.600000*%
G04 #@! TD*
G04 #@! TA.AperFunction,ComponentPad*
%ADD11R,1.700000X1.700000*%
G04 #@! TD*
G04 #@! TA.AperFunction,ComponentPad*
%ADD12O,1.700000X1.700000*%
G04 #@! TD*
G04 #@! TA.AperFunction,ComponentPad*
%ADD13RoundRect,0.250002X-1.699998X-1.699998X1.699998X-1.699998X1.699998X1.699998X-1.699998X1.699998X0*%
G04 #@! TD*
G04 #@! TA.AperFunction,ComponentPad*
%ADD14RoundRect,1.500000X-1.500000X-1.500000X1.500000X-1.500000X1.500000X1.500000X-1.500000X1.500000X0*%
G04 #@! TD*
G04 #@! TA.AperFunction,ComponentPad*
%ADD15C,6.000000*%
G04 #@! TD*
G04 #@! TA.AperFunction,ViaPad*
%ADD16C,0.350000*%
G04 #@! TD*
G04 #@! TA.AperFunction,ViaPad*
%ADD17C,0.450000*%
G04 #@! TD*
G04 #@! TA.AperFunction,Conductor*
%ADD18C,0.200000*%
G04 #@! TD*
G04 APERTURE END LIST*
D10*
X84000000Y-55500000D03*
D11*
X78149998Y-57189998D03*
D12*
X75609998Y-57189998D03*
X73069998Y-57189999D03*
X70529998Y-57189998D03*
X67989998Y-57189998D03*
X65449998Y-57189998D03*
X62909997Y-57189997D03*
X60369998Y-57189999D03*
X57829999Y-57189999D03*
D11*
X78149998Y-64809999D03*
D12*
X75609998Y-64809999D03*
X73069998Y-64810000D03*
X70529998Y-64809999D03*
X67989998Y-64809999D03*
X65449998Y-64809999D03*
X62909997Y-64809998D03*
X60369998Y-64810000D03*
X57829999Y-64810000D03*
D10*
X52000000Y-55500000D03*
D13*
X77500000Y-88000000D03*
X64500000Y-88000000D03*
D14*
X52525000Y-72625000D03*
D15*
X59725000Y-72625000D03*
D13*
X51500000Y-88000000D03*
D16*
X82250000Y-73750000D03*
X82275000Y-68125000D03*
X75000000Y-73750000D03*
D17*
X59625000Y-87250000D03*
X55125000Y-90750000D03*
X49625000Y-85000000D03*
X49125000Y-85250000D03*
X61250000Y-88125000D03*
X48875000Y-85750000D03*
X59625000Y-90750000D03*
X56125000Y-90750000D03*
X61250000Y-89750000D03*
X60750000Y-87250000D03*
X58500000Y-90750000D03*
X60750000Y-90625000D03*
X57125000Y-90750000D03*
X58500000Y-87750000D03*
X75100000Y-83000000D03*
X77600000Y-84000000D03*
X49000000Y-83000000D03*
X75600000Y-84000000D03*
X62000000Y-83000000D03*
X49500000Y-84000000D03*
X63500000Y-84000000D03*
X76100000Y-84000000D03*
X49000000Y-83500000D03*
X62500000Y-84000000D03*
X63000000Y-84000000D03*
X64000000Y-84000000D03*
X76600000Y-84000000D03*
X50000000Y-84000000D03*
X51000000Y-84000000D03*
X62000000Y-83500000D03*
X51500000Y-84000000D03*
X64500000Y-84000000D03*
X50500000Y-84000000D03*
X75100000Y-83500000D03*
X77100000Y-84000000D03*
X84500000Y-83500000D03*
X82000000Y-83500000D03*
X56000000Y-83500000D03*
X83000000Y-83500000D03*
X68500000Y-83500000D03*
D16*
X78500000Y-74000000D03*
D17*
X82500000Y-83500000D03*
X87000000Y-84500000D03*
X57500000Y-83500000D03*
X56500000Y-83500000D03*
D16*
X77500000Y-74000000D03*
D17*
X68000000Y-84500000D03*
X70000000Y-83500000D03*
X60000000Y-83500000D03*
X74000000Y-84500000D03*
D16*
X77500000Y-72000000D03*
X78500000Y-73000000D03*
D17*
X87000000Y-83500000D03*
X70500000Y-83500000D03*
X59000000Y-83500000D03*
X55500000Y-83500000D03*
X72000000Y-83500000D03*
X86500000Y-83500000D03*
X57000000Y-83500000D03*
X83500000Y-83500000D03*
X69000000Y-83500000D03*
X72500000Y-83500000D03*
D16*
X77500000Y-73000000D03*
D17*
X85000000Y-83500000D03*
X71500000Y-83500000D03*
X61000000Y-83500000D03*
D16*
X78500000Y-72000000D03*
X80249999Y-69250000D03*
D17*
X87000000Y-84000000D03*
X73000000Y-83500000D03*
X69500000Y-83500000D03*
X55000000Y-84500000D03*
X85500000Y-83500000D03*
X86000000Y-83500000D03*
X61000000Y-84000000D03*
X55000000Y-84000000D03*
X74000000Y-84000000D03*
X61000000Y-84500000D03*
X71000000Y-83500000D03*
X60500000Y-83500000D03*
X81500000Y-83500000D03*
X59500000Y-83500000D03*
X81000000Y-84000000D03*
X84000000Y-83500000D03*
D16*
X80725000Y-68125000D03*
D17*
X74000000Y-83500000D03*
X58000000Y-83500000D03*
X81000000Y-84500000D03*
D16*
X73120000Y-72400000D03*
D17*
X73500000Y-83500000D03*
X58500000Y-83500000D03*
D16*
X79500000Y-74000000D03*
D17*
X68000000Y-84000000D03*
X62625000Y-85000000D03*
D16*
X77749999Y-76750000D03*
D17*
X74250000Y-89750000D03*
X74250000Y-88125000D03*
X72625000Y-87250000D03*
X71500000Y-90750000D03*
X68125000Y-90750000D03*
X61875000Y-85750000D03*
X71500000Y-87750000D03*
X62125000Y-85250000D03*
X72625000Y-90750000D03*
X69125000Y-90750000D03*
X73750000Y-90625000D03*
X70125000Y-90750000D03*
X73750000Y-87250000D03*
X83125000Y-90750000D03*
X85625000Y-87250000D03*
X81125000Y-90750000D03*
X74875000Y-85750000D03*
X86750000Y-90625000D03*
X85625000Y-90750000D03*
X86750000Y-87250000D03*
X82125000Y-90750000D03*
D16*
X79250000Y-76500000D03*
D17*
X75125000Y-85250000D03*
X87250000Y-88125000D03*
X75625000Y-85000000D03*
X84500000Y-87750000D03*
X84500000Y-90750000D03*
X87250000Y-89750000D03*
D16*
X82000000Y-74250000D03*
X64500000Y-81000000D03*
X75000000Y-72750000D03*
X52470000Y-84940000D03*
X74750000Y-73250000D03*
X55750000Y-81750000D03*
X75000000Y-74750000D03*
X74750000Y-74250000D03*
X55140002Y-87150000D03*
X78250000Y-76500000D03*
X65470000Y-84940000D03*
X76750000Y-76750000D03*
X68500000Y-81250000D03*
X77250000Y-76500000D03*
X68140002Y-87150000D03*
X78469999Y-84940000D03*
X78750000Y-76750000D03*
X79750000Y-76750000D03*
X81140002Y-87150000D03*
X80250000Y-76500000D03*
X81750000Y-81750000D03*
X82250000Y-72750000D03*
X82000000Y-73250000D03*
X82250000Y-74750000D03*
X79249998Y-69250000D03*
X77750000Y-69500000D03*
X82250000Y-71750000D03*
X82000000Y-75250000D03*
X78250000Y-69250000D03*
X82000000Y-72250000D03*
X82000000Y-70125000D03*
X76750000Y-69500000D03*
X82000000Y-71249998D03*
X77250000Y-69250000D03*
X82250000Y-70750000D03*
X78750000Y-69500000D03*
X74750000Y-75250000D03*
X54250000Y-84000000D03*
X67000000Y-84000000D03*
X76250000Y-76500000D03*
X80000000Y-84000000D03*
X80750001Y-76749999D03*
D17*
X59500000Y-86500000D03*
X59500000Y-85250000D03*
X55000000Y-85500000D03*
X61250000Y-85250000D03*
X60375000Y-86500000D03*
X55000000Y-86000000D03*
X61250000Y-86500000D03*
X58000000Y-86000000D03*
X60375000Y-85250000D03*
X58000000Y-85500000D03*
X73375000Y-85250000D03*
X68000000Y-86000000D03*
X71000000Y-86000000D03*
X74250000Y-85250000D03*
X72500000Y-86500000D03*
X73375000Y-86500000D03*
X72500000Y-85250000D03*
X74250000Y-86500000D03*
X68000000Y-85500000D03*
X71000000Y-85500000D03*
X85500000Y-86500000D03*
X87250000Y-86500000D03*
X86375000Y-86500000D03*
X87250000Y-85250000D03*
X84000000Y-85500000D03*
X86375000Y-85250000D03*
X81000000Y-85500000D03*
X85500000Y-85250000D03*
X84000000Y-86000000D03*
X81000000Y-86000000D03*
D18*
X77749999Y-77125001D02*
X76625000Y-78250000D01*
X67475000Y-83091269D02*
X67475000Y-84275000D01*
X69000000Y-81566269D02*
X67475000Y-83091269D01*
X76625000Y-78250000D02*
X70875000Y-78250000D01*
X69000000Y-80125000D02*
X69000000Y-81566269D01*
X70875000Y-78250000D02*
X69000000Y-80125000D01*
X64500000Y-87250000D02*
X64500000Y-88000000D01*
X77749999Y-76750000D02*
X77749999Y-77125001D01*
X67475000Y-84275000D02*
X64500000Y-87250000D01*
X80900001Y-69025001D02*
X80875000Y-69050002D01*
X78149998Y-66274998D02*
X80900001Y-69025001D01*
X80875000Y-73125000D02*
X82000000Y-74250000D01*
X80875000Y-69050002D02*
X80875000Y-73125000D01*
X78149998Y-64809999D02*
X78149998Y-66274998D01*
X52470000Y-83155000D02*
X54750000Y-80875000D01*
X52470000Y-84940000D02*
X52470000Y-83155000D01*
X54750000Y-80875000D02*
X56875000Y-80875000D01*
X56875000Y-80875000D02*
X64500000Y-73250000D01*
X64500000Y-73250000D02*
X74750000Y-73250000D01*
X53775000Y-85784998D02*
X53775000Y-83350000D01*
X53775000Y-83350000D02*
X54875000Y-82250000D01*
X55140002Y-87150000D02*
X53775000Y-85784998D01*
X64750000Y-74250000D02*
X74750000Y-74250000D01*
X56750000Y-82250000D02*
X64750000Y-74250000D01*
X54875000Y-82250000D02*
X56750000Y-82250000D01*
X76250000Y-77250000D02*
X70625000Y-77250000D01*
X68000000Y-80750000D02*
X68500000Y-81250000D01*
X68000000Y-79875000D02*
X68000000Y-80750000D01*
X70625000Y-77250000D02*
X68000000Y-79875000D01*
X76750000Y-76750000D02*
X76250000Y-77250000D01*
X78750000Y-84659999D02*
X78750000Y-76750000D01*
X78469999Y-84940000D02*
X78750000Y-84659999D01*
X79750000Y-83578248D02*
X79750000Y-76750000D01*
X79750000Y-84421752D02*
X79525000Y-84196752D01*
X79525000Y-84196752D02*
X79525000Y-83803248D01*
X79750000Y-85759998D02*
X79750000Y-84421752D01*
X79525000Y-83803248D02*
X79750000Y-83578248D01*
X81140002Y-87150000D02*
X79750000Y-85759998D01*
X82000000Y-73250000D02*
X83125000Y-73250000D01*
X83125000Y-73250000D02*
X86000000Y-70375000D01*
X78625000Y-59125000D02*
X73790437Y-59125000D01*
X86000000Y-66500000D02*
X78625000Y-59125000D01*
X73790437Y-59125000D02*
X73069998Y-58404561D01*
X73069998Y-58404561D02*
X73069998Y-57189999D01*
X86000000Y-70375000D02*
X86000000Y-66500000D01*
X65358254Y-68500000D02*
X77171752Y-68500000D01*
X62909997Y-64809998D02*
X62909997Y-66051743D01*
X62909997Y-66051743D02*
X65358254Y-68500000D01*
X77750000Y-69078248D02*
X77750000Y-69500000D01*
X77171752Y-68500000D02*
X77750000Y-69078248D01*
X79375000Y-68750000D02*
X77125000Y-66500000D01*
X79724998Y-69053248D02*
X79421750Y-68750000D01*
X73069998Y-66040617D02*
X73069998Y-64810000D01*
X79724998Y-72974998D02*
X79724998Y-69053248D01*
X79421750Y-68750000D02*
X79375000Y-68750000D01*
X73529381Y-66500000D02*
X73069998Y-66040617D01*
X82000000Y-75250000D02*
X79724998Y-72974998D01*
X77125000Y-66500000D02*
X73529381Y-66500000D01*
X67989998Y-58415228D02*
X67989998Y-57189998D01*
X85000000Y-70125000D02*
X85000000Y-66750000D01*
X69699770Y-60125000D02*
X67989998Y-58415228D01*
X82000000Y-72250000D02*
X82875000Y-72250000D01*
X85000000Y-66750000D02*
X78375000Y-60125000D01*
X78375000Y-60125000D02*
X69699770Y-60125000D01*
X82875000Y-72250000D02*
X85000000Y-70125000D01*
X83000000Y-69625000D02*
X83000000Y-67360001D01*
X82500000Y-70125000D02*
X83000000Y-69625000D01*
X61544437Y-62125000D02*
X57829999Y-58410562D01*
X82000000Y-70125000D02*
X82500000Y-70125000D01*
X77764999Y-62125000D02*
X61544437Y-62125000D01*
X57829999Y-58410562D02*
X57829999Y-57189999D01*
X83000000Y-67360001D02*
X77764999Y-62125000D01*
X61290215Y-69500000D02*
X76750000Y-69500000D01*
X57829999Y-66039784D02*
X61290215Y-69500000D01*
X57829999Y-64810000D02*
X57829999Y-66039784D01*
X65607231Y-61125000D02*
X62909997Y-58427766D01*
X84025000Y-69850000D02*
X84025000Y-67150000D01*
X78000000Y-61125000D02*
X65607231Y-61125000D01*
X62909997Y-58427766D02*
X62909997Y-57189997D01*
X81975002Y-71225000D02*
X82650000Y-71225000D01*
X82650000Y-71225000D02*
X84025000Y-69850000D01*
X82000000Y-71249998D02*
X81975002Y-71225000D01*
X84025000Y-67150000D02*
X78000000Y-61125000D01*
X78750000Y-69078248D02*
X78750000Y-69500000D01*
X67989998Y-64809999D02*
X67989998Y-66037246D01*
X77171752Y-67500000D02*
X78750000Y-69078248D01*
X69452752Y-67500000D02*
X77171752Y-67500000D01*
X67989998Y-66037246D02*
X69452752Y-67500000D01*
X57320000Y-82930000D02*
X55320000Y-82930000D01*
X74750000Y-75250000D02*
X65000000Y-75250000D01*
X55320000Y-82930000D02*
X54250000Y-84000000D01*
X65000000Y-75250000D02*
X57320000Y-82930000D01*
X76250000Y-76500000D02*
X76000000Y-76250000D01*
X70375000Y-76250000D02*
X67000000Y-79625000D01*
X67000000Y-79625000D02*
X67000000Y-84000000D01*
X76000000Y-76250000D02*
X70375000Y-76250000D01*
X80750001Y-83249999D02*
X80000000Y-84000000D01*
X80750001Y-76749999D02*
X80750001Y-83249999D01*
G04 #@! TA.AperFunction,Conductor*
G36*
X86004418Y-51800816D02*
G01*
X86233020Y-51817165D01*
X86250529Y-51819683D01*
X86470144Y-51867458D01*
X86487103Y-51872437D01*
X86697694Y-51950983D01*
X86713777Y-51958327D01*
X86911036Y-52066040D01*
X86925919Y-52075605D01*
X87105836Y-52210289D01*
X87119207Y-52221875D01*
X87278124Y-52380792D01*
X87289710Y-52394163D01*
X87424394Y-52574080D01*
X87433959Y-52588963D01*
X87541669Y-52786217D01*
X87549019Y-52802311D01*
X87627559Y-53012887D01*
X87632543Y-53029862D01*
X87680316Y-53249470D01*
X87682834Y-53266982D01*
X87699184Y-53495581D01*
X87699500Y-53504427D01*
X87699500Y-84682712D01*
X87679815Y-84749751D01*
X87627011Y-84795506D01*
X87557853Y-84805450D01*
X87522838Y-84793333D01*
X87522527Y-84794086D01*
X87387186Y-84738027D01*
X87387184Y-84738026D01*
X87387183Y-84738026D01*
X87295727Y-84725985D01*
X87250001Y-84719965D01*
X87249999Y-84719965D01*
X87202323Y-84726242D01*
X87112817Y-84738026D01*
X87112816Y-84738026D01*
X87112813Y-84738027D01*
X86984984Y-84790974D01*
X86984982Y-84790976D01*
X86887986Y-84865404D01*
X86822817Y-84890598D01*
X86754372Y-84876560D01*
X86737013Y-84865404D01*
X86670788Y-84814587D01*
X86640018Y-84790976D01*
X86640017Y-84790975D01*
X86640015Y-84790974D01*
X86512186Y-84738027D01*
X86512184Y-84738026D01*
X86512183Y-84738026D01*
X86420727Y-84725985D01*
X86375001Y-84719965D01*
X86374999Y-84719965D01*
X86327323Y-84726242D01*
X86237817Y-84738026D01*
X86237816Y-84738026D01*
X86237813Y-84738027D01*
X86109984Y-84790974D01*
X86109982Y-84790976D01*
X86012986Y-84865404D01*
X85947817Y-84890598D01*
X85879372Y-84876560D01*
X85862013Y-84865404D01*
X85795788Y-84814587D01*
X85765018Y-84790976D01*
X85765017Y-84790975D01*
X85765015Y-84790974D01*
X85637186Y-84738027D01*
X85637184Y-84738026D01*
X85637183Y-84738026D01*
X85545727Y-84725985D01*
X85500001Y-84719965D01*
X85499999Y-84719965D01*
X85452323Y-84726242D01*
X85362817Y-84738026D01*
X85362816Y-84738026D01*
X85362813Y-84738027D01*
X85234985Y-84790974D01*
X85125209Y-84875209D01*
X85040974Y-84984985D01*
X84988027Y-85112813D01*
X84988026Y-85112816D01*
X84988026Y-85112817D01*
X84969965Y-85250000D01*
X84986682Y-85376978D01*
X84988026Y-85387181D01*
X84988027Y-85387186D01*
X85040974Y-85515015D01*
X85040975Y-85515017D01*
X85040976Y-85515018D01*
X85125209Y-85624791D01*
X85234982Y-85709024D01*
X85234983Y-85709024D01*
X85234984Y-85709025D01*
X85359110Y-85760439D01*
X85413514Y-85804279D01*
X85435579Y-85870573D01*
X85418300Y-85938273D01*
X85367163Y-85985884D01*
X85359110Y-85989561D01*
X85234986Y-86040974D01*
X85125209Y-86125209D01*
X85040974Y-86234985D01*
X84988027Y-86362813D01*
X84988026Y-86362818D01*
X84969965Y-86499999D01*
X84969965Y-86500000D01*
X84988026Y-86637181D01*
X84988027Y-86637186D01*
X85040974Y-86765015D01*
X85040975Y-86765017D01*
X85040976Y-86765018D01*
X85057802Y-86786946D01*
X85125207Y-86874789D01*
X85127718Y-86877299D01*
X85129160Y-86879940D01*
X85130157Y-86881239D01*
X85129954Y-86881394D01*
X85161207Y-86938621D01*
X85156226Y-87008313D01*
X85154604Y-87012438D01*
X85113025Y-87112819D01*
X85094965Y-87249999D01*
X85094965Y-87250002D01*
X85100058Y-87288689D01*
X85089292Y-87357725D01*
X85042912Y-87409980D01*
X84975643Y-87428865D01*
X84908842Y-87408384D01*
X84878744Y-87380361D01*
X84874791Y-87375209D01*
X84765018Y-87290976D01*
X84765017Y-87290975D01*
X84765015Y-87290974D01*
X84637186Y-87238027D01*
X84637184Y-87238026D01*
X84637183Y-87238026D01*
X84545727Y-87225985D01*
X84500001Y-87219965D01*
X84499999Y-87219965D01*
X84431408Y-87228995D01*
X84362817Y-87238026D01*
X84362816Y-87238026D01*
X84362813Y-87238027D01*
X84234985Y-87290974D01*
X84125209Y-87375209D01*
X84040974Y-87484985D01*
X83988027Y-87612813D01*
X83988026Y-87612816D01*
X83988026Y-87612817D01*
X83987998Y-87613027D01*
X83969965Y-87749999D01*
X83969965Y-87750000D01*
X83988026Y-87887181D01*
X83988027Y-87887186D01*
X84040974Y-88015015D01*
X84040975Y-88015017D01*
X84040976Y-88015018D01*
X84125209Y-88124791D01*
X84234982Y-88209024D01*
X84362817Y-88261974D01*
X84485702Y-88278152D01*
X84499999Y-88280035D01*
X84500000Y-88280035D01*
X84500001Y-88280035D01*
X84512947Y-88278330D01*
X84637183Y-88261974D01*
X84765018Y-88209024D01*
X84874791Y-88124791D01*
X84959024Y-88015018D01*
X85011974Y-87887183D01*
X85030035Y-87750000D01*
X85024941Y-87711310D01*
X85035706Y-87642278D01*
X85082085Y-87590021D01*
X85149354Y-87571135D01*
X85216154Y-87591615D01*
X85246256Y-87619640D01*
X85250209Y-87624791D01*
X85359982Y-87709024D01*
X85487817Y-87761974D01*
X85610702Y-87778152D01*
X85624999Y-87780035D01*
X85625000Y-87780035D01*
X85625001Y-87780035D01*
X85637947Y-87778330D01*
X85762183Y-87761974D01*
X85890018Y-87709024D01*
X85999791Y-87624791D01*
X86084024Y-87515018D01*
X86084024Y-87515015D01*
X86088971Y-87508570D01*
X86091769Y-87510717D01*
X86130501Y-87473668D01*
X86199087Y-87460334D01*
X86263993Y-87486196D01*
X86284438Y-87509790D01*
X86286029Y-87508570D01*
X86290975Y-87515015D01*
X86290976Y-87515018D01*
X86375209Y-87624791D01*
X86484982Y-87709024D01*
X86612817Y-87761974D01*
X86660044Y-87768191D01*
X86723939Y-87796457D01*
X86762411Y-87854781D01*
X86763243Y-87924646D01*
X86758420Y-87938582D01*
X86738025Y-87987819D01*
X86719965Y-88124999D01*
X86719965Y-88125000D01*
X86737998Y-88261974D01*
X86738026Y-88262181D01*
X86738027Y-88262186D01*
X86790974Y-88390015D01*
X86790975Y-88390017D01*
X86790976Y-88390018D01*
X86875209Y-88499791D01*
X86984982Y-88584024D01*
X87112817Y-88636974D01*
X87235702Y-88653152D01*
X87249999Y-88655035D01*
X87250000Y-88655035D01*
X87250001Y-88655035D01*
X87262947Y-88653330D01*
X87387183Y-88636974D01*
X87515016Y-88584025D01*
X87522527Y-88580914D01*
X87523203Y-88582547D01*
X87581393Y-88568427D01*
X87647421Y-88591275D01*
X87690615Y-88646194D01*
X87699500Y-88692287D01*
X87699500Y-89182712D01*
X87679815Y-89249751D01*
X87627011Y-89295506D01*
X87557853Y-89305450D01*
X87522838Y-89293333D01*
X87522527Y-89294086D01*
X87387186Y-89238027D01*
X87387184Y-89238026D01*
X87387183Y-89238026D01*
X87295727Y-89225985D01*
X87250001Y-89219965D01*
X87249999Y-89219965D01*
X87181408Y-89228995D01*
X87112817Y-89238026D01*
X87112816Y-89238026D01*
X87112813Y-89238027D01*
X86984985Y-89290974D01*
X86875209Y-89375209D01*
X86790974Y-89484985D01*
X86738027Y-89612813D01*
X86738026Y-89612816D01*
X86738026Y-89612817D01*
X86728995Y-89681408D01*
X86719965Y-89749999D01*
X86719965Y-89750000D01*
X86738026Y-89887181D01*
X86738027Y-89887186D01*
X86758419Y-89936419D01*
X86765886Y-90005888D01*
X86734610Y-90068367D01*
X86674521Y-90104018D01*
X86660044Y-90106808D01*
X86612817Y-90113026D01*
X86612813Y-90113027D01*
X86484985Y-90165974D01*
X86375209Y-90250209D01*
X86290974Y-90359986D01*
X86266990Y-90417890D01*
X86223149Y-90472294D01*
X86156855Y-90494359D01*
X86089156Y-90477080D01*
X86054054Y-90445925D01*
X85999791Y-90375209D01*
X85890015Y-90290974D01*
X85762186Y-90238027D01*
X85762184Y-90238026D01*
X85762183Y-90238026D01*
X85670727Y-90225985D01*
X85625001Y-90219965D01*
X85624999Y-90219965D01*
X85556408Y-90228995D01*
X85487817Y-90238026D01*
X85487816Y-90238026D01*
X85487813Y-90238027D01*
X85359985Y-90290974D01*
X85270052Y-90359983D01*
X85250209Y-90375209D01*
X85165976Y-90484983D01*
X85165975Y-90484985D01*
X85161029Y-90491431D01*
X85158254Y-90489301D01*
X85119319Y-90526425D01*
X85050712Y-90539647D01*
X84985848Y-90513679D01*
X84965531Y-90490233D01*
X84963971Y-90491431D01*
X84959024Y-90484985D01*
X84959024Y-90484983D01*
X84874791Y-90375209D01*
X84874789Y-90375208D01*
X84874789Y-90375207D01*
X84765015Y-90290974D01*
X84637186Y-90238027D01*
X84637184Y-90238026D01*
X84637183Y-90238026D01*
X84545727Y-90225985D01*
X84500001Y-90219965D01*
X84499999Y-90219965D01*
X84431408Y-90228995D01*
X84362817Y-90238026D01*
X84362816Y-90238026D01*
X84362813Y-90238027D01*
X84234985Y-90290974D01*
X84125209Y-90375209D01*
X84040974Y-90484985D01*
X83988027Y-90612813D01*
X83988026Y-90612816D01*
X83988026Y-90612817D01*
X83969965Y-90750000D01*
X83974493Y-90784396D01*
X83988026Y-90887181D01*
X83988027Y-90887186D01*
X84044086Y-91022527D01*
X84042452Y-91023203D01*
X84056573Y-91081393D01*
X84033725Y-91147421D01*
X83978806Y-91190615D01*
X83932713Y-91199500D01*
X83692287Y-91199500D01*
X83625248Y-91179815D01*
X83579493Y-91127011D01*
X83569549Y-91057853D01*
X83581668Y-91022839D01*
X83580914Y-91022527D01*
X83621561Y-90924394D01*
X83636974Y-90887183D01*
X83655035Y-90750000D01*
X83636974Y-90612817D01*
X83584024Y-90484983D01*
X83499791Y-90375209D01*
X83499789Y-90375208D01*
X83499789Y-90375207D01*
X83390015Y-90290974D01*
X83262186Y-90238027D01*
X83262184Y-90238026D01*
X83262183Y-90238026D01*
X83170727Y-90225985D01*
X83125001Y-90219965D01*
X83124999Y-90219965D01*
X83056408Y-90228995D01*
X82987817Y-90238026D01*
X82987816Y-90238026D01*
X82987813Y-90238027D01*
X82859985Y-90290974D01*
X82750206Y-90375211D01*
X82723375Y-90410179D01*
X82666947Y-90451382D01*
X82597201Y-90455536D01*
X82536281Y-90421323D01*
X82526625Y-90410179D01*
X82499791Y-90375209D01*
X82390015Y-90290974D01*
X82262186Y-90238027D01*
X82262184Y-90238026D01*
X82262183Y-90238026D01*
X82170727Y-90225985D01*
X82125001Y-90219965D01*
X82124999Y-90219965D01*
X82056408Y-90228995D01*
X81987817Y-90238026D01*
X81987816Y-90238026D01*
X81987813Y-90238027D01*
X81859985Y-90290974D01*
X81750206Y-90375211D01*
X81723375Y-90410179D01*
X81666947Y-90451382D01*
X81597201Y-90455536D01*
X81536281Y-90421323D01*
X81526625Y-90410179D01*
X81499791Y-90375209D01*
X81390015Y-90290974D01*
X81262186Y-90238027D01*
X81262184Y-90238026D01*
X81262183Y-90238026D01*
X81170727Y-90225985D01*
X81125001Y-90219965D01*
X81124999Y-90219965D01*
X81056408Y-90228995D01*
X80987817Y-90238026D01*
X80987816Y-90238026D01*
X80987813Y-90238027D01*
X80859985Y-90290974D01*
X80750209Y-90375209D01*
X80665974Y-90484985D01*
X80613027Y-90612813D01*
X80613026Y-90612816D01*
X80613026Y-90612817D01*
X80594965Y-90750000D01*
X80599493Y-90784396D01*
X80613026Y-90887181D01*
X80613027Y-90887186D01*
X80669086Y-91022527D01*
X80667452Y-91023203D01*
X80681573Y-91081393D01*
X80658725Y-91147421D01*
X80603806Y-91190615D01*
X80557713Y-91199500D01*
X74222996Y-91199500D01*
X74155957Y-91179815D01*
X74110202Y-91127011D01*
X74100258Y-91057853D01*
X74124621Y-91000013D01*
X74209023Y-90890019D01*
X74209022Y-90890019D01*
X74209024Y-90890018D01*
X74261974Y-90762183D01*
X74280035Y-90625000D01*
X74261974Y-90487817D01*
X74241579Y-90438580D01*
X74234111Y-90369114D01*
X74265386Y-90306635D01*
X74325474Y-90270982D01*
X74339947Y-90268192D01*
X74387183Y-90261974D01*
X74515018Y-90209024D01*
X74624791Y-90124791D01*
X74709024Y-90015018D01*
X74761974Y-89887183D01*
X74780035Y-89750000D01*
X74761974Y-89612817D01*
X74709024Y-89484983D01*
X74624791Y-89375209D01*
X74624789Y-89375208D01*
X74624789Y-89375207D01*
X74558220Y-89324127D01*
X74515018Y-89290976D01*
X74515017Y-89290975D01*
X74515015Y-89290974D01*
X74387186Y-89238027D01*
X74387184Y-89238026D01*
X74387183Y-89238026D01*
X74295727Y-89225985D01*
X74250001Y-89219965D01*
X74249999Y-89219965D01*
X74181408Y-89228995D01*
X74112817Y-89238026D01*
X74112816Y-89238026D01*
X74112813Y-89238027D01*
X73984985Y-89290974D01*
X73875209Y-89375209D01*
X73790974Y-89484985D01*
X73738027Y-89612813D01*
X73738026Y-89612816D01*
X73738026Y-89612817D01*
X73728995Y-89681408D01*
X73719965Y-89749999D01*
X73719965Y-89750000D01*
X73738026Y-89887181D01*
X73738027Y-89887186D01*
X73758419Y-89936419D01*
X73765886Y-90005888D01*
X73734610Y-90068367D01*
X73674521Y-90104018D01*
X73660044Y-90106808D01*
X73612817Y-90113026D01*
X73612813Y-90113027D01*
X73484985Y-90165974D01*
X73375209Y-90250209D01*
X73290974Y-90359986D01*
X73266990Y-90417890D01*
X73223149Y-90472294D01*
X73156855Y-90494359D01*
X73089156Y-90477080D01*
X73054054Y-90445925D01*
X72999791Y-90375209D01*
X72890015Y-90290974D01*
X72762186Y-90238027D01*
X72762184Y-90238026D01*
X72762183Y-90238026D01*
X72670727Y-90225985D01*
X72625001Y-90219965D01*
X72624999Y-90219965D01*
X72556408Y-90228995D01*
X72487817Y-90238026D01*
X72487816Y-90238026D01*
X72487813Y-90238027D01*
X72359985Y-90290974D01*
X72270052Y-90359983D01*
X72250209Y-90375209D01*
X72165976Y-90484983D01*
X72165975Y-90484985D01*
X72161029Y-90491431D01*
X72158254Y-90489301D01*
X72119319Y-90526425D01*
X72050712Y-90539647D01*
X71985848Y-90513679D01*
X71965531Y-90490233D01*
X71963971Y-90491431D01*
X71959024Y-90484985D01*
X71959024Y-90484983D01*
X71874791Y-90375209D01*
X71874789Y-90375208D01*
X71874789Y-90375207D01*
X71765015Y-90290974D01*
X71637186Y-90238027D01*
X71637184Y-90238026D01*
X71637183Y-90238026D01*
X71545727Y-90225985D01*
X71500001Y-90219965D01*
X71499999Y-90219965D01*
X71431408Y-90228995D01*
X71362817Y-90238026D01*
X71362816Y-90238026D01*
X71362813Y-90238027D01*
X71234985Y-90290974D01*
X71125209Y-90375209D01*
X71040974Y-90484985D01*
X70988027Y-90612813D01*
X70988026Y-90612816D01*
X70988026Y-90612817D01*
X70969965Y-90750000D01*
X70974493Y-90784396D01*
X70988026Y-90887181D01*
X70988027Y-90887186D01*
X71044086Y-91022527D01*
X71042452Y-91023203D01*
X71056573Y-91081393D01*
X71033725Y-91147421D01*
X70978806Y-91190615D01*
X70932713Y-91199500D01*
X70692287Y-91199500D01*
X70625248Y-91179815D01*
X70579493Y-91127011D01*
X70569549Y-91057853D01*
X70581668Y-91022839D01*
X70580914Y-91022527D01*
X70621561Y-90924394D01*
X70636974Y-90887183D01*
X70655035Y-90750000D01*
X70636974Y-90612817D01*
X70584024Y-90484983D01*
X70499791Y-90375209D01*
X70499789Y-90375208D01*
X70499789Y-90375207D01*
X70390015Y-90290974D01*
X70262186Y-90238027D01*
X70262184Y-90238026D01*
X70262183Y-90238026D01*
X70170727Y-90225985D01*
X70125001Y-90219965D01*
X70124999Y-90219965D01*
X70056408Y-90228995D01*
X69987817Y-90238026D01*
X69987816Y-90238026D01*
X69987813Y-90238027D01*
X69859985Y-90290974D01*
X69750206Y-90375211D01*
X69723375Y-90410179D01*
X69666947Y-90451382D01*
X69597201Y-90455536D01*
X69536281Y-90421323D01*
X69526625Y-90410179D01*
X69499791Y-90375209D01*
X69390015Y-90290974D01*
X69262186Y-90238027D01*
X69262184Y-90238026D01*
X69262183Y-90238026D01*
X69170727Y-90225985D01*
X69125001Y-90219965D01*
X69124999Y-90219965D01*
X69056408Y-90228995D01*
X68987817Y-90238026D01*
X68987816Y-90238026D01*
X68987813Y-90238027D01*
X68859985Y-90290974D01*
X68750206Y-90375211D01*
X68723375Y-90410179D01*
X68666947Y-90451382D01*
X68597201Y-90455536D01*
X68536281Y-90421323D01*
X68526625Y-90410179D01*
X68499791Y-90375209D01*
X68390015Y-90290974D01*
X68262186Y-90238027D01*
X68262184Y-90238026D01*
X68262183Y-90238026D01*
X68170727Y-90225985D01*
X68125001Y-90219965D01*
X68124999Y-90219965D01*
X68056408Y-90228995D01*
X67987817Y-90238026D01*
X67987816Y-90238026D01*
X67987813Y-90238027D01*
X67859985Y-90290974D01*
X67750209Y-90375209D01*
X67665974Y-90484985D01*
X67613027Y-90612813D01*
X67613026Y-90612816D01*
X67613026Y-90612817D01*
X67594965Y-90750000D01*
X67599493Y-90784396D01*
X67613026Y-90887181D01*
X67613027Y-90887186D01*
X67669086Y-91022527D01*
X67667452Y-91023203D01*
X67681573Y-91081393D01*
X67658725Y-91147421D01*
X67603806Y-91190615D01*
X67557713Y-91199500D01*
X61222996Y-91199500D01*
X61155957Y-91179815D01*
X61110202Y-91127011D01*
X61100258Y-91057853D01*
X61124621Y-91000013D01*
X61209023Y-90890019D01*
X61209022Y-90890019D01*
X61209024Y-90890018D01*
X61261974Y-90762183D01*
X61280035Y-90625000D01*
X61261974Y-90487817D01*
X61241579Y-90438580D01*
X61234111Y-90369114D01*
X61265386Y-90306635D01*
X61325474Y-90270982D01*
X61339947Y-90268192D01*
X61387183Y-90261974D01*
X61515018Y-90209024D01*
X61624791Y-90124791D01*
X61709024Y-90015018D01*
X61761974Y-89887183D01*
X61780035Y-89750000D01*
X61761974Y-89612817D01*
X61709024Y-89484983D01*
X61624791Y-89375209D01*
X61624789Y-89375208D01*
X61624789Y-89375207D01*
X61558220Y-89324127D01*
X61515018Y-89290976D01*
X61515017Y-89290975D01*
X61515015Y-89290974D01*
X61387186Y-89238027D01*
X61387184Y-89238026D01*
X61387183Y-89238026D01*
X61295727Y-89225985D01*
X61250001Y-89219965D01*
X61249999Y-89219965D01*
X61181408Y-89228995D01*
X61112817Y-89238026D01*
X61112816Y-89238026D01*
X61112813Y-89238027D01*
X60984985Y-89290974D01*
X60875209Y-89375209D01*
X60790974Y-89484985D01*
X60738027Y-89612813D01*
X60738026Y-89612816D01*
X60738026Y-89612817D01*
X60728995Y-89681408D01*
X60719965Y-89749999D01*
X60719965Y-89750000D01*
X60738026Y-89887181D01*
X60738027Y-89887186D01*
X60758419Y-89936419D01*
X60765886Y-90005888D01*
X60734610Y-90068367D01*
X60674521Y-90104018D01*
X60660044Y-90106808D01*
X60612817Y-90113026D01*
X60612813Y-90113027D01*
X60484985Y-90165974D01*
X60375209Y-90250209D01*
X60290974Y-90359986D01*
X60266990Y-90417890D01*
X60223149Y-90472294D01*
X60156855Y-90494359D01*
X60089156Y-90477080D01*
X60054054Y-90445925D01*
X59999791Y-90375209D01*
X59890015Y-90290974D01*
X59762186Y-90238027D01*
X59762184Y-90238026D01*
X59762183Y-90238026D01*
X59670727Y-90225985D01*
X59625001Y-90219965D01*
X59624999Y-90219965D01*
X59556408Y-90228995D01*
X59487817Y-90238026D01*
X59487816Y-90238026D01*
X59487813Y-90238027D01*
X59359985Y-90290974D01*
X59270052Y-90359983D01*
X59250209Y-90375209D01*
X59165976Y-90484983D01*
X59165975Y-90484985D01*
X59161029Y-90491431D01*
X59158254Y-90489301D01*
X59119319Y-90526425D01*
X59050712Y-90539647D01*
X58985848Y-90513679D01*
X58965531Y-90490233D01*
X58963971Y-90491431D01*
X58959024Y-90484985D01*
X58959024Y-90484983D01*
X58874791Y-90375209D01*
X58874789Y-90375208D01*
X58874789Y-90375207D01*
X58765015Y-90290974D01*
X58637186Y-90238027D01*
X58637184Y-90238026D01*
X58637183Y-90238026D01*
X58545727Y-90225985D01*
X58500001Y-90219965D01*
X58499999Y-90219965D01*
X58431408Y-90228995D01*
X58362817Y-90238026D01*
X58362816Y-90238026D01*
X58362813Y-90238027D01*
X58234985Y-90290974D01*
X58125209Y-90375209D01*
X58040974Y-90484985D01*
X57988027Y-90612813D01*
X57988026Y-90612816D01*
X57988026Y-90612817D01*
X57969965Y-90750000D01*
X57974493Y-90784396D01*
X57988026Y-90887181D01*
X57988027Y-90887186D01*
X58044086Y-91022527D01*
X58042452Y-91023203D01*
X58056573Y-91081393D01*
X58033725Y-91147421D01*
X57978806Y-91190615D01*
X57932713Y-91199500D01*
X57692287Y-91199500D01*
X57625248Y-91179815D01*
X57579493Y-91127011D01*
X57569549Y-91057853D01*
X57581668Y-91022839D01*
X57580914Y-91022527D01*
X57621561Y-90924394D01*
X57636974Y-90887183D01*
X57655035Y-90750000D01*
X57636974Y-90612817D01*
X57584024Y-90484983D01*
X57499791Y-90375209D01*
X57499789Y-90375208D01*
X57499789Y-90375207D01*
X57390015Y-90290974D01*
X57262186Y-90238027D01*
X57262184Y-90238026D01*
X57262183Y-90238026D01*
X57170727Y-90225985D01*
X57125001Y-90219965D01*
X57124999Y-90219965D01*
X57056408Y-90228995D01*
X56987817Y-90238026D01*
X56987816Y-90238026D01*
X56987813Y-90238027D01*
X56859985Y-90290974D01*
X56750206Y-90375211D01*
X56723375Y-90410179D01*
X56666947Y-90451382D01*
X56597201Y-90455536D01*
X56536281Y-90421323D01*
X56526625Y-90410179D01*
X56499791Y-90375209D01*
X56390015Y-90290974D01*
X56262186Y-90238027D01*
X56262184Y-90238026D01*
X56262183Y-90238026D01*
X56170727Y-90225985D01*
X56125001Y-90219965D01*
X56124999Y-90219965D01*
X56056408Y-90228995D01*
X55987817Y-90238026D01*
X55987816Y-90238026D01*
X55987813Y-90238027D01*
X55859985Y-90290974D01*
X55750206Y-90375211D01*
X55723375Y-90410179D01*
X55666947Y-90451382D01*
X55597201Y-90455536D01*
X55536281Y-90421323D01*
X55526625Y-90410179D01*
X55499791Y-90375209D01*
X55390015Y-90290974D01*
X55262186Y-90238027D01*
X55262184Y-90238026D01*
X55262183Y-90238026D01*
X55170727Y-90225985D01*
X55125001Y-90219965D01*
X55124999Y-90219965D01*
X55056408Y-90228995D01*
X54987817Y-90238026D01*
X54987816Y-90238026D01*
X54987813Y-90238027D01*
X54859985Y-90290974D01*
X54750209Y-90375209D01*
X54665974Y-90484985D01*
X54613027Y-90612813D01*
X54613026Y-90612816D01*
X54613026Y-90612817D01*
X54594965Y-90750000D01*
X54599493Y-90784396D01*
X54613026Y-90887181D01*
X54613027Y-90887186D01*
X54669086Y-91022527D01*
X54667452Y-91023203D01*
X54681573Y-91081393D01*
X54658725Y-91147421D01*
X54603806Y-91190615D01*
X54557713Y-91199500D01*
X50004428Y-91199500D01*
X49995582Y-91199184D01*
X49766982Y-91182834D01*
X49749470Y-91180316D01*
X49529862Y-91132543D01*
X49512887Y-91127559D01*
X49302311Y-91049019D01*
X49286217Y-91041669D01*
X49088963Y-90933959D01*
X49074080Y-90924394D01*
X48894163Y-90789710D01*
X48880792Y-90778124D01*
X48721875Y-90619207D01*
X48710289Y-90605836D01*
X48575605Y-90425919D01*
X48566040Y-90411036D01*
X48500482Y-90290976D01*
X48458327Y-90213777D01*
X48450983Y-90197694D01*
X48372437Y-89987103D01*
X48367458Y-89970144D01*
X48319683Y-89750529D01*
X48317165Y-89733017D01*
X48300816Y-89504418D01*
X48300500Y-89495572D01*
X48300500Y-86222996D01*
X48320185Y-86155957D01*
X48372989Y-86110202D01*
X48442147Y-86100258D01*
X48499987Y-86124621D01*
X48609980Y-86209023D01*
X48609981Y-86209023D01*
X48609982Y-86209024D01*
X48737817Y-86261974D01*
X48860702Y-86278152D01*
X48874999Y-86280035D01*
X48875000Y-86280035D01*
X48875001Y-86280035D01*
X48887947Y-86278330D01*
X49012183Y-86261974D01*
X49078049Y-86234691D01*
X49147517Y-86227223D01*
X49209996Y-86258498D01*
X49245648Y-86318587D01*
X49249500Y-86349253D01*
X49249500Y-89743098D01*
X49260123Y-89831560D01*
X49260124Y-89831563D01*
X49314770Y-89970137D01*
X49315640Y-89972343D01*
X49407077Y-90092922D01*
X49517974Y-90177017D01*
X49527659Y-90184361D01*
X49668437Y-90239876D01*
X49756902Y-90250500D01*
X53243098Y-90250500D01*
X53331563Y-90239876D01*
X53472341Y-90184361D01*
X53592922Y-90092922D01*
X53684361Y-89972341D01*
X53739876Y-89831563D01*
X53750500Y-89743098D01*
X53750500Y-86626252D01*
X53770185Y-86559214D01*
X53822989Y-86513459D01*
X53892147Y-86503515D01*
X53955703Y-86532540D01*
X53962181Y-86538572D01*
X54644870Y-87221261D01*
X54675402Y-87277177D01*
X54676573Y-87276834D01*
X54678152Y-87282213D01*
X54678355Y-87282584D01*
X54678504Y-87283412D01*
X54679071Y-87285342D01*
X54735871Y-87409716D01*
X54735874Y-87409721D01*
X54825411Y-87513053D01*
X54825415Y-87513057D01*
X54885981Y-87551979D01*
X54940441Y-87586978D01*
X55006038Y-87606239D01*
X55071634Y-87625500D01*
X55071635Y-87625500D01*
X55208369Y-87625500D01*
X55339563Y-87586978D01*
X55448482Y-87516980D01*
X55454588Y-87513057D01*
X55454588Y-87513056D01*
X55454591Y-87513055D01*
X55544132Y-87409718D01*
X55600933Y-87285342D01*
X55620392Y-87150000D01*
X55600933Y-87014658D01*
X55574851Y-86957547D01*
X55544134Y-86890285D01*
X55544129Y-86890278D01*
X55454592Y-86786946D01*
X55454588Y-86786942D01*
X55372461Y-86734164D01*
X55339563Y-86713022D01*
X55336433Y-86712103D01*
X55274359Y-86693875D01*
X55215582Y-86656100D01*
X55186558Y-86592544D01*
X55196503Y-86523385D01*
X55242258Y-86470582D01*
X55261844Y-86460338D01*
X55265018Y-86459024D01*
X55374791Y-86374791D01*
X55459024Y-86265018D01*
X55511974Y-86137183D01*
X55530035Y-86000000D01*
X55511974Y-85862817D01*
X55484898Y-85797451D01*
X55477430Y-85727983D01*
X55484897Y-85702551D01*
X55511974Y-85637183D01*
X55530035Y-85500000D01*
X55530035Y-85499999D01*
X57469965Y-85499999D01*
X57469965Y-85500000D01*
X57488026Y-85637184D01*
X57515100Y-85702549D01*
X57522567Y-85772019D01*
X57515100Y-85797451D01*
X57488026Y-85862815D01*
X57488026Y-85862816D01*
X57488026Y-85862817D01*
X57469965Y-86000000D01*
X57486627Y-86126560D01*
X57488026Y-86137181D01*
X57488027Y-86137186D01*
X57540974Y-86265015D01*
X57540975Y-86265017D01*
X57540976Y-86265018D01*
X57625209Y-86374791D01*
X57734982Y-86459024D01*
X57734983Y-86459024D01*
X57734984Y-86459025D01*
X57762886Y-86470582D01*
X57862817Y-86511974D01*
X57985702Y-86528152D01*
X57999999Y-86530035D01*
X58000000Y-86530035D01*
X58000001Y-86530035D01*
X58012947Y-86528330D01*
X58137183Y-86511974D01*
X58265018Y-86459024D01*
X58374791Y-86374791D01*
X58459024Y-86265018D01*
X58511974Y-86137183D01*
X58530035Y-86000000D01*
X58511974Y-85862817D01*
X58484898Y-85797451D01*
X58477430Y-85727983D01*
X58484897Y-85702551D01*
X58511974Y-85637183D01*
X58530035Y-85500000D01*
X58511974Y-85362817D01*
X58459024Y-85234983D01*
X58374791Y-85125209D01*
X58374789Y-85125208D01*
X58374789Y-85125207D01*
X58265015Y-85040974D01*
X58137186Y-84988027D01*
X58137184Y-84988026D01*
X58137183Y-84988026D01*
X58045727Y-84975985D01*
X58000001Y-84969965D01*
X57999999Y-84969965D01*
X57931408Y-84978995D01*
X57862817Y-84988026D01*
X57862816Y-84988026D01*
X57862813Y-84988027D01*
X57734985Y-85040974D01*
X57625209Y-85125209D01*
X57540974Y-85234985D01*
X57488027Y-85362813D01*
X57488026Y-85362818D01*
X57469965Y-85499999D01*
X55530035Y-85499999D01*
X55511974Y-85362817D01*
X55459024Y-85234983D01*
X55374791Y-85125209D01*
X55374789Y-85125208D01*
X55374789Y-85125207D01*
X55265015Y-85040974D01*
X55137186Y-84988027D01*
X55137184Y-84988026D01*
X55137183Y-84988026D01*
X55045727Y-84975985D01*
X55000001Y-84969965D01*
X54999999Y-84969965D01*
X54931408Y-84978995D01*
X54862817Y-84988026D01*
X54862816Y-84988026D01*
X54862813Y-84988027D01*
X54734985Y-85040974D01*
X54625209Y-85125209D01*
X54540974Y-85234985D01*
X54488027Y-85362813D01*
X54488026Y-85362818D01*
X54469965Y-85499999D01*
X54469965Y-85500002D01*
X54484987Y-85614106D01*
X54474221Y-85683141D01*
X54427841Y-85735397D01*
X54360572Y-85754282D01*
X54293772Y-85733801D01*
X54274367Y-85717972D01*
X54211819Y-85655424D01*
X54178334Y-85594101D01*
X54175500Y-85567743D01*
X54175500Y-84599500D01*
X54195185Y-84532461D01*
X54247989Y-84486706D01*
X54299500Y-84475500D01*
X54318367Y-84475500D01*
X54449561Y-84436978D01*
X54564589Y-84363055D01*
X54654130Y-84259718D01*
X54710931Y-84135342D01*
X54710932Y-84135337D01*
X54713429Y-84126835D01*
X54716295Y-84127676D01*
X54739091Y-84077748D01*
X54745118Y-84071273D01*
X55449573Y-83366819D01*
X55510896Y-83333334D01*
X55537254Y-83330500D01*
X57372725Y-83330500D01*
X57372727Y-83330500D01*
X57474588Y-83303207D01*
X57565913Y-83250480D01*
X59816393Y-81000000D01*
X64019610Y-81000000D01*
X64039068Y-81135337D01*
X64039070Y-81135345D01*
X64095867Y-81259714D01*
X64095872Y-81259721D01*
X64185409Y-81363053D01*
X64185413Y-81363057D01*
X64244360Y-81400939D01*
X64300439Y-81436978D01*
X64366036Y-81456239D01*
X64431632Y-81475500D01*
X64431633Y-81475500D01*
X64568367Y-81475500D01*
X64699561Y-81436978D01*
X64814589Y-81363055D01*
X64904130Y-81259718D01*
X64960931Y-81135342D01*
X64980390Y-81000000D01*
X64960931Y-80864658D01*
X64923688Y-80783107D01*
X64904132Y-80740285D01*
X64904127Y-80740278D01*
X64814590Y-80636946D01*
X64814586Y-80636942D01*
X64699559Y-80563021D01*
X64568368Y-80524500D01*
X64568367Y-80524500D01*
X64431633Y-80524500D01*
X64431632Y-80524500D01*
X64300440Y-80563021D01*
X64185413Y-80636942D01*
X64185409Y-80636946D01*
X64095872Y-80740278D01*
X64095867Y-80740285D01*
X64039070Y-80864654D01*
X64039068Y-80864662D01*
X64019610Y-81000000D01*
X59816393Y-81000000D01*
X65129574Y-75686819D01*
X65190897Y-75653334D01*
X65217255Y-75650500D01*
X70149589Y-75650500D01*
X70216628Y-75670185D01*
X70262383Y-75722989D01*
X70272327Y-75792147D01*
X70243302Y-75855703D01*
X70211589Y-75881887D01*
X70174750Y-75903155D01*
X70174750Y-75903156D01*
X70136050Y-75925500D01*
X70129087Y-75929520D01*
X70129084Y-75929522D01*
X66679522Y-79379084D01*
X66679518Y-79379090D01*
X66626792Y-79470412D01*
X66626793Y-79470413D01*
X66599500Y-79572273D01*
X66599500Y-83705359D01*
X66588294Y-83756870D01*
X66539070Y-83864654D01*
X66539068Y-83864662D01*
X66519610Y-84000000D01*
X66539068Y-84135337D01*
X66539070Y-84135345D01*
X66595867Y-84259714D01*
X66595870Y-84259718D01*
X66672546Y-84348208D01*
X66701571Y-84411763D01*
X66691627Y-84480922D01*
X66666514Y-84517091D01*
X66162071Y-85021535D01*
X66100748Y-85055020D01*
X66031057Y-85050036D01*
X65975123Y-85008165D01*
X65952905Y-84948597D01*
X65951652Y-84948778D01*
X65950823Y-84943014D01*
X65950706Y-84942700D01*
X65950682Y-84942032D01*
X65942541Y-84885410D01*
X65930931Y-84804658D01*
X65905856Y-84749751D01*
X65874132Y-84680285D01*
X65874127Y-84680278D01*
X65784590Y-84576946D01*
X65784586Y-84576942D01*
X65683489Y-84511973D01*
X65669561Y-84503022D01*
X65669560Y-84503021D01*
X65669559Y-84503021D01*
X65538368Y-84464500D01*
X65538367Y-84464500D01*
X65401633Y-84464500D01*
X65401632Y-84464500D01*
X65270440Y-84503021D01*
X65155413Y-84576942D01*
X65155409Y-84576946D01*
X65065872Y-84680278D01*
X65065867Y-84680285D01*
X65009070Y-84804654D01*
X65009068Y-84804662D01*
X64989610Y-84940000D01*
X65009068Y-85075337D01*
X65009070Y-85075345D01*
X65065867Y-85199714D01*
X65065872Y-85199721D01*
X65155409Y-85303053D01*
X65155413Y-85303057D01*
X65209355Y-85337722D01*
X65270439Y-85376978D01*
X65336036Y-85396239D01*
X65401632Y-85415500D01*
X65468745Y-85415500D01*
X65535784Y-85435185D01*
X65581539Y-85487989D01*
X65591483Y-85557147D01*
X65562458Y-85620703D01*
X65556426Y-85627181D01*
X65470426Y-85713181D01*
X65409103Y-85746666D01*
X65382745Y-85749500D01*
X62812134Y-85749500D01*
X62745095Y-85729815D01*
X62699340Y-85677011D01*
X62689396Y-85607853D01*
X62718421Y-85544297D01*
X62764682Y-85510939D01*
X62827346Y-85484983D01*
X62890018Y-85459024D01*
X62999791Y-85374791D01*
X63084024Y-85265018D01*
X63136974Y-85137183D01*
X63155035Y-85000000D01*
X63136974Y-84862817D01*
X63095203Y-84761972D01*
X63084025Y-84734984D01*
X63084023Y-84734981D01*
X63066949Y-84712731D01*
X63064125Y-84709051D01*
X63038930Y-84643884D01*
X63052967Y-84575438D01*
X63101780Y-84525448D01*
X63130409Y-84513789D01*
X63137177Y-84511974D01*
X63137183Y-84511974D01*
X63202548Y-84484898D01*
X63272017Y-84477430D01*
X63297448Y-84484897D01*
X63362817Y-84511974D01*
X63484039Y-84527933D01*
X63499999Y-84530035D01*
X63500000Y-84530035D01*
X63500001Y-84530035D01*
X63512947Y-84528330D01*
X63637183Y-84511974D01*
X63702548Y-84484898D01*
X63772017Y-84477430D01*
X63797448Y-84484897D01*
X63862817Y-84511974D01*
X63984039Y-84527933D01*
X63999999Y-84530035D01*
X64000000Y-84530035D01*
X64000001Y-84530035D01*
X64012947Y-84528330D01*
X64137183Y-84511974D01*
X64202548Y-84484898D01*
X64272017Y-84477430D01*
X64297448Y-84484897D01*
X64362817Y-84511974D01*
X64484039Y-84527933D01*
X64499999Y-84530035D01*
X64500000Y-84530035D01*
X64500001Y-84530035D01*
X64512947Y-84528330D01*
X64637183Y-84511974D01*
X64765018Y-84459024D01*
X64874791Y-84374791D01*
X64959024Y-84265018D01*
X65011974Y-84137183D01*
X65030035Y-84000000D01*
X65011974Y-83862817D01*
X64961219Y-83740282D01*
X64959025Y-83734985D01*
X64959024Y-83734984D01*
X64959024Y-83734983D01*
X64874791Y-83625209D01*
X64874789Y-83625208D01*
X64874789Y-83625207D01*
X64803468Y-83570480D01*
X64765018Y-83540976D01*
X64765017Y-83540975D01*
X64765015Y-83540974D01*
X64637186Y-83488027D01*
X64637184Y-83488026D01*
X64637183Y-83488026D01*
X64526539Y-83473459D01*
X64500001Y-83469965D01*
X64499999Y-83469965D01*
X64362815Y-83488026D01*
X64297451Y-83515100D01*
X64227981Y-83522567D01*
X64202549Y-83515100D01*
X64137184Y-83488026D01*
X64000001Y-83469965D01*
X63999999Y-83469965D01*
X63862815Y-83488026D01*
X63797451Y-83515100D01*
X63727981Y-83522567D01*
X63702549Y-83515100D01*
X63637184Y-83488026D01*
X63500001Y-83469965D01*
X63499999Y-83469965D01*
X63362815Y-83488026D01*
X63297451Y-83515100D01*
X63227981Y-83522567D01*
X63202549Y-83515100D01*
X63137184Y-83488026D01*
X63000001Y-83469965D01*
X62999999Y-83469965D01*
X62862815Y-83488026D01*
X62797451Y-83515100D01*
X62727981Y-83522567D01*
X62702549Y-83515100D01*
X62637181Y-83488025D01*
X62620869Y-83485877D01*
X62556973Y-83457608D01*
X62518505Y-83399282D01*
X62514122Y-83379137D01*
X62511974Y-83362817D01*
X62484898Y-83297451D01*
X62477430Y-83227983D01*
X62484897Y-83202551D01*
X62511974Y-83137183D01*
X62530035Y-83000000D01*
X62511974Y-82862817D01*
X62459024Y-82734983D01*
X62374791Y-82625209D01*
X62374789Y-82625208D01*
X62374789Y-82625207D01*
X62265015Y-82540974D01*
X62137186Y-82488027D01*
X62137184Y-82488026D01*
X62137183Y-82488026D01*
X62045727Y-82475985D01*
X62000001Y-82469965D01*
X61999999Y-82469965D01*
X61931408Y-82478995D01*
X61862817Y-82488026D01*
X61862816Y-82488026D01*
X61862813Y-82488027D01*
X61734985Y-82540974D01*
X61625209Y-82625209D01*
X61540974Y-82734985D01*
X61488027Y-82862813D01*
X61488026Y-82862818D01*
X61469965Y-82999999D01*
X61469965Y-83000000D01*
X61488026Y-83137184D01*
X61515100Y-83202549D01*
X61522567Y-83272019D01*
X61515100Y-83297451D01*
X61488026Y-83362815D01*
X61471541Y-83488026D01*
X61469965Y-83500000D01*
X61486449Y-83625207D01*
X61488026Y-83637181D01*
X61488027Y-83637186D01*
X61540974Y-83765015D01*
X61540975Y-83765016D01*
X61540976Y-83765018D01*
X61625209Y-83874791D01*
X61734982Y-83959024D01*
X61862817Y-84011974D01*
X61879125Y-84014121D01*
X61943018Y-84042384D01*
X61981491Y-84100707D01*
X61985877Y-84120869D01*
X61988024Y-84137176D01*
X61988027Y-84137186D01*
X62040974Y-84265015D01*
X62040975Y-84265017D01*
X62040976Y-84265018D01*
X62125209Y-84374791D01*
X62226452Y-84452478D01*
X62267653Y-84508905D01*
X62271808Y-84578651D01*
X62249340Y-84626339D01*
X62214666Y-84671527D01*
X62158238Y-84712730D01*
X62132476Y-84718980D01*
X62010945Y-84734981D01*
X61987817Y-84738026D01*
X61987816Y-84738026D01*
X61987813Y-84738027D01*
X61859984Y-84790974D01*
X61859982Y-84790976D01*
X61762986Y-84865404D01*
X61697817Y-84890598D01*
X61629372Y-84876560D01*
X61612013Y-84865404D01*
X61545788Y-84814587D01*
X61515018Y-84790976D01*
X61515017Y-84790975D01*
X61515015Y-84790974D01*
X61387186Y-84738027D01*
X61387184Y-84738026D01*
X61387183Y-84738026D01*
X61295727Y-84725985D01*
X61250001Y-84719965D01*
X61249999Y-84719965D01*
X61202323Y-84726242D01*
X61112817Y-84738026D01*
X61112816Y-84738026D01*
X61112813Y-84738027D01*
X60984984Y-84790974D01*
X60984982Y-84790976D01*
X60887986Y-84865404D01*
X60822817Y-84890598D01*
X60754372Y-84876560D01*
X60737013Y-84865404D01*
X60670788Y-84814587D01*
X60640018Y-84790976D01*
X60640017Y-84790975D01*
X60640015Y-84790974D01*
X60512186Y-84738027D01*
X60512184Y-84738026D01*
X60512183Y-84738026D01*
X60420727Y-84725985D01*
X60375001Y-84719965D01*
X60374999Y-84719965D01*
X60327323Y-84726242D01*
X60237817Y-84738026D01*
X60237816Y-84738026D01*
X60237813Y-84738027D01*
X60109984Y-84790974D01*
X60109982Y-84790976D01*
X60012986Y-84865404D01*
X59947817Y-84890598D01*
X59879372Y-84876560D01*
X59862013Y-84865404D01*
X59795788Y-84814587D01*
X59765018Y-84790976D01*
X59765017Y-84790975D01*
X59765015Y-84790974D01*
X59637186Y-84738027D01*
X59637184Y-84738026D01*
X59637183Y-84738026D01*
X59545727Y-84725985D01*
X59500001Y-84719965D01*
X59499999Y-84719965D01*
X59452323Y-84726242D01*
X59362817Y-84738026D01*
X59362816Y-84738026D01*
X59362813Y-84738027D01*
X59234985Y-84790974D01*
X59125209Y-84875209D01*
X59040974Y-84984985D01*
X58988027Y-85112813D01*
X58988026Y-85112816D01*
X58988026Y-85112817D01*
X58969965Y-85250000D01*
X58986682Y-85376978D01*
X58988026Y-85387181D01*
X58988027Y-85387186D01*
X59040974Y-85515015D01*
X59040975Y-85515017D01*
X59040976Y-85515018D01*
X59125209Y-85624791D01*
X59234982Y-85709024D01*
X59234983Y-85709024D01*
X59234984Y-85709025D01*
X59359110Y-85760439D01*
X59413514Y-85804279D01*
X59435579Y-85870573D01*
X59418300Y-85938273D01*
X59367163Y-85985884D01*
X59359110Y-85989561D01*
X59234986Y-86040974D01*
X59125209Y-86125209D01*
X59040974Y-86234985D01*
X58988027Y-86362813D01*
X58988026Y-86362818D01*
X58969965Y-86499999D01*
X58969965Y-86500000D01*
X58988026Y-86637181D01*
X58988027Y-86637186D01*
X59040974Y-86765015D01*
X59040975Y-86765017D01*
X59040976Y-86765018D01*
X59057802Y-86786946D01*
X59125207Y-86874789D01*
X59127718Y-86877299D01*
X59129160Y-86879940D01*
X59130157Y-86881239D01*
X59129954Y-86881394D01*
X59161207Y-86938621D01*
X59156226Y-87008313D01*
X59154604Y-87012438D01*
X59113025Y-87112819D01*
X59094965Y-87249999D01*
X59094965Y-87250002D01*
X59100058Y-87288689D01*
X59089292Y-87357725D01*
X59042912Y-87409980D01*
X58975643Y-87428865D01*
X58908842Y-87408384D01*
X58878744Y-87380361D01*
X58874791Y-87375209D01*
X58765018Y-87290976D01*
X58765017Y-87290975D01*
X58765015Y-87290974D01*
X58637186Y-87238027D01*
X58637184Y-87238026D01*
X58637183Y-87238026D01*
X58545727Y-87225985D01*
X58500001Y-87219965D01*
X58499999Y-87219965D01*
X58431408Y-87228995D01*
X58362817Y-87238026D01*
X58362816Y-87238026D01*
X58362813Y-87238027D01*
X58234985Y-87290974D01*
X58125209Y-87375209D01*
X58040974Y-87484985D01*
X57988027Y-87612813D01*
X57988026Y-87612816D01*
X57988026Y-87612817D01*
X57987998Y-87613027D01*
X57969965Y-87749999D01*
X57969965Y-87750000D01*
X57988026Y-87887181D01*
X57988027Y-87887186D01*
X58040974Y-88015015D01*
X58040975Y-88015017D01*
X58040976Y-88015018D01*
X58125209Y-88124791D01*
X58234982Y-88209024D01*
X58362817Y-88261974D01*
X58485702Y-88278152D01*
X58499999Y-88280035D01*
X58500000Y-88280035D01*
X58500001Y-88280035D01*
X58512947Y-88278330D01*
X58637183Y-88261974D01*
X58765018Y-88209024D01*
X58874791Y-88124791D01*
X58959024Y-88015018D01*
X59011974Y-87887183D01*
X59030035Y-87750000D01*
X59024941Y-87711310D01*
X59035706Y-87642278D01*
X59082085Y-87590021D01*
X59149354Y-87571135D01*
X59216154Y-87591615D01*
X59246256Y-87619640D01*
X59250209Y-87624791D01*
X59359982Y-87709024D01*
X59487817Y-87761974D01*
X59610702Y-87778152D01*
X59624999Y-87780035D01*
X59625000Y-87780035D01*
X59625001Y-87780035D01*
X59637947Y-87778330D01*
X59762183Y-87761974D01*
X59890018Y-87709024D01*
X59999791Y-87624791D01*
X60084024Y-87515018D01*
X60084024Y-87515015D01*
X60088971Y-87508570D01*
X60091769Y-87510717D01*
X60130501Y-87473668D01*
X60199087Y-87460334D01*
X60263993Y-87486196D01*
X60284438Y-87509790D01*
X60286029Y-87508570D01*
X60290975Y-87515015D01*
X60290976Y-87515018D01*
X60375209Y-87624791D01*
X60484982Y-87709024D01*
X60612817Y-87761974D01*
X60660044Y-87768191D01*
X60723939Y-87796457D01*
X60762411Y-87854781D01*
X60763243Y-87924646D01*
X60758420Y-87938582D01*
X60738025Y-87987819D01*
X60719965Y-88124999D01*
X60719965Y-88125000D01*
X60737998Y-88261974D01*
X60738026Y-88262181D01*
X60738027Y-88262186D01*
X60790974Y-88390015D01*
X60790975Y-88390017D01*
X60790976Y-88390018D01*
X60875209Y-88499791D01*
X60984982Y-88584024D01*
X61112817Y-88636974D01*
X61235702Y-88653152D01*
X61249999Y-88655035D01*
X61250000Y-88655035D01*
X61250001Y-88655035D01*
X61262947Y-88653330D01*
X61387183Y-88636974D01*
X61515018Y-88584024D01*
X61624791Y-88499791D01*
X61709024Y-88390018D01*
X61761974Y-88262183D01*
X61780035Y-88125000D01*
X61780007Y-88124791D01*
X61778152Y-88110702D01*
X61761974Y-87987817D01*
X61720292Y-87887186D01*
X61709025Y-87859985D01*
X61709024Y-87859984D01*
X61709024Y-87859983D01*
X61624791Y-87750209D01*
X61624789Y-87750208D01*
X61624789Y-87750207D01*
X61558220Y-87699127D01*
X61515018Y-87665976D01*
X61515017Y-87665975D01*
X61515015Y-87665974D01*
X61387186Y-87613027D01*
X61387184Y-87613026D01*
X61387183Y-87613026D01*
X61363819Y-87609950D01*
X61339955Y-87606808D01*
X61276059Y-87578541D01*
X61237589Y-87520216D01*
X61236758Y-87450351D01*
X61241581Y-87436417D01*
X61252531Y-87409980D01*
X61261974Y-87387183D01*
X61280035Y-87250000D01*
X61267242Y-87152832D01*
X61278007Y-87083799D01*
X61324387Y-87031543D01*
X61373994Y-87013710D01*
X61387183Y-87011974D01*
X61515018Y-86959024D01*
X61624791Y-86874791D01*
X61709024Y-86765018D01*
X61761974Y-86637183D01*
X61780035Y-86500000D01*
X61769372Y-86419009D01*
X61780137Y-86349976D01*
X61826517Y-86297720D01*
X61876122Y-86279887D01*
X62012183Y-86261974D01*
X62078049Y-86234691D01*
X62147517Y-86227223D01*
X62209996Y-86258498D01*
X62245648Y-86318587D01*
X62249500Y-86349253D01*
X62249500Y-89743098D01*
X62260123Y-89831560D01*
X62260124Y-89831563D01*
X62314770Y-89970137D01*
X62315640Y-89972343D01*
X62407077Y-90092922D01*
X62517974Y-90177017D01*
X62527659Y-90184361D01*
X62668437Y-90239876D01*
X62756902Y-90250500D01*
X66243098Y-90250500D01*
X66331563Y-90239876D01*
X66472341Y-90184361D01*
X66592922Y-90092922D01*
X66684361Y-89972341D01*
X66739876Y-89831563D01*
X66750500Y-89743098D01*
X66750500Y-86256902D01*
X66750051Y-86253167D01*
X66739876Y-86168439D01*
X66739876Y-86168437D01*
X66684361Y-86027659D01*
X66654306Y-85988026D01*
X66592922Y-85907078D01*
X66588794Y-85902950D01*
X66555312Y-85841625D01*
X66560300Y-85771934D01*
X66588797Y-85727595D01*
X66816393Y-85499999D01*
X67469965Y-85499999D01*
X67469965Y-85500000D01*
X67488026Y-85637184D01*
X67515100Y-85702549D01*
X67522567Y-85772019D01*
X67515100Y-85797451D01*
X67488026Y-85862815D01*
X67488026Y-85862816D01*
X67488026Y-85862817D01*
X67469965Y-86000000D01*
X67486627Y-86126560D01*
X67488026Y-86137181D01*
X67488027Y-86137186D01*
X67540974Y-86265015D01*
X67540975Y-86265017D01*
X67540976Y-86265018D01*
X67625209Y-86374791D01*
X67734982Y-86459024D01*
X67734983Y-86459024D01*
X67734984Y-86459025D01*
X67760549Y-86469614D01*
X67862817Y-86511974D01*
X67862830Y-86511975D01*
X67867625Y-86513261D01*
X67927288Y-86549622D01*
X67957821Y-86612467D01*
X67949530Y-86681844D01*
X67905048Y-86735724D01*
X67902579Y-86737353D01*
X67825414Y-86786943D01*
X67825411Y-86786946D01*
X67735874Y-86890278D01*
X67735869Y-86890285D01*
X67679072Y-87014654D01*
X67679070Y-87014662D01*
X67659612Y-87150000D01*
X67678793Y-87283412D01*
X67679071Y-87285342D01*
X67679071Y-87285343D01*
X67679072Y-87285345D01*
X67735869Y-87409714D01*
X67735874Y-87409721D01*
X67825411Y-87513053D01*
X67825415Y-87513057D01*
X67885981Y-87551979D01*
X67940441Y-87586978D01*
X68006038Y-87606239D01*
X68071634Y-87625500D01*
X68071635Y-87625500D01*
X68208369Y-87625500D01*
X68339563Y-87586978D01*
X68448482Y-87516980D01*
X68454588Y-87513057D01*
X68454588Y-87513056D01*
X68454591Y-87513055D01*
X68544132Y-87409718D01*
X68600933Y-87285342D01*
X68620392Y-87150000D01*
X68600933Y-87014658D01*
X68574851Y-86957547D01*
X68544134Y-86890285D01*
X68544129Y-86890278D01*
X68454592Y-86786946D01*
X68454588Y-86786942D01*
X68363738Y-86728558D01*
X68339563Y-86713022D01*
X68339562Y-86713021D01*
X68339561Y-86713021D01*
X68274360Y-86693876D01*
X68215583Y-86656101D01*
X68186558Y-86592545D01*
X68196502Y-86523387D01*
X68242257Y-86470583D01*
X68261844Y-86460338D01*
X68265018Y-86459024D01*
X68374791Y-86374791D01*
X68459024Y-86265018D01*
X68511974Y-86137183D01*
X68530035Y-86000000D01*
X68511974Y-85862817D01*
X68484898Y-85797451D01*
X68477430Y-85727983D01*
X68484897Y-85702551D01*
X68511974Y-85637183D01*
X68530035Y-85500000D01*
X68530035Y-85499999D01*
X70469965Y-85499999D01*
X70469965Y-85500000D01*
X70488026Y-85637184D01*
X70515100Y-85702549D01*
X70522567Y-85772019D01*
X70515100Y-85797451D01*
X70488026Y-85862815D01*
X70488026Y-85862816D01*
X70488026Y-85862817D01*
X70469965Y-86000000D01*
X70486627Y-86126560D01*
X70488026Y-86137181D01*
X70488027Y-86137186D01*
X70540974Y-86265015D01*
X70540975Y-86265017D01*
X70540976Y-86265018D01*
X70625209Y-86374791D01*
X70734982Y-86459024D01*
X70734983Y-86459024D01*
X70734984Y-86459025D01*
X70762886Y-86470582D01*
X70862817Y-86511974D01*
X70985702Y-86528152D01*
X70999999Y-86530035D01*
X71000000Y-86530035D01*
X71000001Y-86530035D01*
X71012947Y-86528330D01*
X71137183Y-86511974D01*
X71265018Y-86459024D01*
X71374791Y-86374791D01*
X71459024Y-86265018D01*
X71511974Y-86137183D01*
X71530035Y-86000000D01*
X71511974Y-85862817D01*
X71484898Y-85797451D01*
X71477430Y-85727983D01*
X71484897Y-85702551D01*
X71511974Y-85637183D01*
X71530035Y-85500000D01*
X71511974Y-85362817D01*
X71459024Y-85234983D01*
X71374791Y-85125209D01*
X71374789Y-85125208D01*
X71374789Y-85125207D01*
X71265015Y-85040974D01*
X71137186Y-84988027D01*
X71137184Y-84988026D01*
X71137183Y-84988026D01*
X71045727Y-84975985D01*
X71000001Y-84969965D01*
X70999999Y-84969965D01*
X70931408Y-84978995D01*
X70862817Y-84988026D01*
X70862816Y-84988026D01*
X70862813Y-84988027D01*
X70734985Y-85040974D01*
X70625209Y-85125209D01*
X70540974Y-85234985D01*
X70488027Y-85362813D01*
X70488026Y-85362818D01*
X70469965Y-85499999D01*
X68530035Y-85499999D01*
X68511974Y-85362817D01*
X68459024Y-85234983D01*
X68374791Y-85125209D01*
X68374789Y-85125208D01*
X68374789Y-85125207D01*
X68265015Y-85040974D01*
X68137186Y-84988027D01*
X68137184Y-84988026D01*
X68137183Y-84988026D01*
X68045727Y-84975985D01*
X68000001Y-84969965D01*
X67999999Y-84969965D01*
X67931408Y-84978995D01*
X67862817Y-84988026D01*
X67862816Y-84988026D01*
X67862813Y-84988027D01*
X67734985Y-85040974D01*
X67625209Y-85125209D01*
X67540974Y-85234985D01*
X67488027Y-85362813D01*
X67488026Y-85362818D01*
X67469965Y-85499999D01*
X66816393Y-85499999D01*
X67795480Y-84520913D01*
X67821699Y-84475500D01*
X67848207Y-84429587D01*
X67875500Y-84327727D01*
X67875500Y-83308522D01*
X67895185Y-83241483D01*
X67911814Y-83220846D01*
X69235703Y-81896956D01*
X69235708Y-81896953D01*
X69245911Y-81886749D01*
X69245913Y-81886749D01*
X69320480Y-81812182D01*
X69373207Y-81720856D01*
X69400501Y-81618996D01*
X69400501Y-81513542D01*
X69400501Y-81505947D01*
X69400500Y-81505929D01*
X69400500Y-80342255D01*
X69420185Y-80275216D01*
X69436819Y-80254574D01*
X71004574Y-78686819D01*
X71065897Y-78653334D01*
X71092255Y-78650500D01*
X76677725Y-78650500D01*
X76677727Y-78650500D01*
X76779588Y-78623207D01*
X76870913Y-78570480D01*
X78070479Y-77370914D01*
X78118113Y-77288409D01*
X78168681Y-77240195D01*
X78237288Y-77226973D01*
X78302152Y-77252941D01*
X78342680Y-77309855D01*
X78349500Y-77350411D01*
X78349500Y-83812865D01*
X78329815Y-83879904D01*
X78277011Y-83925659D01*
X78207853Y-83935603D01*
X78144297Y-83906578D01*
X78110939Y-83860317D01*
X78071464Y-83765016D01*
X78059024Y-83734983D01*
X77974791Y-83625209D01*
X77974789Y-83625208D01*
X77974789Y-83625207D01*
X77903468Y-83570480D01*
X77865018Y-83540976D01*
X77865017Y-83540975D01*
X77865015Y-83540974D01*
X77737186Y-83488027D01*
X77737184Y-83488026D01*
X77737183Y-83488026D01*
X77626539Y-83473459D01*
X77600001Y-83469965D01*
X77599999Y-83469965D01*
X77462815Y-83488026D01*
X77397451Y-83515100D01*
X77327981Y-83522567D01*
X77302549Y-83515100D01*
X77237184Y-83488026D01*
X77100001Y-83469965D01*
X77099999Y-83469965D01*
X76962815Y-83488026D01*
X76897451Y-83515100D01*
X76827981Y-83522567D01*
X76802549Y-83515100D01*
X76737184Y-83488026D01*
X76600001Y-83469965D01*
X76599999Y-83469965D01*
X76462815Y-83488026D01*
X76397451Y-83515100D01*
X76327981Y-83522567D01*
X76302549Y-83515100D01*
X76237184Y-83488026D01*
X76100001Y-83469965D01*
X76099999Y-83469965D01*
X75962815Y-83488026D01*
X75897451Y-83515100D01*
X75827981Y-83522567D01*
X75802549Y-83515100D01*
X75737181Y-83488025D01*
X75720869Y-83485877D01*
X75656973Y-83457608D01*
X75618505Y-83399282D01*
X75614122Y-83379137D01*
X75611974Y-83362817D01*
X75584898Y-83297451D01*
X75577430Y-83227983D01*
X75584897Y-83202551D01*
X75611974Y-83137183D01*
X75630035Y-83000000D01*
X75611974Y-82862817D01*
X75559024Y-82734983D01*
X75474791Y-82625209D01*
X75474789Y-82625208D01*
X75474789Y-82625207D01*
X75365015Y-82540974D01*
X75237186Y-82488027D01*
X75237184Y-82488026D01*
X75237183Y-82488026D01*
X75145727Y-82475985D01*
X75100001Y-82469965D01*
X75099999Y-82469965D01*
X75031408Y-82478995D01*
X74962817Y-82488026D01*
X74962816Y-82488026D01*
X74962813Y-82488027D01*
X74834985Y-82540974D01*
X74725209Y-82625209D01*
X74640974Y-82734985D01*
X74588027Y-82862813D01*
X74588026Y-82862818D01*
X74569965Y-82999999D01*
X74569965Y-83000000D01*
X74588026Y-83137184D01*
X74615100Y-83202549D01*
X74622567Y-83272019D01*
X74615100Y-83297451D01*
X74588026Y-83362815D01*
X74571541Y-83488026D01*
X74569965Y-83500000D01*
X74586449Y-83625207D01*
X74588026Y-83637181D01*
X74588027Y-83637186D01*
X74640974Y-83765015D01*
X74640975Y-83765016D01*
X74640976Y-83765018D01*
X74725209Y-83874791D01*
X74834982Y-83959024D01*
X74962817Y-84011974D01*
X74979125Y-84014121D01*
X75043018Y-84042384D01*
X75081491Y-84100707D01*
X75085877Y-84120869D01*
X75088024Y-84137176D01*
X75088027Y-84137186D01*
X75140974Y-84265015D01*
X75140975Y-84265017D01*
X75140976Y-84265018D01*
X75189094Y-84327726D01*
X75225209Y-84374791D01*
X75272679Y-84411217D01*
X75313881Y-84467645D01*
X75318035Y-84537392D01*
X75283822Y-84598311D01*
X75272680Y-84607966D01*
X75250207Y-84625210D01*
X75214665Y-84671529D01*
X75158236Y-84712731D01*
X75132476Y-84718980D01*
X75010945Y-84734981D01*
X74987817Y-84738026D01*
X74987816Y-84738026D01*
X74987813Y-84738027D01*
X74859984Y-84790974D01*
X74859982Y-84790976D01*
X74762986Y-84865404D01*
X74697817Y-84890598D01*
X74629372Y-84876560D01*
X74612013Y-84865404D01*
X74545788Y-84814587D01*
X74515018Y-84790976D01*
X74515017Y-84790975D01*
X74515015Y-84790974D01*
X74387186Y-84738027D01*
X74387184Y-84738026D01*
X74387183Y-84738026D01*
X74295727Y-84725985D01*
X74250001Y-84719965D01*
X74249999Y-84719965D01*
X74202323Y-84726242D01*
X74112817Y-84738026D01*
X74112816Y-84738026D01*
X74112813Y-84738027D01*
X73984984Y-84790974D01*
X73984982Y-84790976D01*
X73887986Y-84865404D01*
X73822817Y-84890598D01*
X73754372Y-84876560D01*
X73737013Y-84865404D01*
X73670788Y-84814587D01*
X73640018Y-84790976D01*
X73640017Y-84790975D01*
X73640015Y-84790974D01*
X73512186Y-84738027D01*
X73512184Y-84738026D01*
X73512183Y-84738026D01*
X73420727Y-84725985D01*
X73375001Y-84719965D01*
X73374999Y-84719965D01*
X73327323Y-84726242D01*
X73237817Y-84738026D01*
X73237816Y-84738026D01*
X73237813Y-84738027D01*
X73109984Y-84790974D01*
X73109982Y-84790976D01*
X73012986Y-84865404D01*
X72947817Y-84890598D01*
X72879372Y-84876560D01*
X72862013Y-84865404D01*
X72795788Y-84814587D01*
X72765018Y-84790976D01*
X72765017Y-84790975D01*
X72765015Y-84790974D01*
X72637186Y-84738027D01*
X72637184Y-84738026D01*
X72637183Y-84738026D01*
X72545727Y-84725985D01*
X72500001Y-84719965D01*
X72499999Y-84719965D01*
X72452323Y-84726242D01*
X72362817Y-84738026D01*
X72362816Y-84738026D01*
X72362813Y-84738027D01*
X72234985Y-84790974D01*
X72125209Y-84875209D01*
X72040974Y-84984985D01*
X71988027Y-85112813D01*
X71988026Y-85112816D01*
X71988026Y-85112817D01*
X71969965Y-85250000D01*
X71986682Y-85376978D01*
X71988026Y-85387181D01*
X71988027Y-85387186D01*
X72040974Y-85515015D01*
X72040975Y-85515017D01*
X72040976Y-85515018D01*
X72125209Y-85624791D01*
X72234982Y-85709024D01*
X72234983Y-85709024D01*
X72234984Y-85709025D01*
X72359110Y-85760439D01*
X72413514Y-85804279D01*
X72435579Y-85870573D01*
X72418300Y-85938273D01*
X72367163Y-85985884D01*
X72359110Y-85989561D01*
X72234986Y-86040974D01*
X72125209Y-86125209D01*
X72040974Y-86234985D01*
X71988027Y-86362813D01*
X71988026Y-86362818D01*
X71969965Y-86499999D01*
X71969965Y-86500000D01*
X71988026Y-86637181D01*
X71988027Y-86637186D01*
X72040974Y-86765015D01*
X72040975Y-86765017D01*
X72040976Y-86765018D01*
X72057802Y-86786946D01*
X72125207Y-86874789D01*
X72127718Y-86877299D01*
X72129160Y-86879940D01*
X72130157Y-86881239D01*
X72129954Y-86881394D01*
X72161207Y-86938621D01*
X72156226Y-87008313D01*
X72154604Y-87012438D01*
X72113025Y-87112819D01*
X72094965Y-87249999D01*
X72094965Y-87250002D01*
X72100058Y-87288689D01*
X72089292Y-87357725D01*
X72042912Y-87409980D01*
X71975643Y-87428865D01*
X71908842Y-87408384D01*
X71878744Y-87380361D01*
X71874791Y-87375209D01*
X71765018Y-87290976D01*
X71765017Y-87290975D01*
X71765015Y-87290974D01*
X71637186Y-87238027D01*
X71637184Y-87238026D01*
X71637183Y-87238026D01*
X71545727Y-87225985D01*
X71500001Y-87219965D01*
X71499999Y-87219965D01*
X71431408Y-87228995D01*
X71362817Y-87238026D01*
X71362816Y-87238026D01*
X71362813Y-87238027D01*
X71234985Y-87290974D01*
X71125209Y-87375209D01*
X71040974Y-87484985D01*
X70988027Y-87612813D01*
X70988026Y-87612816D01*
X70988026Y-87612817D01*
X70987998Y-87613027D01*
X70969965Y-87749999D01*
X70969965Y-87750000D01*
X70988026Y-87887181D01*
X70988027Y-87887186D01*
X71040974Y-88015015D01*
X71040975Y-88015017D01*
X71040976Y-88015018D01*
X71125209Y-88124791D01*
X71234982Y-88209024D01*
X71362817Y-88261974D01*
X71485702Y-88278152D01*
X71499999Y-88280035D01*
X71500000Y-88280035D01*
X71500001Y-88280035D01*
X71512947Y-88278330D01*
X71637183Y-88261974D01*
X71765018Y-88209024D01*
X71874791Y-88124791D01*
X71959024Y-88015018D01*
X72011974Y-87887183D01*
X72030035Y-87750000D01*
X72024941Y-87711310D01*
X72035706Y-87642278D01*
X72082085Y-87590021D01*
X72149354Y-87571135D01*
X72216154Y-87591615D01*
X72246256Y-87619640D01*
X72250209Y-87624791D01*
X72359982Y-87709024D01*
X72487817Y-87761974D01*
X72610702Y-87778152D01*
X72624999Y-87780035D01*
X72625000Y-87780035D01*
X72625001Y-87780035D01*
X72637947Y-87778330D01*
X72762183Y-87761974D01*
X72890018Y-87709024D01*
X72999791Y-87624791D01*
X73084024Y-87515018D01*
X73084024Y-87515015D01*
X73088971Y-87508570D01*
X73091769Y-87510717D01*
X73130501Y-87473668D01*
X73199087Y-87460334D01*
X73263993Y-87486196D01*
X73284438Y-87509790D01*
X73286029Y-87508570D01*
X73290975Y-87515015D01*
X73290976Y-87515018D01*
X73375209Y-87624791D01*
X73484982Y-87709024D01*
X73612817Y-87761974D01*
X73660044Y-87768191D01*
X73723939Y-87796457D01*
X73762411Y-87854781D01*
X73763243Y-87924646D01*
X73758420Y-87938582D01*
X73738025Y-87987819D01*
X73719965Y-88124999D01*
X73719965Y-88125000D01*
X73737998Y-88261974D01*
X73738026Y-88262181D01*
X73738027Y-88262186D01*
X73790974Y-88390015D01*
X73790975Y-88390017D01*
X73790976Y-88390018D01*
X73875209Y-88499791D01*
X73984982Y-88584024D01*
X74112817Y-88636974D01*
X74235702Y-88653152D01*
X74249999Y-88655035D01*
X74250000Y-88655035D01*
X74250001Y-88655035D01*
X74262947Y-88653330D01*
X74387183Y-88636974D01*
X74515018Y-88584024D01*
X74624791Y-88499791D01*
X74709024Y-88390018D01*
X74761974Y-88262183D01*
X74780035Y-88125000D01*
X74780007Y-88124791D01*
X74778152Y-88110702D01*
X74761974Y-87987817D01*
X74720292Y-87887186D01*
X74709025Y-87859985D01*
X74709024Y-87859984D01*
X74709024Y-87859983D01*
X74624791Y-87750209D01*
X74624789Y-87750208D01*
X74624789Y-87750207D01*
X74558220Y-87699127D01*
X74515018Y-87665976D01*
X74515017Y-87665975D01*
X74515015Y-87665974D01*
X74387186Y-87613027D01*
X74387184Y-87613026D01*
X74387183Y-87613026D01*
X74363819Y-87609950D01*
X74339955Y-87606808D01*
X74276059Y-87578541D01*
X74237589Y-87520216D01*
X74236758Y-87450351D01*
X74241581Y-87436417D01*
X74252531Y-87409980D01*
X74261974Y-87387183D01*
X74280035Y-87250000D01*
X74267242Y-87152832D01*
X74278007Y-87083799D01*
X74324387Y-87031543D01*
X74373994Y-87013710D01*
X74387183Y-87011974D01*
X74515018Y-86959024D01*
X74624791Y-86874791D01*
X74709024Y-86765018D01*
X74761974Y-86637183D01*
X74780035Y-86500000D01*
X74769372Y-86419009D01*
X74780137Y-86349976D01*
X74826517Y-86297720D01*
X74876122Y-86279887D01*
X75012183Y-86261974D01*
X75078049Y-86234691D01*
X75147517Y-86227223D01*
X75209996Y-86258498D01*
X75245648Y-86318587D01*
X75249500Y-86349253D01*
X75249500Y-89743098D01*
X75260123Y-89831560D01*
X75260124Y-89831563D01*
X75314770Y-89970137D01*
X75315640Y-89972343D01*
X75407077Y-90092922D01*
X75517974Y-90177017D01*
X75527659Y-90184361D01*
X75668437Y-90239876D01*
X75756902Y-90250500D01*
X79243098Y-90250500D01*
X79331563Y-90239876D01*
X79472341Y-90184361D01*
X79592922Y-90092922D01*
X79684361Y-89972341D01*
X79739876Y-89831563D01*
X79750500Y-89743098D01*
X79750500Y-86626252D01*
X79770185Y-86559213D01*
X79822989Y-86513458D01*
X79892147Y-86503514D01*
X79955703Y-86532539D01*
X79962181Y-86538571D01*
X80644869Y-87221259D01*
X80675399Y-87277171D01*
X80676571Y-87276828D01*
X80678152Y-87282212D01*
X80678354Y-87282582D01*
X80678502Y-87283405D01*
X80679071Y-87285343D01*
X80735871Y-87409716D01*
X80735874Y-87409721D01*
X80825411Y-87513053D01*
X80825415Y-87513057D01*
X80885981Y-87551979D01*
X80940441Y-87586978D01*
X81006038Y-87606239D01*
X81071634Y-87625500D01*
X81071635Y-87625500D01*
X81208369Y-87625500D01*
X81339563Y-87586978D01*
X81448482Y-87516980D01*
X81454588Y-87513057D01*
X81454588Y-87513056D01*
X81454591Y-87513055D01*
X81544132Y-87409718D01*
X81600933Y-87285342D01*
X81620392Y-87150000D01*
X81600933Y-87014658D01*
X81574851Y-86957547D01*
X81544134Y-86890285D01*
X81544129Y-86890278D01*
X81454592Y-86786946D01*
X81454588Y-86786942D01*
X81363738Y-86728558D01*
X81339563Y-86713022D01*
X81339562Y-86713021D01*
X81339561Y-86713021D01*
X81274360Y-86693876D01*
X81215583Y-86656101D01*
X81186558Y-86592545D01*
X81196502Y-86523387D01*
X81242257Y-86470583D01*
X81261844Y-86460338D01*
X81265018Y-86459024D01*
X81374791Y-86374791D01*
X81459024Y-86265018D01*
X81511974Y-86137183D01*
X81530035Y-86000000D01*
X81511974Y-85862817D01*
X81484898Y-85797451D01*
X81477430Y-85727983D01*
X81484897Y-85702551D01*
X81511974Y-85637183D01*
X81530035Y-85500000D01*
X81530035Y-85499999D01*
X83469965Y-85499999D01*
X83469965Y-85500000D01*
X83488026Y-85637184D01*
X83515100Y-85702549D01*
X83522567Y-85772019D01*
X83515100Y-85797451D01*
X83488026Y-85862815D01*
X83488026Y-85862816D01*
X83488026Y-85862817D01*
X83469965Y-86000000D01*
X83486627Y-86126560D01*
X83488026Y-86137181D01*
X83488027Y-86137186D01*
X83540974Y-86265015D01*
X83540975Y-86265017D01*
X83540976Y-86265018D01*
X83625209Y-86374791D01*
X83734982Y-86459024D01*
X83734983Y-86459024D01*
X83734984Y-86459025D01*
X83762886Y-86470582D01*
X83862817Y-86511974D01*
X83985702Y-86528152D01*
X83999999Y-86530035D01*
X84000000Y-86530035D01*
X84000001Y-86530035D01*
X84012947Y-86528330D01*
X84137183Y-86511974D01*
X84265018Y-86459024D01*
X84374791Y-86374791D01*
X84459024Y-86265018D01*
X84511974Y-86137183D01*
X84530035Y-86000000D01*
X84511974Y-85862817D01*
X84484898Y-85797451D01*
X84477430Y-85727983D01*
X84484897Y-85702551D01*
X84511974Y-85637183D01*
X84530035Y-85500000D01*
X84511974Y-85362817D01*
X84459024Y-85234983D01*
X84374791Y-85125209D01*
X84374789Y-85125208D01*
X84374789Y-85125207D01*
X84265015Y-85040974D01*
X84137186Y-84988027D01*
X84137184Y-84988026D01*
X84137183Y-84988026D01*
X84045727Y-84975985D01*
X84000001Y-84969965D01*
X83999999Y-84969965D01*
X83931408Y-84978995D01*
X83862817Y-84988026D01*
X83862816Y-84988026D01*
X83862813Y-84988027D01*
X83734985Y-85040974D01*
X83625209Y-85125209D01*
X83540974Y-85234985D01*
X83488027Y-85362813D01*
X83488026Y-85362818D01*
X83469965Y-85499999D01*
X81530035Y-85499999D01*
X81511974Y-85362817D01*
X81459024Y-85234983D01*
X81374791Y-85125209D01*
X81374789Y-85125208D01*
X81374789Y-85125207D01*
X81265015Y-85040974D01*
X81137186Y-84988027D01*
X81137184Y-84988026D01*
X81137183Y-84988026D01*
X81045727Y-84975985D01*
X81000001Y-84969965D01*
X80999999Y-84969965D01*
X80931408Y-84978995D01*
X80862817Y-84988026D01*
X80862816Y-84988026D01*
X80862813Y-84988027D01*
X80734985Y-85040974D01*
X80625209Y-85125209D01*
X80540974Y-85234985D01*
X80488027Y-85362813D01*
X80488026Y-85362818D01*
X80469965Y-85499999D01*
X80469965Y-85500002D01*
X80484987Y-85614106D01*
X80474221Y-85683141D01*
X80427841Y-85735397D01*
X80360572Y-85754282D01*
X80293772Y-85733801D01*
X80274367Y-85717972D01*
X80186819Y-85630424D01*
X80153334Y-85569101D01*
X80150500Y-85542743D01*
X80150500Y-84536217D01*
X80170185Y-84469178D01*
X80207461Y-84431901D01*
X80211062Y-84429587D01*
X80314589Y-84363055D01*
X80404130Y-84259718D01*
X80460931Y-84135342D01*
X80460932Y-84135337D01*
X80463429Y-84126835D01*
X80466295Y-84127676D01*
X80489091Y-84077748D01*
X80495119Y-84071272D01*
X80985704Y-83580686D01*
X80985709Y-83580683D01*
X80995912Y-83570479D01*
X80995914Y-83570479D01*
X81070481Y-83495912D01*
X81123208Y-83404586D01*
X81150502Y-83302726D01*
X81150502Y-83197272D01*
X81150502Y-83189677D01*
X81150501Y-83189659D01*
X81150501Y-82116707D01*
X81170186Y-82049668D01*
X81222990Y-82003913D01*
X81292148Y-81993969D01*
X81355704Y-82022994D01*
X81368214Y-82035505D01*
X81435409Y-82113053D01*
X81435413Y-82113057D01*
X81495979Y-82151979D01*
X81550439Y-82186978D01*
X81616036Y-82206239D01*
X81681632Y-82225500D01*
X81681633Y-82225500D01*
X81818367Y-82225500D01*
X81949561Y-82186978D01*
X82064589Y-82113055D01*
X82154130Y-82009718D01*
X82210931Y-81885342D01*
X82230390Y-81750000D01*
X82210931Y-81614658D01*
X82163008Y-81509721D01*
X82154132Y-81490285D01*
X82154127Y-81490278D01*
X82064590Y-81386946D01*
X82064586Y-81386942D01*
X81949559Y-81313021D01*
X81818368Y-81274500D01*
X81818367Y-81274500D01*
X81681633Y-81274500D01*
X81681632Y-81274500D01*
X81550440Y-81313021D01*
X81435413Y-81386942D01*
X81435413Y-81386943D01*
X81368214Y-81464495D01*
X81309436Y-81502269D01*
X81239566Y-81502269D01*
X81180788Y-81464495D01*
X81151763Y-81400939D01*
X81150501Y-81383292D01*
X81150501Y-77044640D01*
X81161707Y-76993129D01*
X81190756Y-76929520D01*
X81210932Y-76885341D01*
X81230391Y-76749999D01*
X81210932Y-76614657D01*
X81198678Y-76587826D01*
X81154133Y-76490284D01*
X81154128Y-76490277D01*
X81064591Y-76386945D01*
X81064587Y-76386941D01*
X80949560Y-76313020D01*
X80818369Y-76274499D01*
X80818368Y-76274499D01*
X80740408Y-76274499D01*
X80673369Y-76254814D01*
X80646695Y-76231701D01*
X80564590Y-76136946D01*
X80564586Y-76136942D01*
X80473736Y-76078558D01*
X80449561Y-76063022D01*
X80449560Y-76063021D01*
X80449559Y-76063021D01*
X80318368Y-76024500D01*
X80318367Y-76024500D01*
X80181633Y-76024500D01*
X80181632Y-76024500D01*
X80050440Y-76063021D01*
X79935413Y-76136942D01*
X79935409Y-76136946D01*
X79853304Y-76231702D01*
X79794526Y-76269477D01*
X79759591Y-76274500D01*
X79740409Y-76274500D01*
X79673370Y-76254815D01*
X79646696Y-76231702D01*
X79564590Y-76136946D01*
X79564586Y-76136942D01*
X79473736Y-76078558D01*
X79449561Y-76063022D01*
X79449560Y-76063021D01*
X79449559Y-76063021D01*
X79318368Y-76024500D01*
X79318367Y-76024500D01*
X79181633Y-76024500D01*
X79181632Y-76024500D01*
X79050440Y-76063021D01*
X78935413Y-76136942D01*
X78935409Y-76136946D01*
X78853304Y-76231702D01*
X78794526Y-76269477D01*
X78759591Y-76274500D01*
X78740409Y-76274500D01*
X78673370Y-76254815D01*
X78646696Y-76231702D01*
X78564590Y-76136946D01*
X78564586Y-76136942D01*
X78473736Y-76078558D01*
X78449561Y-76063022D01*
X78449560Y-76063021D01*
X78449559Y-76063021D01*
X78318368Y-76024500D01*
X78318367Y-76024500D01*
X78181633Y-76024500D01*
X78181632Y-76024500D01*
X78050440Y-76063021D01*
X77935413Y-76136942D01*
X77935409Y-76136946D01*
X77853304Y-76231702D01*
X77794526Y-76269477D01*
X77759591Y-76274500D01*
X77740409Y-76274500D01*
X77673370Y-76254815D01*
X77646696Y-76231702D01*
X77564590Y-76136946D01*
X77564586Y-76136942D01*
X77473736Y-76078558D01*
X77449561Y-76063022D01*
X77449560Y-76063021D01*
X77449559Y-76063021D01*
X77318368Y-76024500D01*
X77318367Y-76024500D01*
X77181633Y-76024500D01*
X77181632Y-76024500D01*
X77050440Y-76063021D01*
X76935413Y-76136942D01*
X76935409Y-76136946D01*
X76853304Y-76231702D01*
X76794526Y-76269477D01*
X76759591Y-76274500D01*
X76740409Y-76274500D01*
X76673370Y-76254815D01*
X76646696Y-76231702D01*
X76564590Y-76136946D01*
X76564586Y-76136942D01*
X76482459Y-76084164D01*
X76449561Y-76063022D01*
X76380619Y-76042778D01*
X76327876Y-76011483D01*
X76245915Y-75929522D01*
X76245913Y-75929520D01*
X76200248Y-75903155D01*
X76154589Y-75876793D01*
X76075877Y-75855703D01*
X76052727Y-75849500D01*
X75118978Y-75849500D01*
X75051939Y-75829815D01*
X75006184Y-75777011D01*
X74996240Y-75707853D01*
X75025265Y-75644297D01*
X75051941Y-75621183D01*
X75064589Y-75613055D01*
X75154130Y-75509718D01*
X75210931Y-75385342D01*
X75230390Y-75250000D01*
X75230390Y-75249998D01*
X75230390Y-75241131D01*
X75232544Y-75241131D01*
X75240767Y-75183904D01*
X75286513Y-75131097D01*
X75314589Y-75113055D01*
X75404130Y-75009718D01*
X75460931Y-74885342D01*
X75480390Y-74750000D01*
X75460931Y-74614658D01*
X75448677Y-74587827D01*
X75404132Y-74490285D01*
X75404130Y-74490283D01*
X75404130Y-74490282D01*
X75314589Y-74386945D01*
X75286526Y-74368910D01*
X75240772Y-74316107D01*
X75232542Y-74258869D01*
X75230390Y-74258869D01*
X75230390Y-74241131D01*
X75232544Y-74241131D01*
X75240767Y-74183904D01*
X75286513Y-74131097D01*
X75314589Y-74113055D01*
X75404130Y-74009718D01*
X75460931Y-73885342D01*
X75480390Y-73750000D01*
X75460931Y-73614658D01*
X75448677Y-73587827D01*
X75404132Y-73490285D01*
X75404130Y-73490283D01*
X75404130Y-73490282D01*
X75314589Y-73386945D01*
X75286526Y-73368910D01*
X75240772Y-73316107D01*
X75232542Y-73258869D01*
X75230390Y-73258869D01*
X75230390Y-73241131D01*
X75232544Y-73241131D01*
X75240767Y-73183904D01*
X75286513Y-73131097D01*
X75314589Y-73113055D01*
X75404130Y-73009718D01*
X75460931Y-72885342D01*
X75480390Y-72750000D01*
X75460931Y-72614658D01*
X75448677Y-72587827D01*
X75404132Y-72490285D01*
X75404127Y-72490278D01*
X75314590Y-72386946D01*
X75314586Y-72386942D01*
X75199559Y-72313021D01*
X75068368Y-72274500D01*
X75068367Y-72274500D01*
X74931633Y-72274500D01*
X74931632Y-72274500D01*
X74800440Y-72313021D01*
X74685413Y-72386942D01*
X74685409Y-72386946D01*
X74595872Y-72490278D01*
X74595867Y-72490285D01*
X74539070Y-72614654D01*
X74539068Y-72614662D01*
X74520595Y-72743147D01*
X74491570Y-72806703D01*
X74432792Y-72844477D01*
X74397857Y-72849500D01*
X64447273Y-72849500D01*
X64345413Y-72876793D01*
X64345412Y-72876793D01*
X64345410Y-72876794D01*
X64345409Y-72876794D01*
X64267200Y-72921949D01*
X64267199Y-72921950D01*
X64254088Y-72929519D01*
X64254085Y-72929521D01*
X62806004Y-74377602D01*
X62744681Y-74411087D01*
X62674989Y-74406103D01*
X62619056Y-74364231D01*
X62594639Y-74298767D01*
X62608768Y-74231838D01*
X62671744Y-74113053D01*
X62724853Y-74012880D01*
X62857324Y-73680403D01*
X62953071Y-73335552D01*
X62989285Y-73114658D01*
X63010970Y-72982385D01*
X63010970Y-72982382D01*
X63010972Y-72982371D01*
X63030348Y-72625000D01*
X63029787Y-72614662D01*
X63024098Y-72509721D01*
X63010972Y-72267629D01*
X63008244Y-72250990D01*
X62953073Y-71914460D01*
X62953072Y-71914459D01*
X62953071Y-71914448D01*
X62889057Y-71683889D01*
X62857327Y-71569607D01*
X62857325Y-71569600D01*
X62724857Y-71237129D01*
X62724848Y-71237111D01*
X62721989Y-71231719D01*
X62557211Y-70920915D01*
X62356365Y-70624689D01*
X62356361Y-70624684D01*
X62356358Y-70624680D01*
X62124668Y-70351914D01*
X62028000Y-70260345D01*
X61874056Y-70114522D01*
X61838924Y-70054129D01*
X61842019Y-69984328D01*
X61882361Y-69927282D01*
X61947140Y-69901101D01*
X61959332Y-69900500D01*
X76457267Y-69900500D01*
X76524305Y-69920184D01*
X76550434Y-69936975D01*
X76550441Y-69936979D01*
X76681632Y-69975500D01*
X76681633Y-69975500D01*
X76818367Y-69975500D01*
X76949561Y-69936978D01*
X77064589Y-69863055D01*
X77139517Y-69776583D01*
X77146696Y-69768298D01*
X77205474Y-69730523D01*
X77240409Y-69725500D01*
X77259591Y-69725500D01*
X77326630Y-69745185D01*
X77353304Y-69768298D01*
X77435409Y-69863053D01*
X77435413Y-69863057D01*
X77447638Y-69870913D01*
X77550439Y-69936978D01*
X77579398Y-69945481D01*
X77681632Y-69975500D01*
X77681633Y-69975500D01*
X77818367Y-69975500D01*
X77949561Y-69936978D01*
X78064589Y-69863055D01*
X78139517Y-69776583D01*
X78146696Y-69768298D01*
X78205474Y-69730523D01*
X78240409Y-69725500D01*
X78259591Y-69725500D01*
X78326630Y-69745185D01*
X78353304Y-69768298D01*
X78435409Y-69863053D01*
X78435413Y-69863057D01*
X78447638Y-69870913D01*
X78550439Y-69936978D01*
X78579398Y-69945481D01*
X78681632Y-69975500D01*
X78681633Y-69975500D01*
X78818367Y-69975500D01*
X78949561Y-69936978D01*
X79064589Y-69863055D01*
X79106785Y-69814358D01*
X79165563Y-69776583D01*
X79235432Y-69776583D01*
X79294211Y-69814357D01*
X79323236Y-69877912D01*
X79324498Y-69895560D01*
X79324498Y-73027724D01*
X79351791Y-73129587D01*
X79352662Y-73131095D01*
X79404518Y-73220911D01*
X79404519Y-73220912D01*
X79404520Y-73220913D01*
X81504867Y-75321259D01*
X81535397Y-75377171D01*
X81536569Y-75376828D01*
X81538150Y-75382212D01*
X81538352Y-75382582D01*
X81538500Y-75383405D01*
X81539069Y-75385343D01*
X81595869Y-75509716D01*
X81595872Y-75509721D01*
X81685409Y-75613053D01*
X81685413Y-75613057D01*
X81732589Y-75643374D01*
X81800439Y-75686978D01*
X81865375Y-75706045D01*
X81931632Y-75725500D01*
X81931633Y-75725500D01*
X82068367Y-75725500D01*
X82199561Y-75686978D01*
X82314589Y-75613055D01*
X82404130Y-75509718D01*
X82460931Y-75385342D01*
X82480390Y-75250000D01*
X82480390Y-75249998D01*
X82480390Y-75241131D01*
X82482544Y-75241131D01*
X82490767Y-75183904D01*
X82536513Y-75131097D01*
X82564589Y-75113055D01*
X82654130Y-75009718D01*
X82710931Y-74885342D01*
X82730390Y-74750000D01*
X82710931Y-74614658D01*
X82698677Y-74587827D01*
X82654132Y-74490285D01*
X82654130Y-74490283D01*
X82654130Y-74490282D01*
X82564589Y-74386945D01*
X82536526Y-74368910D01*
X82490772Y-74316107D01*
X82482542Y-74258869D01*
X82480390Y-74258869D01*
X82480390Y-74241131D01*
X82482544Y-74241131D01*
X82490767Y-74183904D01*
X82536513Y-74131097D01*
X82564589Y-74113055D01*
X82654130Y-74009718D01*
X82710931Y-73885342D01*
X82729405Y-73756853D01*
X82758430Y-73693297D01*
X82817208Y-73655523D01*
X82852143Y-73650500D01*
X83177725Y-73650500D01*
X83177727Y-73650500D01*
X83279588Y-73623207D01*
X83370913Y-73570480D01*
X86320480Y-70620913D01*
X86373207Y-70529588D01*
X86400500Y-70427727D01*
X86400500Y-70322273D01*
X86400500Y-66447273D01*
X86394519Y-66424950D01*
X86373207Y-66345412D01*
X86320480Y-66254087D01*
X78870913Y-58804520D01*
X78825250Y-58778156D01*
X78779589Y-58751793D01*
X78728657Y-58738146D01*
X78677727Y-58724500D01*
X78677726Y-58724500D01*
X74007691Y-58724500D01*
X73940652Y-58704815D01*
X73920010Y-58688181D01*
X73616110Y-58384280D01*
X73582625Y-58322957D01*
X73587609Y-58253265D01*
X73629481Y-58197332D01*
X73638498Y-58191182D01*
X73766300Y-58112051D01*
X73923870Y-57968406D01*
X74052364Y-57798254D01*
X74147403Y-57607388D01*
X74205754Y-57402309D01*
X74216527Y-57286046D01*
X74242313Y-57221110D01*
X74284621Y-57190802D01*
X74393126Y-57190802D01*
X74429501Y-57211667D01*
X74461691Y-57273680D01*
X74463469Y-57286047D01*
X74474242Y-57402308D01*
X74532594Y-57607390D01*
X74532594Y-57607392D01*
X74627630Y-57798251D01*
X74756124Y-57968403D01*
X74756126Y-57968405D01*
X74913696Y-58112050D01*
X75094979Y-58224296D01*
X75293800Y-58301319D01*
X75503388Y-58340498D01*
X75503390Y-58340498D01*
X75716606Y-58340498D01*
X75716608Y-58340498D01*
X75926196Y-58301319D01*
X76125017Y-58224296D01*
X76306300Y-58112050D01*
X76463870Y-57968405D01*
X76592364Y-57798253D01*
X76643360Y-57695838D01*
X76687401Y-57607392D01*
X76687401Y-57607391D01*
X76687403Y-57607387D01*
X76745754Y-57402308D01*
X76765427Y-57189998D01*
X76745754Y-56977688D01*
X76687403Y-56772609D01*
X76687401Y-56772604D01*
X76687401Y-56772603D01*
X76592365Y-56581744D01*
X76463870Y-56411591D01*
X76463869Y-56411590D01*
X76306300Y-56267946D01*
X76125017Y-56155700D01*
X76125015Y-56155699D01*
X75926201Y-56078679D01*
X75926196Y-56078677D01*
X75716608Y-56039498D01*
X75503388Y-56039498D01*
X75293800Y-56078677D01*
X75293797Y-56078677D01*
X75293797Y-56078678D01*
X75094980Y-56155699D01*
X75094978Y-56155700D01*
X74913697Y-56267945D01*
X74756125Y-56411591D01*
X74627630Y-56581744D01*
X74532594Y-56772603D01*
X74532594Y-56772605D01*
X74474242Y-56977687D01*
X74463468Y-57093950D01*
X74437681Y-57158887D01*
X74393126Y-57190802D01*
X74284621Y-57190802D01*
X74286867Y-57189193D01*
X74250493Y-57168328D01*
X74218304Y-57106315D01*
X74216527Y-57093954D01*
X74205754Y-56977689D01*
X74205753Y-56977687D01*
X74168676Y-56847376D01*
X74147403Y-56772610D01*
X74147401Y-56772605D01*
X74147401Y-56772604D01*
X74052365Y-56581745D01*
X73923870Y-56411592D01*
X73923868Y-56411590D01*
X73766300Y-56267947D01*
X73585017Y-56155701D01*
X73585015Y-56155700D01*
X73485606Y-56117189D01*
X73386196Y-56078678D01*
X73176608Y-56039499D01*
X72963388Y-56039499D01*
X72753800Y-56078678D01*
X72753797Y-56078678D01*
X72753797Y-56078679D01*
X72554980Y-56155700D01*
X72554978Y-56155701D01*
X72373697Y-56267946D01*
X72216125Y-56411592D01*
X72087630Y-56581745D01*
X71992594Y-56772604D01*
X71992594Y-56772606D01*
X71934242Y-56977688D01*
X71923469Y-57093949D01*
X71897683Y-57158886D01*
X71853126Y-57190802D01*
X71889499Y-57211666D01*
X71921690Y-57273679D01*
X71923468Y-57286046D01*
X71934242Y-57402307D01*
X71934242Y-57402309D01*
X71992592Y-57607386D01*
X71992594Y-57607391D01*
X71992594Y-57607393D01*
X72087630Y-57798252D01*
X72216124Y-57968404D01*
X72216126Y-57968406D01*
X72373696Y-58112051D01*
X72554979Y-58224297D01*
X72590293Y-58237977D01*
X72645692Y-58280547D01*
X72669284Y-58346313D01*
X72669498Y-58353601D01*
X72669498Y-58457288D01*
X72675716Y-58480493D01*
X72696791Y-58559150D01*
X72710189Y-58582355D01*
X72749518Y-58650474D01*
X72749519Y-58650475D01*
X72749520Y-58650476D01*
X73465616Y-59366571D01*
X73465626Y-59366582D01*
X73469956Y-59370912D01*
X73469957Y-59370913D01*
X73544524Y-59445480D01*
X73627027Y-59493113D01*
X73675242Y-59543681D01*
X73688464Y-59612288D01*
X73662496Y-59677153D01*
X73605581Y-59717680D01*
X73565026Y-59724500D01*
X69917024Y-59724500D01*
X69849985Y-59704815D01*
X69829343Y-59688181D01*
X68529522Y-58388359D01*
X68496037Y-58327036D01*
X68501021Y-58257344D01*
X68542893Y-58201411D01*
X68551926Y-58195251D01*
X68558514Y-58191172D01*
X68686300Y-58112050D01*
X68843870Y-57968405D01*
X68972364Y-57798253D01*
X69023360Y-57695838D01*
X69067401Y-57607392D01*
X69067401Y-57607391D01*
X69067403Y-57607387D01*
X69125754Y-57402308D01*
X69136527Y-57286045D01*
X69162313Y-57221109D01*
X69204620Y-57190802D01*
X69313128Y-57190802D01*
X69349501Y-57211666D01*
X69381691Y-57273679D01*
X69383469Y-57286046D01*
X69394242Y-57402308D01*
X69452594Y-57607390D01*
X69452594Y-57607392D01*
X69547630Y-57798251D01*
X69676124Y-57968403D01*
X69676126Y-57968405D01*
X69833696Y-58112050D01*
X70014979Y-58224296D01*
X70213800Y-58301319D01*
X70423388Y-58340498D01*
X70423390Y-58340498D01*
X70636606Y-58340498D01*
X70636608Y-58340498D01*
X70846196Y-58301319D01*
X71045017Y-58224296D01*
X71226300Y-58112050D01*
X71383870Y-57968405D01*
X71512364Y-57798253D01*
X71563360Y-57695838D01*
X71607401Y-57607392D01*
X71607401Y-57607391D01*
X71607403Y-57607387D01*
X71665754Y-57402308D01*
X71676527Y-57286045D01*
X71702311Y-57221110D01*
X71746867Y-57189192D01*
X71710495Y-57168329D01*
X71678305Y-57106316D01*
X71676527Y-57093949D01*
X71675847Y-57086611D01*
X71665754Y-56977688D01*
X71607403Y-56772609D01*
X71607401Y-56772604D01*
X71607401Y-56772603D01*
X71512365Y-56581744D01*
X71383870Y-56411591D01*
X71383869Y-56411590D01*
X71226300Y-56267946D01*
X71045017Y-56155700D01*
X71045015Y-56155699D01*
X70846201Y-56078679D01*
X70846196Y-56078677D01*
X70636608Y-56039498D01*
X70423388Y-56039498D01*
X70213800Y-56078677D01*
X70213797Y-56078677D01*
X70213797Y-56078678D01*
X70014980Y-56155699D01*
X70014978Y-56155700D01*
X69833697Y-56267945D01*
X69676125Y-56411591D01*
X69547630Y-56581744D01*
X69452594Y-56772603D01*
X69452594Y-56772605D01*
X69394242Y-56977687D01*
X69383469Y-57093949D01*
X69357683Y-57158886D01*
X69313128Y-57190802D01*
X69204620Y-57190802D01*
X69206867Y-57189192D01*
X69170495Y-57168329D01*
X69138305Y-57106316D01*
X69136527Y-57093949D01*
X69135847Y-57086611D01*
X69125754Y-56977688D01*
X69067403Y-56772609D01*
X69067401Y-56772604D01*
X69067401Y-56772603D01*
X68972365Y-56581744D01*
X68843870Y-56411591D01*
X68843869Y-56411590D01*
X68686300Y-56267946D01*
X68505017Y-56155700D01*
X68505015Y-56155699D01*
X68306201Y-56078679D01*
X68306196Y-56078677D01*
X68096608Y-56039498D01*
X67883388Y-56039498D01*
X67673800Y-56078677D01*
X67673797Y-56078677D01*
X67673797Y-56078678D01*
X67474980Y-56155699D01*
X67474978Y-56155700D01*
X67293697Y-56267945D01*
X67136125Y-56411591D01*
X67007630Y-56581744D01*
X66912594Y-56772603D01*
X66912594Y-56772605D01*
X66854242Y-56977687D01*
X66843469Y-57093949D01*
X66817683Y-57158886D01*
X66773128Y-57190802D01*
X66809501Y-57211666D01*
X66841691Y-57273679D01*
X66843469Y-57286046D01*
X66854242Y-57402308D01*
X66912594Y-57607390D01*
X66912594Y-57607392D01*
X67007630Y-57798251D01*
X67136124Y-57968403D01*
X67136126Y-57968405D01*
X67293696Y-58112050D01*
X67474979Y-58224296D01*
X67510293Y-58237976D01*
X67565692Y-58280546D01*
X67589284Y-58346312D01*
X67589498Y-58353601D01*
X67589498Y-58362501D01*
X67589498Y-58467955D01*
X67603144Y-58518885D01*
X67616791Y-58569817D01*
X67637326Y-58605384D01*
X67669518Y-58661141D01*
X67669519Y-58661142D01*
X67669520Y-58661143D01*
X69374949Y-60366571D01*
X69374959Y-60366582D01*
X69453858Y-60445481D01*
X69499520Y-60471843D01*
X69499522Y-60471845D01*
X69536360Y-60493114D01*
X69584575Y-60543681D01*
X69597797Y-60612288D01*
X69571829Y-60677153D01*
X69514914Y-60717681D01*
X69474359Y-60724500D01*
X65824486Y-60724500D01*
X65757447Y-60704815D01*
X65736805Y-60688181D01*
X63441777Y-58393153D01*
X63408292Y-58331830D01*
X63413276Y-58262138D01*
X63455148Y-58206205D01*
X63464181Y-58200045D01*
X63578268Y-58129405D01*
X63606299Y-58112049D01*
X63763869Y-57968404D01*
X63892363Y-57798252D01*
X63987399Y-57607393D01*
X63987400Y-57607391D01*
X63987400Y-57607390D01*
X63987402Y-57607386D01*
X64045753Y-57402307D01*
X64056526Y-57286038D01*
X64082312Y-57221103D01*
X64124613Y-57190800D01*
X64233135Y-57190800D01*
X64269500Y-57211660D01*
X64301690Y-57273672D01*
X64303468Y-57286040D01*
X64314242Y-57402308D01*
X64372594Y-57607390D01*
X64372594Y-57607392D01*
X64467630Y-57798251D01*
X64596124Y-57968403D01*
X64596126Y-57968405D01*
X64753696Y-58112050D01*
X64934979Y-58224296D01*
X65133800Y-58301319D01*
X65343388Y-58340498D01*
X65343390Y-58340498D01*
X65556606Y-58340498D01*
X65556608Y-58340498D01*
X65766196Y-58301319D01*
X65965017Y-58224296D01*
X66146300Y-58112050D01*
X66303870Y-57968405D01*
X66432364Y-57798253D01*
X66483360Y-57695838D01*
X66527401Y-57607392D01*
X66527401Y-57607391D01*
X66527403Y-57607387D01*
X66585754Y-57402308D01*
X66596527Y-57286045D01*
X66622313Y-57221109D01*
X66666867Y-57189192D01*
X66630495Y-57168329D01*
X66598305Y-57106316D01*
X66596527Y-57093949D01*
X66595847Y-57086611D01*
X66585754Y-56977688D01*
X66527403Y-56772609D01*
X66527401Y-56772604D01*
X66527401Y-56772603D01*
X66432365Y-56581744D01*
X66303870Y-56411591D01*
X66303869Y-56411590D01*
X66146300Y-56267946D01*
X65965017Y-56155700D01*
X65965015Y-56155699D01*
X65766201Y-56078679D01*
X65766196Y-56078677D01*
X65556608Y-56039498D01*
X65343388Y-56039498D01*
X65133800Y-56078677D01*
X65133797Y-56078677D01*
X65133797Y-56078678D01*
X64934980Y-56155699D01*
X64934978Y-56155700D01*
X64753697Y-56267945D01*
X64596125Y-56411591D01*
X64467630Y-56581744D01*
X64372594Y-56772603D01*
X64372594Y-56772605D01*
X64314242Y-56977687D01*
X64303468Y-57093955D01*
X64277682Y-57158892D01*
X64233135Y-57190800D01*
X64124613Y-57190800D01*
X64126858Y-57189192D01*
X64090494Y-57168333D01*
X64058304Y-57106321D01*
X64056527Y-57093963D01*
X64045753Y-56977687D01*
X63987402Y-56772608D01*
X63987400Y-56772603D01*
X63987400Y-56772602D01*
X63892364Y-56581743D01*
X63763869Y-56411590D01*
X63606299Y-56267945D01*
X63425016Y-56155699D01*
X63425014Y-56155698D01*
X63325605Y-56117187D01*
X63226195Y-56078676D01*
X63016607Y-56039497D01*
X62803387Y-56039497D01*
X62593799Y-56078676D01*
X62593796Y-56078676D01*
X62593796Y-56078677D01*
X62394979Y-56155698D01*
X62394977Y-56155699D01*
X62213696Y-56267944D01*
X62056124Y-56411590D01*
X61927629Y-56581743D01*
X61832593Y-56772602D01*
X61832593Y-56772604D01*
X61774241Y-56977686D01*
X61763468Y-57093944D01*
X61737682Y-57158881D01*
X61693117Y-57190802D01*
X61729500Y-57211672D01*
X61761690Y-57273684D01*
X61763468Y-57286051D01*
X61774241Y-57402307D01*
X61832593Y-57607389D01*
X61832593Y-57607391D01*
X61927629Y-57798250D01*
X62025527Y-57927886D01*
X62056125Y-57968404D01*
X62213695Y-58112049D01*
X62394978Y-58224295D01*
X62430292Y-58237975D01*
X62485691Y-58280545D01*
X62509283Y-58346311D01*
X62509497Y-58353601D01*
X62509497Y-58480492D01*
X62536790Y-58582355D01*
X62550086Y-58605384D01*
X62589517Y-58673679D01*
X65361318Y-61445480D01*
X65443129Y-61492714D01*
X65443820Y-61493113D01*
X65492035Y-61543681D01*
X65505257Y-61612288D01*
X65479289Y-61677153D01*
X65422374Y-61717680D01*
X65381819Y-61724500D01*
X61761691Y-61724500D01*
X61694652Y-61704815D01*
X61674010Y-61688181D01*
X58372405Y-58386575D01*
X58338920Y-58325252D01*
X58343904Y-58255560D01*
X58385776Y-58199627D01*
X58394798Y-58193473D01*
X58526301Y-58112051D01*
X58683871Y-57968406D01*
X58812365Y-57798254D01*
X58907404Y-57607388D01*
X58965755Y-57402309D01*
X58976527Y-57286051D01*
X59002313Y-57221116D01*
X59044629Y-57190803D01*
X59153118Y-57190803D01*
X59189501Y-57211673D01*
X59221691Y-57273685D01*
X59223469Y-57286052D01*
X59234242Y-57402307D01*
X59234242Y-57402309D01*
X59292592Y-57607386D01*
X59292594Y-57607391D01*
X59292594Y-57607393D01*
X59387630Y-57798252D01*
X59516124Y-57968404D01*
X59516126Y-57968406D01*
X59673696Y-58112051D01*
X59854979Y-58224297D01*
X60053800Y-58301320D01*
X60263388Y-58340499D01*
X60263390Y-58340499D01*
X60476606Y-58340499D01*
X60476608Y-58340499D01*
X60686196Y-58301320D01*
X60885017Y-58224297D01*
X61066300Y-58112051D01*
X61223870Y-57968406D01*
X61352364Y-57798254D01*
X61447403Y-57607388D01*
X61505754Y-57402309D01*
X61516526Y-57286051D01*
X61542312Y-57221115D01*
X61586875Y-57189192D01*
X61550494Y-57168323D01*
X61518304Y-57106310D01*
X61516526Y-57093943D01*
X61505754Y-56977689D01*
X61447403Y-56772610D01*
X61447401Y-56772605D01*
X61447401Y-56772604D01*
X61352365Y-56581745D01*
X61223870Y-56411592D01*
X61223868Y-56411590D01*
X61066300Y-56267947D01*
X60885017Y-56155701D01*
X60885015Y-56155700D01*
X60785606Y-56117189D01*
X60686196Y-56078678D01*
X60476608Y-56039499D01*
X60263388Y-56039499D01*
X60053800Y-56078678D01*
X60053797Y-56078678D01*
X60053797Y-56078679D01*
X59854980Y-56155700D01*
X59854978Y-56155701D01*
X59673697Y-56267946D01*
X59516125Y-56411592D01*
X59387630Y-56581745D01*
X59292594Y-56772604D01*
X59292594Y-56772606D01*
X59234242Y-56977688D01*
X59223469Y-57093945D01*
X59197683Y-57158882D01*
X59153118Y-57190803D01*
X59044629Y-57190803D01*
X59046876Y-57189193D01*
X59010495Y-57168323D01*
X58978305Y-57106311D01*
X58976527Y-57093944D01*
X58976527Y-57093943D01*
X58965755Y-56977689D01*
X58907404Y-56772610D01*
X58907402Y-56772605D01*
X58907402Y-56772604D01*
X58812366Y-56581745D01*
X58683871Y-56411592D01*
X58683869Y-56411590D01*
X58526301Y-56267947D01*
X58345018Y-56155701D01*
X58345016Y-56155700D01*
X58245607Y-56117189D01*
X58146197Y-56078678D01*
X57936609Y-56039499D01*
X57723389Y-56039499D01*
X57513801Y-56078678D01*
X57513798Y-56078678D01*
X57513798Y-56078679D01*
X57314981Y-56155700D01*
X57314979Y-56155701D01*
X57133698Y-56267946D01*
X56976126Y-56411592D01*
X56847631Y-56581745D01*
X56752595Y-56772604D01*
X56752595Y-56772606D01*
X56694243Y-56977688D01*
X56676579Y-57168323D01*
X56674570Y-57189999D01*
X56694243Y-57402309D01*
X56752593Y-57607386D01*
X56752595Y-57607391D01*
X56752595Y-57607393D01*
X56847631Y-57798252D01*
X56976125Y-57968404D01*
X56976127Y-57968406D01*
X57133697Y-58112051D01*
X57314980Y-58224297D01*
X57350294Y-58237977D01*
X57405693Y-58280547D01*
X57429285Y-58346313D01*
X57429499Y-58353601D01*
X57429499Y-58357835D01*
X57429499Y-58463289D01*
X57434109Y-58480493D01*
X57456792Y-58565151D01*
X57466725Y-58582355D01*
X57509519Y-58656475D01*
X57509520Y-58656476D01*
X57509521Y-58656477D01*
X61219616Y-62366571D01*
X61219626Y-62366582D01*
X61223956Y-62370912D01*
X61223957Y-62370913D01*
X61298524Y-62445480D01*
X61389850Y-62498207D01*
X61491710Y-62525501D01*
X61491712Y-62525501D01*
X61604760Y-62525501D01*
X61604776Y-62525500D01*
X77547744Y-62525500D01*
X77614783Y-62545185D01*
X77635425Y-62561819D01*
X78521424Y-63447818D01*
X78554909Y-63509141D01*
X78549925Y-63578833D01*
X78508053Y-63634766D01*
X78442589Y-63659183D01*
X78433743Y-63659499D01*
X77255141Y-63659499D01*
X77255115Y-63659501D01*
X77230010Y-63662412D01*
X77230006Y-63662414D01*
X77127233Y-63707792D01*
X77047792Y-63787233D01*
X77002413Y-63890005D01*
X77002413Y-63890007D01*
X76999498Y-63915130D01*
X76999498Y-64653950D01*
X76979813Y-64720989D01*
X76927009Y-64766744D01*
X76857851Y-64776688D01*
X76794295Y-64747663D01*
X76756521Y-64688885D01*
X76752027Y-64665390D01*
X76745754Y-64597688D01*
X76725428Y-64526253D01*
X76687403Y-64392610D01*
X76687401Y-64392605D01*
X76687401Y-64392604D01*
X76592365Y-64201745D01*
X76463870Y-64031592D01*
X76463869Y-64031591D01*
X76306300Y-63887947D01*
X76125017Y-63775701D01*
X76125015Y-63775700D01*
X76025606Y-63737189D01*
X75926196Y-63698678D01*
X75716608Y-63659499D01*
X75503388Y-63659499D01*
X75293800Y-63698678D01*
X75293797Y-63698678D01*
X75293797Y-63698679D01*
X75094980Y-63775700D01*
X75094978Y-63775701D01*
X74913697Y-63887946D01*
X74756125Y-64031592D01*
X74627630Y-64201745D01*
X74532594Y-64392604D01*
X74532594Y-64392606D01*
X74474242Y-64597688D01*
X74463468Y-64713951D01*
X74437681Y-64778888D01*
X74393126Y-64810803D01*
X74429501Y-64831668D01*
X74461691Y-64893681D01*
X74463469Y-64906048D01*
X74474242Y-65022309D01*
X74532594Y-65227391D01*
X74532594Y-65227393D01*
X74627630Y-65418252D01*
X74756124Y-65588404D01*
X74756126Y-65588406D01*
X74913696Y-65732051D01*
X75094979Y-65844297D01*
X75130289Y-65857976D01*
X75135186Y-65859873D01*
X75190588Y-65902446D01*
X75214178Y-65968213D01*
X75198467Y-66036294D01*
X75148443Y-66085072D01*
X75090392Y-66099500D01*
X73746635Y-66099500D01*
X73679596Y-66079815D01*
X73658954Y-66063181D01*
X73606194Y-66010421D01*
X73572709Y-65949098D01*
X73577693Y-65879406D01*
X73619565Y-65823473D01*
X73628586Y-65817320D01*
X73766300Y-65732052D01*
X73923870Y-65588407D01*
X74052364Y-65418255D01*
X74147403Y-65227389D01*
X74205754Y-65022310D01*
X74216527Y-64906047D01*
X74242313Y-64841111D01*
X74286867Y-64809194D01*
X74250493Y-64788329D01*
X74218304Y-64726316D01*
X74216527Y-64713955D01*
X74205754Y-64597690D01*
X74205753Y-64597688D01*
X74185428Y-64526253D01*
X74147403Y-64392611D01*
X74147401Y-64392606D01*
X74147401Y-64392605D01*
X74052365Y-64201746D01*
X73923870Y-64031593D01*
X73796121Y-63915134D01*
X73766300Y-63887948D01*
X73585017Y-63775702D01*
X73585015Y-63775701D01*
X73409722Y-63707793D01*
X73386196Y-63698679D01*
X73176608Y-63659500D01*
X72963388Y-63659500D01*
X72753800Y-63698679D01*
X72753797Y-63698679D01*
X72753797Y-63698680D01*
X72554980Y-63775701D01*
X72554978Y-63775702D01*
X72373697Y-63887947D01*
X72216125Y-64031593D01*
X72087630Y-64201746D01*
X71992594Y-64392605D01*
X71992594Y-64392607D01*
X71934242Y-64597689D01*
X71923469Y-64713950D01*
X71897683Y-64778887D01*
X71853126Y-64810803D01*
X71889499Y-64831667D01*
X71921690Y-64893680D01*
X71923468Y-64906047D01*
X71926822Y-64942237D01*
X71934242Y-65022310D01*
X71992592Y-65227387D01*
X71992594Y-65227392D01*
X71992594Y-65227394D01*
X72087630Y-65418253D01*
X72216124Y-65588405D01*
X72216126Y-65588407D01*
X72373696Y-65732052D01*
X72554979Y-65844298D01*
X72590293Y-65857978D01*
X72645692Y-65900548D01*
X72669284Y-65966314D01*
X72669498Y-65973602D01*
X72669498Y-65987890D01*
X72669498Y-66093344D01*
X72683144Y-66144274D01*
X72696791Y-66195206D01*
X72723154Y-66240867D01*
X72749518Y-66286530D01*
X72749519Y-66286531D01*
X72749520Y-66286532D01*
X73204560Y-66741571D01*
X73204570Y-66741582D01*
X73208900Y-66745912D01*
X73208901Y-66745913D01*
X73283468Y-66820480D01*
X73365971Y-66868113D01*
X73414186Y-66918681D01*
X73427408Y-66987288D01*
X73401440Y-67052153D01*
X73344525Y-67092680D01*
X73303970Y-67099500D01*
X69670006Y-67099500D01*
X69602967Y-67079815D01*
X69582325Y-67063181D01*
X68528276Y-66009131D01*
X68494791Y-65947808D01*
X68499775Y-65878116D01*
X68541647Y-65822183D01*
X68550670Y-65816029D01*
X68686300Y-65732051D01*
X68843870Y-65588406D01*
X68972364Y-65418254D01*
X68972365Y-65418251D01*
X69067401Y-65227393D01*
X69067401Y-65227392D01*
X69067403Y-65227388D01*
X69125754Y-65022309D01*
X69136527Y-64906046D01*
X69162313Y-64841110D01*
X69204620Y-64810803D01*
X69313128Y-64810803D01*
X69349501Y-64831667D01*
X69381691Y-64893680D01*
X69383469Y-64906047D01*
X69394242Y-65022309D01*
X69452594Y-65227391D01*
X69452594Y-65227393D01*
X69547630Y-65418252D01*
X69676124Y-65588404D01*
X69676126Y-65588406D01*
X69833696Y-65732051D01*
X70014979Y-65844297D01*
X70213800Y-65921320D01*
X70423388Y-65960499D01*
X70423390Y-65960499D01*
X70636606Y-65960499D01*
X70636608Y-65960499D01*
X70846196Y-65921320D01*
X71045017Y-65844297D01*
X71226300Y-65732051D01*
X71383870Y-65588406D01*
X71512364Y-65418254D01*
X71512365Y-65418251D01*
X71607401Y-65227393D01*
X71607401Y-65227392D01*
X71607403Y-65227388D01*
X71665754Y-65022309D01*
X71676527Y-64906046D01*
X71702311Y-64841111D01*
X71746867Y-64809193D01*
X71710495Y-64788330D01*
X71678305Y-64726317D01*
X71676527Y-64713950D01*
X71670967Y-64653950D01*
X71665754Y-64597689D01*
X71607403Y-64392610D01*
X71607401Y-64392605D01*
X71607401Y-64392604D01*
X71512365Y-64201745D01*
X71383870Y-64031592D01*
X71383869Y-64031591D01*
X71226300Y-63887947D01*
X71045017Y-63775701D01*
X71045015Y-63775700D01*
X70945606Y-63737189D01*
X70846196Y-63698678D01*
X70636608Y-63659499D01*
X70423388Y-63659499D01*
X70213800Y-63698678D01*
X70213797Y-63698678D01*
X70213797Y-63698679D01*
X70014980Y-63775700D01*
X70014978Y-63775701D01*
X69833697Y-63887946D01*
X69676125Y-64031592D01*
X69547630Y-64201745D01*
X69452594Y-64392604D01*
X69452594Y-64392606D01*
X69394242Y-64597688D01*
X69383469Y-64713950D01*
X69357683Y-64778887D01*
X69313128Y-64810803D01*
X69204620Y-64810803D01*
X69206867Y-64809193D01*
X69170495Y-64788330D01*
X69138305Y-64726317D01*
X69136527Y-64713950D01*
X69130967Y-64653950D01*
X69125754Y-64597689D01*
X69067403Y-64392610D01*
X69067401Y-64392605D01*
X69067401Y-64392604D01*
X68972365Y-64201745D01*
X68843870Y-64031592D01*
X68843869Y-64031591D01*
X68686300Y-63887947D01*
X68505017Y-63775701D01*
X68505015Y-63775700D01*
X68405606Y-63737189D01*
X68306196Y-63698678D01*
X68096608Y-63659499D01*
X67883388Y-63659499D01*
X67673800Y-63698678D01*
X67673797Y-63698678D01*
X67673797Y-63698679D01*
X67474980Y-63775700D01*
X67474978Y-63775701D01*
X67293697Y-63887946D01*
X67136125Y-64031592D01*
X67007630Y-64201745D01*
X66912594Y-64392604D01*
X66912594Y-64392606D01*
X66854242Y-64597688D01*
X66843469Y-64713950D01*
X66817683Y-64778887D01*
X66773128Y-64810803D01*
X66809501Y-64831667D01*
X66841691Y-64893680D01*
X66843469Y-64906047D01*
X66854242Y-65022309D01*
X66912594Y-65227391D01*
X66912594Y-65227393D01*
X67007630Y-65418252D01*
X67136124Y-65588404D01*
X67136126Y-65588406D01*
X67293696Y-65732051D01*
X67474979Y-65844297D01*
X67510293Y-65857977D01*
X67565692Y-65900547D01*
X67589284Y-65966313D01*
X67589498Y-65973602D01*
X67589498Y-65984519D01*
X67589498Y-66089973D01*
X67599364Y-66126793D01*
X67616791Y-66191835D01*
X67634364Y-66222271D01*
X67669518Y-66283159D01*
X67669519Y-66283160D01*
X67669520Y-66283161D01*
X69127931Y-67741571D01*
X69127941Y-67741582D01*
X69132271Y-67745912D01*
X69132272Y-67745913D01*
X69206839Y-67820480D01*
X69284444Y-67865285D01*
X69289342Y-67868113D01*
X69337557Y-67918681D01*
X69350779Y-67987288D01*
X69324811Y-68052153D01*
X69267896Y-68092680D01*
X69227341Y-68099500D01*
X65575509Y-68099500D01*
X65508470Y-68079815D01*
X65487828Y-68063181D01*
X63439321Y-66014674D01*
X63405836Y-65953351D01*
X63410820Y-65883659D01*
X63452692Y-65827726D01*
X63461714Y-65821573D01*
X63606299Y-65732050D01*
X63763869Y-65588405D01*
X63892363Y-65418253D01*
X63987399Y-65227394D01*
X63987400Y-65227392D01*
X63987400Y-65227391D01*
X63987402Y-65227387D01*
X64045753Y-65022308D01*
X64056526Y-64906039D01*
X64082312Y-64841104D01*
X64124613Y-64810801D01*
X64233135Y-64810801D01*
X64269500Y-64831661D01*
X64301690Y-64893673D01*
X64303468Y-64906041D01*
X64314242Y-65022309D01*
X64372594Y-65227391D01*
X64372594Y-65227393D01*
X64467630Y-65418252D01*
X64596124Y-65588404D01*
X64596126Y-65588406D01*
X64753696Y-65732051D01*
X64934979Y-65844297D01*
X65133800Y-65921320D01*
X65343388Y-65960499D01*
X65343390Y-65960499D01*
X65556606Y-65960499D01*
X65556608Y-65960499D01*
X65766196Y-65921320D01*
X65965017Y-65844297D01*
X66146300Y-65732051D01*
X66303870Y-65588406D01*
X66432364Y-65418254D01*
X66432365Y-65418251D01*
X66527401Y-65227393D01*
X66527401Y-65227392D01*
X66527403Y-65227388D01*
X66585754Y-65022309D01*
X66596527Y-64906046D01*
X66622313Y-64841110D01*
X66666867Y-64809193D01*
X66630495Y-64788330D01*
X66598305Y-64726317D01*
X66596527Y-64713950D01*
X66590967Y-64653950D01*
X66585754Y-64597689D01*
X66527403Y-64392610D01*
X66527401Y-64392605D01*
X66527401Y-64392604D01*
X66432365Y-64201745D01*
X66303870Y-64031592D01*
X66303869Y-64031591D01*
X66146300Y-63887947D01*
X65965017Y-63775701D01*
X65965015Y-63775700D01*
X65865606Y-63737189D01*
X65766196Y-63698678D01*
X65556608Y-63659499D01*
X65343388Y-63659499D01*
X65133800Y-63698678D01*
X65133797Y-63698678D01*
X65133797Y-63698679D01*
X64934980Y-63775700D01*
X64934978Y-63775701D01*
X64753697Y-63887946D01*
X64596125Y-64031592D01*
X64467630Y-64201745D01*
X64372594Y-64392604D01*
X64372594Y-64392606D01*
X64314242Y-64597688D01*
X64303468Y-64713956D01*
X64277682Y-64778893D01*
X64233135Y-64810801D01*
X64124613Y-64810801D01*
X64126858Y-64809193D01*
X64090494Y-64788334D01*
X64058304Y-64726322D01*
X64056527Y-64713964D01*
X64045753Y-64597688D01*
X63987402Y-64392609D01*
X63987400Y-64392604D01*
X63987400Y-64392603D01*
X63892364Y-64201744D01*
X63763869Y-64031591D01*
X63606299Y-63887946D01*
X63425016Y-63775700D01*
X63425014Y-63775699D01*
X63249726Y-63707793D01*
X63226195Y-63698677D01*
X63016607Y-63659498D01*
X62803387Y-63659498D01*
X62593799Y-63698677D01*
X62593796Y-63698677D01*
X62593796Y-63698678D01*
X62394979Y-63775699D01*
X62394977Y-63775700D01*
X62213696Y-63887945D01*
X62056124Y-64031591D01*
X61927629Y-64201744D01*
X61832593Y-64392603D01*
X61832593Y-64392605D01*
X61774241Y-64597687D01*
X61763468Y-64713945D01*
X61737682Y-64778882D01*
X61693117Y-64810803D01*
X61729500Y-64831673D01*
X61761690Y-64893685D01*
X61763468Y-64906052D01*
X61774241Y-65022308D01*
X61832593Y-65227390D01*
X61832593Y-65227392D01*
X61927629Y-65418251D01*
X62056124Y-65588404D01*
X62056125Y-65588405D01*
X62213695Y-65732050D01*
X62394978Y-65844296D01*
X62430292Y-65857976D01*
X62485691Y-65900546D01*
X62509283Y-65966312D01*
X62509497Y-65973602D01*
X62509497Y-66104469D01*
X62536790Y-66206332D01*
X62545993Y-66222271D01*
X62589517Y-66297656D01*
X65112341Y-68820480D01*
X65194152Y-68867714D01*
X65194843Y-68868113D01*
X65243058Y-68918681D01*
X65256280Y-68987288D01*
X65230312Y-69052153D01*
X65173397Y-69092680D01*
X65132842Y-69099500D01*
X61507470Y-69099500D01*
X61440431Y-69079815D01*
X61419789Y-69063181D01*
X58366710Y-66010102D01*
X58333225Y-65948779D01*
X58338209Y-65879087D01*
X58380081Y-65823154D01*
X58389100Y-65817003D01*
X58526301Y-65732052D01*
X58683871Y-65588407D01*
X58812365Y-65418255D01*
X58907404Y-65227389D01*
X58965755Y-65022310D01*
X58976527Y-64906052D01*
X59002313Y-64841117D01*
X59044629Y-64810804D01*
X59153118Y-64810804D01*
X59189501Y-64831674D01*
X59221691Y-64893686D01*
X59223469Y-64906053D01*
X59226822Y-64942237D01*
X59234242Y-65022310D01*
X59292592Y-65227387D01*
X59292594Y-65227392D01*
X59292594Y-65227394D01*
X59387630Y-65418253D01*
X59516124Y-65588405D01*
X59516126Y-65588407D01*
X59673696Y-65732052D01*
X59854979Y-65844298D01*
X60053800Y-65921321D01*
X60263388Y-65960500D01*
X60263390Y-65960500D01*
X60476606Y-65960500D01*
X60476608Y-65960500D01*
X60686196Y-65921321D01*
X60885017Y-65844298D01*
X61066300Y-65732052D01*
X61223870Y-65588407D01*
X61352364Y-65418255D01*
X61447403Y-65227389D01*
X61505754Y-65022310D01*
X61516526Y-64906052D01*
X61542312Y-64841116D01*
X61586875Y-64809193D01*
X61550494Y-64788324D01*
X61518304Y-64726311D01*
X61516526Y-64713944D01*
X61510967Y-64653950D01*
X61505754Y-64597690D01*
X61447403Y-64392611D01*
X61447401Y-64392606D01*
X61447401Y-64392605D01*
X61352365Y-64201746D01*
X61223870Y-64031593D01*
X61096121Y-63915134D01*
X61066300Y-63887948D01*
X60885017Y-63775702D01*
X60885015Y-63775701D01*
X60709722Y-63707793D01*
X60686196Y-63698679D01*
X60476608Y-63659500D01*
X60263388Y-63659500D01*
X60053800Y-63698679D01*
X60053797Y-63698679D01*
X60053797Y-63698680D01*
X59854980Y-63775701D01*
X59854978Y-63775702D01*
X59673697Y-63887947D01*
X59516125Y-64031593D01*
X59387630Y-64201746D01*
X59292594Y-64392605D01*
X59292594Y-64392607D01*
X59234242Y-64597689D01*
X59223469Y-64713946D01*
X59197683Y-64778883D01*
X59153118Y-64810804D01*
X59044629Y-64810804D01*
X59046876Y-64809194D01*
X59010495Y-64788324D01*
X58978305Y-64726312D01*
X58976527Y-64713945D01*
X58972028Y-64665390D01*
X58965755Y-64597690D01*
X58907404Y-64392611D01*
X58907402Y-64392606D01*
X58907402Y-64392605D01*
X58812366Y-64201746D01*
X58683871Y-64031593D01*
X58556122Y-63915134D01*
X58526301Y-63887948D01*
X58345018Y-63775702D01*
X58345016Y-63775701D01*
X58169723Y-63707793D01*
X58146197Y-63698679D01*
X57936609Y-63659500D01*
X57723389Y-63659500D01*
X57513801Y-63698679D01*
X57513798Y-63698679D01*
X57513798Y-63698680D01*
X57314981Y-63775701D01*
X57314979Y-63775702D01*
X57133698Y-63887947D01*
X56976126Y-64031593D01*
X56847631Y-64201746D01*
X56752595Y-64392605D01*
X56752595Y-64392607D01*
X56694243Y-64597689D01*
X56676579Y-64788324D01*
X56674570Y-64810000D01*
X56694243Y-65022310D01*
X56752593Y-65227387D01*
X56752595Y-65227392D01*
X56752595Y-65227394D01*
X56847631Y-65418253D01*
X56976125Y-65588405D01*
X56976127Y-65588407D01*
X57133697Y-65732052D01*
X57314980Y-65844298D01*
X57350294Y-65857978D01*
X57405693Y-65900548D01*
X57429285Y-65966314D01*
X57429499Y-65973602D01*
X57429499Y-65987057D01*
X57429499Y-66092511D01*
X57438685Y-66126793D01*
X57456792Y-66194373D01*
X57483155Y-66240034D01*
X57509519Y-66285697D01*
X57509521Y-66285699D01*
X60379406Y-69155584D01*
X60412891Y-69216907D01*
X60407907Y-69286599D01*
X60366035Y-69342532D01*
X60300571Y-69366949D01*
X60265078Y-69364368D01*
X60259747Y-69363194D01*
X59903949Y-69324500D01*
X59903948Y-69324500D01*
X59546052Y-69324500D01*
X59546050Y-69324500D01*
X59190255Y-69363194D01*
X58840726Y-69440131D01*
X58584970Y-69526306D01*
X58501565Y-69554409D01*
X58501563Y-69554410D01*
X58501552Y-69554414D01*
X58176755Y-69704680D01*
X58176751Y-69704682D01*
X57948367Y-69842096D01*
X57870081Y-69889200D01*
X57819985Y-69927282D01*
X57585172Y-70105781D01*
X57585163Y-70105789D01*
X57325331Y-70351914D01*
X57093641Y-70624680D01*
X57093634Y-70624690D01*
X56892790Y-70920913D01*
X56892784Y-70920922D01*
X56725151Y-71237111D01*
X56725142Y-71237129D01*
X56592674Y-71569600D01*
X56592672Y-71569607D01*
X56496932Y-71914434D01*
X56496926Y-71914460D01*
X56439029Y-72267614D01*
X56439028Y-72267627D01*
X56439028Y-72267629D01*
X56438036Y-72285925D01*
X56419652Y-72624997D01*
X56419652Y-72625002D01*
X56422318Y-72674172D01*
X56436162Y-72929519D01*
X56439028Y-72982368D01*
X56439029Y-72982385D01*
X56496926Y-73335539D01*
X56496932Y-73335565D01*
X56592672Y-73680392D01*
X56592674Y-73680399D01*
X56725142Y-74012870D01*
X56725151Y-74012888D01*
X56892784Y-74329077D01*
X56892787Y-74329082D01*
X56892789Y-74329085D01*
X57086409Y-74614654D01*
X57093634Y-74625309D01*
X57093641Y-74625319D01*
X57314503Y-74885337D01*
X57325332Y-74898086D01*
X57585163Y-75144211D01*
X57870081Y-75360800D01*
X58176747Y-75545315D01*
X58176749Y-75545316D01*
X58176751Y-75545317D01*
X58176755Y-75545319D01*
X58482948Y-75686978D01*
X58501565Y-75695591D01*
X58840726Y-75809868D01*
X59190254Y-75886805D01*
X59546052Y-75925500D01*
X59546058Y-75925500D01*
X59903942Y-75925500D01*
X59903948Y-75925500D01*
X60259746Y-75886805D01*
X60609274Y-75809868D01*
X60948435Y-75695591D01*
X61273253Y-75545315D01*
X61322205Y-75515861D01*
X61389794Y-75498165D01*
X61456223Y-75519821D01*
X61500399Y-75573953D01*
X61508296Y-75643374D01*
X61477407Y-75706045D01*
X61473814Y-75709792D01*
X56745426Y-80438181D01*
X56684103Y-80471666D01*
X56657745Y-80474500D01*
X54697273Y-80474500D01*
X54595410Y-80501793D01*
X54504087Y-80554520D01*
X54504084Y-80554522D01*
X52149522Y-82909084D01*
X52149518Y-82909090D01*
X52096792Y-83000412D01*
X52096793Y-83000413D01*
X52069500Y-83102273D01*
X52069500Y-83523166D01*
X52049815Y-83590205D01*
X51997011Y-83635960D01*
X51927853Y-83645904D01*
X51870014Y-83621542D01*
X51765018Y-83540976D01*
X51765016Y-83540975D01*
X51637186Y-83488027D01*
X51637184Y-83488026D01*
X51637183Y-83488026D01*
X51526539Y-83473459D01*
X51500001Y-83469965D01*
X51499999Y-83469965D01*
X51362815Y-83488026D01*
X51297451Y-83515100D01*
X51227981Y-83522567D01*
X51202549Y-83515100D01*
X51137184Y-83488026D01*
X51000001Y-83469965D01*
X50999999Y-83469965D01*
X50862815Y-83488026D01*
X50797451Y-83515100D01*
X50727981Y-83522567D01*
X50702549Y-83515100D01*
X50637184Y-83488026D01*
X50500001Y-83469965D01*
X50499999Y-83469965D01*
X50362815Y-83488026D01*
X50297451Y-83515100D01*
X50227981Y-83522567D01*
X50202549Y-83515100D01*
X50137184Y-83488026D01*
X50000001Y-83469965D01*
X49999999Y-83469965D01*
X49862815Y-83488026D01*
X49797451Y-83515100D01*
X49727981Y-83522567D01*
X49702549Y-83515100D01*
X49637181Y-83488025D01*
X49620869Y-83485877D01*
X49556973Y-83457608D01*
X49518505Y-83399282D01*
X49514122Y-83379137D01*
X49511974Y-83362817D01*
X49484898Y-83297451D01*
X49477430Y-83227983D01*
X49484897Y-83202551D01*
X49511974Y-83137183D01*
X49530035Y-83000000D01*
X49511974Y-82862817D01*
X49459024Y-82734983D01*
X49374791Y-82625209D01*
X49374789Y-82625208D01*
X49374789Y-82625207D01*
X49265015Y-82540974D01*
X49137186Y-82488027D01*
X49137184Y-82488026D01*
X49137183Y-82488026D01*
X49045727Y-82475985D01*
X49000001Y-82469965D01*
X48999999Y-82469965D01*
X48931408Y-82478995D01*
X48862817Y-82488026D01*
X48862816Y-82488026D01*
X48862813Y-82488027D01*
X48734985Y-82540974D01*
X48625209Y-82625209D01*
X48540973Y-82734986D01*
X48539060Y-82739607D01*
X48495219Y-82794010D01*
X48428924Y-82816074D01*
X48361225Y-82798794D01*
X48313615Y-82747656D01*
X48300500Y-82692153D01*
X48300500Y-55500000D01*
X48894615Y-55500000D01*
X48914140Y-55847688D01*
X48914142Y-55847700D01*
X48972472Y-56191009D01*
X48972474Y-56191017D01*
X48994637Y-56267945D01*
X49068879Y-56525644D01*
X49202145Y-56847376D01*
X49370595Y-57152164D01*
X49572112Y-57436176D01*
X49804161Y-57695839D01*
X50063824Y-57927888D01*
X50347836Y-58129405D01*
X50652624Y-58297855D01*
X50974356Y-58431121D01*
X51308987Y-58527527D01*
X51652307Y-58585859D01*
X52000000Y-58605385D01*
X52347693Y-58585859D01*
X52691013Y-58527527D01*
X53025644Y-58431121D01*
X53347376Y-58297855D01*
X53652164Y-58129405D01*
X53936176Y-57927888D01*
X54195839Y-57695839D01*
X54427888Y-57436176D01*
X54629405Y-57152164D01*
X54797855Y-56847376D01*
X54931121Y-56525644D01*
X55027527Y-56191013D01*
X55085859Y-55847693D01*
X55105385Y-55500000D01*
X80894615Y-55500000D01*
X80914140Y-55847688D01*
X80914142Y-55847700D01*
X80972472Y-56191009D01*
X80972474Y-56191017D01*
X80994637Y-56267945D01*
X81068879Y-56525644D01*
X81202145Y-56847376D01*
X81370595Y-57152164D01*
X81572112Y-57436176D01*
X81804161Y-57695839D01*
X82063824Y-57927888D01*
X82347836Y-58129405D01*
X82652624Y-58297855D01*
X82974356Y-58431121D01*
X83308987Y-58527527D01*
X83652307Y-58585859D01*
X84000000Y-58605385D01*
X84347693Y-58585859D01*
X84691013Y-58527527D01*
X85025644Y-58431121D01*
X85347376Y-58297855D01*
X85652164Y-58129405D01*
X85936176Y-57927888D01*
X86195839Y-57695839D01*
X86427888Y-57436176D01*
X86629405Y-57152164D01*
X86797855Y-56847376D01*
X86931121Y-56525644D01*
X87027527Y-56191013D01*
X87085859Y-55847693D01*
X87105385Y-55500000D01*
X87085859Y-55152307D01*
X87027527Y-54808987D01*
X86931121Y-54474356D01*
X86797855Y-54152624D01*
X86629405Y-53847836D01*
X86427888Y-53563824D01*
X86195839Y-53304161D01*
X85936176Y-53072112D01*
X85652164Y-52870595D01*
X85347376Y-52702145D01*
X85025644Y-52568879D01*
X84858328Y-52520676D01*
X84691017Y-52472474D01*
X84691009Y-52472472D01*
X84347700Y-52414142D01*
X84347688Y-52414140D01*
X84000000Y-52394615D01*
X83652311Y-52414140D01*
X83652299Y-52414142D01*
X83308990Y-52472472D01*
X83308982Y-52472474D01*
X83025585Y-52554120D01*
X82974356Y-52568879D01*
X82925869Y-52588963D01*
X82652625Y-52702144D01*
X82347835Y-52870595D01*
X82147294Y-53012887D01*
X82135584Y-53021196D01*
X82063823Y-53072113D01*
X81804161Y-53304161D01*
X81572113Y-53563823D01*
X81370595Y-53847835D01*
X81202144Y-54152625D01*
X81068878Y-54474359D01*
X80972474Y-54808982D01*
X80972472Y-54808990D01*
X80914142Y-55152299D01*
X80914140Y-55152311D01*
X80894615Y-55500000D01*
X55105385Y-55500000D01*
X55085859Y-55152307D01*
X55027527Y-54808987D01*
X54931121Y-54474356D01*
X54797855Y-54152624D01*
X54629405Y-53847836D01*
X54427888Y-53563824D01*
X54195839Y-53304161D01*
X53936176Y-53072112D01*
X53652164Y-52870595D01*
X53347376Y-52702145D01*
X53025644Y-52568879D01*
X52858328Y-52520676D01*
X52691017Y-52472474D01*
X52691009Y-52472472D01*
X52347700Y-52414142D01*
X52347688Y-52414140D01*
X52000000Y-52394615D01*
X51652311Y-52414140D01*
X51652299Y-52414142D01*
X51308990Y-52472472D01*
X51308982Y-52472474D01*
X51025585Y-52554120D01*
X50974356Y-52568879D01*
X50925869Y-52588963D01*
X50652625Y-52702144D01*
X50347835Y-52870595D01*
X50147294Y-53012887D01*
X50135584Y-53021196D01*
X50063823Y-53072113D01*
X49804161Y-53304161D01*
X49572113Y-53563823D01*
X49370595Y-53847835D01*
X49202144Y-54152625D01*
X49068878Y-54474359D01*
X48972474Y-54808982D01*
X48972472Y-54808990D01*
X48914142Y-55152299D01*
X48914140Y-55152311D01*
X48894615Y-55500000D01*
X48300500Y-55500000D01*
X48300500Y-53504427D01*
X48300816Y-53495581D01*
X48317165Y-53266982D01*
X48319683Y-53249470D01*
X48367459Y-53029851D01*
X48372436Y-53012900D01*
X48450985Y-52802299D01*
X48458325Y-52786227D01*
X48566044Y-52588956D01*
X48575600Y-52574086D01*
X48710294Y-52394156D01*
X48721868Y-52380799D01*
X48880799Y-52221868D01*
X48894156Y-52210294D01*
X49074086Y-52075600D01*
X49088956Y-52066044D01*
X49286227Y-51958325D01*
X49302299Y-51950985D01*
X49512900Y-51872436D01*
X49529851Y-51867459D01*
X49749472Y-51819682D01*
X49766977Y-51817165D01*
X49995582Y-51800816D01*
X50004428Y-51800500D01*
X50047595Y-51800500D01*
X85952405Y-51800500D01*
X85995572Y-51800500D01*
X86004418Y-51800816D01*
G37*
G04 #@! TD.AperFunction*
G04 #@! TA.AperFunction,Conductor*
G36*
X79505700Y-64432540D02*
G01*
X79512178Y-64438572D01*
X82537424Y-67463818D01*
X82570909Y-67525141D01*
X82565925Y-67594833D01*
X82524053Y-67650766D01*
X82458589Y-67675183D01*
X82414809Y-67670476D01*
X82343370Y-67649500D01*
X82343367Y-67649500D01*
X82206633Y-67649500D01*
X82206632Y-67649500D01*
X82075440Y-67688021D01*
X81960413Y-67761942D01*
X81960409Y-67761946D01*
X81870872Y-67865278D01*
X81870867Y-67865285D01*
X81814070Y-67989654D01*
X81814068Y-67989662D01*
X81794610Y-68125000D01*
X81814068Y-68260337D01*
X81814070Y-68260345D01*
X81870867Y-68384714D01*
X81870872Y-68384721D01*
X81960409Y-68488053D01*
X81960413Y-68488057D01*
X82020979Y-68526979D01*
X82075439Y-68561978D01*
X82109435Y-68571960D01*
X82206632Y-68600500D01*
X82206633Y-68600500D01*
X82343367Y-68600500D01*
X82440565Y-68571960D01*
X82510434Y-68571960D01*
X82569213Y-68609734D01*
X82598238Y-68673290D01*
X82599500Y-68690937D01*
X82599500Y-69407745D01*
X82579815Y-69474784D01*
X82563181Y-69495426D01*
X82374333Y-69684273D01*
X82313010Y-69717758D01*
X82243318Y-69712774D01*
X82219614Y-69700908D01*
X82199565Y-69688024D01*
X82199558Y-69688020D01*
X82068368Y-69649500D01*
X82068367Y-69649500D01*
X81931633Y-69649500D01*
X81931632Y-69649500D01*
X81800440Y-69688021D01*
X81685413Y-69761942D01*
X81685409Y-69761946D01*
X81595872Y-69865278D01*
X81595867Y-69865285D01*
X81539070Y-69989654D01*
X81539068Y-69989662D01*
X81522238Y-70106721D01*
X81515531Y-70121406D01*
X81518477Y-70125990D01*
X81522238Y-70143278D01*
X81539068Y-70260337D01*
X81539070Y-70260345D01*
X81595867Y-70384714D01*
X81595872Y-70384721D01*
X81633135Y-70427725D01*
X81685411Y-70488055D01*
X81729924Y-70516661D01*
X81775679Y-70569465D01*
X81785623Y-70638623D01*
X81785623Y-70638624D01*
X81769610Y-70750000D01*
X81769610Y-70758869D01*
X81767457Y-70758869D01*
X81759227Y-70816104D01*
X81713473Y-70868908D01*
X81685413Y-70886941D01*
X81685409Y-70886944D01*
X81595872Y-70990276D01*
X81595867Y-70990283D01*
X81539070Y-71114652D01*
X81539068Y-71114660D01*
X81522238Y-71231719D01*
X81515531Y-71246404D01*
X81518477Y-71250988D01*
X81522238Y-71268276D01*
X81539068Y-71385335D01*
X81539070Y-71385343D01*
X81595867Y-71509712D01*
X81595872Y-71509719D01*
X81685409Y-71613051D01*
X81685413Y-71613055D01*
X81713471Y-71631086D01*
X81759227Y-71683889D01*
X81767461Y-71741132D01*
X81769610Y-71741132D01*
X81769610Y-71758869D01*
X81767458Y-71758869D01*
X81759225Y-71816112D01*
X81713474Y-71868909D01*
X81685414Y-71886942D01*
X81685409Y-71886946D01*
X81595870Y-71990282D01*
X81595867Y-71990285D01*
X81539070Y-72114654D01*
X81539068Y-72114662D01*
X81522238Y-72231721D01*
X81515531Y-72246406D01*
X81518477Y-72250990D01*
X81522238Y-72268278D01*
X81539068Y-72385337D01*
X81539070Y-72385345D01*
X81595867Y-72509714D01*
X81595872Y-72509721D01*
X81685409Y-72613053D01*
X81685413Y-72613057D01*
X81713471Y-72631088D01*
X81759227Y-72683891D01*
X81767460Y-72741132D01*
X81769610Y-72741132D01*
X81769610Y-72758868D01*
X81767459Y-72758868D01*
X81759224Y-72816115D01*
X81713474Y-72868909D01*
X81685414Y-72886942D01*
X81685409Y-72886946D01*
X81595870Y-72990282D01*
X81595868Y-72990284D01*
X81579393Y-73026359D01*
X81533637Y-73079162D01*
X81466598Y-73098845D01*
X81399559Y-73079159D01*
X81378919Y-73062526D01*
X81311819Y-72995426D01*
X81278334Y-72934103D01*
X81275500Y-72907745D01*
X81275500Y-72285925D01*
X81285681Y-72251251D01*
X81276762Y-72231721D01*
X81275500Y-72214074D01*
X81275500Y-71285923D01*
X81285681Y-71251249D01*
X81276762Y-71231719D01*
X81275500Y-71214072D01*
X81275500Y-70160925D01*
X81285681Y-70126251D01*
X81276762Y-70106721D01*
X81275500Y-70089074D01*
X81275500Y-69187361D01*
X81279725Y-69155267D01*
X81294668Y-69099500D01*
X81300502Y-69077728D01*
X81300502Y-68972274D01*
X81294456Y-68949710D01*
X81287476Y-68923658D01*
X81287476Y-68923657D01*
X81273209Y-68870416D01*
X81273208Y-68870413D01*
X81220481Y-68779088D01*
X81141583Y-68700190D01*
X81141572Y-68700180D01*
X78613572Y-66172179D01*
X78580087Y-66110856D01*
X78585071Y-66041164D01*
X78626943Y-65985231D01*
X78692407Y-65960814D01*
X78701253Y-65960498D01*
X79044854Y-65960498D01*
X79044862Y-65960498D01*
X79044877Y-65960496D01*
X79044880Y-65960496D01*
X79069985Y-65957585D01*
X79069986Y-65957584D01*
X79069989Y-65957584D01*
X79172763Y-65912205D01*
X79252204Y-65832764D01*
X79297583Y-65729990D01*
X79300498Y-65704864D01*
X79300497Y-64526252D01*
X79320182Y-64459214D01*
X79372985Y-64413459D01*
X79442144Y-64403515D01*
X79505700Y-64432540D01*
G37*
G04 #@! TD.AperFunction*
G04 #@! TA.AperFunction,Conductor*
G36*
X80330701Y-69022539D02*
G01*
X80337179Y-69028571D01*
X80438181Y-69129573D01*
X80471666Y-69190896D01*
X80474500Y-69217254D01*
X80474500Y-72858745D01*
X80454815Y-72925784D01*
X80402011Y-72971539D01*
X80332853Y-72981483D01*
X80269297Y-72952458D01*
X80262819Y-72946426D01*
X80161817Y-72845424D01*
X80128332Y-72784101D01*
X80125498Y-72757743D01*
X80125498Y-69116252D01*
X80145183Y-69049213D01*
X80197987Y-69003458D01*
X80267145Y-68993514D01*
X80330701Y-69022539D01*
G37*
G04 #@! TD.AperFunction*
M02*
